<?xml version="1.0" standalone="no"?><!DOCTYPE svg PUBLIC "-//W3C//DTD SVG 1.1//EN" "http://www.w3.org/Graphics/SVG/1.1/DTD/svg11.dtd"><svg width="100%" height="100%" viewBox="0 0 175 153" version="1.1" xmlns="http://www.w3.org/2000/svg" xmlns:xlink="http://www.w3.org/1999/xlink" xml:space="preserve" style="fill-rule:evenodd;clip-rule:evenodd;stroke-linejoin:round;stroke-miterlimit:1.41421;"><path d="M169.496,40.786c0,-19.523 -15.85,-35.373 -35.373,-35.373l-93.337,0c-19.523,0 -35.373,15.85 -35.373,35.373l0,70.746c0,19.523 15.85,35.373 35.373,35.373l93.337,0c19.523,0 35.373,-15.85 35.373,-35.373l0,-70.746l0,0Z" style="fill:#280f25;stroke-width:6.25px;stroke:#280f25;"/><path d="M129.909,50.741c0,-10.358 -8.931,-17.15 -19.642,-17.15l-33.334,0.186l-13.995,-0.193c-10.711,0 -19.914,6.406 -19.914,16.764l0,37.535c0,10.358 8.696,18.768 19.407,18.768l0.107,0c2.089,2.887 -1.075,6.164 -3.386,9.43c8.925,-0.794 15.435,-4.199 17.579,-9.43c14.916,0.021 23.783,0.004 35.844,0c10.711,0 17.823,-8.498 17.823,-18.856l-0.489,-37.054l0,0Z" style="fill:#fff;"/><path d="M111.529,53.68c0.05,0.009 0.099,0.015 0.148,0.027c0.146,0.036 0.285,0.099 0.409,0.184c0.291,0.201 0.486,0.523 0.528,0.874c0.012,0.099 0.012,0.2 0,0.3c-0.018,0.149 -0.063,0.295 -0.133,0.428c-0.07,0.133 -0.164,0.253 -0.277,0.353c-0.15,0.133 -0.332,0.228 -0.527,0.276c-0.13,0.032 -0.165,0.028 -0.298,0.037l-49.017,0c-0.05,-0.003 -0.101,-0.004 -0.15,-0.01c-0.149,-0.018 -0.295,-0.063 -0.428,-0.133c-0.133,-0.07 -0.254,-0.164 -0.353,-0.276c-0.1,-0.113 -0.179,-0.244 -0.232,-0.384c-0.125,-0.331 -0.103,-0.706 0.061,-1.019c0.047,-0.089 0.104,-0.172 0.171,-0.247c0.166,-0.188 0.389,-0.323 0.633,-0.383c0.13,-0.032 0.165,-0.028 0.298,-0.036l49.017,0l0.15,0.009Z" style="fill:#280f25;fill-rule:nonzero;"/><path d="M111.529,64.801c0.131,0.024 0.166,0.025 0.291,0.072c0.188,0.071 0.357,0.188 0.49,0.338c0.235,0.265 0.347,0.624 0.304,0.975c-0.012,0.1 -0.036,0.197 -0.072,0.291c-0.053,0.141 -0.132,0.271 -0.232,0.384c-0.099,0.112 -0.219,0.206 -0.353,0.276c-0.133,0.07 -0.278,0.116 -0.428,0.134c-0.049,0.006 -0.1,0.006 -0.15,0.009l-49.017,0c-0.133,-0.008 -0.168,-0.004 -0.298,-0.036c-0.244,-0.06 -0.467,-0.195 -0.633,-0.383c-0.1,-0.113 -0.179,-0.243 -0.232,-0.384c-0.125,-0.33 -0.103,-0.706 0.061,-1.019c0.047,-0.089 0.104,-0.172 0.171,-0.247c0.099,-0.112 0.22,-0.206 0.353,-0.276c0.133,-0.07 0.279,-0.116 0.428,-0.134c0.049,-0.006 0.1,-0.006 0.15,-0.009l49.017,0l0.15,0.009Z" style="fill:#280f25;fill-rule:nonzero;"/><path d="M111.529,75.923c0.131,0.024 0.166,0.024 0.291,0.071c0.188,0.072 0.357,0.188 0.49,0.339c0.235,0.264 0.347,0.624 0.304,0.974c-0.012,0.1 -0.036,0.198 -0.072,0.291c-0.053,0.141 -0.132,0.272 -0.232,0.384c-0.099,0.113 -0.219,0.207 -0.353,0.277c-0.133,0.069 -0.278,0.115 -0.428,0.133c-0.049,0.006 -0.1,0.006 -0.15,0.009l-49.017,0c-0.133,-0.008 -0.168,-0.004 -0.298,-0.036c-0.244,-0.06 -0.467,-0.195 -0.633,-0.383c-0.235,-0.264 -0.347,-0.624 -0.304,-0.975c0.012,-0.099 0.036,-0.197 0.072,-0.291c0.053,-0.14 0.132,-0.271 0.232,-0.383c0.099,-0.113 0.22,-0.207 0.353,-0.277c0.133,-0.07 0.279,-0.115 0.428,-0.133c0.049,-0.006 0.1,-0.006 0.15,-0.009l49.017,0l0.15,0.009Z" style="fill:#280f25;fill-rule:nonzero;"/><path d="M111.529,87.044c0.05,0.009 0.099,0.015 0.148,0.027c0.146,0.036 0.285,0.098 0.409,0.184c0.124,0.085 0.232,0.193 0.317,0.317c0.201,0.291 0.269,0.661 0.184,1.004c-0.024,0.098 -0.06,0.192 -0.106,0.281c-0.07,0.133 -0.164,0.253 -0.277,0.352c-0.15,0.134 -0.332,0.229 -0.527,0.277c-0.13,0.032 -0.165,0.028 -0.298,0.036l-49.017,0c-0.133,-0.008 -0.168,-0.004 -0.298,-0.036c-0.244,-0.06 -0.467,-0.195 -0.633,-0.383c-0.235,-0.264 -0.347,-0.624 -0.304,-0.974c0.012,-0.1 0.036,-0.198 0.072,-0.292c0.053,-0.14 0.132,-0.271 0.232,-0.383c0.099,-0.113 0.22,-0.207 0.353,-0.277c0.133,-0.07 0.279,-0.115 0.428,-0.133c0.049,-0.006 0.1,-0.006 0.15,-0.009l49.017,0l0.15,0.009Z" style="fill:#280f25;fill-rule:nonzero;"/><path d="M111.514,31.945c0.176,0.002 0.353,0.004 0.529,0.01c0.567,0.018 1.133,0.059 1.696,0.123c1.524,0.174 3.029,0.521 4.476,1.031c1.958,0.691 3.808,1.681 5.471,2.925c1.648,1.232 3.11,2.712 4.323,4.374c1.2,1.645 2.154,3.468 2.82,5.393c0.487,1.41 0.819,2.873 0.988,4.355c0.055,0.477 0.093,0.955 0.114,1.434c0.012,0.264 0.018,0.528 0.02,0.792c0.04,12.697 0.041,25.394 0,38.09c-0.002,0.265 -0.008,0.529 -0.02,0.793c-0.021,0.479 -0.059,0.957 -0.114,1.434c-0.174,1.524 -0.52,3.027 -1.03,4.474c-0.868,2.464 -2.213,4.755 -3.936,6.72c-1.058,1.206 -2.256,2.29 -3.564,3.22c-1.558,1.107 -3.27,1.998 -5.073,2.633c-1.365,0.481 -2.781,0.817 -4.217,0.999c-0.518,0.066 -1.038,0.112 -1.56,0.139c-0.308,0.015 -0.616,0.023 -0.924,0.026c-1.47,0.003 -2.94,0.002 -4.41,0.002c-4.735,0.003 -9.47,0.007 -14.204,0.009c-4.597,0 -9.194,-0.002 -13.792,-0.007l-1.589,-0.002c-0.035,0.069 -0.072,0.138 -0.108,0.206c-0.036,0.068 -0.073,0.136 -0.111,0.203c-0.29,0.516 -0.614,1.011 -0.971,1.483c-0.204,0.269 -0.418,0.531 -0.641,0.784c-0.208,0.236 -0.424,0.465 -0.647,0.686c-1.577,1.567 -3.488,2.766 -5.51,3.67c-0.382,0.171 -0.767,0.331 -1.157,0.482c-0.485,0.188 -0.976,0.361 -1.472,0.52c-0.664,0.214 -7.759,6.826 -8.437,6.992c-1.234,0.304 -2.485,0.534 -3.745,0.703c-0.415,0.056 5.592,-6.318 5.175,-6.275c-0.07,0.007 -0.141,0.014 -0.211,0.021c-0.148,0.014 -0.293,0.032 -0.443,0.025c-0.157,-0.008 -0.311,-0.037 -0.46,-0.088c-0.148,-0.051 -6.712,6.3 -6.84,6.209c-0.322,-0.226 -0.555,-0.567 -0.652,-0.948c-0.038,-0.152 -0.055,-0.309 -0.049,-0.466c0.005,-0.157 0.033,-0.312 0.082,-0.461c0.025,-0.074 0.055,-0.147 0.09,-0.217c0.065,-0.132 0.144,-0.24 0.227,-0.36c0.111,-0.16 0.223,-0.32 0.335,-0.479c0.366,-0.516 0.739,-1.027 1.106,-1.542c0.106,-0.149 0.21,-0.297 0.315,-0.447c0.335,-0.483 0.663,-0.973 0.958,-1.482c0.212,-0.366 0.408,-0.742 0.564,-1.134c0.037,-0.093 0.072,-0.188 0.104,-0.283c0.147,-0.438 0.238,-0.912 0.142,-1.371l-0.004,-0.018l-0.003,-0.013c-0.084,-0.004 -0.168,-0.008 -0.251,-0.012c-0.262,-0.016 -0.522,-0.035 -0.783,-0.06c-0.473,-0.045 -0.944,-0.107 -1.413,-0.184c-1.38,-0.229 3.687,-7.023 2.383,-7.528c-1.24,-0.481 -2.434,-1.083 -3.558,-1.795c-1.322,-0.837 -2.549,-1.824 -3.648,-2.938c-1.013,-1.025 -1.919,-2.156 -2.697,-3.369c-0.854,-1.331 -1.554,-2.761 -2.08,-4.253c-0.509,-1.447 -0.855,-2.95 -1.03,-4.474c-0.054,-0.477 -0.092,-0.955 -0.113,-1.434c-0.012,-0.264 -0.018,-0.528 -0.021,-0.793c-0.04,-12.696 -0.04,-25.393 0,-38.09c0.003,-0.264 0.009,-0.528 0.021,-0.792c0.023,-0.522 0.066,-1.044 0.128,-1.563c0.174,-1.438 0.501,-2.857 0.974,-4.226c0.665,-1.925 1.62,-3.748 2.82,-5.393c1.213,-1.662 2.674,-3.142 4.322,-4.374c1.663,-1.244 3.513,-2.234 5.472,-2.925c1.446,-0.51 2.951,-0.857 4.475,-1.031c0.564,-0.064 1.13,-0.105 1.697,-0.123c0.176,-0.006 0.352,-0.008 0.528,-0.01c4.799,-0.016 9.597,-0.027 14.395,-0.034c11.579,-0.016 23.159,-0.005 34.738,0.034l0,0ZM62.517,35.261c-0.186,0.001 -0.372,0.003 -0.559,0.009c-0.476,0.015 -0.952,0.05 -1.426,0.104c-1.276,0.145 -2.536,0.435 -3.748,0.863c-1.642,0.579 -3.194,1.41 -4.589,2.453c-1.383,1.035 -2.61,2.277 -3.629,3.673c-1.006,1.379 -1.807,2.907 -2.364,4.521c-0.397,1.147 -0.67,2.336 -0.816,3.541c-0.079,0.657 -0.119,1.317 -0.125,1.978c-0.04,12.683 -0.04,25.366 0,38.048c0.006,0.662 0.046,1.322 0.125,1.979c0.154,1.274 0.451,2.531 0.886,3.74c0.729,2.029 1.844,3.915 3.266,5.536c0.888,1.013 1.894,1.923 2.992,2.703c1.307,0.929 2.742,1.676 4.254,2.209c1.143,0.403 -4.093,7.107 -2.89,7.26c0.729,0.093 4.599,4.596 4.483,5.128c-0.175,0.797 -0.492,1.556 -0.872,2.276c-0.302,0.574 -0.646,1.124 -1.005,1.664l-0.027,0.04c0.792,-0.163 1.578,-0.352 2.354,-0.579c0.575,-0.169 7.567,-6.781 8.128,-6.99c0.46,-0.172 0.913,-0.36 1.359,-0.563c0.336,-0.153 0.668,-0.316 0.994,-0.489c0.232,-0.123 0.461,-0.251 0.687,-0.384c1.502,-0.885 11.533,-6.381 14.071,-6.379c8.382,0.005 16.763,-0.003 25.145,-0.007c0.76,-0.001 1.521,0 2.282,-0.002c0.259,-0.002 0.518,-0.009 0.777,-0.022c0.437,-0.022 0.874,-0.061 1.309,-0.116c1.203,-0.153 2.389,-0.434 3.533,-0.837c1.512,-0.533 2.947,-1.28 4.253,-2.209c1.098,-0.78 2.104,-1.69 2.993,-2.703c1.444,-1.647 2.573,-3.569 3.301,-5.635c0.427,-1.213 0.717,-2.473 0.863,-3.75c0.071,-0.621 0.106,-1.245 0.112,-1.87c0.041,-12.682 0.041,-25.365 0,-38.048c-0.006,-0.661 -0.045,-1.321 -0.125,-1.978c-0.145,-1.205 -0.419,-2.394 -0.815,-3.541c-0.558,-1.614 -1.358,-3.142 -2.365,-4.521c-1.018,-1.396 -2.245,-2.638 -3.629,-3.673c-1.395,-1.043 -2.946,-1.874 -4.589,-2.453c-1.211,-0.428 -2.472,-0.718 -3.748,-0.863c-0.363,-0.042 -0.728,-0.072 -1.093,-0.09c-0.259,-0.013 -0.519,-0.02 -0.778,-0.023c-16.325,-0.054 -32.65,0 -48.975,0l0,0Z" style="fill:#280f25;fill-rule:nonzero;"/></svg>