<?xml version="1.0" standalone="no"?><!DOCTYPE svg PUBLIC "-//W3C//DTD SVG 1.1//EN" "http://www.w3.org/Graphics/SVG/1.1/DTD/svg11.dtd"><svg width="100%" height="100%" viewBox="0 0 175 153" version="1.1" xmlns="http://www.w3.org/2000/svg" xmlns:xlink="http://www.w3.org/1999/xlink" xml:space="preserve" style="fill-rule:evenodd;clip-rule:evenodd;stroke-linejoin:round;stroke-miterlimit:1.41421;"><path d="M169.496,40.786c0,-19.523 -15.85,-35.373 -35.373,-35.373l-93.337,0c-19.523,0 -35.373,15.85 -35.373,35.373l0,70.746c0,19.523 15.85,35.373 35.373,35.373l93.337,0c19.523,0 35.373,-15.85 35.373,-35.373l0,-70.746Z" style="fill:#b4dfc3;stroke-width:6.25px;stroke:#b4dfc3;"/><ellipse cx="87.454" cy="76.159" rx="43.192" ry="44.042" style="fill:#fff;stroke-width:6.25px;stroke:#b4dfc3;"/><path d="M73.841,35.769c0,0 27.223,20.847 33.917,77.61" style="fill:none;stroke-width:6.25px;stroke:#b4dfc3;"/><path d="M44.262,74.331c0,0 62.159,4.901 73.797,-29.312" style="fill:none;stroke-width:6.25px;stroke:#b4dfc3;"/><path d="M127.675,85.07c0,0 -38.793,-3.991 -59.773,28.309" style="fill:none;stroke-width:6.25px;stroke:#b4dfc3;"/></svg>