<?xml version="1.0" standalone="no"?><!DOCTYPE svg PUBLIC "-//W3C//DTD SVG 1.1//EN" "http://www.w3.org/Graphics/SVG/1.1/DTD/svg11.dtd"><svg width="100%" height="100%" viewBox="0 0 175 153" version="1.1" xmlns="http://www.w3.org/2000/svg" xmlns:xlink="http://www.w3.org/1999/xlink" xml:space="preserve" style="fill-rule:evenodd;clip-rule:evenodd;stroke-linejoin:round;stroke-miterlimit:1.41421;"><path d="M169.496,40.786c0,-19.523 -15.85,-35.373 -35.373,-35.373l-93.337,0c-19.523,0 -35.373,15.85 -35.373,35.373l0,70.746c0,19.523 15.85,35.373 35.373,35.373l93.337,0c19.523,0 35.373,-15.85 35.373,-35.373l0,-70.746Z" style="fill:#b4dfc3;stroke-width:6.25px;stroke:#b4dfc3;"/><path d="M77.204,120.943l0.004,-12.644c0,0 -6.436,2.11 -11.682,-1.155c-4.953,-3.083 -4.988,-10.696 -11.73,-14.974c-5.55,-3.523 -1.575,-5.062 3.922,-2.214c5.217,2.703 6.954,12.692 19.069,10.142c0.553,-0.117 0.425,-12.204 0.509,-12.411c-12.18,-1.055 -32.537,-13.386 -15.259,-42c0.245,-0.406 -2.912,-7.824 -1.956,-15.056c4.879,0.852 11.781,3.14 15.302,7.07l29.094,0.378c4.468,-3.78 8.38,-6.206 13.726,-7.471c1.795,5.907 1.266,11.182 -0.154,16.215c14.842,27.195 -2.21,40.673 -16.176,41.081c-0.162,0.005 -0.243,33.327 -0.388,33.34c-7.363,0.689 -16.336,0.633 -24.281,-0.301Z" style="fill:#fff;"/></svg>