<?xml version="1.0" standalone="no"?><!DOCTYPE svg PUBLIC "-//W3C//DTD SVG 1.1//EN" "http://www.w3.org/Graphics/SVG/1.1/DTD/svg11.dtd"><svg width="100%" height="100%" viewBox="0 0 175 153" version="1.1" xmlns="http://www.w3.org/2000/svg" xmlns:xlink="http://www.w3.org/1999/xlink" xml:space="preserve" style="fill-rule:evenodd;clip-rule:evenodd;stroke-linejoin:round;stroke-miterlimit:1.41421;"><path d="M169.496,40.786c0,-19.523 -15.85,-35.373 -35.373,-35.373l-93.337,0c-19.523,0 -35.373,15.85 -35.373,35.373l0,70.746c0,19.523 15.85,35.373 35.373,35.373l93.337,0c19.523,0 35.373,-15.85 35.373,-35.373l0,-70.746Z" style="fill:#b4dfc3;stroke-width:6.25px;stroke:#b4dfc3;"/><path d="M124.425,54.991c0,-10.218 -8.296,-18.514 -18.515,-18.514l-37.029,0c-10.218,0 -18.514,8.296 -18.514,18.514l0,42.335c0,10.218 8.296,18.515 18.514,18.515l37.029,0c10.219,0 18.515,-8.297 18.515,-18.515l0,-42.335Z" style="fill:#b4dfc3;stroke-width:6.25px;stroke:#fff;"/><rect x="50.367" y="53.758" width="75.559" height="24.858" style="fill:#fff;"/><rect x="57.196" y="38.311" width="58.684" height="26.31" style="fill:#fff;"/><path d="M58.08,39.334l-9.098,15.182l23.105,13.665l9.098,-15.182l-23.105,-13.665Z" style="fill:#fff;"/><path d="M125.926,53.816l-10.55,-13.771l-20.793,16.122l10.551,13.77l20.792,-16.121Z" style="fill:#fff;"/><circle cx="87.396" cy="76.518" r="18.514" style="fill:#b4dfc3;stroke-width:6.25px;stroke:#fff;"/><path d="M118.757,48.039c0,-2.346 -1.905,-4.251 -4.251,-4.251l-8.502,0c-2.346,0 -4.251,1.905 -4.251,4.251l0,8.799c0,2.346 1.905,4.251 4.251,4.251l8.502,0c2.346,0 4.251,-1.905 4.251,-4.251l0,-8.799Z" style="fill:#b4dfc3;stroke-width:2.97px;stroke:#fff;"/></svg>