<?xml version="1.0" standalone="no"?><!DOCTYPE svg PUBLIC "-//W3C//DTD SVG 1.1//EN" "http://www.w3.org/Graphics/SVG/1.1/DTD/svg11.dtd"><svg width="100%" height="100%" viewBox="0 0 175 153" version="1.1" xmlns="http://www.w3.org/2000/svg" xmlns:xlink="http://www.w3.org/1999/xlink" xml:space="preserve" style="fill-rule:evenodd;clip-rule:evenodd;stroke-linejoin:round;stroke-miterlimit:1.41421;"><path d="M169.496,40.786c0,-19.523 -15.85,-35.373 -35.373,-35.373l-93.337,0c-19.523,0 -35.373,15.85 -35.373,35.373l0,70.746c0,19.523 15.85,35.373 35.373,35.373l93.337,0c19.523,0 35.373,-15.85 35.373,-35.373l0,-70.746Z" style="fill:#280f25;stroke-width:6.25px;stroke:#280f25;"/><path d="M85.83,58.635c0,-7.673 -6.23,-13.902 -13.902,-13.902l-27.805,0c-7.673,0 -13.902,6.229 -13.902,13.902l0,34.085c0,7.673 6.229,13.902 13.902,13.902l27.805,0c7.672,0 13.902,-6.229 13.902,-13.902l0,-34.085Z" style="fill:#fff;stroke-width:0.75px;stroke:#fff;"/><path d="M106.918,48.483l39.752,0" style="fill:#fff;stroke-width:4.69px;stroke-linecap:round;stroke:#fff;"/><path d="M106.918,66.899l39.752,0" style="fill:#fff;stroke-width:4.69px;stroke-linecap:round;stroke:#fff;"/><path d="M106.918,85.315l39.752,0" style="fill:#fff;stroke-width:4.69px;stroke-linecap:round;stroke:#fff;"/><path d="M106.918,103.731l39.752,0" style="fill:#fff;stroke-width:4.69px;stroke-linecap:round;stroke:#fff;"/></svg>