<?xml version="1.0" standalone="no"?><!DOCTYPE svg PUBLIC "-//W3C//DTD SVG 1.1//EN" "http://www.w3.org/Graphics/SVG/1.1/DTD/svg11.dtd"><svg width="100%" height="100%" viewBox="0 0 175 153" version="1.1" xmlns="http://www.w3.org/2000/svg" xmlns:xlink="http://www.w3.org/1999/xlink" xml:space="preserve" style="fill-rule:evenodd;clip-rule:evenodd;stroke-linejoin:round;stroke-miterlimit:1.41421;"><path d="M169.496,40.786c0,-19.523 -15.85,-35.373 -35.373,-35.373l-93.337,0c-19.523,0 -35.373,15.85 -35.373,35.373l0,70.746c0,19.523 15.85,35.373 35.373,35.373l93.337,0c19.523,0 35.373,-15.85 35.373,-35.373l0,-70.746Z" style="fill:#280f25;stroke-width:6.25px;stroke:#280f25;"/><path d="M77.724,36.477l12.469,0l-0.344,19.179l17.963,0.419l-0.1,11.58l-17.181,-0.511l-0.286,29.03c0,0 4.241,9.955 20.253,1.391c0.465,-0.249 0.102,13.382 0.102,13.382c-4.529,3.459 -30.494,12.841 -38.114,-9.757c-0.105,-0.309 0.254,-33.775 0.254,-33.775l-8.566,-0.388l0.138,-10.573c0,0 12.377,-1.759 13.412,-19.977Z" style="fill:#fff;"/></svg>