<?xml version="1.0" standalone="no"?><!DOCTYPE svg PUBLIC "-//W3C//DTD SVG 1.1//EN" "http://www.w3.org/Graphics/SVG/1.1/DTD/svg11.dtd"><svg width="100%" height="100%" viewBox="0 0 175 153" version="1.1" xmlns="http://www.w3.org/2000/svg" xmlns:xlink="http://www.w3.org/1999/xlink" xml:space="preserve" style="fill-rule:evenodd;clip-rule:evenodd;stroke-linejoin:round;stroke-miterlimit:1.41421;"><path d="M169.496,40.786c0,-19.523 -15.85,-35.373 -35.373,-35.373l-93.337,0c-19.523,0 -35.373,15.85 -35.373,35.373l0,70.746c0,19.523 15.85,35.373 35.373,35.373l93.337,0c19.523,0 35.373,-15.85 35.373,-35.373l0,-70.746Z" style="fill:#280f25;stroke-width:6.25px;stroke:#280f25;"/><path d="M50.456,107.151c0,0 73.204,33.107 77.609,-50.353c0.147,-2.778 5.256,-5.407 6.009,-7.697c0.752,-2.29 -7.34,1.137 -8.326,0.239c-0.986,-0.898 5.443,-6.037 5.897,-7.226c0.454,-1.188 -7.247,2.248 -11.698,1.377c-4.451,-0.87 -9.663,-9.211 -20.982,-1.68c-7.245,4.82 -8.433,14.338 -5.754,19.681c2.679,5.342 -27.58,-3.755 -40.098,-17.43c-3.421,-3.736 -1.089,19.522 6.026,23.045c2.013,0.996 -4.722,-0.642 -6.197,0.122c-0.402,0.208 -3.038,8.047 12.64,16.853c0.601,0.337 -7.358,0.94 -7.408,1.333c-0.568,4.539 7.478,10.996 16.005,11.293c3.12,0.108 -1.322,4.499 -7.111,6.198c-7.363,2.162 -16.612,4.245 -16.612,4.245Z" style="fill:#fff;stroke-width:0.47px;stroke:#b4dfc3;"/></svg>