<?xml version="1.0" standalone="no"?><!DOCTYPE svg PUBLIC "-//W3C//DTD SVG 1.1//EN" "http://www.w3.org/Graphics/SVG/1.1/DTD/svg11.dtd"><svg width="100%" height="100%" viewBox="0 0 241 366" version="1.1" xmlns="http://www.w3.org/2000/svg" xmlns:xlink="http://www.w3.org/1999/xlink" xml:space="preserve" style="fill-rule:evenodd;clip-rule:evenodd;stroke-linejoin:round;stroke-miterlimit:1.41421;"><g><path d="M95.007,16.397c0,0 3.156,21.849 23.907,21.562c20.75,-0.287 27.402,1.176 29.058,14.848c1.616,13.35 -3.092,20.624 -3.092,20.624c0,0 -14.648,-6.935 -26.464,-0.711c-11.816,6.224 -43.936,-0.704 -23.409,-56.323Z" style="fill:#b4dfc3;"/><path d="M95.246,14.968c0.158,0.036 0.2,0.038 0.349,0.104c0.335,0.149 0.606,0.425 0.748,0.763c0.024,0.056 0.044,0.113 0.061,0.172c0.023,0.086 0.032,0.145 0.044,0.223c0.014,0.081 0.014,0.081 0.028,0.162c0.016,0.09 0.033,0.18 0.05,0.27c0.144,0.738 0.324,1.469 0.53,2.192c0.286,1.006 0.621,1.997 1.005,2.97c0.196,0.496 0.405,0.988 0.626,1.474c1.232,2.703 2.87,5.244 4.971,7.354c0.293,0.294 0.594,0.579 0.904,0.855c0.394,0.351 0.803,0.687 1.224,1.006c0.609,0.46 1.244,0.884 1.903,1.268c1.128,0.657 2.323,1.196 3.561,1.612c1.513,0.507 3.085,0.829 4.672,0.99c0.949,0.097 1.903,0.135 2.856,0.127c0.519,-0.006 1.038,-0.013 1.557,-0.018c2.451,-0.023 4.903,-0.025 7.353,0.051c1.063,0.033 2.126,0.081 3.188,0.153c1.019,0.069 2.038,0.16 3.052,0.285c1.576,0.195 3.148,0.469 4.677,0.904c1.407,0.401 2.78,0.942 4.035,1.699c0.519,0.313 1.016,0.662 1.484,1.048c0.525,0.433 1.013,0.912 1.455,1.43c0.72,0.843 1.316,1.787 1.799,2.784c0.444,0.918 0.795,1.879 1.078,2.858c0.286,0.99 0.505,2 0.678,3.016c0.136,0.794 0.244,1.593 0.333,2.393c0.114,1.023 0.196,2.049 0.243,3.077c0.106,2.27 0.044,4.55 -0.215,6.808c-0.18,1.559 -0.452,3.107 -0.832,4.63c-0.354,1.416 -0.798,2.811 -1.358,4.159c-0.207,0.5 -0.431,0.993 -0.676,1.476c-0.157,0.311 -0.323,0.619 -0.507,0.916l-0.018,0.028c-0.034,0.047 -0.065,0.097 -0.102,0.141c-0.073,0.09 -0.157,0.171 -0.25,0.241c-0.186,0.14 -0.405,0.233 -0.634,0.272c-0.172,0.028 -0.348,0.026 -0.519,-0.008c-0.057,-0.011 -0.113,-0.026 -0.168,-0.044c-0.086,-0.028 -0.164,-0.065 -0.245,-0.102c-0.07,-0.032 -0.073,-0.033 -0.15,-0.067c-0.123,-0.054 -0.245,-0.106 -0.369,-0.158c-0.871,-0.364 -1.758,-0.688 -2.654,-0.982c-1.123,-0.368 -2.261,-0.688 -3.411,-0.958c-1.345,-0.315 -2.705,-0.562 -4.076,-0.728c-1.285,-0.155 -2.579,-0.24 -3.874,-0.238c-2.225,0.003 -4.457,0.262 -6.604,0.862c-0.951,0.265 -1.885,0.597 -2.788,0.998c-0.263,0.117 -0.523,0.239 -0.781,0.368c-0.182,0.09 -0.362,0.186 -0.543,0.279c-0.078,0.04 -0.157,0.079 -0.236,0.118c-0.322,0.156 -0.648,0.302 -0.98,0.437c-0.9,0.365 -1.831,0.651 -2.778,0.869c-1.141,0.262 -2.304,0.425 -3.472,0.498c-1.2,0.075 -2.405,0.054 -3.602,-0.06c-2.472,-0.235 -4.909,-0.868 -7.172,-1.895c-1.576,-0.715 -3.065,-1.621 -4.422,-2.696c-1.004,-0.797 -1.935,-1.685 -2.781,-2.648c-0.625,-0.712 -1.203,-1.464 -1.733,-2.249c-1.04,-1.539 -1.892,-3.202 -2.57,-4.931c-0.662,-1.687 -1.16,-3.437 -1.521,-5.213c-0.397,-1.951 -0.631,-3.933 -0.738,-5.92c-0.135,-2.501 -0.07,-5.01 0.138,-7.505c0.256,-3.084 0.73,-6.148 1.353,-9.178c0.482,-2.341 1.053,-4.664 1.694,-6.966c0.683,-2.455 1.445,-4.887 2.269,-7.298c0.293,-0.859 0.595,-1.715 0.904,-2.569c0.079,-0.218 0.158,-0.436 0.238,-0.653c0.042,-0.115 0.125,-0.361 0.193,-0.494c0.028,-0.054 0.06,-0.106 0.094,-0.156c0.173,-0.251 0.425,-0.443 0.713,-0.544c0.115,-0.041 0.235,-0.066 0.356,-0.077c0.06,-0.005 0.121,-0.003 0.182,-0.004c0.061,0.006 0.121,0.012 0.181,0.019ZM94.713,21.618c-0.298,0.9 -0.588,1.804 -0.867,2.71c-0.985,3.197 -1.847,6.433 -2.53,9.708c-0.686,3.286 -1.194,6.614 -1.424,9.964c-0.189,2.74 -0.191,5.498 0.089,8.232c0.214,2.096 0.596,4.179 1.204,6.198c0.527,1.747 1.226,3.446 2.128,5.034c0.482,0.848 1.022,1.664 1.621,2.434c0.672,0.866 1.418,1.675 2.23,2.411c1.126,1.02 2.379,1.896 3.721,2.606c2.853,1.508 6.09,2.257 9.312,2.234c1.068,-0.008 2.135,-0.1 3.187,-0.284c0.884,-0.155 1.758,-0.375 2.605,-0.672c0.446,-0.156 0.884,-0.334 1.31,-0.536c0.25,-0.118 0.492,-0.248 0.738,-0.374c0.099,-0.05 0.199,-0.099 0.298,-0.148c0.833,-0.405 1.688,-0.761 2.563,-1.063c0.602,-0.208 1.212,-0.391 1.829,-0.55c0.454,-0.118 0.912,-0.222 1.373,-0.314c3.079,-0.614 6.253,-0.662 9.368,-0.319c0.535,0.059 1.068,0.129 1.6,0.21c0.633,0.097 1.265,0.21 1.893,0.336c0.919,0.186 1.832,0.402 2.737,0.647c1.528,0.413 3.034,0.908 4.506,1.488l0.022,0.009c0.241,-0.506 0.458,-1.023 0.657,-1.547c0.287,-0.753 0.536,-1.521 0.753,-2.297c0.597,-2.135 0.953,-4.334 1.117,-6.543c0.196,-2.634 0.115,-5.285 -0.185,-7.908c-0.095,-0.835 -0.213,-1.667 -0.366,-2.493c-0.12,-0.647 -0.261,-1.291 -0.432,-1.927c-0.307,-1.138 -0.71,-2.257 -1.279,-3.291c-0.362,-0.657 -0.793,-1.277 -1.297,-1.833c-0.428,-0.471 -0.906,-0.892 -1.423,-1.262c-0.471,-0.336 -0.973,-0.627 -1.493,-0.88c-0.58,-0.283 -1.182,-0.519 -1.795,-0.719c-0.698,-0.228 -1.41,-0.412 -2.129,-0.564c-0.397,-0.085 -0.796,-0.16 -1.196,-0.227c-0.577,-0.097 -1.156,-0.178 -1.736,-0.248c-0.799,-0.095 -1.6,-0.169 -2.402,-0.227c-0.95,-0.069 -1.901,-0.118 -2.853,-0.153c-1.405,-0.051 -2.811,-0.073 -4.217,-0.08c-1.196,-0.006 -2.391,-0.001 -3.586,0.011c-0.316,0.003 -0.632,0.007 -0.948,0.011c-0.246,0.003 -0.491,0.007 -0.737,0.009c-0.126,0 -0.252,0 -0.378,-0.001c-0.774,-0.007 -1.548,-0.04 -2.319,-0.108c-1.534,-0.136 -3.058,-0.403 -4.541,-0.818c-1.478,-0.414 -2.914,-0.976 -4.277,-1.683c-0.876,-0.455 -1.721,-0.969 -2.527,-1.538c-0.795,-0.56 -1.552,-1.173 -2.269,-1.83c-1.361,-1.25 -2.57,-2.661 -3.626,-4.177c-1.327,-1.905 -2.413,-3.974 -3.282,-6.126c-0.232,-0.576 -0.447,-1.157 -0.649,-1.744l-0.01,-0.031c-0.03,0.087 -0.059,0.175 -0.088,0.263Z" style="fill:#b4dfc3;fill-rule:nonzero;"/><path d="M98.755,39.562c0.043,0.006 0.087,0.009 0.13,0.017c0.086,0.016 0.17,0.042 0.25,0.079c0.2,0.091 0.37,0.243 0.482,0.431c0.068,0.113 0.114,0.238 0.137,0.367c0.016,0.087 0.021,0.175 0.015,0.262c-0.005,0.069 -0.018,0.134 -0.029,0.202c-0.005,0.035 -0.009,0.07 -0.012,0.105c-0.022,0.269 -0.007,0.54 0.023,0.808c0.038,0.345 0.103,0.686 0.182,1.024c0.126,0.533 0.29,1.056 0.483,1.568c0.223,0.593 0.484,1.17 0.778,1.73c0.586,1.116 1.305,2.164 2.149,3.101c0.662,0.737 1.403,1.403 2.213,1.975c0.624,0.44 1.288,0.823 1.983,1.14c0.921,0.42 1.894,0.721 2.889,0.906c0.933,0.172 1.883,0.242 2.831,0.226c0.786,-0.014 1.57,-0.087 2.346,-0.208c0.228,-0.036 0.455,-0.075 0.681,-0.119c0.226,-0.043 0.452,-0.09 0.677,-0.135c0.147,-0.028 0.294,-0.056 0.441,-0.084c0.358,-0.067 0.717,-0.131 1.077,-0.191c0.747,-0.124 1.497,-0.231 2.25,-0.319c0.876,-0.102 1.756,-0.177 2.637,-0.22c0.633,-0.031 1.267,-0.045 1.9,-0.039c0.484,0.005 0.966,0.021 1.449,0.049c0.404,0.025 0.807,0.058 1.209,0.101c2.213,0.237 4.416,0.778 6.409,1.789c0.27,0.137 0.535,0.282 0.796,0.436c0.352,0.208 0.695,0.431 1.026,0.67c0.482,0.348 0.94,0.729 1.369,1.14c0.699,0.672 1.315,1.426 1.841,2.24c0.177,0.273 0.343,0.553 0.501,0.837c0.116,0.208 0.226,0.419 0.341,0.627c0.02,0.036 0.04,0.071 0.062,0.107c0.009,0.014 0.009,0.014 0.018,0.028l0.066,0.113c0.018,0.04 0.038,0.079 0.053,0.12c0.06,0.165 0.079,0.344 0.056,0.518c-0.012,0.086 -0.034,0.172 -0.066,0.253c-0.08,0.204 -0.223,0.382 -0.405,0.504c-0.109,0.074 -0.232,0.127 -0.36,0.157c-0.128,0.03 -0.261,0.036 -0.391,0.018c-0.262,-0.035 -0.506,-0.167 -0.678,-0.367c-0.053,-0.06 -0.097,-0.127 -0.14,-0.195c-0.04,-0.065 -0.078,-0.132 -0.116,-0.2c-0.103,-0.186 -0.202,-0.374 -0.304,-0.561c-0.177,-0.32 -0.364,-0.634 -0.567,-0.937c-0.305,-0.455 -0.645,-0.887 -1.018,-1.288c-0.332,-0.356 -0.689,-0.688 -1.067,-0.993c-0.252,-0.204 -0.513,-0.396 -0.782,-0.576c-0.201,-0.135 -0.407,-0.263 -0.616,-0.384c-1.602,-0.931 -3.405,-1.471 -5.227,-1.758c-0.299,-0.047 -0.599,-0.087 -0.899,-0.121c-0.413,-0.047 -0.827,-0.082 -1.241,-0.107c-0.549,-0.033 -1.1,-0.047 -1.65,-0.047c-0.717,0.002 -1.434,0.029 -2.149,0.078c-0.923,0.063 -1.843,0.162 -2.76,0.29c-0.744,0.104 -1.485,0.227 -2.224,0.365c-0.212,0.04 -0.424,0.081 -0.636,0.123c-0.157,0.032 -0.314,0.064 -0.471,0.095c-0.113,0.021 -0.226,0.042 -0.338,0.062c-0.519,0.09 -1.041,0.164 -1.565,0.215c-0.971,0.096 -1.949,0.118 -2.923,0.054c-1.069,-0.07 -2.132,-0.246 -3.164,-0.536c-1.107,-0.312 -2.177,-0.756 -3.179,-1.322c-0.865,-0.489 -1.678,-1.068 -2.427,-1.72c-1.005,-0.875 -1.895,-1.88 -2.659,-2.972c-0.488,-0.697 -0.925,-1.429 -1.308,-2.188c-0.321,-0.637 -0.605,-1.293 -0.845,-1.964c-0.168,-0.471 -0.315,-0.949 -0.436,-1.434c-0.111,-0.45 -0.201,-0.906 -0.255,-1.367c-0.019,-0.152 -0.033,-0.306 -0.042,-0.459c-0.019,-0.301 -0.019,-0.605 0.011,-0.906c0.01,-0.095 0.023,-0.189 0.04,-0.283c0.011,-0.059 0.022,-0.115 0.041,-0.173c0.093,-0.295 0.312,-0.54 0.595,-0.666c0.08,-0.035 0.164,-0.061 0.25,-0.076c0.043,-0.008 0.087,-0.01 0.131,-0.016c0.044,0.001 0.087,0.001 0.131,0.001Z" style="fill:#280f25;fill-rule:nonzero;"/><path d="M158.488,71.608c0,0 6.439,-27.003 29.519,-32.014c7.246,-1.574 -8.4,-24.4 -16.965,-16.915c-16.508,14.428 -20.724,29.8 -25.045,49.244c-4.322,19.443 12.491,-0.315 12.491,-0.315Z" style="fill:#280f25;"/><path d="M157.311,71.848c0,0 78.244,-1.075 79.764,58.491c1.731,67.834 3.045,214.825 3.045,214.825c0.096,-0.977 -164.82,-1.224 -165.145,-2.123c-2.488,-83.153 -1.306,-142.77 -1.969,-212.682c0,0 3.351,-58.779 84.305,-58.511Z" style="fill:#b4dfc3;"/><path d="M220.672,295.768c0,-11.894 -9.657,-21.55 -21.55,-21.55l-86.776,0c-11.894,0 -21.55,9.656 -21.55,21.55c0,11.894 9.656,21.55 21.55,21.55l86.776,0c11.893,0 21.55,-9.656 21.55,-21.55Z" style="fill:#dffaf1;"/><path d="M110.763,303.278c4.696,1.132 8.004,4.146 7.382,6.727c-0.622,2.581 -4.94,3.758 -9.637,2.626c-4.696,-1.132 -8.004,-4.147 -7.382,-6.728c0.622,-2.581 4.94,-3.757 9.637,-2.625Z" style="fill:#f9d6ce;"/><path d="M199.04,303.419c-4.805,1.287 -8.149,4.415 -7.462,6.979c0.688,2.565 5.147,3.602 9.952,2.314c4.805,-1.288 8.149,-4.415 7.462,-6.979c-0.688,-2.565 -5.147,-3.602 -9.952,-2.314Z" style="fill:#f9d6ce;"/><path d="M106.325,340.657c0,-4.309 -3.498,-7.808 -7.807,-7.808l-15.615,0c-4.309,0 -7.807,3.499 -7.807,7.808l0,16.34c0,4.309 3.498,7.808 7.807,7.808l15.615,0c4.309,0 7.807,-3.499 7.807,-7.808l0,-16.34Z" style="fill:#b4dfc3;"/><path d="M240.292,340.657c0,-4.309 -3.498,-7.808 -7.807,-7.808l-15.615,0c-4.309,0 -7.807,3.499 -7.807,7.808l0,16.34c0,4.309 3.498,7.808 7.807,7.808l15.615,0c4.309,0 7.807,-3.499 7.807,-7.808l0,-16.34Z" style="fill:#b4dfc3;"/><path d="M194.382,340.397c0,-4.309 -3.499,-7.807 -7.807,-7.807l-15.615,0c-4.309,0 -7.807,3.498 -7.807,7.807l0,16.341c0,4.309 3.498,7.807 7.807,7.807l15.615,0c4.308,0 7.807,-3.498 7.807,-7.807l0,-16.341Z" style="fill:#b4dfc3;"/><path d="M149.572,340.657c0,-4.309 -3.498,-7.808 -7.807,-7.808l-15.614,0c-4.309,0 -7.808,3.499 -7.808,7.808l0,16.34c0,4.309 3.499,7.808 7.808,7.808l15.614,0c4.309,0 7.807,-3.499 7.807,-7.808l0,-16.34Z" style="fill:#b4dfc3;"/><g id="Layer2"><path d="M188.183,306.722c0,0 -3.923,-20.369 6.47,-23.893c8.872,-3.007 16.679,5.452 15.336,18.009c-0.149,1.388 -6.575,-3.541 -21.901,5.309" style="fill:#280f25;"/><path d="M122.993,306.722c0,0 3.825,-20.369 -6.31,-23.893c-8.652,-3.007 -16.265,5.452 -14.955,18.009c0.145,1.388 6.411,-3.541 21.357,5.309" style="fill:#280f25;"/></g><g id="Layer3"><path d="M224.253,215.479c0.269,0.137 0.564,0.233 0.808,0.411c0.496,0.359 0.865,0.867 1.055,1.449c0.093,0.287 0.095,0.597 0.142,0.896c0.002,1.745 0.002,3.491 0.001,5.236c0,1.786 -0.002,3.572 -0.005,5.358l-0.001,1.01c-0.125,0.783 -0.072,1.038 -0.557,1.703c-0.178,0.245 -0.397,0.464 -0.642,0.641c-0.245,0.177 -0.521,0.317 -0.809,0.41c-0.583,0.189 -1.21,0.188 -1.792,-0.003c-0.287,-0.093 -0.563,-0.235 -0.808,-0.413c-0.244,-0.178 -0.463,-0.397 -0.64,-0.642c-0.483,-0.667 -0.428,-0.922 -0.551,-1.705c0.003,-1.648 0.005,-3.295 0.006,-4.943c0.001,-1.989 0.001,-3.977 0,-5.966l0,-0.682c0.047,-0.299 0.048,-0.608 0.141,-0.896c0.189,-0.583 0.557,-1.09 1.052,-1.451c0.245,-0.177 0.52,-0.318 0.808,-0.412c0.287,-0.094 0.597,-0.095 0.896,-0.143c0.299,0.048 0.597,0.095 0.896,0.142ZM224.124,186.479c0.271,0.136 0.566,0.23 0.812,0.406c0.498,0.357 0.87,0.862 1.063,1.443c0.096,0.287 0.099,0.596 0.148,0.895c0.01,1.278 0.018,2.557 0.026,3.835c0.012,2.015 0.024,4.031 0.033,6.046c0.003,0.6 0.099,1.906 -0.13,2.62c-0.092,0.288 -0.231,0.565 -0.408,0.81c-0.176,0.245 -0.394,0.466 -0.638,0.644c-0.494,0.363 -1.09,0.559 -1.702,0.562c-0.302,0.001 -0.608,-0.046 -0.897,-0.138c-0.288,-0.092 -0.564,-0.231 -0.81,-0.408c-0.245,-0.177 -0.465,-0.395 -0.644,-0.639c-0.487,-0.663 -0.434,-0.919 -0.562,-1.701c-0.005,-1.237 -0.011,-2.474 -0.017,-3.711c-0.014,-2.38 -0.028,-4.76 -0.044,-7.14l-0.005,-0.739c0.045,-0.299 0.044,-0.609 0.135,-0.897c0.092,-0.288 0.23,-0.565 0.406,-0.811c0.357,-0.498 0.862,-0.871 1.443,-1.064c0.287,-0.095 0.596,-0.099 0.895,-0.148c0.299,0.045 0.598,0.09 0.896,0.135ZM223.77,157.479c0.272,0.133 0.567,0.225 0.815,0.399c0.501,0.352 0.878,0.853 1.076,1.433c0.098,0.286 0.105,0.595 0.157,0.893c0.022,1.344 0.042,2.687 0.062,4.031c0.032,2.17 0.061,4.34 0.089,6.51l0.013,1.067c-0.115,0.785 -0.057,1.039 -0.533,1.711c-0.175,0.247 -0.391,0.468 -0.634,0.649c-0.242,0.181 -0.516,0.325 -0.803,0.422c-0.286,0.097 -0.592,0.149 -0.894,0.153c-0.612,0.007 -1.211,-0.179 -1.711,-0.533c-0.247,-0.175 -0.468,-0.391 -0.649,-0.634c-0.492,-0.66 -0.441,-0.916 -0.575,-1.697c-0.013,-1.077 -0.026,-2.154 -0.04,-3.231c-0.029,-2.165 -0.06,-4.329 -0.094,-6.493l-0.017,-1.079l-0.012,-0.782l0.127,-0.898c0.133,-0.272 0.225,-0.567 0.399,-0.815c0.352,-0.501 0.853,-0.878 1.432,-1.076c0.286,-0.099 0.596,-0.105 0.894,-0.157c0.299,0.043 0.599,0.085 0.898,0.127ZM222.431,128.435c0.285,0.101 0.589,0.158 0.855,0.302c0.539,0.291 0.971,0.746 1.235,1.298c0.131,0.273 0.178,0.578 0.259,0.87c0.011,0.041 0.011,0.085 0.017,0.128c0.01,0.078 0.02,0.156 0.03,0.234c0.05,0.395 0.096,0.79 0.139,1.185c0.123,1.143 0.216,2.289 0.281,3.436c0.034,0.594 0.059,1.189 0.079,1.783c0.022,0.756 0.042,1.511 0.063,2.266c0.018,0.677 0.036,1.354 0.053,2.031c0.015,0.581 0.072,1.145 -0.098,1.716c-0.086,0.29 -0.22,0.57 -0.391,0.819c-0.172,0.249 -0.385,0.473 -0.625,0.657c-0.24,0.184 -0.513,0.332 -0.798,0.432c-0.577,0.204 -1.204,0.22 -1.791,0.046c-0.29,-0.086 -0.57,-0.22 -0.819,-0.392c-0.249,-0.171 -0.473,-0.385 -0.657,-0.625c-0.184,-0.24 -0.332,-0.512 -0.432,-0.797c-0.199,-0.564 -0.171,-1.126 -0.185,-1.708c-0.009,-0.338 -0.018,-0.676 -0.027,-1.014c-0.026,-1.002 -0.054,-2.004 -0.082,-3.006c-0.03,-1.009 -0.079,-2.017 -0.154,-3.024c-0.056,-0.739 -0.124,-1.478 -0.206,-2.215c-0.04,-0.358 -0.084,-0.715 -0.13,-1.072l-0.016,-0.117c0.008,-0.302 -0.032,-0.609 0.023,-0.907c0.055,-0.297 0.158,-0.589 0.302,-0.855c0.292,-0.539 0.746,-0.971 1.298,-1.235c0.273,-0.131 0.58,-0.173 0.87,-0.259c0.302,0.008 0.604,0.015 0.907,0.023ZM210.9,103.022c0.25,0.171 0.501,0.339 0.749,0.512c0.014,0.01 0.025,0.023 0.037,0.035c0.077,0.073 0.153,0.145 0.229,0.218c0.191,0.185 0.38,0.371 0.567,0.558c0.573,0.575 1.128,1.167 1.665,1.775c1.2,1.36 2.306,2.803 3.311,4.313c0.428,0.643 0.838,1.299 1.229,1.965c0.184,0.315 0.364,0.632 0.541,0.951l0.024,0.044c0.268,0.745 0.439,0.943 0.335,1.76c-0.038,0.3 -0.124,0.597 -0.253,0.871c-0.261,0.554 -0.69,1.011 -1.227,1.306c-0.265,0.145 -0.556,0.25 -0.853,0.307c-0.297,0.057 -0.607,0.066 -0.907,0.028c-0.3,-0.038 -0.597,-0.124 -0.871,-0.253c-0.274,-0.129 -0.53,-0.303 -0.75,-0.51c-0.221,-0.207 -0.372,-0.477 -0.556,-0.717c-0.008,-0.01 -0.012,-0.022 -0.018,-0.033c-0.026,-0.046 -0.051,-0.092 -0.077,-0.138c-0.026,-0.046 -0.051,-0.092 -0.077,-0.137c-0.052,-0.092 -0.103,-0.183 -0.156,-0.274c-0.283,-0.49 -0.575,-0.974 -0.881,-1.451c-0.561,-0.875 -1.16,-1.725 -1.798,-2.547c-0.694,-0.894 -1.432,-1.754 -2.212,-2.574c-0.408,-0.429 -0.827,-0.847 -1.256,-1.255l-0.029,-0.027c-0.484,-0.628 -0.706,-0.764 -0.858,-1.573c-0.056,-0.298 -0.065,-0.607 -0.026,-0.907c0.079,-0.607 0.348,-1.174 0.768,-1.619c0.208,-0.22 0.453,-0.409 0.719,-0.554c0.723,-0.394 0.969,-0.308 1.761,-0.33c0.29,0.085 0.58,0.171 0.87,0.256ZM183.633,91.583c0.636,0.026 1.272,0.083 1.905,0.154c0.886,0.098 1.77,0.227 2.649,0.38c1.999,0.348 3.976,0.824 5.917,1.416c0.556,0.17 1.108,0.35 1.657,0.539l0.802,0.425c0.551,0.57 0.788,0.68 1.029,1.467c0.089,0.289 0.132,0.596 0.127,0.898c-0.01,0.612 -0.214,1.206 -0.582,1.695c-0.181,0.242 -0.404,0.457 -0.652,0.631c-0.247,0.173 -0.525,0.309 -0.814,0.398c-0.29,0.089 -0.596,0.132 -0.899,0.127c-0.302,-0.005 -0.597,-0.097 -0.893,-0.156c-0.05,-0.01 -0.097,-0.034 -0.145,-0.05c-0.064,-0.022 -0.128,-0.044 -0.192,-0.065c-0.127,-0.042 -0.254,-0.084 -0.381,-0.126c-0.492,-0.159 -0.986,-0.311 -1.483,-0.453c-1.563,-0.448 -3.152,-0.811 -4.755,-1.079c-0.702,-0.118 -1.408,-0.217 -2.116,-0.294c-0.463,-0.05 -0.928,-0.093 -1.394,-0.113l-0.015,0c-0.778,-0.15 -1.035,-0.105 -1.685,-0.611c-0.238,-0.186 -0.45,-0.412 -0.619,-0.663c-0.169,-0.25 -0.301,-0.531 -0.384,-0.821c-0.084,-0.291 -0.122,-0.599 -0.112,-0.901c0.021,-0.612 0.235,-1.201 0.611,-1.684c0.186,-0.239 0.412,-0.45 0.663,-0.62c0.682,-0.461 0.935,-0.398 1.722,-0.496c0.013,0.001 0.026,0.001 0.039,0.002Z" style="fill:#dffaf1;fill-rule:nonzero;"/><path d="M209.059,210.424c0.268,0.139 0.561,0.238 0.804,0.418c0.493,0.364 0.857,0.875 1.041,1.459c0.091,0.288 0.09,0.598 0.135,0.897c-0.011,1.277 -0.023,2.554 -0.035,3.83c-0.023,2.324 -0.049,4.648 -0.078,6.972l-0.011,0.808c-0.134,0.781 -0.083,1.037 -0.575,1.697c-0.181,0.242 -0.403,0.458 -0.65,0.633c-0.5,0.353 -1.099,0.539 -1.711,0.531c-0.303,-0.004 -0.608,-0.056 -0.894,-0.153c-0.287,-0.097 -0.561,-0.241 -0.803,-0.422c-0.243,-0.181 -0.459,-0.403 -0.633,-0.65c-0.476,-0.672 -0.418,-0.927 -0.532,-1.711c0.013,-0.983 0.025,-1.966 0.037,-2.949c0.028,-2.488 0.054,-4.976 0.076,-7.463l0.01,-1.172c0.05,-0.298 0.054,-0.608 0.15,-0.895c0.095,-0.287 0.238,-0.562 0.418,-0.805c0.364,-0.492 0.875,-0.856 1.459,-1.041c0.288,-0.091 0.598,-0.089 0.897,-0.134c0.298,0.05 0.596,0.1 0.895,0.15ZM209.098,181.419c0.27,0.136 0.565,0.232 0.81,0.409c0.497,0.358 0.867,0.864 1.059,1.446c0.094,0.287 0.096,0.597 0.145,0.895c0.004,1.109 0.006,2.217 0.009,3.326c0.005,2.688 0.006,5.376 0.003,8.064l-0.001,0.223c-0.125,0.783 -0.071,1.038 -0.556,1.703c-0.178,0.244 -0.398,0.463 -0.642,0.641c-0.245,0.177 -0.522,0.317 -0.809,0.41c-0.583,0.188 -1.21,0.187 -1.792,-0.003c-0.288,-0.094 -0.564,-0.235 -0.808,-0.413c-0.244,-0.178 -0.463,-0.397 -0.64,-0.642c-0.483,-0.667 -0.429,-0.922 -0.551,-1.705c0.002,-1.248 0.002,-2.495 0.002,-3.742c-0.001,-2.433 -0.005,-4.865 -0.012,-7.298l-0.002,-0.543c0.046,-0.299 0.046,-0.609 0.139,-0.897c0.092,-0.287 0.232,-0.564 0.409,-0.809c0.358,-0.497 0.864,-0.867 1.446,-1.059c0.287,-0.094 0.597,-0.096 0.895,-0.145c0.299,0.046 0.598,0.093 0.896,0.139ZM208.744,152.413c0.272,0.133 0.568,0.224 0.816,0.397c0.503,0.35 0.881,0.851 1.081,1.429c0.162,0.466 0.156,0.712 0.163,1.113c0.013,0.669 0.025,1.337 0.037,2.005c0.052,2.994 0.095,5.989 0.133,8.983l0.005,0.409c-0.115,0.784 -0.058,1.039 -0.534,1.711c-0.174,0.246 -0.391,0.468 -0.633,0.649c-0.243,0.18 -0.517,0.324 -0.804,0.421c-0.58,0.197 -1.207,0.204 -1.791,0.022c-0.289,-0.09 -0.567,-0.227 -0.813,-0.402c-0.247,-0.175 -0.469,-0.391 -0.65,-0.634c-0.18,-0.242 -0.324,-0.517 -0.421,-0.803c-0.17,-0.501 -0.152,-0.829 -0.158,-1.302c-0.008,-0.66 -0.016,-1.321 -0.025,-1.981c-0.014,-0.994 -0.028,-1.988 -0.042,-2.982c-0.031,-1.996 -0.065,-3.991 -0.101,-5.987l-0.005,-0.218c0.042,-0.3 0.037,-0.609 0.125,-0.899c0.178,-0.585 0.537,-1.1 1.026,-1.469c0.241,-0.182 0.514,-0.328 0.8,-0.427c0.286,-0.099 0.595,-0.106 0.893,-0.159c0.299,0.041 0.599,0.083 0.898,0.124ZM205.746,123.701c0.712,0.35 0.971,0.374 1.465,1.033c0.181,0.242 0.283,0.534 0.423,0.802c0.004,0.008 0.005,0.016 0.008,0.024c0.013,0.039 0.026,0.078 0.039,0.117c0.04,0.118 0.079,0.237 0.118,0.355c0.171,0.528 0.332,1.059 0.482,1.593c0.414,1.471 0.752,2.963 1.031,4.466c0.334,1.793 0.585,3.601 0.777,5.414l-0.046,0.906c-0.284,0.741 -0.284,1.002 -0.895,1.553c-0.225,0.202 -0.485,0.371 -0.761,0.494c-0.559,0.25 -1.183,0.316 -1.782,0.189c-0.295,-0.063 -0.585,-0.173 -0.847,-0.324c-0.262,-0.151 -0.503,-0.346 -0.705,-0.571c-0.203,-0.224 -0.372,-0.484 -0.495,-0.76c-0.123,-0.276 -0.162,-0.583 -0.235,-0.876c-0.01,-0.041 -0.009,-0.084 -0.013,-0.126c-0.017,-0.153 -0.034,-0.306 -0.051,-0.459c-0.023,-0.201 -0.047,-0.402 -0.071,-0.602c-0.209,-1.694 -0.474,-3.38 -0.83,-5.049c-0.321,-1.507 -0.715,-2.998 -1.208,-4.457l-0.006,-0.018c-0.051,-0.298 -0.15,-0.591 -0.154,-0.894c-0.004,-0.302 0.04,-0.609 0.129,-0.898c0.181,-0.584 0.543,-1.097 1.033,-1.464c0.242,-0.181 0.516,-0.325 0.803,-0.423c0.286,-0.097 0.596,-0.103 0.894,-0.154c0.299,0.043 0.598,0.086 0.897,0.129ZM183.147,108.697c0.76,0.087 1.52,0.17 2.281,0.256c0.265,0.03 0.529,0.061 0.794,0.092c0.544,0.066 1.088,0.135 1.631,0.213c0.896,0.129 1.789,0.279 2.675,0.464c1.026,0.215 2.044,0.477 3.041,0.803c0.477,0.157 0.95,0.328 1.417,0.514l0.78,0.463c0.523,0.595 0.754,0.717 0.957,1.514c0.075,0.293 0.104,0.602 0.084,0.904c-0.019,0.301 -0.087,0.604 -0.199,0.885c-0.227,0.569 -0.627,1.051 -1.145,1.378c-0.255,0.162 -0.54,0.285 -0.833,0.359c-0.798,0.204 -1.015,0.059 -1.788,-0.115c-0.064,-0.026 -0.128,-0.051 -0.192,-0.076c-0.513,-0.196 -1.033,-0.37 -1.561,-0.522c-1.978,-0.57 -4.024,-0.848 -6.064,-1.086c-0.763,-0.087 -1.527,-0.17 -2.291,-0.257c-0.169,-0.019 -0.339,-0.039 -0.508,-0.059l-0.874,-0.245c-0.659,-0.439 -0.914,-0.497 -1.317,-1.214c-0.148,-0.264 -0.256,-0.555 -0.315,-0.851c-0.059,-0.297 -0.072,-0.606 -0.037,-0.906c0.071,-0.609 0.333,-1.179 0.748,-1.629c0.205,-0.222 0.448,-0.414 0.712,-0.562c0.718,-0.403 0.965,-0.32 1.757,-0.352c0.082,0.01 0.164,0.019 0.247,0.029Z" style="fill:#dffaf1;fill-rule:nonzero;"/></g><path d="M154.93,299.285c-1.222,-0.023 -8.764,6.15 -3.758,6.975c3.909,0.644 6.543,0.325 8.476,-0.196c0,0 4.629,-1.589 -4.718,-6.779Z" style="fill:#280f25;"/><path d="M172.269,24.726c0.06,0.005 0.075,0.004 0.135,0.015c0.068,0.011 0.134,0.029 0.198,0.053c0.279,0.104 0.508,0.323 0.623,0.598c0.026,0.063 0.047,0.128 0.061,0.195c0.013,0.059 0.013,0.075 0.02,0.135c0.004,0.078 0.005,0.156 0.009,0.234c0.034,0.593 0.176,1.175 0.377,1.733c0.275,0.764 0.66,1.486 1.104,2.165c0.564,0.863 1.231,1.66 1.969,2.379c0.769,0.751 1.62,1.422 2.542,1.975c0.948,0.569 1.98,1.018 3.065,1.245c0.219,0.045 0.44,0.081 0.662,0.108l0.067,0.01c0.022,0.005 0.045,0.009 0.067,0.015c0.044,0.011 0.087,0.025 0.13,0.041c0.148,0.058 0.284,0.149 0.393,0.265c0.079,0.083 0.144,0.178 0.193,0.28c0.049,0.103 0.082,0.214 0.096,0.327c0.015,0.113 0.012,0.228 -0.009,0.34c-0.046,0.247 -0.179,0.474 -0.372,0.635c-0.104,0.088 -0.226,0.156 -0.356,0.198c-0.108,0.036 -0.222,0.055 -0.335,0.055c-0.061,0.001 -0.076,-0.002 -0.137,-0.008c-0.069,-0.008 -0.139,-0.017 -0.209,-0.027c-0.331,-0.048 -0.659,-0.11 -0.984,-0.19c-1.29,-0.317 -2.515,-0.877 -3.638,-1.582c-1.156,-0.725 -2.214,-1.606 -3.153,-2.595c-0.428,-0.451 -0.831,-0.925 -1.206,-1.421c-0.39,-0.517 -0.75,-1.058 -1.071,-1.621c-0.39,-0.686 -0.723,-1.408 -0.967,-2.159c-0.192,-0.589 -0.329,-1.197 -0.383,-1.815c-0.01,-0.12 -0.018,-0.24 -0.022,-0.361c-0.002,-0.06 -0.004,-0.121 -0.002,-0.182c0.003,-0.068 0.012,-0.136 0.028,-0.202c0.042,-0.178 0.129,-0.344 0.251,-0.479c0.107,-0.119 0.239,-0.213 0.387,-0.275c0.084,-0.035 0.172,-0.06 0.262,-0.073c0.06,-0.009 0.076,-0.008 0.136,-0.012c0.023,0.001 0.046,0.001 0.069,0.001Z" style="fill:#b4dfc3;fill-rule:nonzero;"/></g><g><path d="M11.846,185.646c0,0 1.625,11.256 12.316,11.108c10.69,-0.148 14.117,0.606 14.97,7.65c0.833,6.877 -1.593,10.624 -1.593,10.624c0,0 -7.546,-3.573 -13.634,-0.366c-6.087,3.206 -22.635,-0.362 -12.059,-29.016Z" style="fill:#b4dfc3;"/><path d="M11.969,184.909c0.081,0.019 0.103,0.02 0.179,0.054c0.173,0.077 0.313,0.219 0.386,0.393c0.012,0.029 0.022,0.059 0.031,0.089c0.012,0.044 0.017,0.075 0.023,0.115c0.007,0.041 0.007,0.041 0.014,0.083c0.008,0.047 0.017,0.093 0.026,0.139c0.074,0.38 0.167,0.757 0.273,1.13c0.147,0.518 0.32,1.028 0.518,1.53c0.101,0.255 0.208,0.509 0.322,0.759c0.635,1.392 1.479,2.701 2.561,3.789c0.151,0.151 0.306,0.298 0.466,0.44c0.203,0.181 0.413,0.354 0.631,0.518c0.313,0.237 0.64,0.456 0.98,0.654c0.581,0.338 1.197,0.616 1.834,0.83c0.78,0.261 1.59,0.427 2.407,0.51c0.489,0.05 0.981,0.069 1.472,0.066c0.267,-0.003 0.535,-0.007 0.802,-0.01c1.263,-0.011 2.526,-0.013 3.788,0.027c0.548,0.017 1.096,0.041 1.642,0.078c0.526,0.036 1.05,0.083 1.573,0.147c0.812,0.1 1.622,0.242 2.41,0.466c0.724,0.206 1.432,0.485 2.078,0.875c0.267,0.161 0.524,0.341 0.765,0.54c0.27,0.223 0.521,0.47 0.749,0.737c0.371,0.434 0.678,0.92 0.927,1.434c0.229,0.473 0.409,0.968 0.555,1.472c0.148,0.511 0.26,1.031 0.35,1.554c0.07,0.409 0.125,0.821 0.171,1.233c0.059,0.527 0.101,1.056 0.126,1.585c0.054,1.17 0.022,2.344 -0.112,3.507c-0.092,0.804 -0.232,1.602 -0.428,2.386c-0.182,0.729 -0.411,1.448 -0.699,2.143c-0.107,0.257 -0.223,0.511 -0.349,0.76c-0.081,0.16 -0.167,0.319 -0.261,0.472l-0.009,0.015c-0.018,0.024 -0.034,0.049 -0.053,0.072c-0.038,0.046 -0.081,0.088 -0.129,0.124c-0.096,0.072 -0.208,0.12 -0.326,0.14c-0.089,0.015 -0.18,0.013 -0.268,-0.004c-0.029,-0.006 -0.058,-0.013 -0.086,-0.023c-0.045,-0.014 -0.085,-0.033 -0.126,-0.052c-0.037,-0.017 -0.038,-0.017 -0.078,-0.035c-0.063,-0.027 -0.126,-0.054 -0.19,-0.081c-0.448,-0.187 -0.905,-0.354 -1.367,-0.506c-0.579,-0.189 -1.165,-0.354 -1.758,-0.493c-0.692,-0.163 -1.393,-0.29 -2.099,-0.375c-0.662,-0.081 -1.329,-0.124 -1.996,-0.123c-1.147,0.001 -2.296,0.135 -3.402,0.444c-0.49,0.137 -0.971,0.308 -1.437,0.514c-0.135,0.06 -0.269,0.123 -0.402,0.189c-0.094,0.047 -0.186,0.096 -0.28,0.144c-0.04,0.021 -0.081,0.041 -0.121,0.061c-0.166,0.081 -0.334,0.156 -0.505,0.225c-0.464,0.188 -0.944,0.336 -1.431,0.448c-0.588,0.135 -1.187,0.219 -1.789,0.257c-0.618,0.038 -1.239,0.027 -1.856,-0.031c-1.274,-0.121 -2.529,-0.447 -3.694,-0.976c-0.813,-0.369 -1.58,-0.836 -2.279,-1.39c-0.517,-0.41 -0.997,-0.868 -1.432,-1.364c-0.322,-0.367 -0.62,-0.754 -0.893,-1.158c-0.536,-0.793 -0.975,-1.65 -1.324,-2.541c-0.341,-0.869 -0.598,-1.77 -0.784,-2.685c-0.205,-1.005 -0.325,-2.026 -0.38,-3.05c-0.069,-1.289 -0.036,-2.581 0.071,-3.867c0.132,-1.588 0.376,-3.167 0.697,-4.728c0.248,-1.206 0.542,-2.403 0.873,-3.589c0.351,-1.264 0.744,-2.517 1.168,-3.759c0.152,-0.443 0.307,-0.884 0.466,-1.324c0.041,-0.112 0.082,-0.224 0.123,-0.336c0.022,-0.06 0.064,-0.187 0.1,-0.255c0.014,-0.027 0.03,-0.054 0.048,-0.08c0.089,-0.129 0.219,-0.229 0.367,-0.281c0.059,-0.02 0.121,-0.034 0.183,-0.039c0.032,-0.003 0.063,-0.002 0.094,-0.002c0.032,0.003 0.063,0.006 0.094,0.009ZM11.694,188.335c-0.153,0.464 -0.303,0.93 -0.447,1.397c-0.507,1.647 -0.951,3.314 -1.303,5.001c-0.353,1.693 -0.615,3.407 -0.734,5.133c-0.097,1.412 -0.098,2.833 0.046,4.241c0.111,1.08 0.307,2.153 0.621,3.193c0.271,0.9 0.631,1.775 1.096,2.594c0.248,0.437 0.526,0.857 0.835,1.254c0.346,0.446 0.73,0.863 1.149,1.242c0.58,0.525 1.225,0.977 1.917,1.342c1.47,0.777 3.137,1.163 4.797,1.151c0.55,-0.004 1.1,-0.051 1.642,-0.146c0.455,-0.08 0.905,-0.193 1.342,-0.346c0.23,-0.081 0.455,-0.172 0.675,-0.276c0.128,-0.061 0.254,-0.128 0.38,-0.193c0.051,-0.026 0.102,-0.051 0.154,-0.076c0.429,-0.209 0.869,-0.392 1.32,-0.548c0.31,-0.107 0.625,-0.201 0.942,-0.283c0.234,-0.061 0.47,-0.115 0.707,-0.162c1.587,-0.316 3.222,-0.341 4.827,-0.164c0.275,0.03 0.55,0.066 0.824,0.108c0.326,0.05 0.652,0.108 0.975,0.173c0.474,0.096 0.944,0.207 1.41,0.333c0.787,0.213 1.563,0.468 2.322,0.767l0.011,0.004c0.124,-0.26 0.236,-0.527 0.339,-0.796c0.147,-0.389 0.276,-0.784 0.387,-1.184c0.308,-1.1 0.492,-2.233 0.576,-3.371c0.101,-1.357 0.059,-2.723 -0.095,-4.074c-0.049,-0.43 -0.11,-0.858 -0.189,-1.284c-0.062,-0.334 -0.134,-0.665 -0.223,-0.993c-0.158,-0.586 -0.365,-1.163 -0.659,-1.695c-0.186,-0.339 -0.408,-0.658 -0.668,-0.945c-0.22,-0.242 -0.466,-0.459 -0.733,-0.65c-0.242,-0.173 -0.501,-0.323 -0.769,-0.453c-0.298,-0.146 -0.609,-0.267 -0.924,-0.371c-0.36,-0.117 -0.727,-0.212 -1.097,-0.29c-0.205,-0.044 -0.41,-0.082 -0.617,-0.117c-0.297,-0.05 -0.595,-0.092 -0.894,-0.128c-0.411,-0.049 -0.824,-0.087 -1.237,-0.117c-0.49,-0.036 -0.98,-0.061 -1.47,-0.078c-0.724,-0.027 -1.449,-0.038 -2.173,-0.042c-0.616,-0.003 -1.231,0 -1.847,0.006c-0.163,0.001 -0.326,0.003 -0.489,0.005c-0.126,0.002 -0.253,0.004 -0.379,0.005c-0.065,0 -0.13,0 -0.195,0c-0.399,-0.004 -0.797,-0.021 -1.194,-0.056c-0.791,-0.07 -1.576,-0.208 -2.34,-0.422c-0.762,-0.213 -1.502,-0.502 -2.203,-0.866c-0.452,-0.235 -0.887,-0.5 -1.303,-0.793c-0.409,-0.288 -0.799,-0.604 -1.168,-0.943c-0.701,-0.644 -1.324,-1.371 -1.868,-2.151c-0.684,-0.982 -1.244,-2.048 -1.691,-3.157c-0.12,-0.296 -0.23,-0.596 -0.334,-0.898l-0.006,-0.016c-0.015,0.045 -0.03,0.09 -0.045,0.135Z" style="fill:#b4dfc3;fill-rule:nonzero;"/><path d="M13.776,197.58c0.023,0.003 0.045,0.004 0.067,0.008c0.045,0.009 0.088,0.022 0.129,0.041c0.103,0.047 0.191,0.125 0.249,0.222c0.034,0.059 0.058,0.123 0.07,0.19c0.008,0.044 0.011,0.089 0.008,0.134c-0.003,0.036 -0.01,0.07 -0.015,0.105c-0.003,0.018 -0.005,0.036 -0.006,0.054c-0.012,0.138 -0.004,0.278 0.012,0.416c0.019,0.177 0.052,0.353 0.093,0.527c0.065,0.275 0.15,0.544 0.249,0.808c0.115,0.305 0.249,0.603 0.401,0.892c0.302,0.575 0.672,1.114 1.107,1.597c0.341,0.38 0.723,0.723 1.14,1.017c0.321,0.227 0.664,0.425 1.022,0.588c0.474,0.216 0.975,0.371 1.488,0.466c0.481,0.089 0.97,0.125 1.459,0.117c0.404,-0.007 0.808,-0.045 1.208,-0.107c0.118,-0.019 0.235,-0.039 0.351,-0.061c0.117,-0.023 0.233,-0.047 0.349,-0.07c0.076,-0.015 0.151,-0.029 0.227,-0.043c0.184,-0.035 0.369,-0.068 0.555,-0.099c0.385,-0.064 0.771,-0.119 1.159,-0.164c0.451,-0.053 0.904,-0.091 1.358,-0.113c0.326,-0.016 0.653,-0.023 0.98,-0.02c0.248,0.002 0.497,0.01 0.746,0.025c0.208,0.012 0.415,0.03 0.623,0.052c1.14,0.122 2.275,0.401 3.301,0.921c0.139,0.071 0.276,0.146 0.411,0.225c0.181,0.107 0.358,0.222 0.528,0.345c0.249,0.18 0.485,0.376 0.705,0.588c0.36,0.346 0.678,0.734 0.949,1.153c0.091,0.141 0.176,0.285 0.258,0.432c0.06,0.107 0.116,0.215 0.175,0.323c0.011,0.018 0.021,0.037 0.032,0.055c0.005,0.007 0.005,0.007 0.01,0.014l0.034,0.058c0.009,0.021 0.019,0.041 0.027,0.062c0.031,0.085 0.041,0.177 0.029,0.267c-0.006,0.045 -0.017,0.089 -0.034,0.131c-0.041,0.105 -0.115,0.196 -0.209,0.259c-0.056,0.038 -0.119,0.066 -0.185,0.081c-0.066,0.015 -0.135,0.019 -0.202,0.01c-0.135,-0.018 -0.26,-0.087 -0.349,-0.189c-0.027,-0.032 -0.05,-0.066 -0.072,-0.101c-0.021,-0.034 -0.04,-0.068 -0.06,-0.103c-0.053,-0.096 -0.104,-0.193 -0.157,-0.289c-0.091,-0.165 -0.187,-0.327 -0.292,-0.483c-0.157,-0.234 -0.332,-0.457 -0.524,-0.663c-0.171,-0.184 -0.355,-0.355 -0.55,-0.512c-0.129,-0.105 -0.264,-0.204 -0.403,-0.297c-0.103,-0.069 -0.209,-0.135 -0.317,-0.198c-0.825,-0.479 -1.754,-0.758 -2.693,-0.905c-0.154,-0.024 -0.308,-0.045 -0.463,-0.063c-0.213,-0.024 -0.426,-0.042 -0.639,-0.055c-0.283,-0.017 -0.567,-0.024 -0.85,-0.024c-0.37,0.001 -0.739,0.015 -1.107,0.04c-0.476,0.033 -0.95,0.084 -1.422,0.15c-0.383,0.053 -0.765,0.116 -1.146,0.188c-0.109,0.02 -0.219,0.041 -0.328,0.063c-0.081,0.016 -0.161,0.033 -0.242,0.049c-0.058,0.011 -0.117,0.022 -0.175,0.032c-0.267,0.046 -0.536,0.084 -0.806,0.111c-0.5,0.049 -1.004,0.061 -1.506,0.028c-0.55,-0.037 -1.098,-0.127 -1.629,-0.277c-0.571,-0.16 -1.122,-0.389 -1.638,-0.681c-0.446,-0.252 -0.865,-0.55 -1.251,-0.886c-0.518,-0.451 -0.976,-0.968 -1.37,-1.531c-0.251,-0.359 -0.476,-0.736 -0.673,-1.127c-0.166,-0.328 -0.312,-0.666 -0.436,-1.012c-0.086,-0.242 -0.162,-0.489 -0.224,-0.739c-0.058,-0.232 -0.104,-0.467 -0.132,-0.704c-0.009,-0.078 -0.017,-0.157 -0.021,-0.236c-0.01,-0.156 -0.01,-0.312 0.005,-0.467c0.005,-0.049 0.012,-0.098 0.021,-0.146c0.005,-0.031 0.011,-0.059 0.021,-0.089c0.048,-0.152 0.161,-0.278 0.306,-0.343c0.042,-0.018 0.085,-0.032 0.13,-0.04c0.022,-0.004 0.044,-0.005 0.067,-0.007c0.022,0 0.045,0 0.067,0Z" style="fill:#280f25;fill-rule:nonzero;"/><path d="M44.549,214.089c0,0 3.318,-13.911 15.208,-16.493c3.733,-0.81 -4.328,-12.57 -8.74,-8.714c-8.505,7.433 -10.676,15.352 -12.903,25.369c-2.226,10.017 6.435,-0.162 6.435,-0.162Z" style="fill:#280f25;"/><path d="M43.943,214.213c0,0 40.31,-0.554 41.093,30.133c0.892,34.947 1.569,110.674 1.569,110.674c0.049,-0.503 -84.912,-0.63 -85.079,-1.094c-1.283,-42.839 -0.674,-73.552 -1.015,-109.569c0,0 1.726,-30.282 43.432,-30.144Z" style="fill:#edb0a5;"/><path d="M76.585,329.572c0,-6.127 -4.974,-11.102 -11.102,-11.102l-44.705,0c-6.127,0 -11.102,4.975 -11.102,11.102c0,6.128 4.975,11.102 11.102,11.102l44.705,0c6.128,0 11.102,-4.974 11.102,-11.102Z" style="fill:#fdede5;"/><path d="M19.962,333.441c2.42,0.583 4.124,2.136 3.804,3.466c-0.321,1.33 -2.545,1.936 -4.965,1.353c-2.42,-0.584 -4.124,-2.137 -3.803,-3.466c0.32,-1.33 2.545,-1.936 4.964,-1.353Z" style="fill:#edb0a5;"/><path d="M65.441,333.514c-2.475,0.663 -4.198,2.274 -3.844,3.595c0.354,1.322 2.651,1.856 5.127,1.192c2.476,-0.663 4.198,-2.274 3.844,-3.595c-0.354,-1.322 -2.651,-1.856 -5.127,-1.192Z" style="fill:#edb0a5;"/><path d="M17.676,352.698c0,-2.22 -1.802,-4.022 -4.022,-4.022l-8.044,0c-2.22,0 -4.022,1.802 -4.022,4.022l0,8.418c0,2.22 1.802,4.022 4.022,4.022l8.044,0c2.22,0 4.022,-1.802 4.022,-4.022l0,-8.418Z" style="fill:#edb0a5;"/><path d="M86.693,352.698c0,-2.22 -1.802,-4.022 -4.022,-4.022l-8.044,0c-2.22,0 -4.022,1.802 -4.022,4.022l0,8.418c0,2.22 1.802,4.022 4.022,4.022l8.044,0c2.22,0 4.022,-1.802 4.022,-4.022l0,-8.418Z" style="fill:#edb0a5;"/><path d="M63.041,352.564c0,-2.22 -1.802,-4.022 -4.022,-4.022l-8.044,0c-2.22,0 -4.022,1.802 -4.022,4.022l0,8.419c0,2.219 1.802,4.022 4.022,4.022l8.044,0c2.22,0 4.022,-1.803 4.022,-4.022l0,-8.419Z" style="fill:#edb0a5;"/><path d="M39.956,352.698c0,-2.22 -1.802,-4.022 -4.022,-4.022l-8.044,0c-2.22,0 -4.022,1.802 -4.022,4.022l0,8.418c0,2.22 1.802,4.022 4.022,4.022l8.044,0c2.22,0 4.022,-1.802 4.022,-4.022l0,-8.418Z" style="fill:#edb0a5;"/><g id="Layer21"><path d="M28.951,336.061c0,0 2.451,-13.052 -4.043,-15.309c-5.543,-1.927 -10.421,3.493 -9.582,11.538c0.093,0.89 4.108,-2.268 13.684,3.402" style="fill:#280f25;"/><path d="M58.31,336.061c0,0 -2.413,-13.052 3.98,-15.309c5.457,-1.927 10.259,3.493 9.433,11.538c-0.092,0.89 -4.044,-2.268 -13.472,3.402" style="fill:#280f25;"/></g><g id="Layer31"><path d="M78.43,288.209c0.139,0.07 0.291,0.12 0.417,0.212c0.255,0.185 0.445,0.446 0.543,0.746c0.048,0.148 0.049,0.308 0.074,0.462c0,0.899 0,1.798 0,2.697c0,0.92 -0.001,1.84 -0.002,2.761l-0.001,0.52c-0.065,0.403 -0.037,0.535 -0.287,0.877c-0.092,0.126 -0.205,0.239 -0.331,0.33c-0.126,0.092 -0.269,0.164 -0.417,0.212c-0.3,0.097 -0.623,0.096 -0.923,-0.002c-0.148,-0.048 -0.29,-0.121 -0.416,-0.213c-0.126,-0.091 -0.239,-0.204 -0.33,-0.331c-0.249,-0.343 -0.221,-0.474 -0.284,-0.878c0.002,-0.849 0.003,-1.698 0.003,-2.546c0.001,-1.025 0.001,-2.049 0,-3.074l0,-0.351c0.024,-0.154 0.025,-0.314 0.073,-0.462c0.097,-0.3 0.287,-0.562 0.542,-0.747c0.126,-0.092 0.268,-0.164 0.416,-0.213c0.148,-0.048 0.308,-0.049 0.462,-0.073c0.154,0.024 0.307,0.048 0.461,0.073ZM78.364,273.269c0.14,0.07 0.291,0.118 0.418,0.209c0.257,0.184 0.448,0.444 0.548,0.743c0.049,0.148 0.051,0.307 0.076,0.461c0.005,0.659 0.009,1.317 0.014,1.976c0.006,1.038 0.012,2.076 0.017,3.115c0.001,0.309 0.05,0.982 -0.067,1.349c-0.048,0.149 -0.119,0.291 -0.21,0.418c-0.091,0.126 -0.204,0.24 -0.329,0.332c-0.255,0.186 -0.562,0.288 -0.877,0.289c-0.156,0.001 -0.314,-0.023 -0.462,-0.071c-0.148,-0.047 -0.291,-0.119 -0.417,-0.21c-0.127,-0.091 -0.24,-0.204 -0.332,-0.329c-0.251,-0.342 -0.224,-0.474 -0.29,-0.877c-0.003,-0.637 -0.006,-1.274 -0.009,-1.912c-0.007,-1.226 -0.014,-2.452 -0.022,-3.678l-0.003,-0.381c0.023,-0.154 0.023,-0.313 0.07,-0.462c0.047,-0.148 0.118,-0.291 0.209,-0.418c0.184,-0.256 0.444,-0.448 0.743,-0.548c0.148,-0.049 0.307,-0.051 0.461,-0.076c0.154,0.023 0.308,0.047 0.462,0.07ZM78.182,258.329c0.139,0.068 0.292,0.116 0.419,0.205c0.258,0.181 0.453,0.44 0.555,0.738c0.051,0.147 0.054,0.307 0.081,0.46c0.011,0.693 0.021,1.385 0.032,2.077c0.016,1.118 0.031,2.236 0.045,3.354l0.007,0.55c-0.059,0.404 -0.029,0.535 -0.274,0.881c-0.091,0.127 -0.202,0.241 -0.327,0.334c-0.125,0.093 -0.266,0.168 -0.414,0.218c-0.147,0.05 -0.305,0.076 -0.46,0.078c-0.316,0.004 -0.624,-0.092 -0.882,-0.274c-0.127,-0.09 -0.241,-0.202 -0.334,-0.327c-0.254,-0.34 -0.227,-0.471 -0.296,-0.874c-0.007,-0.555 -0.014,-1.11 -0.021,-1.665c-0.015,-1.115 -0.031,-2.23 -0.048,-3.345l-0.009,-0.556l-0.006,-0.402l0.065,-0.463c0.069,-0.14 0.116,-0.292 0.206,-0.42c0.181,-0.258 0.439,-0.452 0.737,-0.554c0.148,-0.051 0.307,-0.054 0.461,-0.081c0.154,0.022 0.308,0.044 0.463,0.066ZM77.492,243.365c0.147,0.052 0.303,0.082 0.44,0.156c0.278,0.15 0.5,0.384 0.637,0.669c0.067,0.14 0.091,0.298 0.133,0.448c0.006,0.021 0.006,0.044 0.009,0.066c0.005,0.04 0.01,0.08 0.015,0.121c0.026,0.203 0.05,0.406 0.072,0.61c0.063,0.589 0.111,1.179 0.145,1.77c0.017,0.306 0.03,0.612 0.04,0.919c0.012,0.389 0.022,0.778 0.033,1.167c0.009,0.349 0.018,0.698 0.027,1.046c0.008,0.299 0.037,0.59 -0.051,0.885c-0.044,0.149 -0.113,0.293 -0.201,0.421c-0.089,0.129 -0.198,0.244 -0.322,0.339c-0.124,0.095 -0.264,0.171 -0.411,0.223c-0.298,0.105 -0.621,0.113 -0.923,0.023c-0.149,-0.044 -0.293,-0.113 -0.422,-0.202c-0.128,-0.088 -0.244,-0.198 -0.338,-0.322c-0.095,-0.123 -0.171,-0.264 -0.223,-0.411c-0.102,-0.29 -0.088,-0.58 -0.095,-0.879c-0.005,-0.174 -0.009,-0.349 -0.014,-0.523c-0.014,-0.516 -0.028,-1.032 -0.042,-1.548c-0.016,-0.52 -0.041,-1.04 -0.08,-1.558c-0.028,-0.381 -0.063,-0.762 -0.106,-1.141c-0.02,-0.185 -0.043,-0.369 -0.067,-0.553l-0.008,-0.06c0.004,-0.156 -0.016,-0.314 0.012,-0.467c0.028,-0.153 0.081,-0.304 0.156,-0.441c0.15,-0.277 0.384,-0.5 0.668,-0.636c0.141,-0.067 0.299,-0.089 0.448,-0.133c0.156,0.004 0.312,0.008 0.468,0.011ZM71.551,230.273c0.129,0.088 0.258,0.175 0.386,0.264c0.007,0.005 0.013,0.012 0.019,0.018c0.04,0.037 0.079,0.075 0.118,0.113c0.098,0.094 0.196,0.19 0.292,0.287c0.295,0.296 0.581,0.601 0.858,0.914c0.618,0.701 1.188,1.444 1.706,2.222c0.22,0.332 0.431,0.669 0.633,1.013c0.095,0.162 0.187,0.325 0.279,0.489l0.012,0.023c0.138,0.384 0.226,0.486 0.173,0.907c-0.02,0.154 -0.064,0.308 -0.131,0.449c-0.134,0.285 -0.355,0.52 -0.632,0.672c-0.136,0.075 -0.286,0.129 -0.439,0.159c-0.154,0.029 -0.313,0.034 -0.468,0.014c-0.154,-0.019 -0.307,-0.064 -0.448,-0.13c-0.141,-0.067 -0.273,-0.156 -0.387,-0.263c-0.113,-0.107 -0.191,-0.246 -0.286,-0.369c-0.004,-0.006 -0.006,-0.012 -0.01,-0.017c-0.013,-0.024 -0.026,-0.048 -0.039,-0.072c-0.013,-0.023 -0.027,-0.047 -0.04,-0.07c-0.026,-0.047 -0.053,-0.094 -0.08,-0.141c-0.146,-0.253 -0.297,-0.502 -0.454,-0.748c-0.289,-0.451 -0.598,-0.889 -0.926,-1.312c-0.358,-0.461 -0.738,-0.903 -1.14,-1.326c-0.21,-0.221 -0.426,-0.436 -0.647,-0.647l-0.015,-0.014c-0.249,-0.323 -0.364,-0.393 -0.442,-0.81c-0.029,-0.153 -0.033,-0.313 -0.013,-0.467c0.04,-0.313 0.179,-0.605 0.396,-0.834c0.107,-0.113 0.233,-0.211 0.37,-0.286c0.372,-0.203 0.499,-0.158 0.907,-0.17c0.15,0.044 0.299,0.088 0.448,0.132ZM57.504,224.38c0.328,0.014 0.655,0.043 0.981,0.079c0.457,0.051 0.912,0.117 1.365,0.196c1.03,0.18 2.048,0.425 3.048,0.73c0.287,0.087 0.571,0.18 0.854,0.277l0.413,0.219c0.284,0.294 0.406,0.35 0.53,0.756c0.046,0.149 0.068,0.307 0.066,0.463c-0.005,0.315 -0.11,0.621 -0.3,0.873c-0.094,0.124 -0.208,0.235 -0.336,0.325c-0.127,0.089 -0.271,0.159 -0.42,0.205c-0.149,0.046 -0.307,0.068 -0.462,0.066c-0.156,-0.003 -0.308,-0.051 -0.461,-0.081c-0.026,-0.005 -0.05,-0.017 -0.074,-0.026c-0.033,-0.011 -0.066,-0.022 -0.099,-0.033c-0.066,-0.022 -0.131,-0.044 -0.197,-0.065c-0.253,-0.082 -0.508,-0.16 -0.764,-0.234c-0.805,-0.23 -1.623,-0.417 -2.449,-0.555c-0.362,-0.061 -0.726,-0.112 -1.09,-0.152c-0.239,-0.026 -0.478,-0.048 -0.718,-0.058l-0.008,0c-0.401,-0.078 -0.534,-0.054 -0.868,-0.315c-0.123,-0.096 -0.232,-0.212 -0.319,-0.341c-0.088,-0.129 -0.155,-0.274 -0.198,-0.424c-0.043,-0.149 -0.063,-0.308 -0.058,-0.463c0.011,-0.316 0.121,-0.619 0.315,-0.868c0.096,-0.123 0.212,-0.232 0.341,-0.319c0.352,-0.238 0.482,-0.206 0.888,-0.256c0.006,0 0.013,0.001 0.02,0.001Z" style="fill:#fdede5;fill-rule:nonzero;"/><path d="M70.603,285.604c0.138,0.072 0.289,0.123 0.414,0.216c0.254,0.188 0.442,0.451 0.536,0.751c0.047,0.149 0.047,0.309 0.07,0.463c-0.006,0.657 -0.012,1.315 -0.018,1.973c-0.012,1.197 -0.026,2.394 -0.04,3.592l-0.006,0.416c-0.069,0.402 -0.043,0.534 -0.296,0.874c-0.094,0.125 -0.208,0.236 -0.335,0.326c-0.258,0.182 -0.566,0.278 -0.882,0.274c-0.156,-0.002 -0.313,-0.029 -0.46,-0.079c-0.148,-0.05 -0.289,-0.124 -0.414,-0.218c-0.125,-0.093 -0.236,-0.207 -0.326,-0.334c-0.245,-0.347 -0.215,-0.478 -0.274,-0.882c0.007,-0.506 0.013,-1.013 0.019,-1.519c0.015,-1.282 0.028,-2.563 0.039,-3.845l0.005,-0.604c0.026,-0.153 0.028,-0.313 0.077,-0.461c0.05,-0.147 0.123,-0.289 0.216,-0.414c0.188,-0.254 0.451,-0.442 0.751,-0.536c0.149,-0.047 0.309,-0.047 0.463,-0.07c0.153,0.026 0.307,0.052 0.461,0.077ZM70.623,270.662c0.139,0.07 0.291,0.119 0.417,0.21c0.256,0.185 0.447,0.446 0.546,0.745c0.048,0.148 0.049,0.308 0.074,0.462c0.002,0.571 0.004,1.142 0.005,1.713c0.003,1.385 0.003,2.77 0.001,4.155l0,0.114c-0.064,0.403 -0.036,0.535 -0.286,0.878c-0.092,0.126 -0.205,0.238 -0.331,0.33c-0.126,0.091 -0.269,0.163 -0.417,0.211c-0.3,0.097 -0.623,0.097 -0.923,-0.001c-0.148,-0.049 -0.29,-0.121 -0.416,-0.213c-0.126,-0.092 -0.239,-0.205 -0.33,-0.331c-0.249,-0.344 -0.221,-0.475 -0.284,-0.879c0.001,-0.642 0.001,-1.285 0.001,-1.927c0,-1.253 -0.002,-2.507 -0.006,-3.76l-0.001,-0.28c0.024,-0.154 0.024,-0.313 0.071,-0.462c0.048,-0.148 0.12,-0.29 0.211,-0.417c0.185,-0.256 0.445,-0.446 0.745,-0.545c0.148,-0.049 0.307,-0.05 0.461,-0.075c0.154,0.024 0.308,0.048 0.462,0.072ZM70.441,255.719c0.14,0.068 0.292,0.115 0.42,0.204c0.259,0.18 0.454,0.438 0.557,0.736c0.083,0.24 0.08,0.367 0.084,0.574c0.006,0.344 0.013,0.688 0.019,1.033c0.027,1.542 0.049,3.085 0.068,4.627l0.003,0.211c-0.059,0.404 -0.03,0.535 -0.275,0.881c-0.09,0.128 -0.202,0.242 -0.326,0.335c-0.125,0.093 -0.267,0.167 -0.414,0.217c-0.299,0.101 -0.622,0.105 -0.923,0.011c-0.149,-0.046 -0.292,-0.117 -0.419,-0.207c-0.127,-0.09 -0.242,-0.202 -0.335,-0.327c-0.093,-0.124 -0.167,-0.266 -0.217,-0.413c-0.087,-0.259 -0.078,-0.427 -0.081,-0.671c-0.004,-0.34 -0.009,-0.68 -0.013,-1.021c-0.007,-0.512 -0.014,-1.024 -0.022,-1.536c-0.016,-1.028 -0.033,-2.056 -0.052,-3.084l-0.002,-0.113c0.021,-0.154 0.019,-0.313 0.064,-0.462c0.092,-0.302 0.277,-0.567 0.528,-0.758c0.125,-0.094 0.265,-0.169 0.413,-0.22c0.147,-0.051 0.306,-0.054 0.46,-0.082c0.154,0.022 0.308,0.043 0.463,0.065ZM68.896,240.927c0.367,0.18 0.5,0.192 0.755,0.532c0.093,0.125 0.145,0.275 0.217,0.413c0.002,0.004 0.003,0.008 0.005,0.013c0.006,0.02 0.013,0.039 0.02,0.059c0.02,0.061 0.041,0.122 0.06,0.184c0.089,0.271 0.171,0.545 0.249,0.82c0.213,0.758 0.387,1.527 0.531,2.301c0.172,0.924 0.302,1.855 0.401,2.789l-0.025,0.467c-0.146,0.381 -0.146,0.516 -0.461,0.8c-0.115,0.104 -0.249,0.191 -0.391,0.255c-0.288,0.128 -0.61,0.162 -0.918,0.097c-0.153,-0.032 -0.302,-0.089 -0.437,-0.167c-0.135,-0.078 -0.259,-0.178 -0.363,-0.294c-0.104,-0.116 -0.191,-0.25 -0.255,-0.392c-0.063,-0.142 -0.084,-0.3 -0.121,-0.451c-0.005,-0.021 -0.005,-0.043 -0.007,-0.065c-0.009,-0.079 -0.017,-0.157 -0.026,-0.236c-0.012,-0.104 -0.024,-0.207 -0.037,-0.311c-0.107,-0.872 -0.244,-1.741 -0.427,-2.601c-0.166,-0.776 -0.368,-1.544 -0.622,-2.296l-0.004,-0.009c-0.026,-0.154 -0.077,-0.305 -0.079,-0.461c-0.002,-0.155 0.02,-0.313 0.067,-0.462c0.093,-0.301 0.279,-0.566 0.532,-0.754c0.124,-0.094 0.266,-0.168 0.413,-0.218c0.148,-0.051 0.307,-0.053 0.461,-0.08c0.154,0.022 0.308,0.044 0.462,0.067ZM57.253,233.197c0.392,0.045 0.784,0.087 1.175,0.132c0.137,0.015 0.273,0.031 0.41,0.047c0.28,0.034 0.56,0.07 0.84,0.11c0.461,0.066 0.921,0.144 1.378,0.239c0.529,0.111 1.053,0.246 1.567,0.414c0.246,0.08 0.489,0.169 0.73,0.264l0.401,0.239c0.27,0.307 0.389,0.369 0.494,0.78c0.038,0.151 0.053,0.31 0.043,0.465c-0.01,0.156 -0.045,0.312 -0.103,0.456c-0.116,0.293 -0.323,0.542 -0.589,0.711c-0.132,0.083 -0.279,0.146 -0.43,0.185c-0.411,0.104 -0.523,0.03 -0.921,-0.06c-0.033,-0.013 -0.066,-0.026 -0.099,-0.039c-0.264,-0.101 -0.532,-0.191 -0.804,-0.269c-1.019,-0.293 -2.073,-0.437 -3.124,-0.559c-0.393,-0.045 -0.787,-0.088 -1.18,-0.133c-0.088,-0.01 -0.175,-0.02 -0.262,-0.03l-0.45,-0.126c-0.34,-0.227 -0.471,-0.256 -0.679,-0.626c-0.076,-0.136 -0.132,-0.286 -0.162,-0.438c-0.031,-0.153 -0.037,-0.312 -0.019,-0.467c0.037,-0.314 0.172,-0.607 0.385,-0.839c0.106,-0.115 0.231,-0.214 0.367,-0.29c0.37,-0.208 0.497,-0.165 0.905,-0.181c0.043,0.005 0.085,0.01 0.127,0.015Z" style="fill:#fdede5;fill-rule:nonzero;"/></g><path d="M42.717,331.384c-0.63,-0.012 -4.515,3.169 -1.936,3.593c2.013,0.332 3.37,0.168 4.366,-0.101c0,0 2.385,-0.818 -2.43,-3.492Z" style="fill:#280f25;"/><path d="M51.649,189.937c0.031,0.002 0.039,0.002 0.07,0.007c0.035,0.006 0.069,0.015 0.102,0.027c0.144,0.054 0.261,0.167 0.321,0.309c0.013,0.032 0.024,0.066 0.031,0.1c0.007,0.031 0.007,0.039 0.01,0.07c0.003,0.04 0.003,0.08 0.005,0.12c0.017,0.306 0.091,0.606 0.194,0.893c0.142,0.394 0.34,0.766 0.569,1.116c0.291,0.444 0.634,0.855 1.014,1.225c0.397,0.387 0.835,0.733 1.31,1.018c0.489,0.293 1.02,0.524 1.579,0.641c0.113,0.023 0.227,0.042 0.341,0.055l0.035,0.006c0.011,0.002 0.023,0.004 0.034,0.007c0.023,0.006 0.045,0.013 0.067,0.022c0.077,0.03 0.146,0.077 0.203,0.136c0.04,0.043 0.074,0.092 0.099,0.145c0.025,0.053 0.042,0.11 0.05,0.168c0.007,0.058 0.006,0.117 -0.005,0.175c-0.024,0.127 -0.092,0.244 -0.192,0.327c-0.054,0.046 -0.116,0.08 -0.183,0.102c-0.056,0.019 -0.114,0.028 -0.173,0.029c-0.031,0 -0.039,-0.002 -0.07,-0.004c-0.036,-0.005 -0.072,-0.009 -0.108,-0.014c-0.17,-0.025 -0.34,-0.057 -0.507,-0.099c-0.665,-0.163 -1.295,-0.451 -1.874,-0.814c-0.596,-0.374 -1.141,-0.828 -1.624,-1.337c-0.221,-0.233 -0.429,-0.477 -0.622,-0.733c-0.201,-0.266 -0.386,-0.544 -0.551,-0.835c-0.201,-0.353 -0.373,-0.725 -0.499,-1.112c-0.099,-0.303 -0.169,-0.617 -0.197,-0.935c-0.005,-0.062 -0.009,-0.124 -0.011,-0.186c-0.001,-0.031 -0.003,-0.062 -0.001,-0.093c0.001,-0.035 0.006,-0.071 0.014,-0.105c0.022,-0.091 0.066,-0.177 0.129,-0.247c0.055,-0.061 0.124,-0.109 0.199,-0.141c0.044,-0.018 0.089,-0.031 0.136,-0.038c0.031,-0.004 0.039,-0.004 0.07,-0.006c0.012,0.001 0.023,0.001 0.035,0.001Z" style="fill:#b4dfc3;fill-rule:nonzero;"/></g></svg>