<?xml version="1.0" standalone="no"?><!DOCTYPE svg PUBLIC "-//W3C//DTD SVG 1.1//EN" "http://www.w3.org/Graphics/SVG/1.1/DTD/svg11.dtd"><svg width="100%" height="100%" viewBox="0 0 275 337" version="1.1" xmlns="http://www.w3.org/2000/svg" xmlns:xlink="http://www.w3.org/1999/xlink" xml:space="preserve" style="fill-rule:evenodd;clip-rule:evenodd;stroke-linecap:round;stroke-linejoin:round;stroke-miterlimit:1.41421;"><g><path d="M43.72,41.067c0,0 -33.678,49.688 -16.954,108.483c8.952,31.47 29.843,53.102 34.838,56.079c4.411,2.63 20.341,124.85 41.75,119.276c15.868,-4.132 -9.604,-79.427 -12.625,-97.475c-0.654,-3.906 4.178,29.568 18.624,27.329c12.445,-1.929 5.691,-20.221 5.691,-20.221c0,0 11.404,47.24 22.51,35.957c11.106,-11.284 0.414,-42.375 0.414,-42.375c0,0 5.492,31.199 20.942,28.371c13.368,-2.447 5.38,-35.508 5.38,-35.508c0,0 9.028,69.736 26.383,65.788c17.732,-4.034 -4.153,-102.458 -4.153,-102.458c0,0 39.413,-17.451 32.68,-67.991c-5.051,-37.913 -49,-91.99 -69.055,-91.181c-6.245,0.252 8.123,21.643 5.74,22.231c-4.059,1.002 -50.003,-13.198 -96.517,13.069c-0.642,0.363 -8.128,-22.757 -15.648,-19.374l0,0Z" style="fill:#feede5;"/><path d="M179.739,191.776c0.356,0.063 0.725,0.071 1.067,0.189c0.691,0.239 1.289,0.69 1.707,1.29c0.207,0.296 0.369,0.629 0.474,0.974c0.181,0.593 0.152,0.972 0.141,1.521c-0.003,0.152 -0.006,0.305 -0.009,0.457c-0.019,0.913 -0.044,1.825 -0.073,2.738c-0.074,2.266 -0.178,4.531 -0.318,6.794c-0.074,1.197 -0.158,2.393 -0.251,3.589l-0.001,0.018c-0.222,0.92 -0.182,1.229 -0.821,1.976c-0.235,0.274 -0.517,0.514 -0.825,0.703c-0.308,0.188 -0.65,0.33 -1.001,0.414c-0.711,0.17 -1.458,0.11 -2.133,-0.17c-0.334,-0.139 -0.649,-0.332 -0.923,-0.567c-0.275,-0.235 -0.515,-0.516 -0.703,-0.825c-0.189,-0.308 -0.33,-0.65 -0.414,-1.001c-0.145,-0.605 -0.091,-0.975 -0.05,-1.522c0.011,-0.145 0.022,-0.289 0.033,-0.433c0.021,-0.289 0.042,-0.578 0.062,-0.868c0.131,-1.893 0.239,-3.788 0.322,-5.684c0.091,-2.064 0.151,-4.13 0.19,-6.196l0.189,-1.066c0.445,-0.836 0.484,-1.145 1.29,-1.708c0.296,-0.207 0.649,-0.316 0.974,-0.474c0.358,-0.05 0.715,-0.1 1.073,-0.149l0,0ZM179.001,157.28c0.335,0.134 0.696,0.216 1.006,0.401c0.629,0.373 1.124,0.935 1.413,1.607c0.143,0.332 0.193,0.697 0.268,1.05c0.025,0.116 0.022,0.237 0.033,0.356c0.014,0.153 0.028,0.306 0.042,0.459c0.084,0.92 0.165,1.84 0.242,2.76c0.283,3.383 0.518,6.77 0.706,10.16l0.011,0.21c-0.097,0.942 -0.016,1.243 -0.55,2.068c-0.196,0.303 -0.443,0.579 -0.724,0.807c-0.567,0.461 -1.266,0.73 -1.996,0.77c-0.361,0.019 -0.729,-0.019 -1.078,-0.112c-0.349,-0.092 -0.687,-0.242 -0.99,-0.439c-0.303,-0.196 -0.579,-0.443 -0.807,-0.723c-0.227,-0.28 -0.413,-0.6 -0.543,-0.937c-0.212,-0.551 -0.213,-0.809 -0.238,-1.265c-0.017,-0.303 -0.034,-0.605 -0.051,-0.907c-0.026,-0.453 -0.053,-0.906 -0.081,-1.359c-0.113,-1.812 -0.238,-3.624 -0.378,-5.434c-0.14,-1.808 -0.295,-3.615 -0.461,-5.421l-0.032,-0.352c0.023,-0.36 -0.01,-0.728 0.069,-1.081c0.161,-0.713 0.543,-1.357 1.092,-1.84c0.271,-0.239 0.584,-0.436 0.916,-0.579c0.331,-0.143 0.7,-0.179 1.05,-0.268l1.081,0.069ZM174.089,122.926c0.345,0.106 0.711,0.16 1.036,0.319c0.656,0.322 1.194,0.843 1.536,1.49c0.169,0.319 0.245,0.679 0.35,1.025c0.028,0.09 0.033,0.186 0.049,0.279c0.024,0.141 0.049,0.283 0.073,0.424c0.172,0.994 0.341,1.988 0.506,2.983c0.555,3.334 1.072,6.673 1.556,10.018l0.011,0.074c-0.013,0.947 0.094,1.24 -0.365,2.109c-0.168,0.32 -0.39,0.616 -0.649,0.867c-0.524,0.51 -1.197,0.841 -1.921,0.945c-0.357,0.051 -0.727,0.046 -1.083,-0.016c-0.356,-0.062 -0.706,-0.181 -1.025,-0.349c-0.32,-0.169 -0.616,-0.391 -0.867,-0.65c-0.252,-0.259 -0.465,-0.561 -0.625,-0.885c-0.159,-0.324 -0.216,-0.689 -0.32,-1.035c-0.007,-0.023 -0.006,-0.048 -0.01,-0.072c-0.021,-0.145 -0.042,-0.29 -0.063,-0.435c-0.063,-0.434 -0.127,-0.868 -0.191,-1.302c-0.086,-0.577 -0.172,-1.153 -0.259,-1.729c-0.219,-1.429 -0.442,-2.857 -0.673,-4.284c-0.295,-1.828 -0.602,-3.654 -0.918,-5.478l-0.048,-0.277c-0.006,-0.361 -0.068,-0.725 -0.017,-1.083c0.051,-0.357 0.16,-0.711 0.319,-1.035c0.322,-0.657 0.844,-1.194 1.49,-1.536c0.319,-0.169 0.683,-0.234 1.025,-0.351c0.361,-0.005 0.722,-0.011 1.083,-0.016l0,0ZM166.725,89.021c0.352,0.082 0.721,0.11 1.055,0.246c0.678,0.275 1.251,0.758 1.637,1.379c0.313,0.503 0.376,0.811 0.494,1.292c0.055,0.224 0.11,0.448 0.165,0.672c0.167,0.682 0.333,1.364 0.497,2.047c0.629,2.619 1.236,5.243 1.822,7.871c0.111,0.497 0.221,0.993 0.33,1.49c0.055,0.25 0.11,0.5 0.165,0.751c0.119,0.545 0.225,0.922 0.162,1.543c-0.036,0.359 -0.13,0.717 -0.275,1.048c-0.146,0.33 -0.346,0.642 -0.586,0.911c-0.487,0.546 -1.134,0.924 -1.848,1.079c-0.353,0.077 -0.722,0.098 -1.082,0.062c-0.359,-0.036 -0.717,-0.13 -1.048,-0.276c-0.33,-0.145 -0.641,-0.345 -0.911,-0.585c-0.269,-0.241 -0.504,-0.527 -0.686,-0.839c-0.318,-0.545 -0.373,-0.919 -0.492,-1.466c-0.054,-0.247 -0.108,-0.494 -0.162,-0.741c-0.108,-0.49 -0.217,-0.979 -0.326,-1.469c-0.374,-1.669 -0.753,-3.338 -1.143,-5.004c-0.425,-1.815 -0.862,-3.627 -1.306,-5.438l-0.071,-0.288c-0.031,-0.36 -0.119,-0.72 -0.093,-1.08c0.026,-0.36 0.11,-0.72 0.246,-1.055c0.275,-0.677 0.758,-1.25 1.379,-1.636c0.307,-0.191 0.665,-0.281 0.998,-0.422c0.36,-0.031 0.72,-0.061 1.079,-0.092l0,0ZM155.657,56.363c0.103,-0.01 0.206,-0.025 0.309,-0.032c0.284,-0.017 0.569,0.002 0.848,0.053c0.229,0.041 0.453,0.107 0.67,0.191c0.218,0.086 0.427,0.194 0.624,0.319c0.143,0.09 0.278,0.19 0.407,0.298c0.099,0.084 0.195,0.172 0.285,0.264c0.325,0.331 0.59,0.716 0.821,1.117c0.156,0.272 0.299,0.553 0.434,0.836c0.104,0.217 0.203,0.436 0.299,0.656c0.157,0.357 0.306,0.717 0.451,1.078c0.204,0.51 0.401,1.022 0.592,1.537c0.223,0.601 0.439,1.204 0.651,1.809c0.329,0.941 0.647,1.886 0.957,2.833c0.407,1.243 0.801,2.491 1.187,3.741l0.11,0.359c0.133,0.937 0.285,1.21 -0.034,2.14c-0.117,0.341 -0.291,0.668 -0.508,0.957c-0.217,0.289 -0.482,0.546 -0.778,0.753c-0.599,0.421 -1.315,0.641 -2.046,0.629c-0.361,-0.006 -0.725,-0.07 -1.067,-0.187c-0.341,-0.117 -0.668,-0.291 -0.957,-0.508c-0.289,-0.217 -0.546,-0.482 -0.754,-0.778c-0.353,-0.504 -0.43,-0.825 -0.584,-1.326c-0.088,-0.285 -0.177,-0.571 -0.266,-0.856c-0.086,-0.276 -0.173,-0.552 -0.26,-0.828c-0.556,-1.754 -1.13,-3.504 -1.747,-5.238c-0.217,-0.607 -0.439,-1.212 -0.67,-1.814c-0.216,-0.559 -0.439,-1.116 -0.683,-1.664l-0.019,-0.042l-0.439,-0.352l-0.595,-0.905c-0.284,-1.041 -0.285,-1.05 -0.234,-2.127l0.018,-0.089c0.02,-0.081 0.029,-0.123 0.051,-0.201c0.044,-0.154 0.096,-0.306 0.158,-0.454c0.2,-0.475 0.499,-0.911 0.879,-1.261c0.141,-0.131 0.275,-0.234 0.433,-0.344c0.042,-0.028 0.086,-0.054 0.129,-0.079c0.081,-0.046 0.299,-0.169 0.412,-0.219c0.122,-0.054 0.339,-0.123 0.443,-0.159l0.007,-0.002l0.311,-0.075c0.052,-0.01 0.103,-0.02 0.155,-0.03l0,0ZM159.122,61.529c0.054,-0.101 0.105,-0.203 0.15,-0.308c0.05,-0.118 0.092,-0.239 0.126,-0.362c0.016,-0.056 0.024,-0.09 0.038,-0.148l0.006,-0.03c-0.107,0.282 -0.214,0.565 -0.32,0.848l0,0Z" style="fill:#f9d6ce;fill-rule:nonzero;"/><path d="M160.494,196.033c0.359,0.043 0.729,0.03 1.076,0.128c0.704,0.199 1.326,0.615 1.779,1.19c0.223,0.283 0.404,0.606 0.529,0.945c0.125,0.339 0.144,0.708 0.211,1.063c0.004,0.024 0.002,0.049 0.003,0.073c0.004,0.122 0.009,0.244 0.013,0.366c0.005,0.122 0.009,0.244 0.013,0.366c0.034,0.967 0.061,1.934 0.081,2.902c0.052,2.471 0.059,4.943 0.01,7.415c-0.018,0.913 -0.044,1.826 -0.077,2.74l-0.01,0.252c-0.184,0.928 -0.131,1.236 -0.739,2.008c-0.223,0.284 -0.494,0.535 -0.794,0.736c-0.608,0.407 -1.329,0.611 -2.06,0.583c-0.36,-0.014 -0.723,-0.085 -1.062,-0.21c-0.339,-0.125 -0.662,-0.305 -0.946,-0.529c-0.284,-0.223 -0.535,-0.494 -0.736,-0.794c-0.201,-0.3 -0.356,-0.636 -0.455,-0.984c-0.163,-0.576 -0.136,-0.846 -0.119,-1.32c0.008,-0.216 0.016,-0.433 0.023,-0.649c0.01,-0.327 0.02,-0.654 0.029,-0.981c0.05,-2.015 0.065,-4.032 0.045,-6.048c-0.019,-1.864 -0.068,-3.727 -0.137,-5.59l-0.002,-0.068c0.042,-0.358 0.029,-0.728 0.127,-1.075c0.199,-0.704 0.616,-1.327 1.19,-1.779c0.284,-0.224 0.631,-0.353 0.946,-0.529c0.354,-0.07 0.708,-0.141 1.062,-0.211l0,0ZM157.797,161.637c0.343,0.116 0.707,0.179 1.027,0.346c0.648,0.339 1.172,0.875 1.497,1.53c0.257,0.52 0.288,0.791 0.354,1.245c0.039,0.264 0.078,0.528 0.116,0.792c0.134,0.924 0.265,1.847 0.393,2.772c0.453,3.272 0.868,6.551 1.24,9.833l0.028,0.242c-0.043,0.946 0.055,1.242 -0.43,2.097c-0.178,0.314 -0.409,0.603 -0.675,0.847c-0.267,0.244 -0.576,0.447 -0.905,0.597c-0.665,0.302 -1.41,0.386 -2.126,0.239c-0.354,-0.072 -0.7,-0.202 -1.014,-0.381c-0.315,-0.178 -0.604,-0.409 -0.847,-0.675c-0.244,-0.267 -0.448,-0.576 -0.597,-0.904c-0.149,-0.329 -0.202,-0.694 -0.288,-1.045c-0.019,-0.078 -0.018,-0.159 -0.027,-0.239c-0.015,-0.127 -0.029,-0.255 -0.044,-0.383c-0.029,-0.256 -0.059,-0.512 -0.088,-0.767c-0.06,-0.513 -0.121,-1.026 -0.182,-1.539c-0.219,-1.807 -0.449,-3.612 -0.692,-5.417c-0.228,-1.689 -0.467,-3.377 -0.714,-5.064l-0.03,-0.207c0.004,-0.361 -0.049,-0.727 0.012,-1.083c0.122,-0.721 0.469,-1.385 0.992,-1.897c0.258,-0.252 0.56,-0.466 0.883,-0.627c0.324,-0.16 0.689,-0.215 1.034,-0.323l1.083,0.011ZM151.439,127.539c0.348,0.095 0.716,0.136 1.045,0.284c0.667,0.299 1.222,0.803 1.586,1.437c0.335,0.585 0.407,1.119 0.538,1.749c0.16,0.764 0.318,1.529 0.475,2.294c0.529,2.578 1.043,5.16 1.54,7.744c0.151,0.782 0.3,1.564 0.448,2.347c0.108,0.571 0.213,0.983 0.131,1.615c-0.046,0.358 -0.15,0.713 -0.305,1.039c-0.155,0.327 -0.363,0.632 -0.611,0.895c-0.248,0.262 -0.541,0.488 -0.858,0.661c-0.317,0.173 -0.666,0.298 -1.021,0.365c-0.718,0.135 -1.461,0.039 -2.122,-0.274c-0.326,-0.155 -0.632,-0.364 -0.894,-0.612c-0.263,-0.248 -0.489,-0.541 -0.662,-0.858c-0.308,-0.563 -0.355,-0.975 -0.463,-1.547c-0.049,-0.258 -0.098,-0.516 -0.147,-0.775c-0.098,-0.515 -0.197,-1.031 -0.296,-1.546c-0.297,-1.539 -0.598,-3.077 -0.906,-4.613c-0.405,-2.02 -0.82,-4.038 -1.241,-6.054l-0.053,-1.082c0.094,-0.349 0.136,-0.716 0.284,-1.046c0.299,-0.667 0.802,-1.222 1.437,-1.585c0.313,-0.18 0.675,-0.257 1.013,-0.385c0.36,-0.018 0.721,-0.035 1.082,-0.053l0,0ZM143.432,93.805c0.352,0.08 0.721,0.105 1.057,0.239c0.335,0.133 0.653,0.322 0.931,0.553c0.278,0.23 0.522,0.508 0.715,0.814c0.316,0.499 0.376,0.787 0.494,1.253c0.053,0.207 0.106,0.415 0.159,0.622c0.106,0.419 0.212,0.838 0.318,1.258c0.946,3.753 1.867,7.513 2.764,11.278l0.021,0.087c0.072,0.944 0.205,1.225 -0.173,2.133c-0.139,0.333 -0.333,0.648 -0.568,0.922c-0.235,0.274 -0.517,0.514 -0.826,0.702c-0.624,0.38 -1.353,0.553 -2.082,0.494c-0.36,-0.029 -0.719,-0.116 -1.053,-0.255c-0.333,-0.139 -0.648,-0.333 -0.922,-0.568c-0.274,-0.236 -0.514,-0.517 -0.702,-0.826c-0.188,-0.308 -0.278,-0.666 -0.412,-1.002c-0.01,-0.026 -0.013,-0.056 -0.02,-0.084c-0.054,-0.228 -0.109,-0.456 -0.163,-0.685c-0.108,-0.453 -0.217,-0.907 -0.326,-1.36c-0.162,-0.672 -0.325,-1.345 -0.488,-2.017c-0.681,-2.794 -1.374,-5.585 -2.081,-8.373l-0.157,-0.618l-0.065,-0.256l-0.1,-1.079c0.079,-0.352 0.104,-0.721 0.238,-1.057c0.27,-0.679 0.749,-1.255 1.367,-1.646c0.305,-0.193 0.663,-0.286 0.995,-0.429c0.36,-0.033 0.719,-0.066 1.079,-0.1l0,0ZM134.032,60.429c0.355,0.063 0.725,0.07 1.067,0.187c0.691,0.238 1.29,0.688 1.71,1.287c0.339,0.484 0.417,0.782 0.56,1.251c0.084,0.272 0.166,0.545 0.249,0.817c0.265,0.879 0.527,1.758 0.787,2.638c0.925,3.133 1.824,6.274 2.708,9.419l0.064,0.229c0.109,0.94 0.254,1.216 -0.088,2.138c-0.126,0.339 -0.307,0.661 -0.531,0.944c-0.224,0.283 -0.497,0.534 -0.797,0.734c-0.609,0.405 -1.331,0.607 -2.061,0.577c-0.361,-0.015 -0.724,-0.088 -1.062,-0.213c-0.339,-0.126 -0.661,-0.308 -0.944,-0.532c-0.284,-0.224 -0.534,-0.496 -0.734,-0.797c-0.329,-0.494 -0.388,-0.758 -0.515,-1.209c-0.153,-0.547 -0.308,-1.094 -0.462,-1.641c-0.146,-0.514 -0.292,-1.028 -0.438,-1.543c-0.586,-2.05 -1.178,-4.099 -1.782,-6.144c-0.361,-1.223 -0.726,-2.445 -1.1,-3.665l-0.151,-1.072c0.062,-0.356 0.07,-0.726 0.187,-1.068c0.237,-0.691 0.688,-1.29 1.286,-1.71c0.296,-0.207 0.649,-0.317 0.974,-0.475c0.357,-0.051 0.715,-0.101 1.073,-0.152l0,0Z" style="fill:#f9d6ce;fill-rule:nonzero;"/><path d="M77.26,199.224c0.354,0.071 0.723,0.089 1.061,0.215c0.339,0.126 0.661,0.308 0.944,0.533c0.282,0.224 0.493,0.528 0.732,0.798c0.031,0.034 0.051,0.077 0.077,0.115c0.093,0.14 0.186,0.28 0.279,0.42c0.094,0.141 0.188,0.281 0.282,0.421c0.188,0.281 0.377,0.562 0.567,0.843c1.062,1.568 2.138,3.127 3.231,4.673c1.122,1.587 2.263,3.16 3.416,4.724l0.499,0.962c0.155,0.934 0.313,1.202 0.016,2.14c-0.109,0.344 -0.275,0.675 -0.485,0.969c-0.21,0.293 -0.47,0.557 -0.761,0.771c-0.588,0.434 -1.299,0.671 -2.03,0.676c-0.361,0.003 -0.727,-0.052 -1.071,-0.161c-0.344,-0.109 -0.675,-0.275 -0.969,-0.485c-0.516,-0.369 -0.744,-0.722 -1.086,-1.187c-0.109,-0.147 -0.217,-0.295 -0.326,-0.443c-0.538,-0.734 -1.072,-1.47 -1.603,-2.209c-1.351,-1.878 -2.678,-3.773 -3.981,-5.685c-0.587,-0.862 -1.169,-1.728 -1.747,-2.597l-0.08,-0.121c-0.15,-0.328 -0.353,-0.637 -0.45,-0.985c-0.097,-0.348 -0.139,-0.716 -0.123,-1.077c0.031,-0.73 0.293,-1.432 0.748,-2.005c0.224,-0.282 0.497,-0.533 0.798,-0.732c0.301,-0.2 0.657,-0.3 0.985,-0.45c0.359,-0.041 0.718,-0.082 1.077,-0.123l0,0ZM60.82,169.14c0.338,0.125 0.701,0.198 1.016,0.374c0.315,0.176 0.606,0.405 0.851,0.67c0.407,0.44 0.504,0.688 0.702,1.116c0.118,0.254 0.236,0.507 0.354,0.759c0.119,0.254 0.239,0.508 0.358,0.762c0.735,1.548 1.487,3.088 2.26,4.618c0.987,1.953 2.006,3.89 3.052,5.813l0.362,1.021c0.025,0.946 0.145,1.234 -0.278,2.122c-0.155,0.326 -0.364,0.631 -0.613,0.893c-0.248,0.262 -0.542,0.488 -0.859,0.66c-0.317,0.173 -0.666,0.296 -1.021,0.362c-0.719,0.134 -1.461,0.037 -2.122,-0.277c-0.326,-0.155 -0.631,-0.365 -0.893,-0.613c-0.262,-0.249 -0.452,-0.564 -0.66,-0.859c-0.072,-0.102 -0.12,-0.219 -0.179,-0.329c-0.074,-0.136 -0.148,-0.273 -0.221,-0.409c-0.438,-0.81 -0.87,-1.624 -1.298,-2.44c-1.041,-1.989 -2.052,-3.994 -3.031,-6.015c-0.507,-1.048 -1.005,-2.101 -1.495,-3.158l-0.103,-0.222c-0.098,-0.348 -0.252,-0.684 -0.295,-1.043c-0.086,-0.726 0.06,-1.461 0.417,-2.099c0.176,-0.315 0.405,-0.606 0.67,-0.851c0.265,-0.246 0.573,-0.451 0.901,-0.603c0.327,-0.151 0.695,-0.196 1.042,-0.294l1.083,0.042ZM48.989,136.461c0.351,0.085 0.72,0.117 1.053,0.255c0.675,0.282 1.244,0.769 1.625,1.394c0.188,0.308 0.281,0.665 0.412,1.001c0.019,0.049 0.024,0.101 0.036,0.152c0.052,0.216 0.105,0.433 0.157,0.649c0.08,0.327 0.161,0.653 0.242,0.98c0.167,0.659 0.336,1.318 0.51,1.975c0.356,1.344 0.73,2.684 1.121,4.018c0.506,1.724 1.043,3.439 1.603,5.147l0.037,0.111c0.059,0.357 0.174,0.708 0.176,1.07c0.004,0.731 -0.224,1.444 -0.651,2.038c-0.21,0.294 -0.471,0.557 -0.762,0.771c-0.291,0.213 -0.619,0.383 -0.962,0.497c-0.695,0.229 -1.444,0.233 -2.14,0.011c-0.344,-0.11 -0.675,-0.276 -0.968,-0.487c-0.293,-0.21 -0.557,-0.47 -0.77,-0.762c-0.214,-0.291 -0.337,-0.639 -0.497,-0.962c-0.019,-0.038 -0.027,-0.08 -0.04,-0.119c-0.079,-0.241 -0.158,-0.483 -0.236,-0.724c-0.272,-0.835 -0.537,-1.673 -0.795,-2.512c-0.645,-2.096 -1.249,-4.204 -1.811,-6.324c-0.331,-1.251 -0.646,-2.507 -0.949,-3.766l-0.038,-0.16c-0.028,-0.36 -0.112,-0.72 -0.083,-1.08c0.059,-0.729 0.347,-1.42 0.823,-1.975c0.235,-0.274 0.517,-0.514 0.825,-0.702c0.309,-0.188 0.668,-0.275 1.002,-0.413c0.36,-0.027 0.72,-0.055 1.08,-0.083l0,0ZM44.77,102.139c0.356,0.059 0.726,0.064 1.068,0.179c0.343,0.115 0.671,0.286 0.961,0.501c0.588,0.435 1.023,1.045 1.242,1.742c0.109,0.345 0.114,0.714 0.16,1.072c0.007,0.054 -0.001,0.109 -0.002,0.163c0,0.083 -0.001,0.165 -0.001,0.247c-0.001,0.166 -0.002,0.331 -0.003,0.497c0,0.333 0,0.666 0.002,1c0.012,1.9 0.061,3.8 0.153,5.698c0.093,1.918 0.229,3.834 0.402,5.746l0.012,0.131c-0.023,0.36 0.009,0.729 -0.07,1.081c-0.161,0.713 -0.544,1.357 -1.093,1.84c-0.272,0.238 -0.585,0.436 -0.916,0.578c-0.332,0.143 -0.691,0.234 -1.05,0.268c-0.728,0.067 -1.459,-0.098 -2.088,-0.471c-0.31,-0.185 -0.595,-0.421 -0.833,-0.693c-0.238,-0.271 -0.436,-0.584 -0.579,-0.916c-0.142,-0.331 -0.184,-0.698 -0.267,-1.049c-0.01,-0.045 -0.008,-0.092 -0.013,-0.138c-0.017,-0.196 -0.035,-0.392 -0.052,-0.589c-0.084,-0.966 -0.159,-1.933 -0.224,-2.901c-0.148,-2.224 -0.243,-4.451 -0.285,-6.679c-0.023,-1.235 -0.028,-2.47 -0.02,-3.706l0.002,-0.17c0.06,-0.357 0.064,-0.726 0.179,-1.069c0.232,-0.693 0.678,-1.295 1.274,-1.72c0.294,-0.209 0.646,-0.322 0.969,-0.483c0.358,-0.053 0.715,-0.106 1.072,-0.159l0,0ZM50.063,67.976c0.336,0.132 0.697,0.214 1.008,0.397c0.311,0.184 0.596,0.419 0.835,0.69c0.485,0.548 0.783,1.235 0.853,1.963c0.034,0.359 -0.045,0.721 -0.067,1.081c-0.242,1.091 -0.49,2.18 -0.734,3.27c-0.376,1.687 -0.743,3.375 -1.08,5.07c-0.33,1.654 -0.632,3.312 -0.908,4.975l-0.011,0.062c-0.113,0.342 -0.174,0.707 -0.34,1.028c-0.335,0.65 -0.867,1.177 -1.52,1.506c-0.323,0.162 -0.675,0.275 -1.032,0.329c-0.357,0.055 -0.727,0.053 -1.084,-0.005c-0.356,-0.059 -0.707,-0.175 -1.028,-0.34c-0.65,-0.336 -1.177,-0.868 -1.506,-1.521c-0.162,-0.323 -0.275,-0.675 -0.329,-1.032c-0.055,-0.357 0,-0.722 0.005,-1.084c0,-0.023 0.008,-0.047 0.012,-0.07c0.02,-0.123 0.04,-0.247 0.061,-0.37c0.12,-0.718 0.246,-1.434 0.376,-2.15c0.259,-1.419 0.537,-2.835 0.831,-4.247c0.218,-1.048 0.446,-2.093 0.678,-3.138c0.25,-1.121 0.504,-2.241 0.755,-3.362l0.094,-0.423l0.397,-1.008c0.23,-0.278 0.419,-0.596 0.69,-0.835c0.736,-0.651 1.046,-0.616 1.963,-0.853c0.36,0.022 0.721,0.045 1.081,0.067l0,0Z" style="fill:#f9d6ce;fill-rule:nonzero;"/><path d="M124.345,201.783c0.335,0.136 0.695,0.221 1.004,0.407c0.309,0.187 0.592,0.425 0.829,0.698c0.389,0.449 0.479,0.701 0.662,1.131c0.093,0.22 0.186,0.44 0.28,0.66c0.14,0.327 0.281,0.655 0.423,0.982c0.787,1.813 1.596,3.617 2.436,5.406c0.76,1.619 1.545,3.224 2.356,4.818l0.132,0.257c0.112,0.343 0.279,0.673 0.336,1.03c0.116,0.722 0,1.462 -0.331,2.114c-0.164,0.322 -0.381,0.622 -0.636,0.877c-0.255,0.256 -0.554,0.474 -0.875,0.639c-0.651,0.333 -1.391,0.451 -2.113,0.338c-0.357,-0.056 -0.709,-0.17 -1.031,-0.333c-0.322,-0.164 -0.622,-0.381 -0.878,-0.636c-0.419,-0.417 -0.549,-0.701 -0.773,-1.139c-0.104,-0.204 -0.208,-0.409 -0.311,-0.614c-0.418,-0.828 -0.829,-1.66 -1.233,-2.495c-0.987,-2.039 -1.934,-4.097 -2.849,-6.17c-0.444,-1.008 -0.88,-2.019 -1.31,-3.033l-0.092,-0.217c-0.087,-0.35 -0.23,-0.691 -0.26,-1.051c-0.031,-0.36 -0.005,-0.729 0.077,-1.081c0.166,-0.712 0.552,-1.354 1.105,-1.832c0.273,-0.237 0.587,-0.432 0.92,-0.573c0.332,-0.141 0.701,-0.174 1.051,-0.26c0.361,0.025 0.721,0.051 1.081,0.077l0,0ZM112.046,169.077c0.356,0.064 0.726,0.072 1.067,0.191c0.341,0.118 0.667,0.292 0.955,0.51c0.288,0.218 0.545,0.484 0.752,0.781c0.206,0.296 0.317,0.648 0.473,0.974c0.007,0.016 0.01,0.033 0.015,0.05c0.039,0.127 0.077,0.254 0.116,0.381c0.116,0.381 0.233,0.761 0.35,1.141c0.156,0.506 0.312,1.011 0.47,1.517c1.044,3.342 2.125,6.672 3.253,9.986l0.185,1.068c-0.135,0.937 -0.066,1.241 -0.633,2.044c-0.208,0.295 -0.466,0.561 -0.755,0.777c-0.289,0.216 -0.617,0.389 -0.958,0.505c-0.693,0.236 -1.442,0.247 -2.14,0.03c-0.345,-0.106 -0.677,-0.27 -0.972,-0.478c-0.295,-0.208 -0.561,-0.466 -0.777,-0.755c-0.355,-0.474 -0.439,-0.764 -0.596,-1.225c-0.085,-0.25 -0.17,-0.501 -0.255,-0.752c-0.297,-0.88 -0.591,-1.761 -0.882,-2.644c-1.048,-3.181 -2.056,-6.375 -3.032,-9.579l-0.016,-0.053c-0.049,-0.358 -0.155,-0.712 -0.148,-1.073c0.014,-0.731 0.259,-1.439 0.7,-2.022c0.218,-0.288 0.484,-0.545 0.781,-0.752c0.296,-0.206 0.649,-0.315 0.974,-0.473c0.358,-0.049 0.716,-0.099 1.073,-0.149l0,0ZM103.225,135.662c0.351,0.084 0.72,0.114 1.054,0.252c0.333,0.137 0.649,0.33 0.924,0.564c0.275,0.235 0.515,0.516 0.705,0.823c0.351,0.573 0.434,1.081 0.584,1.7c0.061,0.252 0.122,0.504 0.183,0.756c0.124,0.505 0.247,1.01 0.371,1.515c0.854,3.471 1.731,6.937 2.639,10.395l0.108,1.078c-0.202,0.925 -0.154,1.233 -0.777,1.994c-0.229,0.279 -0.505,0.525 -0.809,0.721c-0.303,0.195 -0.642,0.343 -0.991,0.435c-0.708,0.186 -1.456,0.143 -2.137,-0.122c-0.336,-0.131 -0.656,-0.318 -0.935,-0.547c-0.28,-0.228 -0.526,-0.505 -0.721,-0.808c-0.338,-0.526 -0.415,-0.909 -0.556,-1.45c-0.068,-0.259 -0.136,-0.518 -0.203,-0.777c-0.202,-0.776 -0.403,-1.552 -0.602,-2.329c-0.593,-2.31 -1.173,-4.623 -1.742,-6.939c-0.188,-0.764 -0.374,-1.528 -0.559,-2.293c-0.149,-0.618 -0.308,-1.117 -0.256,-1.783c0.057,-0.729 0.342,-1.422 0.817,-1.978c0.234,-0.275 0.515,-0.516 0.822,-0.705c0.308,-0.189 0.667,-0.277 1.001,-0.416c0.36,-0.029 0.72,-0.057 1.08,-0.086ZM95.993,101.848c0.911,0.258 1.221,0.231 1.942,0.9c0.265,0.245 0.493,0.536 0.669,0.852c0.32,0.573 0.381,1.059 0.5,1.663c0.126,0.636 0.253,1.272 0.38,1.908c0.13,0.647 0.26,1.294 0.391,1.94c0.593,2.924 1.199,5.846 1.82,8.764l0.055,0.255c0.019,0.361 0.095,0.723 0.057,1.082c-0.076,0.727 -0.38,1.412 -0.868,1.956c-0.242,0.268 -0.529,0.502 -0.842,0.682c-0.633,0.367 -1.365,0.523 -2.093,0.447c-0.359,-0.037 -0.716,-0.133 -1.046,-0.279c-0.33,-0.147 -0.641,-0.348 -0.909,-0.589c-0.269,-0.242 -0.502,-0.529 -0.683,-0.842c-0.295,-0.51 -0.344,-0.8 -0.444,-1.269c-0.05,-0.233 -0.099,-0.465 -0.149,-0.698c-0.195,-0.921 -0.389,-1.842 -0.582,-2.764c-0.687,-3.29 -1.354,-6.584 -2.005,-9.881l-0.004,-0.021c-0.014,-0.361 -0.084,-0.724 -0.04,-1.082c0.043,-0.359 0.144,-0.715 0.296,-1.043c0.307,-0.663 0.817,-1.212 1.456,-1.568c0.315,-0.176 0.678,-0.249 1.017,-0.373c0.361,-0.013 0.721,-0.027 1.082,-0.04l0,0ZM90.136,67.774c0.343,0.114 0.707,0.177 1.027,0.344c0.649,0.338 1.173,0.873 1.499,1.527c0.269,0.54 0.295,0.832 0.368,1.318c0.041,0.277 0.084,0.555 0.126,0.832c0.091,0.594 0.184,1.187 0.277,1.78c0.559,3.544 1.15,7.083 1.76,10.618l0.013,0.072c0.005,0.361 0.067,0.726 0.016,1.084c-0.104,0.723 -0.434,1.396 -0.943,1.921c-0.252,0.259 -0.548,0.481 -0.867,0.649c-0.647,0.342 -1.385,0.47 -2.109,0.366c-0.357,-0.051 -0.711,-0.16 -1.035,-0.319c-0.324,-0.159 -0.626,-0.372 -0.886,-0.624c-0.259,-0.251 -0.481,-0.547 -0.649,-0.867c-0.181,-0.341 -0.298,-0.72 -0.363,-1.1c-0.05,-0.29 -0.101,-0.58 -0.15,-0.869c-0.185,-1.076 -0.368,-2.151 -0.549,-3.227c-0.289,-1.721 -0.572,-3.443 -0.848,-5.167c-0.235,-1.47 -0.466,-2.941 -0.685,-4.414l0.01,-1.083c0.115,-0.342 0.177,-0.707 0.344,-1.027c0.338,-0.649 0.873,-1.173 1.527,-1.499c0.324,-0.161 0.689,-0.217 1.034,-0.325l1.083,0.01Z" style="fill:#f9d6ce;fill-rule:nonzero;"/><path d="M150.45,232.077c0.895,0.309 1.206,0.299 1.888,1.007c0.251,0.26 0.462,0.563 0.62,0.888c0.158,0.325 0.214,0.69 0.316,1.036c0.006,0.022 0.006,0.045 0.009,0.067c0.016,0.113 0.031,0.227 0.047,0.34c0.016,0.113 0.031,0.226 0.046,0.339c0.194,1.425 0.376,2.852 0.546,4.28l-0.042,1.082c-0.327,0.889 -0.323,1.2 -1.045,1.868c-0.265,0.245 -0.572,0.451 -0.9,0.603c-0.328,0.151 -0.684,0.252 -1.043,0.294c-0.726,0.087 -1.461,-0.059 -2.099,-0.416c-0.315,-0.176 -0.606,-0.405 -0.851,-0.67c-0.245,-0.265 -0.451,-0.573 -0.602,-0.901c-0.254,-0.549 -0.273,-0.857 -0.332,-1.356c-0.038,-0.314 -0.076,-0.628 -0.115,-0.942c-0.053,-0.426 -0.107,-0.852 -0.162,-1.277c-0.099,-0.765 -0.202,-1.529 -0.308,-2.293l-0.008,-0.062c0.006,-0.361 -0.043,-0.728 0.02,-1.084c0.063,-0.355 0.184,-0.705 0.354,-1.023c0.344,-0.646 0.884,-1.165 1.541,-1.485c0.325,-0.158 0.691,-0.21 1.037,-0.316c0.361,0.007 0.722,0.014 1.083,0.021ZM144.041,197.978c0.349,0.094 0.717,0.135 1.046,0.282c0.668,0.299 1.223,0.802 1.588,1.436c0.317,0.552 0.378,0.973 0.497,1.543c0.179,0.849 0.356,1.699 0.531,2.55c0.516,2.495 1.019,4.993 1.509,7.493c0.159,0.813 0.316,1.626 0.472,2.44c0.115,0.601 0.236,1.062 0.154,1.711c-0.045,0.358 -0.148,0.713 -0.302,1.04c-0.153,0.327 -0.361,0.633 -0.609,0.896c-0.247,0.263 -0.539,0.49 -0.855,0.664c-0.641,0.353 -1.377,0.493 -2.103,0.402c-0.358,-0.046 -0.713,-0.149 -1.04,-0.302c-0.327,-0.154 -0.633,-0.362 -0.896,-0.609c-0.263,-0.247 -0.49,-0.54 -0.664,-0.856c-0.317,-0.577 -0.371,-1.04 -0.486,-1.643c-0.051,-0.267 -0.103,-0.533 -0.154,-0.8c-0.104,-0.538 -0.209,-1.076 -0.314,-1.613c-0.322,-1.641 -0.648,-3.281 -0.981,-4.92c-0.341,-1.678 -0.688,-3.355 -1.039,-5.031l-0.111,-0.527c-0.018,-0.361 -0.093,-0.723 -0.055,-1.082c0.039,-0.359 0.135,-0.717 0.283,-1.046c0.299,-0.668 0.801,-1.223 1.435,-1.588c0.313,-0.18 0.675,-0.257 1.012,-0.386c0.361,-0.018 0.722,-0.036 1.082,-0.054l0,0ZM136.259,164.206c0.351,0.084 0.72,0.114 1.054,0.252c0.675,0.279 1.246,0.764 1.628,1.387c0.349,0.568 0.433,1.071 0.581,1.683c0.145,0.603 0.29,1.206 0.435,1.809c0.863,3.602 1.713,7.208 2.549,10.817l0.047,0.204c0.066,0.944 0.198,1.226 -0.186,2.131c-0.141,0.333 -0.337,0.647 -0.574,0.919c-0.48,0.552 -1.122,0.938 -1.835,1.103c-0.351,0.081 -0.721,0.107 -1.08,0.075c-0.36,-0.031 -0.719,-0.121 -1.051,-0.262c-0.333,-0.141 -0.647,-0.337 -0.919,-0.574c-0.273,-0.236 -0.511,-0.52 -0.697,-0.829c-0.303,-0.504 -0.349,-0.761 -0.452,-1.206c-0.069,-0.298 -0.138,-0.595 -0.207,-0.893c-0.138,-0.596 -0.277,-1.192 -0.416,-1.788c-0.21,-0.896 -0.42,-1.793 -0.631,-2.689c-0.62,-2.626 -1.247,-5.251 -1.88,-7.874l-0.086,-1.08c0.084,-0.352 0.114,-0.72 0.252,-1.054c0.279,-0.676 0.764,-1.246 1.388,-1.629c0.307,-0.189 0.666,-0.277 1,-0.416c0.36,-0.029 0.72,-0.057 1.08,-0.086l0,0ZM127.746,130.623c0.353,0.077 0.722,0.1 1.058,0.232c0.681,0.267 1.26,0.742 1.654,1.358c0.195,0.304 0.289,0.662 0.434,0.993c0.342,1.314 0.684,2.629 1.024,3.944c0.605,2.339 1.207,4.679 1.804,7.02c0.151,0.591 0.301,1.182 0.451,1.773c0.157,0.616 0.32,1.109 0.277,1.776c-0.024,0.361 -0.106,0.722 -0.239,1.057c-0.134,0.335 -0.324,0.653 -0.554,0.931c-0.231,0.278 -0.51,0.522 -0.815,0.714c-0.618,0.391 -1.345,0.575 -2.074,0.527c-0.361,-0.024 -0.721,-0.105 -1.057,-0.239c-0.679,-0.271 -1.255,-0.75 -1.645,-1.369c-0.193,-0.305 -0.285,-0.663 -0.428,-0.995c-0.283,-1.115 -0.567,-2.229 -0.851,-3.344c-0.817,-3.19 -1.64,-6.379 -2.469,-9.567l-0.126,-0.482c-0.035,-0.359 -0.127,-0.717 -0.105,-1.078c0.043,-0.73 0.316,-1.427 0.78,-1.992c0.229,-0.279 0.506,-0.525 0.81,-0.72c0.304,-0.194 0.662,-0.289 0.993,-0.434c0.359,-0.035 0.719,-0.07 1.078,-0.105l0,0ZM118.732,97.175c0.353,0.073 0.723,0.091 1.061,0.218c0.338,0.127 0.66,0.31 0.942,0.535c0.282,0.225 0.532,0.499 0.73,0.8c0.213,0.322 0.365,0.686 0.467,1.058c0.129,0.468 0.257,0.935 0.386,1.402c0.13,0.475 0.26,0.949 0.39,1.423c0.676,2.467 1.348,4.934 2.017,7.403c0.138,0.511 0.277,1.023 0.415,1.534c0.196,0.726 0.574,1.807 0.533,2.624c-0.018,0.361 -0.094,0.723 -0.223,1.061c-0.129,0.337 -0.313,0.658 -0.54,0.939c-0.227,0.281 -0.501,0.529 -0.804,0.726c-0.612,0.4 -1.336,0.595 -2.066,0.558c-0.361,-0.018 -0.723,-0.095 -1.06,-0.223c-0.337,-0.129 -0.658,-0.313 -0.939,-0.54c-0.281,-0.227 -0.529,-0.501 -0.727,-0.804c-0.447,-0.686 -0.663,-1.807 -0.859,-2.534c-0.138,-0.51 -0.276,-1.02 -0.415,-1.53c-0.272,-1.003 -0.544,-2.006 -0.817,-3.009c-0.653,-2.398 -1.309,-4.796 -1.968,-7.193l-0.019,-0.07c-0.04,-0.358 -0.137,-0.715 -0.121,-1.076c0.034,-0.731 0.297,-1.432 0.753,-2.003c0.226,-0.283 0.499,-0.532 0.8,-0.731c0.302,-0.199 0.658,-0.298 0.987,-0.447c0.359,-0.041 0.718,-0.081 1.077,-0.121l0,0ZM109.269,63.85c0.93,0.176 1.237,0.12 2.015,0.721c0.285,0.221 0.539,0.49 0.743,0.789c0.203,0.298 0.321,0.647 0.462,0.979c0.047,0.111 0.068,0.231 0.101,0.346c0.042,0.142 0.083,0.284 0.124,0.426c0.217,0.744 0.433,1.488 0.648,2.233c0.986,3.412 1.961,6.827 2.931,10.244l0.026,0.092c0.112,0.94 0.257,1.216 -0.082,2.138c-0.125,0.339 -0.305,0.662 -0.528,0.946c-0.224,0.284 -0.495,0.536 -0.795,0.737c-0.607,0.407 -1.328,0.611 -2.059,0.583c-0.361,-0.014 -0.724,-0.086 -1.063,-0.21c-0.339,-0.125 -0.662,-0.305 -0.946,-0.529c-0.772,-0.607 -0.793,-0.918 -1.191,-1.778c-0.346,-1.223 -0.694,-2.446 -1.043,-3.669c-0.883,-3.093 -1.77,-6.185 -2.67,-9.273l-0.1,-0.343c-0.046,-0.358 -0.148,-0.714 -0.137,-1.075c0.01,-0.361 0.079,-0.724 0.201,-1.064c0.247,-0.688 0.705,-1.281 1.309,-1.693c0.298,-0.204 0.653,-0.309 0.98,-0.463c0.358,-0.046 0.716,-0.092 1.074,-0.137l0,0Z" style="fill:#f9d6ce;fill-rule:nonzero;"/><path d="M119.704,230.137c0.354,0.071 0.724,0.088 1.062,0.213c0.339,0.125 0.633,0.348 0.945,0.531c0.041,0.024 0.074,0.059 0.112,0.088c0.08,0.063 0.16,0.126 0.24,0.189c0.161,0.125 0.322,0.25 0.484,0.374c0.525,0.402 1.053,0.8 1.588,1.19c0.861,0.627 1.735,1.236 2.621,1.828l0.126,0.085l0.13,0.085l0.798,0.732c0.466,0.825 0.707,1.023 0.749,2.005c0.016,0.361 -0.026,0.729 -0.123,1.076c-0.096,0.348 -0.25,0.685 -0.449,0.986c-0.404,0.61 -0.99,1.076 -1.675,1.332c-0.339,0.126 -0.701,0.2 -1.062,0.216c-0.361,0.015 -0.729,-0.027 -1.076,-0.123c-0.348,-0.097 -0.661,-0.293 -0.986,-0.45c-0.003,-0.001 -0.273,-0.181 -0.274,-0.182c-0.368,-0.245 -0.735,-0.494 -1.099,-0.745c-1.501,-1.036 -2.968,-2.122 -4.399,-3.254l-0.734,-0.796c-0.151,-0.328 -0.355,-0.637 -0.452,-0.985c-0.098,-0.347 -0.141,-0.715 -0.126,-1.076c0.014,-0.361 0.087,-0.723 0.212,-1.062c0.254,-0.686 0.719,-1.273 1.328,-1.679c0.3,-0.2 0.656,-0.301 0.984,-0.452c0.359,-0.042 0.717,-0.084 1.076,-0.126l0,0ZM97.125,204.199c0.352,0.081 0.721,0.107 1.056,0.242c0.335,0.135 0.652,0.325 0.929,0.557c0.277,0.232 0.484,0.537 0.712,0.817c0.058,0.071 0.098,0.156 0.147,0.234c0.058,0.093 0.117,0.187 0.176,0.28c0.118,0.186 0.236,0.372 0.355,0.558c0.356,0.554 0.714,1.106 1.078,1.655c0.843,1.27 1.71,2.523 2.602,3.758c0.694,0.959 1.403,1.908 2.128,2.844c0.393,0.508 0.791,1.01 1.192,1.511l0.092,0.114c0.18,0.313 0.411,0.602 0.54,0.939c0.261,0.683 0.298,1.431 0.108,2.137c-0.094,0.349 -0.245,0.687 -0.442,0.989c-0.4,0.613 -0.983,1.083 -1.666,1.344c-0.337,0.129 -0.699,0.205 -1.06,0.223c-0.361,0.019 -0.729,-0.021 -1.077,-0.115c-0.349,-0.094 -0.687,-0.245 -0.989,-0.442c-0.303,-0.197 -0.541,-0.479 -0.804,-0.727c-0.038,-0.036 -0.066,-0.081 -0.099,-0.122c-0.143,-0.178 -0.285,-0.356 -0.426,-0.534c-0.569,-0.716 -1.128,-1.438 -1.678,-2.167c-1.458,-1.931 -2.854,-3.908 -4.191,-5.923c-0.631,-0.952 -1.249,-1.912 -1.855,-2.879l-0.424,-0.997c-0.032,-0.36 -0.121,-0.719 -0.096,-1.079c0.05,-0.73 0.33,-1.425 0.799,-1.985c0.232,-0.277 0.511,-0.52 0.817,-0.712c0.306,-0.192 0.665,-0.283 0.997,-0.425c0.36,-0.031 0.719,-0.063 1.079,-0.095l0,0ZM82.125,172.918c0.358,0.049 0.728,0.043 1.073,0.148c0.346,0.105 0.679,0.267 0.975,0.473c0.296,0.207 0.563,0.463 0.781,0.751c0.218,0.288 0.342,0.636 0.51,0.956c0.006,0.012 0.009,0.025 0.013,0.037c0.039,0.112 0.078,0.224 0.117,0.336c0.079,0.224 0.158,0.448 0.236,0.671c0.119,0.335 0.239,0.669 0.359,1.003c0.681,1.881 1.389,3.751 2.133,5.608c0.649,1.622 1.325,3.232 2.024,4.833l0.065,0.147c0.091,0.349 0.239,0.689 0.275,1.048c0.073,0.727 -0.087,1.459 -0.456,2.091c-0.182,0.312 -0.416,0.598 -0.686,0.838c-0.269,0.241 -0.58,0.441 -0.911,0.586c-0.67,0.294 -1.415,0.368 -2.129,0.213c-0.353,-0.077 -0.698,-0.211 -1.01,-0.393c-0.312,-0.183 -0.598,-0.417 -0.838,-0.686c-0.241,-0.27 -0.397,-0.604 -0.586,-0.912c-0.029,-0.048 -0.045,-0.102 -0.067,-0.154c-0.097,-0.221 -0.194,-0.443 -0.29,-0.665c-0.385,-0.89 -0.763,-1.784 -1.133,-2.681c-0.885,-2.145 -1.727,-4.307 -2.527,-6.484c-0.382,-1.039 -0.753,-2.08 -1.117,-3.125l-0.015,-0.044c-0.064,-0.355 -0.184,-0.705 -0.191,-1.066c-0.014,-0.732 0.204,-1.448 0.622,-2.048c0.207,-0.296 0.463,-0.563 0.751,-0.781c0.288,-0.218 0.637,-0.34 0.956,-0.51c0.355,-0.064 0.711,-0.127 1.066,-0.19l0,0ZM74.139,139.437c0.344,0.107 0.71,0.161 1.034,0.32c0.324,0.16 0.627,0.373 0.886,0.625c0.258,0.252 0.48,0.548 0.648,0.868c0.285,0.54 0.325,0.891 0.416,1.41c0.042,0.241 0.085,0.481 0.128,0.722c0.064,0.36 0.13,0.72 0.195,1.081c0.354,1.919 0.728,3.834 1.129,5.743c0.375,1.786 0.773,3.567 1.19,5.343l0.021,0.085c0.027,0.36 0.111,0.72 0.081,1.08c-0.059,0.729 -0.348,1.42 -0.824,1.975c-0.236,0.274 -0.518,0.513 -0.826,0.701c-0.309,0.188 -0.651,0.328 -1.002,0.412c-0.712,0.168 -1.459,0.107 -2.133,-0.175c-0.334,-0.139 -0.649,-0.333 -0.922,-0.569c-0.274,-0.235 -0.514,-0.517 -0.702,-0.825c-0.187,-0.309 -0.278,-0.667 -0.411,-1.003c-0.012,-0.029 -0.015,-0.06 -0.022,-0.09c-0.028,-0.122 -0.057,-0.244 -0.086,-0.367c-0.028,-0.122 -0.057,-0.244 -0.085,-0.366c-0.227,-0.977 -0.448,-1.956 -0.662,-2.936c-0.483,-2.209 -0.933,-4.425 -1.351,-6.648c-0.209,-1.112 -0.41,-2.225 -0.604,-3.34l-0.005,-0.03c-0.005,-0.361 -0.067,-0.726 -0.015,-1.083c0.104,-0.724 0.435,-1.396 0.945,-1.92c0.252,-0.259 0.548,-0.481 0.868,-0.649c0.319,-0.169 0.683,-0.233 1.025,-0.349c0.361,-0.005 0.722,-0.01 1.084,-0.015l0,0ZM70.051,104.981c0.358,0.045 0.728,0.035 1.074,0.135c0.347,0.101 0.682,0.258 0.981,0.461c0.605,0.411 1.064,1.003 1.312,1.691c0.206,0.572 0.197,0.885 0.214,1.393c0.008,0.239 0.016,0.477 0.024,0.716c0.013,0.359 0.027,0.717 0.041,1.076c0.073,1.8 0.163,3.6 0.274,5.398c0.126,2.041 0.279,4.08 0.455,6.117l-0.077,1.081c-0.355,0.877 -0.361,1.189 -1.104,1.833c-0.272,0.237 -0.586,0.432 -0.919,0.573c-0.333,0.141 -0.692,0.23 -1.051,0.261c-0.36,0.031 -0.729,0.005 -1.081,-0.077c-0.712,-0.165 -1.354,-0.551 -1.833,-1.104c-0.237,-0.272 -0.433,-0.586 -0.573,-0.919c-0.141,-0.333 -0.187,-0.698 -0.261,-1.051c-0.023,-0.111 -0.02,-0.225 -0.029,-0.337c-0.011,-0.124 -0.022,-0.248 -0.032,-0.373c-0.083,-0.991 -0.161,-1.984 -0.233,-2.977c-0.151,-2.099 -0.277,-4.201 -0.376,-6.303c-0.052,-1.107 -0.096,-2.214 -0.135,-3.321l-0.012,-0.368l-0.01,-0.335l0.135,-1.074c0.154,-0.327 0.258,-0.682 0.461,-0.981c0.552,-0.813 0.861,-0.856 1.69,-1.312c0.355,-0.068 0.71,-0.136 1.065,-0.203l0,0ZM72.044,70.442c0.348,0.099 0.715,0.145 1.042,0.297c0.663,0.308 1.212,0.819 1.567,1.458c0.176,0.315 0.303,0.663 0.372,1.017c0.117,0.597 0.061,0.905 0,1.41c-0.026,0.216 -0.052,0.433 -0.077,0.65c-0.038,0.326 -0.076,0.652 -0.112,0.978c-0.209,1.873 -0.394,3.747 -0.552,5.625c-0.161,1.914 -0.294,3.83 -0.406,5.747l-0.014,0.246c-0.076,0.352 -0.099,0.722 -0.23,1.058c-0.264,0.682 -0.738,1.262 -1.353,1.658c-0.304,0.195 -0.643,0.344 -0.992,0.436c-0.707,0.186 -1.455,0.144 -2.136,-0.121c-0.337,-0.131 -0.657,-0.317 -0.936,-0.545c-0.28,-0.229 -0.526,-0.505 -0.722,-0.809c-0.195,-0.303 -0.344,-0.642 -0.436,-0.991c-0.149,-0.565 -0.122,-0.856 -0.095,-1.329c0.014,-0.234 0.027,-0.469 0.042,-0.703c0.056,-0.933 0.118,-1.867 0.187,-2.799c0.159,-2.185 0.351,-4.368 0.577,-6.547c0.117,-1.128 0.244,-2.256 0.379,-3.383l0.041,-0.333c0.099,-0.347 0.145,-0.714 0.297,-1.042c0.308,-0.663 0.818,-1.211 1.457,-1.567c0.316,-0.175 0.678,-0.248 1.018,-0.372c0.361,-0.013 0.721,-0.026 1.082,-0.039l0,0Z" style="fill:#f9d6ce;fill-rule:nonzero;"/><path d="M64.49,205.963c-1.601,-6.181 7.768,-10.261 13.165,-7.56c5.21,2.607 12.361,7.006 17.491,4.835c12.525,-5.299 13.069,-12.926 29.525,-5.657c7.122,3.146 9.662,2.652 17.301,-4.975c5.461,-5.453 11.629,-4.02 21.296,3.176c8.218,6.118 6.498,-7.92 16.374,-10.887c6.61,-1.987 9.847,23.08 9.847,23.08l8.61,36.35l-1.942,36.006l-6.684,7.415l-7.837,-7.013l-6.355,-13.316l-6.427,-21.697l-6.319,6.792l-9.165,2.778l-9.772,-9.609l-4.523,24.65l-9.789,-0.327l-11.348,-28.077l-3.922,8.923l-7.614,2.95l-9.103,-7.613l4.848,25.966l6.661,33.816l-3.642,16.65l-8.27,0.22l-7.572,-11.614l-7.965,-26.075l-6.645,-32.991l-10.224,-46.196l0,0Z" style="fill:#f9d6ce;"/><path d="M196.29,149.976c0.341,0.117 0.706,0.182 1.025,0.35c0.319,0.169 0.615,0.391 0.867,0.65c0.509,0.525 0.839,1.197 0.943,1.921c0.051,0.358 0.001,0.723 -0.017,1.083c-0.005,0.101 -0.034,0.199 -0.051,0.298c-0.022,0.122 -0.043,0.245 -0.065,0.367c-0.11,0.615 -0.225,1.229 -0.344,1.843c-0.488,2.506 -1.055,4.997 -1.7,7.468c-0.132,0.505 -0.267,1.009 -0.405,1.512c-0.139,0.508 -0.217,0.854 -0.551,1.36c-0.199,0.301 -0.449,0.574 -0.731,0.8c-0.283,0.225 -0.604,0.407 -0.943,0.534c-0.684,0.257 -1.433,0.29 -2.138,0.095c-0.348,-0.096 -0.684,-0.249 -0.986,-0.448c-0.301,-0.199 -0.574,-0.449 -0.799,-0.731c-0.225,-0.282 -0.408,-0.604 -0.535,-0.942c-0.126,-0.338 -0.201,-0.701 -0.217,-1.062c-0.016,-0.36 0.067,-0.719 0.122,-1.076c0.019,-0.124 0.067,-0.242 0.1,-0.363c0.033,-0.119 0.065,-0.238 0.097,-0.357c0.065,-0.238 0.128,-0.476 0.191,-0.714c0.125,-0.473 0.248,-0.947 0.367,-1.422c0.235,-0.94 0.459,-1.882 0.671,-2.827c0.41,-1.831 0.773,-3.672 1.094,-5.52l0.35,-1.025c0.217,-0.289 0.391,-0.616 0.65,-0.867c0.706,-0.685 1.017,-0.664 1.921,-0.943c0.361,0.005 0.723,0.011 1.084,0.016l0,0ZM197.045,115.496c0.34,0.121 0.704,0.191 1.02,0.364c0.642,0.351 1.156,0.895 1.469,1.556c0.155,0.327 0.212,0.691 0.305,1.04c0.017,0.061 0.017,0.126 0.025,0.189c0.026,0.21 0.053,0.42 0.079,0.631c0.117,0.956 0.222,1.913 0.317,2.871c0.235,2.397 0.4,4.801 0.491,7.208c0.042,1.105 0.067,2.209 0.079,3.315l-0.158,1.071c-0.42,0.849 -0.449,1.159 -1.238,1.745c-0.29,0.216 -0.618,0.387 -0.96,0.503c-0.342,0.115 -0.707,0.177 -1.068,0.181c-0.731,0.008 -1.446,-0.216 -2.043,-0.639c-0.294,-0.209 -0.559,-0.468 -0.774,-0.757c-0.216,-0.29 -0.387,-0.618 -0.503,-0.96c-0.115,-0.342 -0.132,-0.711 -0.181,-1.068c-0.012,-0.093 -0.002,-0.188 -0.003,-0.281c-0.001,-0.106 -0.003,-0.213 -0.004,-0.319c-0.004,-0.211 -0.008,-0.423 -0.012,-0.635c-0.014,-0.631 -0.032,-1.263 -0.056,-1.894c-0.051,-1.349 -0.126,-2.696 -0.226,-4.043c-0.097,-1.321 -0.218,-2.64 -0.362,-3.957c-0.076,-0.7 -0.16,-1.398 -0.248,-2.096l-0.023,-0.179c0.01,-0.361 -0.036,-0.728 0.031,-1.083c0.135,-0.719 0.495,-1.376 1.026,-1.878c0.263,-0.248 0.568,-0.457 0.895,-0.612c0.326,-0.154 0.693,-0.203 1.039,-0.305c0.361,0.011 0.722,0.021 1.083,0.032l0,0ZM188.075,82.233c0.877,0.357 1.188,0.363 1.831,1.107c0.236,0.274 0.389,0.609 0.571,0.921c0.038,0.064 0.058,0.137 0.087,0.206c0.032,0.077 0.065,0.155 0.097,0.233c0.263,0.628 0.521,1.258 0.774,1.889c0.923,2.304 1.785,4.632 2.584,6.982c0.447,1.316 0.872,2.639 1.28,3.968l0.021,0.071c0.131,0.938 0.282,1.21 -0.04,2.14c-0.118,0.341 -0.292,0.667 -0.509,0.956c-0.218,0.288 -0.485,0.544 -0.781,0.751c-0.599,0.419 -1.316,0.637 -2.047,0.623c-0.361,-0.006 -0.725,-0.071 -1.067,-0.189c-0.341,-0.118 -0.667,-0.292 -0.955,-0.51c-0.289,-0.217 -0.545,-0.484 -0.752,-0.78c-0.207,-0.296 -0.319,-0.648 -0.474,-0.974c-0.009,-0.02 -0.013,-0.043 -0.019,-0.064c-0.026,-0.085 -0.052,-0.17 -0.078,-0.255c-0.053,-0.17 -0.106,-0.34 -0.158,-0.509c-0.08,-0.253 -0.16,-0.506 -0.24,-0.759c-0.502,-1.566 -1.031,-3.124 -1.591,-4.671c-0.782,-2.162 -1.623,-4.302 -2.515,-6.422l-0.259,-1.052c0.027,-0.36 -0.003,-0.729 0.079,-1.08c0.167,-0.712 0.555,-1.353 1.108,-1.831c0.273,-0.236 0.588,-0.431 0.921,-0.571c0.332,-0.141 0.701,-0.173 1.052,-0.259l1.08,0.079ZM169.715,52.148c0.191,-0.019 0.382,-0.038 0.573,-0.057c0.259,-0.026 0.56,0.038 0.816,0.081l0.01,0.002c0.881,0.346 1.192,0.348 1.845,1.084c0.24,0.27 0.389,0.608 0.583,0.913l0.052,0.197c0.213,0.322 0.434,0.639 0.655,0.956c0.325,0.467 0.651,0.934 0.975,1.401c0.157,0.227 0.313,0.453 0.469,0.679c0.815,1.188 1.619,2.383 2.404,3.59c0.929,1.428 1.832,2.871 2.714,4.328l0.409,1.003c0.069,0.945 0.202,1.227 -0.179,2.133c-0.14,0.333 -0.335,0.647 -0.571,0.92c-0.478,0.554 -1.119,0.942 -1.831,1.109c-0.352,0.082 -0.721,0.109 -1.081,0.079c-0.36,-0.031 -0.719,-0.119 -1.052,-0.259c-0.333,-0.14 -0.647,-0.335 -0.92,-0.571c-0.458,-0.395 -0.594,-0.655 -0.85,-1.076c-0.114,-0.188 -0.229,-0.376 -0.343,-0.564c-0.168,-0.273 -0.337,-0.546 -0.506,-0.819c-0.98,-1.571 -1.986,-3.124 -3.021,-4.658c-0.44,-0.653 -0.886,-1.302 -1.334,-1.949c-0.376,-0.544 -0.755,-1.085 -1.133,-1.628c-0.122,-0.178 -0.245,-0.356 -0.367,-0.534c-0.145,-0.214 -0.29,-0.429 -0.427,-0.648c-0.158,-0.252 -0.308,-0.511 -0.427,-0.784c-0.126,-0.286 -0.217,-0.584 -0.273,-0.891c-0.008,-0.045 -0.013,-0.091 -0.018,-0.136c-0.011,-0.111 -0.03,-0.221 -0.028,-0.332c0.003,-0.133 0.005,-0.265 0.008,-0.398c0.004,-0.191 0.032,-0.384 0.09,-0.566c0.086,-0.275 0.156,-0.56 0.307,-0.81c0.224,-0.371 0.228,-0.368 0.497,-0.708c0.088,-0.111 0.203,-0.198 0.304,-0.297c0.139,-0.135 0.542,-0.405 0.731,-0.485c0.131,-0.055 0.261,-0.11 0.391,-0.165c0.172,-0.06 0.349,-0.107 0.528,-0.14l0,0ZM169.785,58.973c0.365,0.042 0.515,0.077 0.903,0.037c0.469,-0.048 0.569,-0.109 0.994,-0.258l0.016,-0.008l-0.993,0.258l-1.081,-0.065c0.054,0.012 0.108,0.024 0.161,0.036ZM171.846,58.671c0.069,-0.035 0.141,-0.064 0.207,-0.103c0.282,-0.168 0.283,-0.168 0.474,-0.332c-0.227,0.145 -0.454,0.29 -0.681,0.435l0,0ZM172.768,58.023c0.219,-0.241 0.229,-0.233 0.413,-0.502c-0.138,0.167 -0.276,0.335 -0.413,0.502ZM173.46,57.042l0.015,-0.029l0.156,-0.399l0.006,-0.024c-0.059,0.15 -0.118,0.301 -0.177,0.452l0,0Z" style="fill:#f9d6ce;fill-rule:nonzero;"/><path d="M149.046,140.751c5.238,-0.372 18.48,10.32 3.739,13.417c-14.461,3.038 -11.061,-10.02 -3.739,-13.417Z" style="fill:#f9d6ce;"/><path d="M148.743,138.985c0.031,-0.005 0.063,-0.01 0.095,-0.014c0.149,-0.017 0.3,-0.02 0.449,-0.021c0.275,-0.002 0.551,0.016 0.824,0.048c0.916,0.108 1.811,0.375 2.665,0.717c0.763,0.304 1.499,0.674 2.208,1.089c0.58,0.341 1.143,0.714 1.682,1.117c0.4,0.299 0.788,0.614 1.16,0.946c0.291,0.26 0.573,0.53 0.843,0.811c0.194,0.202 0.383,0.41 0.564,0.624c0.158,0.186 0.311,0.377 0.457,0.573c0.824,1.102 1.47,2.387 1.607,3.773c0.017,0.178 0.027,0.357 0.026,0.536c0,0.291 -0.024,0.582 -0.073,0.868c-0.063,0.37 -0.168,0.732 -0.312,1.078c-0.103,0.247 -0.225,0.486 -0.365,0.715c-0.101,0.167 -0.212,0.328 -0.331,0.483c-0.81,1.061 -1.958,1.812 -3.159,2.362c-0.225,0.103 -0.452,0.199 -0.681,0.289c-0.292,0.115 -0.587,0.22 -0.884,0.318c-0.373,0.122 -0.749,0.233 -1.128,0.333c-0.527,0.139 -1.06,0.259 -1.595,0.364c-0.566,0.112 -1.135,0.205 -1.707,0.276c-0.421,0.052 -0.844,0.092 -1.268,0.117c-0.299,0.017 -0.598,0.027 -0.897,0.027c-0.238,0.001 -0.476,-0.004 -0.714,-0.015c-1.52,-0.071 -3.066,-0.401 -4.373,-1.212c-0.19,-0.117 -0.373,-0.245 -0.55,-0.382c-0.23,-0.179 -0.448,-0.374 -0.65,-0.584c-0.344,-0.358 -0.641,-0.76 -0.884,-1.193c-0.152,-0.272 -0.282,-0.555 -0.389,-0.847c-0.083,-0.224 -0.153,-0.453 -0.21,-0.685c-0.38,-1.55 -0.184,-3.193 0.318,-4.693c0.077,-0.229 0.161,-0.456 0.252,-0.68c0.131,-0.324 0.277,-0.642 0.435,-0.954c0.208,-0.411 0.439,-0.811 0.689,-1.199c0.293,-0.454 0.613,-0.891 0.956,-1.308c0.465,-0.565 0.974,-1.093 1.522,-1.578c0.667,-0.589 1.392,-1.113 2.168,-1.549c0.196,-0.11 0.394,-0.214 0.596,-0.313c0.093,-0.045 0.187,-0.092 0.283,-0.131c0.09,-0.037 0.182,-0.063 0.276,-0.087c0.032,-0.006 0.063,-0.013 0.095,-0.019l0,0ZM149.455,142.547c-0.23,0.123 -0.456,0.254 -0.674,0.397c-0.677,0.44 -1.292,0.973 -1.838,1.567c-0.436,0.474 -0.828,0.988 -1.169,1.535c-0.478,0.767 -0.862,1.604 -1.075,2.485c-0.035,0.146 -0.065,0.294 -0.09,0.443c-0.02,0.121 -0.036,0.242 -0.048,0.364c-0.009,0.096 -0.016,0.193 -0.02,0.29c-0.023,0.604 0.073,1.236 0.402,1.756c0.065,0.103 0.139,0.201 0.221,0.293c0.151,0.169 0.328,0.315 0.519,0.438c0.324,0.209 0.687,0.354 1.057,0.459c0.532,0.15 1.085,0.22 1.636,0.245c0.495,0.023 6.641,-1.132 7.12,-1.345c0.385,-0.171 0.761,-0.367 1.11,-0.605c0.227,-0.155 0.443,-0.329 0.631,-0.531c0.137,-0.146 0.259,-0.308 0.348,-0.488c0.044,-0.09 0.08,-0.184 0.106,-0.28c0.107,-0.403 0.025,-0.831 -0.116,-1.215c-0.024,-0.067 -0.051,-0.132 -0.079,-0.197c-0.037,-0.087 -0.077,-0.172 -0.12,-0.256c-0.056,-0.11 -0.116,-0.217 -0.179,-0.323c-0.08,-0.133 -0.165,-0.262 -0.254,-0.389c-0.11,-0.156 -0.227,-0.308 -0.348,-0.455c-0.529,-0.647 -1.146,-1.22 -1.803,-1.735c-0.381,-0.3 -0.778,-0.58 -1.188,-0.84c-0.467,-0.296 -0.951,-0.567 -1.45,-0.806c-0.466,-0.223 -0.947,-0.42 -1.441,-0.571c-0.392,-0.12 -0.795,-0.213 -1.205,-0.243l-0.035,-0.002c-0.006,0.003 -0.012,0.006 -0.018,0.009l0,0Z" style="fill:#280f25;fill-rule:nonzero;"/><path d="M89.034,92.822c18.981,-2.489 36.474,66.454 9.787,69.929c-23.985,3.123 -33.864,-66.772 -9.787,-69.929Z" style="fill:#280f25;"/><path d="M87.69,91.236c0.458,-0.095 0.919,-0.175 1.385,-0.223c0.453,-0.046 0.909,-0.059 1.365,-0.04c0.452,0.018 0.903,0.069 1.348,0.15c0.312,0.056 0.621,0.127 0.927,0.212c2.103,0.581 3.986,1.785 5.613,3.215c0.267,0.235 0.528,0.477 0.783,0.724c0.337,0.326 0.664,0.663 0.981,1.008c0.402,0.436 0.788,0.885 1.162,1.345c0.495,0.609 0.967,1.237 1.42,1.878c0.576,0.817 1.119,1.656 1.636,2.512c0.606,1.004 1.175,2.03 1.712,3.073c0.833,1.62 1.59,3.279 2.282,4.964c0.829,2.02 1.567,4.078 2.221,6.161c0.695,2.21 1.296,4.449 1.805,6.709c0.496,2.2 0.905,4.421 1.219,6.654c0.466,3.325 0.727,6.683 0.704,10.041c-0.019,2.686 -0.216,5.376 -0.684,8.022c-0.127,0.715 -0.273,1.426 -0.443,2.132c-0.123,0.517 -0.26,1.031 -0.409,1.541c-0.114,0.389 -0.236,0.777 -0.367,1.161c-0.897,2.644 -2.203,5.186 -4.084,7.268c-0.283,0.314 -0.579,0.617 -0.887,0.907c-0.424,0.399 -0.87,0.773 -1.337,1.119c-0.687,0.508 -1.418,0.954 -2.184,1.332c-1.04,0.512 -2.141,0.896 -3.272,1.154c-1.282,0.292 -2.601,0.435 -3.916,0.376c-0.827,-0.037 -1.649,-0.151 -2.455,-0.34c-0.549,-0.129 -1.09,-0.292 -1.619,-0.486c-0.385,-0.142 -0.765,-0.3 -1.137,-0.474c-2.476,-1.154 -4.599,-2.957 -6.384,-5.006c-0.261,-0.299 -0.515,-0.604 -0.763,-0.914c-0.361,-0.452 -0.709,-0.915 -1.044,-1.387c-0.448,-0.63 -0.874,-1.276 -1.28,-1.935c-0.517,-0.838 -1.001,-1.695 -1.456,-2.568c-0.804,-1.539 -1.52,-3.124 -2.163,-4.736c-0.773,-1.942 -1.442,-3.924 -2.022,-5.932c-0.598,-2.074 -1.101,-4.175 -1.516,-6.293c-0.488,-2.489 -0.855,-5.003 -1.1,-7.528c-0.34,-3.504 -0.448,-7.036 -0.268,-10.553c0.078,-1.516 0.211,-3.03 0.407,-4.535c0.196,-1.504 0.457,-3 0.797,-4.478c0.19,-0.827 0.406,-1.649 0.649,-2.462c0.187,-0.62 0.389,-1.235 0.611,-1.843c0.177,-0.486 0.365,-0.968 0.567,-1.444c0.154,-0.363 0.316,-0.723 0.485,-1.079c1.162,-2.439 2.722,-4.732 4.8,-6.482c0.352,-0.297 0.717,-0.577 1.096,-0.838c0.548,-0.378 1.123,-0.717 1.72,-1.01c0.604,-0.297 1.23,-0.548 1.872,-0.75c0.302,-0.094 0.606,-0.176 0.913,-0.251c0.155,-0.037 0.155,-0.036 0.31,-0.071l0,0ZM88.211,94.793c-0.225,0.055 -0.448,0.115 -0.669,0.184c-0.433,0.136 -0.856,0.303 -1.265,0.498c-0.339,0.162 -0.669,0.343 -0.987,0.543c-0.225,0.141 -0.445,0.291 -0.658,0.449c-1.543,1.14 -2.752,2.68 -3.7,4.337c-0.162,0.283 -0.316,0.57 -0.464,0.861c-0.197,0.387 -0.382,0.78 -0.557,1.178c-0.222,0.508 -0.427,1.023 -0.617,1.544c-0.234,0.645 -0.446,1.298 -0.636,1.958c-0.248,0.854 -0.461,1.719 -0.645,2.589c-0.282,1.327 -0.496,2.668 -0.657,4.015c-0.178,1.486 -0.29,2.98 -0.348,4.476c-0.126,3.29 0.006,6.589 0.35,9.863c0.233,2.207 0.563,4.405 0.99,6.583c0.369,1.887 0.813,3.76 1.335,5.611c0.504,1.785 1.081,3.55 1.745,5.282c0.562,1.468 1.186,2.914 1.885,4.322c0.431,0.868 0.891,1.722 1.384,2.557c0.386,0.652 0.792,1.293 1.221,1.918c0.351,0.51 0.717,1.009 1.1,1.495c0.306,0.387 0.622,0.765 0.951,1.132c0.222,0.248 0.449,0.492 0.682,0.729c0.195,0.198 0.393,0.392 0.595,0.581c1.444,1.349 3.126,2.488 5.02,3.092c0.361,0.115 0.728,0.21 1.099,0.284c0.521,0.103 1.05,0.164 1.58,0.181c0.956,0.032 1.913,-0.082 2.845,-0.294c0.857,-0.196 1.694,-0.486 2.484,-0.875c0.502,-0.247 0.984,-0.535 1.442,-0.858c0.326,-0.23 0.639,-0.479 0.939,-0.744c1.742,-1.538 2.971,-3.576 3.838,-5.714c0.129,-0.318 0.251,-0.639 0.365,-0.963c0.152,-0.43 0.292,-0.864 0.42,-1.301c0.163,-0.556 0.308,-1.117 0.437,-1.682c0.171,-0.751 0.315,-1.509 0.435,-2.27c0.382,-2.419 0.528,-4.874 0.52,-7.322c-0.011,-3.063 -0.265,-6.123 -0.699,-9.154c-0.286,-2.003 -0.653,-3.994 -1.092,-5.968c-0.468,-2.101 -1.019,-4.183 -1.654,-6.24c-0.559,-1.812 -1.184,-3.604 -1.88,-5.369c-0.66,-1.673 -1.385,-3.323 -2.187,-4.933c-0.518,-1.041 -1.069,-2.065 -1.658,-3.067c-0.469,-0.797 -0.963,-1.581 -1.486,-2.344c-0.831,-1.212 -1.736,-2.378 -2.744,-3.447c-0.823,-0.872 -1.717,-1.684 -2.706,-2.363c-1.1,-0.754 -2.342,-1.354 -3.673,-1.539c-0.171,-0.024 -0.342,-0.041 -0.515,-0.051c-0.284,-0.015 -0.569,-0.011 -0.853,0.014c-0.364,0.032 -0.725,0.095 -1.083,0.17c-0.114,0.025 -0.114,0.025 -0.229,0.052l0,0Z" style="fill:#280f25;fill-rule:nonzero;"/><path d="M176.809,112.118c11.589,-1.745 16.315,18.402 2.714,20.23c-12.905,1.736 -13.996,-18.533 -2.714,-20.23l0,0Z" style="fill:#280f25;"/><path d="M166.451,161.387l0.114,1.152l-0.727,0.954c-0.225,0.138 -0.454,0.27 -0.688,0.393c-0.627,0.33 -1.288,0.599 -1.973,0.783c-0.602,0.162 -1.223,0.253 -1.846,0.269c-0.486,0.011 -0.972,-0.023 -1.45,-0.105c-0.359,-0.061 -0.714,-0.148 -1.061,-0.258c-0.273,-0.087 -0.542,-0.189 -0.805,-0.304c-0.711,-0.312 -1.377,-0.718 -1.994,-1.189c-0.221,-0.168 -0.438,-0.344 -0.646,-0.529c-0.31,-0.278 -0.609,-0.568 -0.894,-0.872c-0.333,-0.355 -0.647,-0.726 -0.948,-1.108l-0.02,-0.025c-0.029,0.106 -0.059,0.211 -0.089,0.315c-0.024,0.079 -0.048,0.158 -0.072,0.237c-0.216,0.666 -0.476,1.317 -0.79,1.943c-0.178,0.357 -0.377,0.704 -0.589,1.042c-0.064,0.102 -0.133,0.201 -0.202,0.3c-0.138,0.2 -0.284,0.396 -0.436,0.586c-0.392,0.49 -0.828,0.945 -1.303,1.355c-0.594,0.512 -1.249,0.952 -1.946,1.311c-0.283,0.145 -0.572,0.279 -0.868,0.396c-0.899,0.355 -1.845,0.587 -2.803,0.717c-0.358,0.048 -0.718,0.08 -1.079,0.102l-1.145,-0.358l-0.579,-0.991l0.324,-1.097l1.025,-0.627c0.128,-0.025 0.128,-0.025 0.256,-0.051c0.273,-0.06 0.544,-0.127 0.812,-0.206c0.501,-0.149 0.992,-0.338 1.457,-0.576c0.568,-0.29 1.102,-0.647 1.569,-1.083c0.191,-0.179 0.371,-0.37 0.538,-0.573c0.322,-0.392 0.592,-0.822 0.818,-1.276c0.058,-0.119 0.116,-0.237 0.17,-0.358c0.117,-0.264 0.219,-0.534 0.308,-0.809c0.098,-0.303 0.18,-0.611 0.249,-0.922c0.031,-0.14 0.062,-0.28 0.089,-0.421c0.064,-0.329 0.11,-0.66 0.149,-0.992l-0.002,0.013c0.01,-0.088 0.019,-0.176 0.028,-0.265c0,-0.004 -0.003,0.018 -0.002,0.014c0.003,-0.032 0.006,-0.063 0.009,-0.094c0.009,-0.111 0.017,-0.221 0.025,-0.332c0.003,-0.049 0.008,-0.129 0.011,-0.177c0,-0.004 -0.002,0.017 -0.002,0.012c0.009,-0.2 0.021,-0.401 0.028,-0.601c0,-0.004 -0.001,0.015 -0.001,0.011c0.003,-0.088 0.005,-0.176 0.007,-0.264l0,0.011c0,-0.031 0.001,-0.063 0.001,-0.094c0,-0.004 0,0.014 0,0.011c0,-0.056 0.001,-0.112 0.001,-0.169c0,-0.168 0,-0.168 -0.002,-0.336c-0.008,-0.43 -0.029,-0.858 -0.06,-1.287c-0.007,-0.109 -0.013,-0.218 -0.022,-0.327c-0.015,-0.203 -0.033,-0.405 -0.053,-0.607c-0.046,-0.454 4.833,-1.74 4.937,-1.432l-0.004,-0.011c0.117,0.341 0.239,0.68 0.366,1.017l-0.005,-0.013c0.024,0.063 0.05,0.124 0.072,0.187c0.001,0.005 -0.008,-0.017 -0.006,-0.013c0.114,0.3 0.231,0.599 0.354,0.896c0.077,0.184 0.156,0.367 0.236,0.551c0.002,0.004 -0.007,-0.016 -0.005,-0.012c0.028,0.063 0.056,0.126 0.084,0.189l-0.004,-0.008c0.056,0.124 0.114,0.247 0.172,0.37c0.001,0.003 -0.006,-0.011 -0.005,-0.008c0.016,0.033 0.032,0.066 0.047,0.098c0.002,0.003 -0.005,-0.011 -0.004,-0.008c0.016,0.033 0.032,0.066 0.048,0.099l-0.005,-0.009c0.075,0.153 0.151,0.305 0.228,0.457c0.001,0.004 -0.007,-0.012 -0.005,-0.009c0.047,0.093 0.096,0.184 0.144,0.276c0.001,0.003 -0.007,-0.013 -0.006,-0.009c0.018,0.032 0.036,0.065 0.053,0.097c0.002,0.004 -0.007,-0.012 -0.006,-0.009c0.049,0.091 0.1,0.181 0.15,0.272c0.002,0.004 -0.004,-0.006 -0.006,-0.01c-0.001,-0.001 0.001,0.002 0.002,0.004c0.016,0.03 0.033,0.06 0.05,0.09c0.017,0.03 0.034,0.06 0.051,0.09c0.002,0.004 -0.008,-0.013 -0.007,-0.01c0.004,0.006 0.094,0.164 0.101,0.175c0.098,0.171 0.2,0.339 0.304,0.506c0.065,0.103 0.132,0.203 0.197,0.305c0.002,0.003 -0.009,-0.013 -0.007,-0.01c0.147,0.221 0.3,0.438 0.459,0.65c0.136,0.181 0.278,0.358 0.426,0.531c0.113,0.133 0.23,0.261 0.351,0.388c0.597,0.628 1.295,1.185 2.111,1.498c0.128,0.049 0.258,0.091 0.39,0.128c0.172,0.047 0.347,0.082 0.523,0.106c0.414,0.056 0.832,0.044 1.245,-0.016c0.689,-0.099 1.35,-0.339 1.974,-0.642l1.197,-0.102c0.304,0.235 0.608,0.471 0.912,0.707l0,0Z" style="fill:#280f25;fill-rule:nonzero;"/><path d="M175.848,110.472c1.39,-0.294 2.831,-0.341 4.231,-0.087c0.621,0.113 1.232,0.284 1.822,0.511c0.487,0.186 0.959,0.41 1.412,0.668c0.325,0.185 0.64,0.387 0.944,0.605c2.028,1.451 3.528,3.566 4.412,5.884c0.147,0.386 0.278,0.778 0.391,1.175c0.152,0.53 0.273,1.068 0.362,1.612c0.119,0.723 0.182,1.456 0.184,2.189c0.004,1.192 -0.153,2.386 -0.49,3.53c-0.411,1.392 -1.094,2.702 -2.032,3.812c-0.555,0.657 -1.196,1.239 -1.899,1.733c-1.21,0.85 -2.594,1.427 -4.029,1.765c-0.431,0.101 -0.866,0.181 -1.304,0.243c-0.776,0.109 -1.561,0.155 -2.344,0.124c-0.927,-0.038 -1.849,-0.186 -2.736,-0.458c-0.398,-0.122 -0.788,-0.269 -1.167,-0.44c-0.52,-0.234 -1.02,-0.515 -1.49,-0.837c-0.611,-0.418 -1.173,-0.905 -1.677,-1.447c-1.173,-1.262 -2.017,-2.807 -2.537,-4.445c-0.246,-0.776 -0.421,-1.574 -0.528,-2.38c-0.077,-0.585 -0.118,-1.174 -0.124,-1.763c-0.005,-0.454 0.012,-0.908 0.05,-1.361c0.2,-2.395 0.995,-4.771 2.442,-6.706c0.193,-0.257 0.397,-0.507 0.612,-0.746c0.31,-0.346 0.643,-0.672 0.997,-0.974c0.469,-0.4 0.975,-0.757 1.51,-1.065c0.553,-0.318 1.136,-0.583 1.739,-0.792c0.287,-0.1 0.578,-0.186 0.872,-0.261c0.126,-0.032 0.251,-0.061 0.377,-0.089l0,0ZM176.501,113.998c-0.573,0.135 -1.128,0.334 -1.649,0.609c-0.34,0.18 -0.663,0.39 -0.965,0.627c-0.192,0.15 -0.375,0.31 -0.549,0.48c-1.223,1.196 -1.965,2.814 -2.297,4.476c-0.054,0.267 -0.096,0.535 -0.129,0.805c-0.046,0.374 -0.071,0.75 -0.078,1.127c-0.009,0.479 0.014,0.958 0.067,1.435c0.072,0.634 0.199,1.262 0.386,1.873c0.419,1.367 1.147,2.664 2.222,3.621c0.31,0.276 0.647,0.522 1.006,0.731c0.249,0.145 0.508,0.272 0.775,0.38c0.716,0.292 1.481,0.446 2.251,0.488c0.628,0.034 1.259,-0.006 1.881,-0.097c0.243,-0.035 0.484,-0.079 0.724,-0.13c1.186,-0.256 2.337,-0.727 3.292,-1.485c0.427,-0.339 0.811,-0.732 1.139,-1.168c0.331,-0.441 0.604,-0.924 0.819,-1.432c0.373,-0.885 0.568,-1.84 0.615,-2.798c0.051,-1.052 -0.072,-2.11 -0.342,-3.128c-0.271,-1.025 -0.693,-2.013 -1.259,-2.91c-0.622,-0.987 -1.424,-1.87 -2.393,-2.527c-0.385,-0.261 -0.796,-0.485 -1.226,-0.664c-0.678,-0.282 -1.4,-0.448 -2.131,-0.494c-0.637,-0.041 -1.276,0.008 -1.902,0.127c-0.086,0.017 -0.171,0.035 -0.257,0.054l0,0Z" style="fill:#280f25;fill-rule:nonzero;"/><path d="M205.683,197.648c0,0 4.738,35.37 19.677,24.112c14.939,-11.258 -11.036,-22.171 -19.677,-24.112Z" style="fill:#f9d6ce;"/><path d="M215.994,179.976c0,0 35.88,10.693 31.539,-8.446c-4.341,-19.139 -25.963,1.014 -31.539,8.446l0,0Z" style="fill:#f9d6ce;"/><path d="M229.973,195.839c0,0 16.249,14.712 18.791,3.507c2.543,-11.205 -13.969,-6.024 -18.791,-3.507Z" style="fill:#f9d6ce;"/><path d="M43.856,41.198c0,0 -33.311,49.098 -16.809,107.187c8.833,31.093 30.176,54.696 35.085,57.643c4.336,2.603 20.072,123.649 41.091,118.171c15.58,-4.06 -8.685,-81.336 -11.676,-99.165c-0.647,-3.859 3.073,29.995 17.258,27.802c12.22,-1.889 6.632,-20.75 6.632,-20.75c0,0 10.934,48.847 21.827,37.717c10.894,-11.129 0.679,-44.026 0.679,-44.026c0,0 6.028,33.451 20.896,29.356c14.953,-4.118 3.78,-36.028 4.946,-36.371c0,0 9.893,71.734 26.932,67.858c7.894,-1.796 7.725,-23.047 5.181,-45.742c-3.066,-27.36 -9.583,-56.82 -9.583,-56.82c0,0 37.942,-18.669 31.264,-68.592c-5.01,-37.452 -48.244,-90.918 -67.939,-90.144c-6.133,0.241 8.005,21.386 5.666,21.964c-3.985,0.984 -49.126,-13.1 -94.775,12.783c-0.631,0.357 -9.293,-22.202 -16.675,-18.871l0,0Z" style="fill:none;stroke-width:4.69px;stroke:#fdede5;"/><path d="M227.596,171.391c0,0 2.835,-2.203 6.471,-3.436c2.748,-0.931 6.088,-1.057 8.165,-0.288c3.427,1.268 4.397,7.534 1.26,10.521c-0.051,0.048 -0.24,0.042 -0.229,-0.059c1.4,-13.339 -15.667,-6.738 -15.667,-6.738Z" style="fill:#fff;"/><path d="M238.965,194.635c0,0 1.885,-0.549 3.981,-0.443c1.585,0.08 3.308,0.689 4.209,1.498c1.487,1.335 0.717,4.716 -1.479,5.602c-0.036,0.015 -0.13,-0.027 -0.104,-0.076c3.398,-6.498 -6.607,-6.581 -6.607,-6.581Z" style="fill:#fff;"/><path d="M215.104,204.809c0,0 3.553,0.522 6.958,2.293c2.575,1.34 4.977,3.663 5.86,5.694c1.456,3.352 -2.396,8.389 -6.723,8.191c-0.069,-0.003 -0.195,-0.144 -0.115,-0.206c10.597,-8.221 -5.98,-15.972 -5.98,-15.972Z" style="fill:#fff;"/></g></svg>