<?xml version="1.0" standalone="no"?><!DOCTYPE svg PUBLIC "-//W3C//DTD SVG 1.1//EN" "http://www.w3.org/Graphics/SVG/1.1/DTD/svg11.dtd"><svg width="100%" height="100%" viewBox="0 0 178 357" version="1.1" xmlns="http://www.w3.org/2000/svg" xmlns:xlink="http://www.w3.org/1999/xlink" xml:space="preserve" style="fill-rule:evenodd;clip-rule:evenodd;stroke-linecap:round;stroke-linejoin:round;stroke-miterlimit:1.41421;"><g><path d="M85.112,213.783c1.089,-32.141 1.612,-64.327 1.902,-96.531c0.109,-12.06 0.185,-24.123 0.245,-36.187" style="fill:none;stroke-width:2.81px;stroke:#280f25;"/><ellipse cx="87.4" cy="40.564" rx="35.861" ry="40.564" style="fill:#b4dfc3;"/><path d="M86.372,77.989c0,0 -12.299,8.672 1.485,8.731c12.708,0.055 -0.42,-9.324 -0.42,-9.324" style="fill:#b4dfc3;"/><path d="M100.354,12.624c-1.233,-2.722 1.175,-3.5 3.404,-2.085c1.972,1.252 7.2,6.504 8.694,11.437c1.236,4.082 -1.988,1.055 -1.988,1.055c-3.859,-4.031 -9.401,-8.842 -10.11,-10.407Z" style="fill:#dffaf1;"/><ellipse cx="40.804" cy="85.093" rx="35.861" ry="40.564" style="fill:#280f25;stroke-width:4.69px;stroke:#280f25;"/><path d="M38.516,258.312c1.089,-32.141 1.612,-64.327 1.902,-96.531c0.109,-12.06 0.185,-24.123 0.245,-36.187" style="fill:none;stroke-width:2.97px;stroke:#280f25;"/><path d="M57.901,57.153c-1.233,-2.722 1.175,-3.5 3.403,-2.085c1.973,1.252 7.201,6.504 8.695,11.437c1.236,4.082 -1.988,1.055 -1.988,1.055c-3.859,-4.031 -9.401,-8.842 -10.11,-10.407Z" style="fill:#dffaf1;"/><path d="M53.043,50.996c0.816,-0.941 2.41,-0.964 3.557,-0.05c1.147,0.913 1.415,2.418 0.598,3.36c-0.816,0.941 -2.41,0.963 -3.557,0.05c-1.147,-0.914 -1.415,-2.419 -0.598,-3.36Z" style="fill:#dffaf1;"/><path d="M40.06,122.518c0,0 -8.495,8.672 1.026,8.731c8.778,0.055 -0.29,-9.324 -0.29,-9.324" style="fill:#280f25;stroke-width:4.69px;stroke:#280f25;"/><ellipse cx="126.944" cy="81.887" rx="35.861" ry="40.564" style="fill:#280f25;stroke-width:4.69px;stroke:#280f25;"/><path d="M95.496,6.467c0.817,-0.941 2.411,-0.964 3.557,-0.05c1.147,0.913 1.415,2.419 0.598,3.36c-0.816,0.941 -2.41,0.963 -3.557,0.05c-1.146,-0.913 -1.414,-2.419 -0.598,-3.36Z" style="fill:#dffaf1;"/><path d="M59.384,188.55c0,0 9.179,-16.082 -16.322,-33.433c-25.501,-17.351 -35.964,-11.186 -39.04,-4.764c-3.077,6.422 -8.333,15.066 2.461,41.057c4.422,10.648 10.684,7.072 14.349,5.089c5.282,-2.856 6.787,-9.226 3.208,-22.396c-0.846,-3.111 18.026,27.068 26.85,23.502c8.022,-3.242 8.494,-9.055 8.494,-9.055Z" style="fill:#b4dfc3;"/><path d="M141.795,267.218c0,0 6.985,-9.331 14.241,-2.794c7.256,6.537 -2.824,11.868 -4.266,12.186c-1.442,0.319 -9.975,-9.392 -9.975,-9.392Z" style="fill:#b4dfc3;"/><path d="M126.04,255.251c1.089,-32.177 1.612,-64.397 1.902,-96.636c0.108,-12.074 0.184,-24.15 0.245,-36.227" style="fill:none;stroke-width:2.81px;stroke:#280f25;"/><path d="M126.04,243.536l-0.243,1.335l-1.318,-0.027l-0.11,-2.262l1.671,0.504l0,0.422" style="fill:#280f25;"/><path d="M124.066,254.124l-2.331,-0.556l1.956,-6.378l0.375,6.934Z" style="fill:none;stroke-width:6.25px;stroke:#280f25;"/><path d="M126.2,119.312c0,0 -8.495,8.672 1.026,8.731c8.778,0.055 -0.29,-9.324 -0.29,-9.324" style="fill:#280f25;stroke-width:4.69px;stroke:#280f25;"/><path d="M42.75,294.417c0,0 -10.315,38.629 0.99,48.688c11.306,10.059 21.803,-3.698 18.126,-17.668c-1.32,-5.015 4.951,6.249 12.95,8.552c7.585,2.184 13.576,-0.099 14.239,1.604c3.131,8.053 8.024,17.081 17.484,10.545c8.416,-5.815 -3.523,-29.931 17.296,-24.476c17.68,4.633 -4.087,20.915 19.639,18.609c13.176,-1.281 12.531,-41.246 11.548,-54.168c-1.061,-13.952 -34.114,-35.744 -34.392,-29.698c-0.326,7.077 -69.254,47.493 -77.88,38.012Z" style="fill:#b4dfc3;stroke-width:9.37px;stroke:#b4dfc3;"/><path d="M121.976,254.275c0,0 10.645,-33.665 8.004,-58.01c-2.64,-24.346 -12.045,-27.614 -35.51,-28.348c-23.465,-0.734 -57.163,-12.568 -58.258,29.098c-1.096,41.665 -2.522,42.431 -7.991,44.62c-5.469,2.19 -24.265,3.489 -15.104,26.087c9.161,22.598 19.227,24.344 31.654,26.08c13.263,1.852 35.877,-0.487 43.934,-5.505c14.212,-8.85 26.855,-19.174 33.271,-34.022Z" style="fill:#b4dfc3;"/><path d="M39.175,292.89c10.97,2.917 58.65,13.946 83.849,-42.163c0.143,-0.319 4.589,1.032 4.526,1.394c-1.182,6.896 -9.934,23.139 -21.596,33.777c-14.36,13.099 -47.641,21.43 -67.645,10.97c-0.251,-0.131 0.547,-3.321 0.866,-3.978Z" style="fill:#280f25;"/><ellipse cx="56.769" cy="305.158" rx="6.443" ry="6.173" style="fill:#dffaf1;"/><path d="M56.868,297.858c0.13,0.002 0.259,0.006 0.389,0.014c0.225,0.014 0.449,0.037 0.671,0.069c0.712,0.105 1.408,0.307 2.061,0.599c0.804,0.36 1.54,0.855 2.168,1.456c0.583,0.56 1.072,1.209 1.439,1.917c0.32,0.617 0.548,1.277 0.674,1.954c0.142,0.762 0.157,1.544 0.045,2.31c-0.108,0.744 -0.338,1.47 -0.678,2.146c-0.399,0.792 -0.947,1.513 -1.611,2.119c-0.688,0.628 -1.497,1.132 -2.377,1.476c-0.912,0.358 -1.895,0.541 -2.88,0.541c-0.985,0 -1.968,-0.183 -2.88,-0.541c-0.879,-0.344 -1.689,-0.848 -2.376,-1.476c-0.664,-0.606 -1.213,-1.327 -1.611,-2.119c-0.34,-0.676 -0.57,-1.402 -0.679,-2.146c-0.112,-0.765 -0.097,-1.548 0.045,-2.31c0.127,-0.677 0.355,-1.337 0.675,-1.954c0.367,-0.708 0.855,-1.358 1.439,-1.917c0.628,-0.601 1.364,-1.096 2.167,-1.456c0.653,-0.292 1.349,-0.494 2.062,-0.599c0.222,-0.032 0.446,-0.055 0.67,-0.069c0.13,-0.008 0.26,-0.012 0.39,-0.014c0.098,-0.001 0.098,-0.001 0.197,0ZM56.701,300.113c-0.246,0.004 -0.491,0.022 -0.734,0.058c-0.491,0.071 -0.971,0.211 -1.421,0.412c-0.48,0.215 -0.925,0.5 -1.316,0.841c-0.454,0.395 -0.835,0.865 -1.122,1.385c-0.241,0.437 -0.413,0.908 -0.511,1.393c-0.109,0.547 -0.123,1.111 -0.043,1.662c0.075,0.513 0.234,1.013 0.468,1.48c0.276,0.547 0.656,1.046 1.115,1.466c0.476,0.434 1.035,0.782 1.644,1.021c0.629,0.247 1.308,0.373 1.988,0.373c0.681,0 1.359,-0.126 1.989,-0.373c0.609,-0.238 1.168,-0.587 1.644,-1.021c0.459,-0.42 0.839,-0.919 1.115,-1.466c0.234,-0.466 0.392,-0.967 0.467,-1.48c0.084,-0.571 0.066,-1.157 -0.056,-1.723c-0.099,-0.464 -0.267,-0.914 -0.498,-1.332c-0.246,-0.448 -0.564,-0.86 -0.938,-1.218c-0.434,-0.416 -0.943,-0.759 -1.499,-1.008c-0.45,-0.201 -0.93,-0.341 -1.421,-0.412c-0.243,-0.036 -0.488,-0.054 -0.735,-0.058c-0.068,-0.001 -0.068,-0.001 -0.136,0Z" style="fill:#280f25;fill-rule:nonzero;"/><path d="M119.108,189.317c-0.397,-0.447 -8.999,-13.601 15.92,-28.052c24.909,-14.444 35.08,-9.321 38.081,-3.92c3.001,5.402 8.128,12.674 -2.401,34.486c-4.313,8.935 -10.421,5.918 -13.996,4.245c-5.153,-2.411 -6.62,-7.766 -3.129,-18.821c0.825,-2.612 -17.769,23.237 -26.19,19.686c-2.976,-1.255 -7.151,-6.344 -8.285,-7.624Z" style="fill:#b4dfc3;"/><path d="M65.889,157.965c-3.365,-18.711 -8.521,-27.565 3.818,-27.385c18.505,0.27 34.888,1.232 34.888,1.232c7.176,0.624 11.106,1.61 7.064,13.479c-2.501,7.346 -3.948,15.177 -3.948,15.177c4.208,0.13 14.806,4.535 13.909,10.409c-0.787,5.153 -10.5,12.033 -40.028,10.078c-24.755,-1.638 -32.081,-9.063 -31.674,-14.128c0.417,-5.174 8.914,-7.98 15.971,-8.862Z" style="fill:#280f25;"/><path d="M44.718,248.534c9.711,1.131 17.185,5.28 16.68,9.259c-0.505,3.979 -8.799,6.292 -18.51,5.161c-9.71,-1.131 -17.185,-5.28 -16.68,-9.259c0.505,-3.979 8.799,-6.292 18.51,-5.161Z" style="fill:#280f25;"/><path d="M43.511,209.865c1.781,0.084 3.099,2.665 2.941,5.761c-0.157,3.096 -1.732,5.542 -3.513,5.459c-1.781,-0.084 -3.099,-2.665 -2.941,-5.761c0.158,-3.096 1.732,-5.542 3.513,-5.459Z" style="fill:#280f25;"/><path d="M65.697,152.435c1.251,1.104 10.247,4.344 22.992,5.036c6.204,0.337 13.725,0.372 20.848,-1.316c0.518,-0.123 -1.172,4.865 -1.172,4.865c-0.188,0.53 -19.097,4.628 -42.046,-3.368c-0.349,-0.122 -0.622,-5.217 -0.622,-5.217Z" style="fill:#dffaf1;"/><ellipse cx="78.325" cy="258.478" rx="8.266" ry="4.498" style="fill:#dffaf1;"/><path d="M18.239,245.172c3.743,2.499 5.717,4.94 4.421,7.09c-1.295,2.15 -7.608,1.971 -10.725,-1.22c-0.011,-0.01 0.362,-0.963 1.569,-2.447c1.592,-1.958 4.41,-3.64 4.735,-3.423Z" style="fill:#dffaf1;"/><path d="M82.209,213.423c1.782,0.084 3.099,2.665 2.942,5.761c-0.158,3.096 -1.733,5.542 -3.514,5.459c-1.781,-0.084 -3.099,-2.665 -2.941,-5.761c0.158,-3.096 1.732,-5.542 3.513,-5.459Z" style="fill:#280f25;"/><path d="M37.6,272.963c0.115,-3.442 4.727,-8.777 12.074,-1.668c6.338,6.132 12.752,6.725 14.368,3.648c0.947,-1.803 0.412,-3.566 -0.771,-4.059c-1.408,-0.588 -2.422,1.082 -2.706,0.922c-1.051,-0.589 0.869,-4.133 4.304,-3.378c1.142,0.251 2.138,1.768 2.33,6.232c0.388,9.01 -29.917,7.811 -29.599,-1.697Z" style="fill:#280f25;"/><path d="M38.628,272.407c0.671,-3.376 -1.572,-9.564 -8.828,-4.282c-6.259,4.556 -11.292,3.717 -11.812,0.373c-0.304,-1.959 0.165,-3.478 1.197,-3.65c1.476,-0.244 1.95,1.939 2.185,1.372c0.273,-0.661 0.165,-2.544 -2.458,-3.159c-1.378,-0.323 -2.967,0.604 -3.93,5.202c-1.929,9.205 21.954,12.658 23.646,4.144Z" style="fill:#280f25;"/><path d="M167.228,190.91c0.051,0.008 0.102,0.013 0.152,0.024c0.1,0.023 0.196,0.058 0.287,0.105c0.091,0.046 0.174,0.104 0.249,0.172c0.112,0.101 0.203,0.224 0.266,0.358c0.085,0.18 0.119,0.38 0.098,0.577c-0.011,0.098 -0.035,0.194 -0.071,0.286c-0.018,0.046 -0.043,0.089 -0.064,0.134c-0.105,0.187 -0.211,0.373 -0.317,0.558c-0.332,0.577 -0.671,1.149 -1.021,1.716c-0.35,0.566 -0.71,1.126 -1.08,1.68l-0.007,0.012c-0.031,0.04 -0.059,0.081 -0.092,0.119c-0.133,0.15 -0.307,0.266 -0.501,0.332c-0.096,0.034 -0.197,0.055 -0.3,0.063c-0.309,0.024 -0.621,-0.071 -0.858,-0.263c-0.078,-0.064 -0.148,-0.137 -0.206,-0.218c-0.059,-0.081 -0.106,-0.169 -0.141,-0.262c-0.105,-0.279 -0.089,-0.593 0.043,-0.862c0.044,-0.088 0.105,-0.173 0.159,-0.255c0.052,-0.079 0.105,-0.158 0.157,-0.237c0.106,-0.162 0.212,-0.325 0.317,-0.489c0.62,-0.972 1.211,-1.961 1.775,-2.964l0.081,-0.125c0.033,-0.037 0.063,-0.077 0.099,-0.113c0.141,-0.144 0.321,-0.25 0.518,-0.307c0.131,-0.038 0.167,-0.034 0.303,-0.047c0.051,0.002 0.103,0.004 0.154,0.006ZM172.032,180.601c0.049,0.012 0.1,0.022 0.149,0.037c0.097,0.031 0.19,0.075 0.276,0.129c0.086,0.054 0.164,0.119 0.232,0.193c0.206,0.222 0.313,0.519 0.294,0.816c-0.003,0.049 -0.01,0.098 -0.019,0.146c-0.015,0.071 -0.029,0.113 -0.05,0.172c-0.022,0.063 -0.044,0.126 -0.066,0.188c-0.022,0.063 -0.045,0.126 -0.067,0.188c-0.467,1.304 -0.983,2.591 -1.536,3.863l-0.013,0.03c-0.023,0.044 -0.043,0.089 -0.068,0.132c-0.078,0.127 -0.182,0.24 -0.305,0.329c-0.081,0.06 -0.171,0.109 -0.266,0.146c-0.143,0.056 -0.297,0.085 -0.451,0.084c-0.206,0 -0.41,-0.054 -0.588,-0.153c-0.089,-0.05 -0.17,-0.11 -0.243,-0.18c-0.108,-0.105 -0.195,-0.23 -0.253,-0.367c-0.078,-0.182 -0.105,-0.384 -0.077,-0.579c0.018,-0.13 0.036,-0.16 0.08,-0.284c0.08,-0.183 0.159,-0.366 0.237,-0.549c0.248,-0.586 0.489,-1.174 0.719,-1.767c0.232,-0.596 0.453,-1.196 0.666,-1.799l0.009,-0.025c0.051,-0.121 0.059,-0.155 0.134,-0.265c0.171,-0.248 0.443,-0.424 0.747,-0.483c0.134,-0.026 0.17,-0.02 0.306,-0.021c0.051,0.006 0.102,0.012 0.153,0.019ZM124.82,175.008c0.05,0.009 0.102,0.015 0.151,0.028c0.1,0.024 0.196,0.061 0.285,0.11c0.09,0.048 0.172,0.107 0.246,0.176c0.221,0.208 0.35,0.497 0.353,0.794c0.001,0.099 -0.012,0.197 -0.037,0.293c-0.039,0.143 -0.106,0.278 -0.199,0.396c-0.031,0.039 -0.067,0.075 -0.1,0.112c-0.152,0.149 -0.303,0.298 -0.454,0.448c-0.5,0.501 -0.994,1.008 -1.472,1.529c-0.362,0.395 -0.716,0.797 -1.046,1.218l-0.045,0.058c-0.089,0.1 -0.106,0.13 -0.214,0.212c-0.202,0.154 -0.455,0.241 -0.712,0.245c-0.154,0.002 -0.309,-0.025 -0.452,-0.079c-0.096,-0.036 -0.186,-0.084 -0.269,-0.143c-0.165,-0.117 -0.297,-0.276 -0.379,-0.457c-0.061,-0.135 -0.094,-0.282 -0.097,-0.43c-0.002,-0.098 0.01,-0.196 0.035,-0.292c0.025,-0.096 0.063,-0.188 0.113,-0.274c0.042,-0.073 0.083,-0.125 0.133,-0.189c0.036,-0.046 0.075,-0.095 0.111,-0.14c0.189,-0.237 0.386,-0.468 0.586,-0.696c0.324,-0.369 0.658,-0.731 0.997,-1.088c0.478,-0.502 0.967,-0.993 1.462,-1.48l0.022,-0.021c0.101,-0.087 0.123,-0.114 0.241,-0.181c0.133,-0.075 0.281,-0.125 0.434,-0.146c0.051,-0.007 0.102,-0.007 0.153,-0.011c0.051,0.003 0.103,0.006 0.154,0.008ZM174.31,169.578c0.133,0.029 0.169,0.031 0.294,0.085c0.188,0.082 0.351,0.211 0.471,0.371c0.089,0.121 0.154,0.258 0.188,0.402c0.012,0.047 0.02,0.096 0.025,0.145c0.01,0.093 0.004,0.187 0,0.281c-0.008,0.187 -0.018,0.373 -0.029,0.56c-0.043,0.695 -0.113,1.388 -0.204,2.078c-0.043,0.318 -0.09,0.636 -0.141,0.953c-0.031,0.191 -0.064,0.382 -0.098,0.573c-0.011,0.064 -0.023,0.128 -0.034,0.191c-0.018,0.096 -0.035,0.201 -0.065,0.293c-0.047,0.141 -0.123,0.273 -0.222,0.386c-0.2,0.227 -0.492,0.371 -0.8,0.396c-0.103,0.008 -0.206,0.004 -0.307,-0.014c-0.102,-0.017 -0.2,-0.047 -0.293,-0.089c-0.093,-0.042 -0.18,-0.095 -0.259,-0.159c-0.118,-0.095 -0.215,-0.212 -0.286,-0.344c-0.095,-0.175 -0.14,-0.373 -0.13,-0.57c0.004,-0.1 0.026,-0.192 0.044,-0.291c0.011,-0.06 0.021,-0.12 0.032,-0.18c0.021,-0.119 0.042,-0.239 0.063,-0.359c0.087,-0.533 0.164,-1.066 0.226,-1.602c0.077,-0.664 0.128,-1.33 0.154,-1.997l0.002,-0.036c0.013,-0.13 0.01,-0.165 0.05,-0.29c0.045,-0.142 0.119,-0.274 0.217,-0.388c0.131,-0.152 0.303,-0.27 0.496,-0.339c0.096,-0.035 0.197,-0.057 0.299,-0.067c0.051,-0.004 0.103,-0.003 0.154,-0.004c0.051,0.005 0.102,0.01 0.153,0.015ZM133.528,167.45c0.051,0.009 0.102,0.014 0.152,0.025c0.15,0.035 0.292,0.097 0.417,0.184c0.083,0.058 0.158,0.126 0.223,0.203c0.065,0.076 0.119,0.161 0.16,0.251c0.127,0.271 0.135,0.585 0.024,0.862c-0.055,0.138 -0.138,0.265 -0.244,0.373c-0.036,0.035 -0.076,0.066 -0.113,0.1c-0.17,0.131 -0.338,0.263 -0.507,0.395c-0.977,0.769 -1.942,1.553 -2.893,2.351l-0.159,0.135c-0.109,0.08 -0.133,0.106 -0.256,0.164c-0.184,0.088 -0.392,0.128 -0.597,0.115c-0.103,-0.006 -0.204,-0.025 -0.301,-0.057c-0.195,-0.063 -0.372,-0.175 -0.507,-0.323c-0.102,-0.111 -0.181,-0.241 -0.231,-0.381c-0.033,-0.093 -0.053,-0.19 -0.06,-0.289c-0.011,-0.147 0.01,-0.296 0.059,-0.436c0.049,-0.14 0.127,-0.27 0.229,-0.381c0.034,-0.037 0.072,-0.07 0.108,-0.105c0.22,-0.185 0.441,-0.37 0.662,-0.554c0.75,-0.622 1.507,-1.237 2.273,-1.841c0.182,-0.143 0.364,-0.286 0.547,-0.428c0.082,-0.065 0.183,-0.148 0.276,-0.202c0.044,-0.026 0.089,-0.049 0.136,-0.069c0.094,-0.04 0.193,-0.068 0.295,-0.084c0.051,-0.008 0.102,-0.009 0.153,-0.013c0.051,0.001 0.103,0.003 0.154,0.005ZM143.084,160.889c0.051,0.008 0.102,0.013 0.152,0.024c0.15,0.034 0.293,0.096 0.418,0.182c0.084,0.058 0.159,0.125 0.224,0.202c0.131,0.152 0.218,0.337 0.251,0.531c0.025,0.146 0.02,0.296 -0.015,0.44c-0.024,0.096 -0.06,0.189 -0.109,0.276c-0.072,0.13 -0.172,0.246 -0.291,0.339c-0.04,0.032 -0.084,0.058 -0.125,0.086c-0.136,0.081 -0.271,0.161 -0.406,0.242c-0.551,0.333 -1.099,0.67 -1.641,1.015c-0.612,0.388 -1.217,0.785 -1.818,1.187l-0.008,0.005c-0.117,0.068 -0.144,0.092 -0.273,0.137c-0.193,0.067 -0.404,0.085 -0.606,0.051c-0.203,-0.034 -0.395,-0.119 -0.553,-0.246c-0.118,-0.095 -0.216,-0.212 -0.288,-0.342c-0.047,-0.088 -0.083,-0.181 -0.105,-0.277c-0.023,-0.096 -0.032,-0.195 -0.027,-0.293c0.006,-0.148 0.043,-0.294 0.108,-0.428c0.065,-0.134 0.158,-0.255 0.271,-0.355c0.038,-0.033 0.08,-0.061 0.12,-0.092c0.141,-0.095 0.281,-0.188 0.422,-0.282c0.897,-0.593 1.803,-1.172 2.722,-1.733c0.212,-0.129 0.425,-0.257 0.638,-0.385c0.091,-0.054 0.232,-0.143 0.338,-0.189c0.047,-0.02 0.095,-0.038 0.144,-0.052c0.132,-0.038 0.167,-0.035 0.303,-0.048c0.052,0.002 0.103,0.004 0.154,0.005ZM171.005,158.988c0.051,0.007 0.102,0.011 0.152,0.021c0.151,0.03 0.295,0.09 0.422,0.173c0.043,0.028 0.083,0.058 0.121,0.091c0.056,0.049 0.092,0.088 0.137,0.138c0.04,0.046 0.078,0.089 0.118,0.135c0.135,0.157 0.267,0.318 0.394,0.481c0.522,0.671 0.972,1.393 1.347,2.148c0.233,0.468 0.436,0.95 0.615,1.439l0.014,0.037c0.013,0.047 0.03,0.094 0.04,0.142c0.041,0.193 0.028,0.396 -0.037,0.583c-0.033,0.093 -0.078,0.182 -0.135,0.264c-0.057,0.082 -0.124,0.157 -0.201,0.222c-0.233,0.197 -0.543,0.299 -0.852,0.281c-0.103,-0.006 -0.204,-0.025 -0.302,-0.056c-0.294,-0.094 -0.541,-0.3 -0.679,-0.566c-0.042,-0.079 -0.048,-0.104 -0.071,-0.167c-0.025,-0.069 -0.051,-0.138 -0.077,-0.207c-0.027,-0.068 -0.054,-0.137 -0.081,-0.205c-0.228,-0.558 -0.496,-1.101 -0.812,-1.618c-0.213,-0.348 -0.447,-0.684 -0.701,-1.006c-0.12,-0.152 -0.245,-0.3 -0.374,-0.446l-0.023,-0.026c-0.031,-0.04 -0.064,-0.077 -0.092,-0.119c-0.084,-0.123 -0.143,-0.263 -0.171,-0.408c-0.019,-0.097 -0.024,-0.196 -0.016,-0.294c0.023,-0.296 0.172,-0.576 0.407,-0.769c0.079,-0.064 0.165,-0.118 0.258,-0.161c0.093,-0.043 0.191,-0.073 0.292,-0.091c0.05,-0.009 0.102,-0.012 0.153,-0.018c0.051,0.001 0.102,0.001 0.154,0.002ZM153.613,155.964c0.051,0.007 0.103,0.011 0.153,0.021c0.151,0.03 0.295,0.088 0.423,0.171c0.085,0.056 0.162,0.121 0.229,0.196c0.203,0.225 0.306,0.523 0.283,0.819c-0.007,0.099 -0.028,0.196 -0.062,0.289c-0.034,0.093 -0.08,0.181 -0.138,0.263c-0.116,0.163 -0.276,0.295 -0.461,0.381c-0.085,0.039 -0.171,0.064 -0.259,0.093c-0.102,0.032 -0.204,0.066 -0.305,0.1c-0.137,0.045 -0.273,0.091 -0.409,0.138c-0.519,0.181 -1.034,0.371 -1.545,0.573c-0.595,0.235 -1.183,0.484 -1.767,0.743l-0.095,0.042c-0.048,0.018 -0.095,0.039 -0.144,0.054c-0.147,0.044 -0.303,0.061 -0.456,0.048c-0.154,-0.013 -0.305,-0.055 -0.441,-0.124c-0.091,-0.045 -0.176,-0.102 -0.252,-0.168c-0.114,-0.1 -0.206,-0.221 -0.271,-0.355c-0.087,-0.179 -0.124,-0.379 -0.106,-0.575c0.009,-0.098 0.031,-0.195 0.067,-0.288c0.07,-0.185 0.191,-0.351 0.349,-0.478c0.105,-0.084 0.14,-0.095 0.259,-0.158c0.179,-0.079 0.357,-0.158 0.536,-0.236c0.723,-0.312 1.453,-0.609 2.191,-0.884c0.578,-0.215 1.16,-0.417 1.748,-0.605l0.018,-0.006c0.149,-0.037 0.149,-0.037 0.302,-0.055c0.051,0.001 0.102,0.001 0.153,0.001ZM160.922,154.698c0.274,0.002 0.547,0.01 0.821,0.024c0.507,0.027 1.013,0.077 1.515,0.152c0.464,0.069 0.925,0.16 1.38,0.273c0.259,0.065 0.515,0.138 0.77,0.217l0.041,0.013c0.048,0.018 0.097,0.034 0.143,0.055c0.185,0.086 0.345,0.219 0.461,0.382c0.086,0.122 0.147,0.261 0.178,0.405c0.021,0.097 0.029,0.196 0.023,0.294c-0.018,0.296 -0.161,0.579 -0.393,0.777c-0.077,0.065 -0.162,0.121 -0.254,0.165c-0.23,0.111 -0.497,0.146 -0.75,0.1c-0.094,-0.018 -0.114,-0.027 -0.181,-0.048c-0.078,-0.024 -0.078,-0.024 -0.156,-0.047c-0.079,-0.023 -0.158,-0.046 -0.237,-0.068c-0.511,-0.137 -1.03,-0.243 -1.555,-0.314c-0.751,-0.102 -1.509,-0.136 -2.267,-0.122l-0.153,-0.007c-0.051,-0.008 -0.102,-0.014 -0.152,-0.026c-0.2,-0.047 -0.385,-0.145 -0.533,-0.282c-0.074,-0.068 -0.139,-0.145 -0.192,-0.23c-0.053,-0.084 -0.094,-0.175 -0.123,-0.269c-0.086,-0.286 -0.049,-0.598 0.1,-0.858c0.05,-0.086 0.111,-0.166 0.183,-0.237c0.178,-0.178 0.417,-0.296 0.672,-0.333c0.088,-0.013 0.159,-0.013 0.245,-0.014c0.094,-0.002 0.113,-0.002 0.207,-0.002c0.069,-0.001 0.138,0 0.207,0Z" style="fill:#dffaf1;fill-rule:nonzero;"/><path d="M163.397,188.042c0.048,0.011 0.097,0.018 0.144,0.032c0.095,0.027 0.186,0.065 0.27,0.114c0.299,0.171 0.506,0.467 0.559,0.797c0.015,0.094 0.017,0.189 0.007,0.283c-0.01,0.094 -0.032,0.186 -0.066,0.275c-0.017,0.044 -0.04,0.087 -0.059,0.13c-0.11,0.203 -0.22,0.405 -0.331,0.607c-0.338,0.616 -0.683,1.229 -1.035,1.839c-0.281,0.485 -0.567,0.968 -0.855,1.449l-0.065,0.108c-0.027,0.039 -0.052,0.08 -0.082,0.118c-0.089,0.113 -0.201,0.209 -0.328,0.282c-0.126,0.074 -0.267,0.124 -0.413,0.147c-0.146,0.024 -0.296,0.021 -0.441,-0.009c-0.34,-0.069 -0.637,-0.285 -0.798,-0.581c-0.046,-0.083 -0.08,-0.172 -0.103,-0.264c-0.045,-0.185 -0.04,-0.379 0.013,-0.561c0.035,-0.122 0.056,-0.148 0.114,-0.261c0.133,-0.22 0.264,-0.441 0.396,-0.662c0.608,-1.029 1.197,-2.067 1.766,-3.117l0.071,-0.131c0.067,-0.108 0.079,-0.139 0.167,-0.233c0.165,-0.177 0.387,-0.301 0.628,-0.351c0.129,-0.027 0.163,-0.022 0.294,-0.025c0.049,0.005 0.098,0.009 0.147,0.014ZM124.838,183.536c0.049,0.007 0.098,0.011 0.146,0.021c0.145,0.028 0.284,0.084 0.407,0.162c0.083,0.052 0.158,0.114 0.224,0.184c0.2,0.211 0.31,0.492 0.305,0.777c-0.001,0.095 -0.016,0.189 -0.042,0.28c-0.039,0.136 -0.105,0.266 -0.195,0.379c-0.055,0.07 -0.099,0.111 -0.16,0.171c-0.074,0.073 -0.147,0.146 -0.221,0.22c-0.105,0.106 -0.21,0.212 -0.314,0.319c-0.454,0.47 -0.902,0.948 -1.305,1.459c-0.143,0.181 -0.282,0.367 -0.404,0.562c-0.039,0.062 -0.076,0.126 -0.11,0.191c-0.025,0.048 -0.049,0.098 -0.066,0.149c-0.002,0.006 -0.003,0.01 -0.004,0.016c-0.031,0.123 -0.033,0.156 -0.087,0.271c-0.081,0.172 -0.208,0.324 -0.365,0.438c-0.119,0.085 -0.254,0.148 -0.396,0.186c-0.096,0.025 -0.194,0.038 -0.292,0.04c-0.298,0.004 -0.591,-0.102 -0.811,-0.293c-0.073,-0.064 -0.138,-0.136 -0.192,-0.215c-0.054,-0.079 -0.098,-0.164 -0.13,-0.254c-0.048,-0.134 -0.069,-0.276 -0.062,-0.418c0.005,-0.112 0.029,-0.223 0.058,-0.331c0.074,-0.269 0.195,-0.525 0.335,-0.768c0.051,-0.088 0.104,-0.175 0.16,-0.26c0.078,-0.12 0.16,-0.238 0.245,-0.354c0.102,-0.141 0.209,-0.278 0.318,-0.414c0.133,-0.165 0.269,-0.326 0.408,-0.485c0.215,-0.247 0.436,-0.489 0.662,-0.728c0.288,-0.305 0.584,-0.604 0.882,-0.9l0.068,-0.067c0.097,-0.084 0.118,-0.11 0.23,-0.176c0.127,-0.074 0.267,-0.125 0.413,-0.149c0.049,-0.008 0.098,-0.01 0.147,-0.015c0.049,0.001 0.099,0.001 0.148,0.002ZM167.885,177.651c0.048,0.008 0.098,0.013 0.146,0.024c0.096,0.022 0.188,0.056 0.276,0.1c0.087,0.044 0.168,0.099 0.241,0.162c0.22,0.192 0.358,0.462 0.382,0.746c0.008,0.094 0.003,0.189 -0.014,0.282c-0.017,0.096 -0.056,0.206 -0.085,0.298c-0.019,0.058 -0.038,0.116 -0.057,0.174c-0.076,0.234 -0.154,0.466 -0.235,0.698c-0.263,0.762 -0.547,1.518 -0.847,2.268c-0.093,0.232 -0.188,0.464 -0.284,0.695c-0.024,0.058 -0.048,0.116 -0.072,0.173c-0.038,0.091 -0.084,0.209 -0.135,0.297c-0.073,0.124 -0.169,0.234 -0.284,0.324c-0.115,0.089 -0.247,0.158 -0.388,0.201c-0.141,0.043 -0.29,0.06 -0.438,0.05c-0.098,-0.007 -0.196,-0.025 -0.289,-0.055c-0.33,-0.105 -0.6,-0.351 -0.726,-0.662c-0.072,-0.176 -0.096,-0.369 -0.069,-0.557c0.017,-0.125 0.034,-0.154 0.075,-0.273c0.07,-0.167 0.14,-0.333 0.209,-0.5c0.272,-0.663 0.533,-1.331 0.778,-2.004c0.199,-0.547 0.386,-1.097 0.563,-1.65l0.052,-0.133c0.061,-0.111 0.071,-0.142 0.154,-0.241c0.154,-0.185 0.369,-0.32 0.607,-0.383c0.127,-0.034 0.162,-0.03 0.292,-0.04c0.049,0.002 0.099,0.004 0.148,0.006ZM133.68,175.989c0.048,0.011 0.096,0.02 0.143,0.034c0.141,0.043 0.273,0.111 0.388,0.201c0.231,0.18 0.383,0.442 0.423,0.725c0.013,0.093 0.014,0.188 0.002,0.282c-0.012,0.094 -0.036,0.186 -0.072,0.275c-0.053,0.132 -0.133,0.254 -0.233,0.358c-0.034,0.035 -0.072,0.065 -0.107,0.098c-0.311,0.249 -0.62,0.5 -0.93,0.751c-0.849,0.691 -1.694,1.389 -2.532,2.094l-0.089,0.075c-0.039,0.029 -0.076,0.06 -0.117,0.087c-0.122,0.079 -0.26,0.136 -0.405,0.167c-0.096,0.021 -0.195,0.03 -0.293,0.027c-0.348,-0.011 -0.68,-0.173 -0.893,-0.437c-0.091,-0.112 -0.159,-0.24 -0.2,-0.376c-0.041,-0.137 -0.055,-0.28 -0.041,-0.421c0.018,-0.189 0.087,-0.371 0.198,-0.528c0.074,-0.104 0.103,-0.123 0.196,-0.212c0.266,-0.225 0.534,-0.449 0.801,-0.672c0.867,-0.722 1.741,-1.435 2.619,-2.144l0.173,-0.139c0.105,-0.075 0.129,-0.099 0.248,-0.153c0.133,-0.061 0.279,-0.098 0.426,-0.108c0.049,-0.003 0.099,-0.001 0.148,-0.001c0.049,0.005 0.098,0.011 0.147,0.017ZM142.821,168.958c0.049,0.009 0.098,0.015 0.145,0.027c0.144,0.035 0.28,0.096 0.4,0.18c0.281,0.195 0.461,0.508 0.483,0.841c0.006,0.094 0,0.189 -0.019,0.282c-0.018,0.093 -0.049,0.183 -0.091,0.269c-0.063,0.128 -0.151,0.245 -0.259,0.342c-0.036,0.032 -0.076,0.06 -0.114,0.09c-0.158,0.11 -0.316,0.221 -0.474,0.333c-0.572,0.405 -1.141,0.816 -1.704,1.234c-0.509,0.378 -1.014,0.762 -1.519,1.146l-0.121,0.081c-0.044,0.022 -0.086,0.047 -0.131,0.066c-0.135,0.058 -0.281,0.091 -0.429,0.097c-0.348,0.014 -0.691,-0.124 -0.925,-0.371c-0.066,-0.07 -0.122,-0.148 -0.168,-0.232c-0.046,-0.084 -0.081,-0.173 -0.103,-0.265c-0.034,-0.138 -0.041,-0.282 -0.019,-0.422c0.028,-0.187 0.107,-0.367 0.226,-0.517c0.079,-0.101 0.109,-0.118 0.206,-0.203c0.324,-0.246 0.648,-0.492 0.973,-0.738c0.444,-0.333 0.89,-0.664 1.339,-0.991c0.455,-0.33 0.913,-0.656 1.374,-0.978l0.091,-0.064c0.111,-0.067 0.136,-0.09 0.259,-0.136c0.091,-0.035 0.187,-0.059 0.285,-0.071c0.049,-0.006 0.099,-0.006 0.148,-0.009c0.049,0.003 0.098,0.006 0.147,0.009ZM168.738,166.565c0.049,0.009 0.098,0.016 0.145,0.028c0.096,0.024 0.188,0.06 0.274,0.106c0.172,0.093 0.318,0.227 0.423,0.388c0.026,0.04 0.049,0.081 0.07,0.124c0.045,0.095 0.075,0.198 0.106,0.298c0.052,0.168 0.099,0.338 0.143,0.509c0.242,0.951 0.356,1.931 0.378,2.909c0.008,0.375 0.003,0.75 -0.013,1.125l-0.003,0.081c-0.004,0.075 -0.005,0.125 -0.02,0.205c-0.034,0.187 -0.118,0.364 -0.241,0.511c-0.186,0.223 -0.459,0.371 -0.753,0.411c-0.098,0.013 -0.197,0.015 -0.295,0.004c-0.098,-0.01 -0.195,-0.032 -0.287,-0.066c-0.138,-0.05 -0.267,-0.125 -0.376,-0.221c-0.22,-0.192 -0.357,-0.462 -0.381,-0.746c-0.006,-0.083 -0.002,-0.128 0.001,-0.202c0.005,-0.095 0.008,-0.19 0.011,-0.285c0.003,-0.094 0.005,-0.188 0.006,-0.282c0.008,-0.876 -0.056,-1.754 -0.244,-2.613c-0.06,-0.274 -0.133,-0.546 -0.219,-0.814l-0.005,-0.014c-0.012,-0.045 -0.027,-0.091 -0.035,-0.137c-0.018,-0.093 -0.023,-0.188 -0.016,-0.282c0.007,-0.095 0.026,-0.188 0.058,-0.277c0.11,-0.317 0.367,-0.575 0.692,-0.695c0.092,-0.034 0.188,-0.057 0.286,-0.068c0.049,-0.005 0.099,-0.005 0.148,-0.007c0.049,0.003 0.098,0.007 0.147,0.01ZM152.797,163.109c0.049,0.006 0.098,0.009 0.146,0.018c0.146,0.027 0.285,0.081 0.41,0.157c0.083,0.051 0.159,0.112 0.227,0.181c0.237,0.244 0.351,0.583 0.306,0.914c-0.019,0.141 -0.066,0.277 -0.137,0.401c-0.096,0.166 -0.235,0.307 -0.403,0.408c-0.041,0.025 -0.086,0.045 -0.129,0.068c-0.158,0.07 -0.315,0.142 -0.472,0.214c-0.727,0.337 -1.445,0.693 -2.152,1.065c-0.467,0.246 -0.929,0.5 -1.388,0.758l-0.043,0.025c-0.044,0.021 -0.087,0.045 -0.132,0.064c-0.136,0.056 -0.283,0.088 -0.43,0.092c-0.148,0.005 -0.297,-0.018 -0.436,-0.066c-0.093,-0.032 -0.181,-0.075 -0.263,-0.128c-0.288,-0.187 -0.477,-0.494 -0.51,-0.826c-0.014,-0.142 0,-0.285 0.041,-0.421c0.055,-0.182 0.158,-0.349 0.298,-0.483c0.093,-0.089 0.125,-0.103 0.233,-0.173c0.153,-0.087 0.307,-0.173 0.461,-0.258c0.547,-0.302 1.097,-0.597 1.654,-0.881c0.643,-0.328 1.294,-0.641 1.952,-0.94l0.102,-0.046c0.079,-0.035 0.141,-0.065 0.227,-0.092c0.126,-0.038 0.16,-0.036 0.29,-0.052c0.049,0.001 0.099,0.001 0.148,0.001ZM160.821,160.997c0.235,0.002 0.471,0.009 0.706,0.026c0.545,0.038 1.088,0.12 1.616,0.257c0.192,0.05 0.382,0.106 0.569,0.171c0.224,0.076 0.444,0.163 0.662,0.254l0.082,0.035c0.069,0.029 0.115,0.048 0.187,0.09c0.168,0.099 0.309,0.239 0.407,0.403c0.073,0.123 0.122,0.259 0.143,0.4c0.014,0.093 0.015,0.188 0.005,0.282c-0.033,0.284 -0.18,0.549 -0.406,0.734c-0.075,0.061 -0.158,0.114 -0.246,0.155c-0.267,0.126 -0.58,0.149 -0.864,0.065c-0.087,-0.025 -0.118,-0.041 -0.186,-0.07c-0.061,-0.026 -0.071,-0.03 -0.131,-0.055c-0.067,-0.027 -0.134,-0.054 -0.201,-0.08c-0.099,-0.038 -0.199,-0.075 -0.299,-0.108c-0.167,-0.056 -0.338,-0.102 -0.51,-0.141c-0.889,-0.2 -1.815,-0.194 -2.719,-0.098l-0.073,0.008c-0.131,0.007 -0.164,0.014 -0.295,-0.003c-0.196,-0.025 -0.383,-0.098 -0.542,-0.211c-0.119,-0.084 -0.221,-0.19 -0.299,-0.31c-0.052,-0.081 -0.094,-0.167 -0.124,-0.257c-0.089,-0.272 -0.067,-0.571 0.062,-0.828c0.043,-0.085 0.097,-0.165 0.161,-0.237c0.159,-0.182 0.377,-0.312 0.617,-0.369c0.081,-0.019 0.147,-0.025 0.226,-0.034c0.092,-0.01 0.184,-0.019 0.276,-0.028c0.332,-0.029 0.664,-0.046 0.997,-0.051c0.089,0 0.089,0 0.179,0Z" style="fill:#dffaf1;fill-rule:nonzero;"/><path d="M131.134,190.249c0.041,0.004 0.082,0.007 0.123,0.013c0.162,0.026 0.318,0.085 0.455,0.172c0.103,0.065 0.195,0.145 0.272,0.238c0.154,0.185 0.244,0.415 0.255,0.652c0.006,0.118 -0.008,0.237 -0.041,0.351c-0.044,0.152 -0.121,0.294 -0.225,0.416c-0.026,0.03 -0.056,0.058 -0.083,0.087c-0.232,0.218 -0.463,0.437 -0.693,0.656c-0.503,0.481 -1.004,0.965 -1.497,1.456c-0.179,0.179 -0.358,0.359 -0.533,0.541c-0.142,0.147 -0.282,0.295 -0.416,0.447l-0.022,0.026l-0.023,0.027l-0.083,0.087c-0.081,0.07 -0.099,0.091 -0.191,0.148c-0.173,0.107 -0.375,0.169 -0.58,0.178c-0.124,0.006 -0.248,-0.007 -0.367,-0.038c-0.118,-0.031 -0.232,-0.08 -0.335,-0.145c-0.103,-0.064 -0.196,-0.145 -0.273,-0.237c-0.207,-0.247 -0.297,-0.574 -0.244,-0.887c0.026,-0.155 0.087,-0.305 0.177,-0.437c0.04,-0.058 0.086,-0.112 0.133,-0.165c0.047,-0.054 0.095,-0.107 0.143,-0.16c0.148,-0.162 0.299,-0.321 0.453,-0.479c0.333,-0.342 0.673,-0.678 1.015,-1.013c0.385,-0.375 0.773,-0.748 1.163,-1.119c0.125,-0.118 0.25,-0.237 0.375,-0.355c0.061,-0.058 0.163,-0.159 0.238,-0.216c0.064,-0.049 0.134,-0.092 0.207,-0.127c0.111,-0.053 0.229,-0.089 0.351,-0.106c0.041,-0.006 0.082,-0.008 0.123,-0.012c0.041,0 0.082,0.001 0.123,0.001ZM158.192,184.168c0.041,0.007 0.082,0.011 0.122,0.02c0.12,0.026 0.236,0.07 0.342,0.131c0.248,0.141 0.437,0.37 0.522,0.634c0.037,0.113 0.055,0.231 0.053,0.349c-0.001,0.118 -0.022,0.236 -0.062,0.348c-0.013,0.037 -0.03,0.073 -0.045,0.109c-0.068,0.142 -0.137,0.282 -0.206,0.423c-0.29,0.587 -0.591,1.17 -0.905,1.746c-0.345,0.631 -0.707,1.254 -1.084,1.867l-0.04,0.065c-0.023,0.033 -0.044,0.067 -0.068,0.098c-0.099,0.126 -0.225,0.232 -0.368,0.31c-0.108,0.057 -0.225,0.099 -0.345,0.122c-0.121,0.023 -0.246,0.028 -0.368,0.014c-0.123,-0.014 -0.243,-0.046 -0.355,-0.095c-0.301,-0.133 -0.533,-0.386 -0.632,-0.689c-0.073,-0.226 -0.07,-0.473 0.009,-0.697c0.035,-0.1 0.052,-0.122 0.103,-0.214c0.074,-0.12 0.148,-0.241 0.221,-0.362c0.355,-0.589 0.694,-1.186 1.017,-1.791c0.297,-0.553 0.579,-1.113 0.853,-1.677l0.03,-0.063c0.05,-0.092 0.06,-0.118 0.125,-0.202c0.148,-0.19 0.358,-0.332 0.594,-0.403c0.079,-0.023 0.16,-0.039 0.241,-0.046c0.041,-0.004 0.082,-0.003 0.124,-0.005c0.041,0.003 0.081,0.005 0.122,0.008ZM139.738,182.514c0.041,0.006 0.082,0.01 0.122,0.018c0.161,0.031 0.315,0.096 0.449,0.188c0.2,0.138 0.353,0.336 0.431,0.561c0.038,0.112 0.059,0.23 0.059,0.348c0.001,0.118 -0.018,0.236 -0.055,0.349c-0.05,0.15 -0.133,0.29 -0.242,0.407c-0.027,0.03 -0.058,0.056 -0.087,0.084c-0.369,0.323 -0.739,0.647 -1.107,0.971c-0.738,0.65 -1.474,1.304 -2.207,1.959l-0.133,0.12c-0.031,0.025 -0.062,0.052 -0.094,0.076c-0.131,0.095 -0.283,0.163 -0.443,0.199c-0.121,0.027 -0.245,0.035 -0.368,0.025c-0.33,-0.027 -0.638,-0.19 -0.838,-0.443c-0.074,-0.094 -0.133,-0.2 -0.173,-0.311c-0.041,-0.112 -0.063,-0.23 -0.065,-0.348c-0.005,-0.237 0.07,-0.472 0.212,-0.667c0.062,-0.086 0.085,-0.102 0.161,-0.178c0.317,-0.284 0.634,-0.567 0.952,-0.851c0.752,-0.668 1.507,-1.334 2.264,-1.997l0.254,-0.221c0.032,-0.025 0.062,-0.052 0.095,-0.075c0.132,-0.094 0.285,-0.16 0.446,-0.194c0.107,-0.022 0.135,-0.02 0.244,-0.026c0.041,0.002 0.082,0.004 0.123,0.006ZM148.665,175.109c0.04,0.008 0.081,0.014 0.121,0.024c0.159,0.039 0.309,0.111 0.438,0.209c0.193,0.148 0.335,0.353 0.401,0.582c0.033,0.113 0.047,0.232 0.041,0.35c-0.005,0.118 -0.03,0.235 -0.073,0.346c-0.058,0.147 -0.148,0.283 -0.264,0.395c-0.028,0.028 -0.06,0.053 -0.09,0.08c-0.208,0.163 -0.415,0.328 -0.621,0.493c-0.97,0.775 -1.932,1.56 -2.887,2.352l-0.062,0.051c-0.032,0.024 -0.063,0.05 -0.097,0.072c-0.135,0.091 -0.289,0.153 -0.45,0.183c-0.122,0.023 -0.246,0.027 -0.368,0.012c-0.329,-0.039 -0.631,-0.213 -0.821,-0.473c-0.07,-0.097 -0.125,-0.204 -0.161,-0.317c-0.036,-0.113 -0.053,-0.232 -0.051,-0.35c0.005,-0.237 0.089,-0.469 0.238,-0.658c0.066,-0.084 0.089,-0.1 0.168,-0.173c0.218,-0.181 0.436,-0.361 0.654,-0.541c0.487,-0.4 0.974,-0.799 1.465,-1.196c0.476,-0.385 0.955,-0.767 1.435,-1.148l0.061,-0.048c0.033,-0.024 0.065,-0.049 0.099,-0.07c0.138,-0.087 0.294,-0.146 0.456,-0.172c0.108,-0.017 0.136,-0.013 0.245,-0.014c0.041,0.004 0.082,0.007 0.123,0.011ZM161.584,173.425c0.041,0.006 0.082,0.009 0.122,0.017c0.08,0.015 0.159,0.039 0.235,0.07c0.265,0.109 0.483,0.313 0.604,0.564c0.051,0.107 0.085,0.222 0.1,0.34c0.004,0.039 0.007,0.078 0.008,0.117c0.001,0.082 -0.01,0.165 -0.018,0.246c-0.011,0.104 -0.023,0.208 -0.036,0.312c-0.073,0.584 -0.175,1.163 -0.297,1.739c-0.174,0.82 -0.389,1.632 -0.63,2.436l-0.003,0.01c-0.036,0.098 -0.041,0.125 -0.093,0.218c-0.116,0.209 -0.302,0.379 -0.524,0.482c-0.298,0.139 -0.651,0.149 -0.957,0.03c-0.114,-0.045 -0.221,-0.107 -0.315,-0.183c-0.094,-0.076 -0.176,-0.167 -0.241,-0.267c-0.065,-0.1 -0.113,-0.21 -0.143,-0.325c-0.039,-0.153 -0.044,-0.314 -0.015,-0.469c0.007,-0.038 0.018,-0.076 0.028,-0.115c0.045,-0.149 0.089,-0.3 0.132,-0.45c0.347,-1.225 0.631,-2.47 0.761,-3.735l0.002,-0.018c0.006,-0.039 0.01,-0.078 0.018,-0.117c0.016,-0.077 0.04,-0.152 0.073,-0.225c0.13,-0.291 0.389,-0.52 0.703,-0.622c0.078,-0.025 0.158,-0.043 0.24,-0.052c0.041,-0.005 0.082,-0.005 0.123,-0.008c0.041,0.002 0.082,0.003 0.123,0.005ZM158.32,168.889c0.109,0.013 0.137,0.013 0.242,0.042c0.158,0.045 0.306,0.121 0.431,0.223c0.094,0.077 0.175,0.167 0.24,0.268c0.173,0.27 0.22,0.605 0.127,0.909c-0.035,0.113 -0.088,0.221 -0.158,0.319c-0.116,0.162 -0.277,0.295 -0.462,0.38c-0.037,0.017 -0.075,0.032 -0.114,0.045c-0.087,0.03 -0.179,0.048 -0.268,0.072c-0.059,0.016 -0.117,0.032 -0.175,0.05c-0.275,0.085 -0.543,0.189 -0.804,0.306c-0.314,0.141 -0.619,0.302 -0.919,0.47c-0.562,0.314 -1.106,0.658 -1.642,1.011l-0.065,0.042c-0.093,0.055 -0.115,0.073 -0.216,0.113c-0.228,0.091 -0.484,0.111 -0.725,0.056c-0.12,-0.027 -0.235,-0.072 -0.34,-0.134c-0.106,-0.061 -0.201,-0.139 -0.281,-0.228c-0.215,-0.241 -0.316,-0.565 -0.274,-0.879c0.016,-0.118 0.051,-0.232 0.104,-0.339c0.071,-0.142 0.172,-0.27 0.297,-0.372c0.031,-0.026 0.065,-0.049 0.098,-0.073c0.133,-0.088 0.267,-0.175 0.402,-0.262c0.508,-0.327 1.022,-0.644 1.551,-0.936c0.33,-0.183 0.666,-0.356 1.011,-0.511c0.481,-0.216 0.98,-0.397 1.495,-0.525l0.051,-0.012l0.027,-0.007l0.121,-0.022l0.123,-0.009c0.041,0.001 0.082,0.002 0.123,0.003Z" style="fill:#dffaf1;fill-rule:nonzero;"/><path d="M12.294,188.625c0.123,0.026 0.156,0.027 0.273,0.073c0.175,0.07 0.332,0.18 0.454,0.32c0.081,0.093 0.092,0.123 0.154,0.228c0.094,0.184 0.188,0.368 0.284,0.552c0.372,0.716 0.757,1.426 1.157,2.128l0.07,0.123c0.054,0.109 0.073,0.135 0.106,0.252c0.061,0.22 0.051,0.456 -0.029,0.671c-0.048,0.128 -0.121,0.248 -0.213,0.352c-0.217,0.243 -0.539,0.389 -0.873,0.395c-0.095,0.002 -0.19,-0.007 -0.282,-0.027c-0.139,-0.03 -0.272,-0.085 -0.391,-0.16c-0.118,-0.075 -0.222,-0.171 -0.305,-0.282c-0.028,-0.037 -0.051,-0.077 -0.076,-0.115c-0.098,-0.171 -0.195,-0.343 -0.292,-0.515c-0.418,-0.748 -0.821,-1.504 -1.211,-2.266l-0.061,-0.119c-0.018,-0.042 -0.039,-0.083 -0.054,-0.126c-0.047,-0.129 -0.068,-0.266 -0.064,-0.402c0.004,-0.136 0.034,-0.271 0.089,-0.397c0.09,-0.211 0.248,-0.392 0.448,-0.516c0.079,-0.05 0.165,-0.09 0.255,-0.119c0.089,-0.03 0.182,-0.049 0.277,-0.058c0.047,-0.004 0.095,-0.002 0.142,-0.004c0.047,0.004 0.094,0.008 0.142,0.012ZM7.881,178.188c0.123,0.027 0.156,0.028 0.273,0.076c0.218,0.089 0.406,0.243 0.533,0.435c0.067,0.103 0.074,0.134 0.121,0.246c0.066,0.189 0.132,0.378 0.199,0.567c0.203,0.572 0.412,1.143 0.628,1.71c0.235,0.619 0.478,1.234 0.727,1.848l0.025,0.061c0.039,0.115 0.054,0.143 0.071,0.263c0.031,0.226 -0.011,0.459 -0.119,0.662c-0.065,0.121 -0.153,0.231 -0.258,0.322c-0.07,0.061 -0.148,0.114 -0.232,0.157c-0.294,0.152 -0.65,0.176 -0.963,0.066c-0.134,-0.047 -0.258,-0.118 -0.366,-0.207c-0.107,-0.089 -0.198,-0.197 -0.265,-0.317c-0.022,-0.04 -0.04,-0.083 -0.06,-0.124c-0.085,-0.208 -0.169,-0.417 -0.252,-0.626c-0.228,-0.571 -0.45,-1.144 -0.666,-1.719c-0.219,-0.587 -0.431,-1.175 -0.638,-1.766l-0.064,-0.185c-0.013,-0.044 -0.028,-0.087 -0.037,-0.132c-0.028,-0.133 -0.031,-0.272 -0.008,-0.406c0.015,-0.09 0.042,-0.177 0.079,-0.261c0.131,-0.295 0.393,-0.526 0.711,-0.627c0.09,-0.029 0.183,-0.047 0.278,-0.054c0.047,-0.004 0.094,-0.002 0.142,-0.003c0.047,0.005 0.094,0.009 0.141,0.014ZM46.82,168.15c0.046,0.01 0.093,0.017 0.138,0.03c0.137,0.038 0.266,0.1 0.38,0.182c0.101,0.072 0.119,0.099 0.204,0.188c0.148,0.173 0.294,0.347 0.44,0.521c0.441,0.529 0.874,1.063 1.294,1.608c0.387,0.503 0.763,1.013 1.11,1.542l0.045,0.069c0.023,0.04 0.048,0.079 0.068,0.12c0.08,0.165 0.117,0.348 0.108,0.53c-0.007,0.136 -0.04,0.271 -0.097,0.396c-0.134,0.293 -0.397,0.523 -0.715,0.621c-0.091,0.029 -0.184,0.046 -0.279,0.053c-0.094,0.006 -0.19,0.002 -0.283,-0.014c-0.282,-0.046 -0.541,-0.192 -0.72,-0.405c-0.055,-0.066 -0.08,-0.109 -0.123,-0.175c-0.035,-0.053 -0.048,-0.073 -0.084,-0.126c-0.062,-0.093 -0.125,-0.185 -0.189,-0.277c-0.354,-0.503 -0.727,-0.992 -1.11,-1.475c-0.407,-0.512 -0.824,-1.016 -1.248,-1.515l-0.04,-0.047c-0.028,-0.037 -0.058,-0.072 -0.083,-0.111c-0.076,-0.115 -0.13,-0.243 -0.158,-0.377c-0.067,-0.314 0.011,-0.647 0.212,-0.903c0.057,-0.072 0.123,-0.138 0.197,-0.196c0.073,-0.057 0.154,-0.106 0.239,-0.145c0.129,-0.058 0.268,-0.094 0.41,-0.105c0.047,-0.004 0.095,-0.002 0.142,-0.003c0.047,0.005 0.095,0.009 0.142,0.014ZM5.012,167.24c0.047,0.008 0.094,0.012 0.14,0.022c0.093,0.02 0.182,0.05 0.267,0.091c0.256,0.122 0.46,0.333 0.568,0.587c0.047,0.112 0.048,0.144 0.073,0.262c0.022,0.143 0.045,0.286 0.068,0.43c0.097,0.596 0.203,1.19 0.322,1.782c0.133,0.668 0.28,1.332 0.437,1.995l0.031,0.131c0.008,0.045 0.019,0.089 0.024,0.134c0.015,0.136 0.004,0.274 -0.033,0.406c-0.024,0.088 -0.059,0.173 -0.104,0.252c-0.16,0.282 -0.444,0.488 -0.77,0.56c-0.139,0.03 -0.283,0.036 -0.424,0.018c-0.141,-0.019 -0.278,-0.062 -0.403,-0.127c-0.209,-0.109 -0.38,-0.279 -0.487,-0.482c-0.057,-0.108 -0.061,-0.14 -0.097,-0.256c-0.044,-0.183 -0.087,-0.366 -0.129,-0.549c-0.158,-0.689 -0.306,-1.379 -0.438,-2.073c-0.118,-0.618 -0.224,-1.238 -0.32,-1.86l-0.006,-0.04c-0.004,-0.045 -0.011,-0.091 -0.012,-0.136c-0.002,-0.091 0.007,-0.182 0.028,-0.27c0.052,-0.223 0.175,-0.427 0.349,-0.582c0.104,-0.093 0.226,-0.167 0.358,-0.218c0.088,-0.034 0.18,-0.058 0.274,-0.071c0.047,-0.006 0.095,-0.007 0.142,-0.011c0.047,0.002 0.094,0.004 0.142,0.005ZM38.834,159.878c0.047,0.01 0.093,0.018 0.139,0.031c0.091,0.025 0.179,0.061 0.261,0.107c0.109,0.061 0.13,0.085 0.226,0.164c0.152,0.14 0.304,0.281 0.455,0.423c0.738,0.691 1.466,1.391 2.183,2.102c0.198,0.196 0.395,0.394 0.592,0.592c0.068,0.068 0.152,0.148 0.211,0.225c0.057,0.073 0.104,0.152 0.141,0.236c0.055,0.126 0.086,0.261 0.09,0.397c0.005,0.137 -0.016,0.273 -0.062,0.402c-0.076,0.216 -0.222,0.407 -0.412,0.542c-0.077,0.055 -0.159,0.1 -0.247,0.135c-0.131,0.053 -0.272,0.082 -0.414,0.087c-0.238,0.008 -0.476,-0.055 -0.676,-0.178c-0.106,-0.065 -0.126,-0.09 -0.218,-0.173c-0.184,-0.185 -0.367,-0.369 -0.552,-0.553c-0.893,-0.887 -1.801,-1.759 -2.726,-2.615l-0.096,-0.1c-0.028,-0.037 -0.058,-0.073 -0.083,-0.111c-0.076,-0.115 -0.129,-0.244 -0.157,-0.378c-0.019,-0.089 -0.026,-0.18 -0.022,-0.271c0.014,-0.32 0.174,-0.625 0.434,-0.826c0.073,-0.058 0.154,-0.106 0.24,-0.145c0.128,-0.058 0.268,-0.094 0.41,-0.104c0.047,-0.004 0.095,-0.002 0.142,-0.003c0.047,0.005 0.094,0.01 0.141,0.014ZM5.278,156.041c0.047,0.008 0.094,0.014 0.14,0.026c0.092,0.022 0.181,0.055 0.264,0.098c0.126,0.065 0.238,0.151 0.332,0.254c0.156,0.172 0.255,0.388 0.281,0.614c0.011,0.09 0.01,0.182 -0.002,0.272c-0.011,0.079 -0.032,0.15 -0.051,0.226c-0.019,0.071 -0.022,0.085 -0.04,0.156c-0.026,0.105 -0.051,0.21 -0.075,0.315c-0.122,0.542 -0.22,1.088 -0.294,1.637c-0.09,0.663 -0.145,1.328 -0.177,1.995l-0.002,0.032c-0.013,0.12 -0.01,0.152 -0.046,0.268c-0.066,0.219 -0.203,0.416 -0.387,0.559c-0.11,0.086 -0.237,0.153 -0.372,0.196c-0.317,0.1 -0.672,0.066 -0.961,-0.095c-0.082,-0.046 -0.158,-0.101 -0.227,-0.164c-0.102,-0.094 -0.186,-0.207 -0.247,-0.33c-0.061,-0.123 -0.098,-0.257 -0.109,-0.393c-0.004,-0.045 -0.002,-0.091 -0.003,-0.136c0.007,-0.141 0.014,-0.281 0.023,-0.422c0.051,-0.819 0.137,-1.637 0.271,-2.447c0.1,-0.606 0.229,-1.207 0.384,-1.802l0.006,-0.021c0.038,-0.115 0.043,-0.146 0.103,-0.253c0.135,-0.241 0.361,-0.43 0.629,-0.525c0.09,-0.031 0.182,-0.052 0.277,-0.063c0.047,-0.005 0.094,-0.004 0.141,-0.007c0.048,0.004 0.095,0.007 0.142,0.01ZM29.802,152.62c0.123,0.023 0.156,0.024 0.274,0.068c0.118,0.045 0.143,0.066 0.25,0.129c0.136,0.093 0.27,0.186 0.405,0.279c0.565,0.392 1.123,0.792 1.675,1.201c0.556,0.411 1.104,0.832 1.648,1.258l0.073,0.057c0.092,0.082 0.12,0.1 0.196,0.197c0.142,0.182 0.224,0.405 0.232,0.633c0.006,0.136 -0.015,0.273 -0.061,0.402c-0.045,0.129 -0.115,0.25 -0.206,0.355c-0.212,0.248 -0.532,0.399 -0.866,0.411c-0.094,0.003 -0.189,-0.004 -0.282,-0.023c-0.14,-0.028 -0.273,-0.08 -0.393,-0.153c-0.04,-0.024 -0.077,-0.053 -0.115,-0.08c-0.141,-0.111 -0.282,-0.221 -0.423,-0.33c-0.528,-0.409 -1.06,-0.812 -1.6,-1.206c-0.533,-0.389 -1.072,-0.769 -1.618,-1.143l-0.026,-0.017c-0.037,-0.029 -0.076,-0.055 -0.111,-0.086c-0.14,-0.122 -0.249,-0.277 -0.314,-0.448c-0.049,-0.128 -0.073,-0.264 -0.071,-0.4c0.004,-0.321 0.154,-0.63 0.407,-0.84c0.072,-0.059 0.151,-0.11 0.235,-0.151c0.127,-0.062 0.266,-0.102 0.407,-0.116c0.047,-0.005 0.095,-0.005 0.142,-0.007c0.047,0.003 0.095,0.007 0.142,0.01ZM12.413,147.624c0.047,0.008 0.094,0.014 0.14,0.025c0.138,0.033 0.269,0.091 0.386,0.169c0.078,0.052 0.149,0.112 0.212,0.181c0.22,0.24 0.325,0.567 0.283,0.884c-0.017,0.136 -0.061,0.268 -0.128,0.388c-0.111,0.201 -0.286,0.367 -0.497,0.472c-0.07,0.036 -0.132,0.056 -0.202,0.083c-0.058,0.021 -0.071,0.026 -0.128,0.049c-0.064,0.025 -0.127,0.051 -0.19,0.078c-0.126,0.054 -0.251,0.111 -0.374,0.171c-0.276,0.136 -0.544,0.287 -0.805,0.447c-0.679,0.416 -1.308,0.907 -1.868,1.462l-0.105,0.092c-0.103,0.07 -0.126,0.093 -0.241,0.145c-0.215,0.097 -0.459,0.129 -0.693,0.092c-0.094,-0.015 -0.185,-0.041 -0.272,-0.077c-0.308,-0.127 -0.548,-0.378 -0.653,-0.682c-0.045,-0.13 -0.064,-0.267 -0.058,-0.403c0.006,-0.136 0.038,-0.271 0.095,-0.396c0.037,-0.084 0.085,-0.163 0.142,-0.235c0.045,-0.056 0.082,-0.094 0.13,-0.141c0.046,-0.045 0.083,-0.081 0.13,-0.125c0.219,-0.21 0.446,-0.411 0.681,-0.604c0.48,-0.395 0.991,-0.755 1.526,-1.078c0.349,-0.21 0.708,-0.407 1.078,-0.581c0.272,-0.128 0.55,-0.242 0.833,-0.346l0.019,-0.007c0.12,-0.036 0.15,-0.05 0.276,-0.064c0.047,-0.005 0.094,-0.005 0.141,-0.008c0.048,0.003 0.095,0.006 0.142,0.009ZM19.369,147.527c0.047,0.008 0.094,0.017 0.14,0.026c0.039,0.007 0.076,0.019 0.114,0.029c0.032,0.008 0.063,0.016 0.094,0.024c0.095,0.024 0.189,0.05 0.283,0.075c0.317,0.088 0.632,0.182 0.945,0.284c1.074,0.347 2.118,0.772 3.139,1.244l0.04,0.019c0.11,0.059 0.141,0.07 0.238,0.148c0.183,0.145 0.317,0.344 0.381,0.563c0.038,0.131 0.051,0.269 0.038,0.405c-0.013,0.136 -0.052,0.269 -0.114,0.391c-0.041,0.082 -0.093,0.159 -0.154,0.229c-0.214,0.246 -0.534,0.395 -0.868,0.405c-0.143,0.004 -0.285,-0.017 -0.42,-0.061c-0.045,-0.015 -0.087,-0.035 -0.131,-0.052c-0.13,-0.061 -0.26,-0.12 -0.391,-0.179c-0.792,-0.354 -1.6,-0.676 -2.427,-0.948c-0.442,-0.145 -0.889,-0.275 -1.341,-0.389l-0.015,-0.004c-0.119,-0.037 -0.152,-0.041 -0.264,-0.099c-0.167,-0.086 -0.311,-0.211 -0.417,-0.362c-0.053,-0.076 -0.097,-0.157 -0.129,-0.242c-0.115,-0.301 -0.09,-0.641 0.069,-0.923c0.045,-0.08 0.1,-0.155 0.163,-0.222c0.096,-0.101 0.211,-0.186 0.337,-0.248c0.127,-0.062 0.265,-0.101 0.407,-0.116c0.047,-0.005 0.094,-0.005 0.142,-0.007c0.047,0.003 0.094,0.007 0.141,0.01Z" style="fill:#dffaf1;fill-rule:nonzero;"/><path d="M17.297,187.972c0.115,0.015 0.146,0.015 0.258,0.049c0.21,0.064 0.4,0.185 0.542,0.346c0.076,0.086 0.087,0.114 0.147,0.21c0.112,0.209 0.225,0.417 0.339,0.625c0.344,0.625 0.694,1.248 1.051,1.867l0.057,0.114c0.039,0.106 0.053,0.131 0.073,0.243c0.037,0.208 0.011,0.425 -0.073,0.62c-0.05,0.117 -0.122,0.225 -0.21,0.32c-0.176,0.189 -0.419,0.318 -0.68,0.36c-0.13,0.021 -0.264,0.021 -0.394,0c-0.131,-0.021 -0.257,-0.063 -0.373,-0.125c-0.154,-0.081 -0.288,-0.196 -0.39,-0.334c-0.026,-0.034 -0.047,-0.071 -0.07,-0.107c-0.114,-0.197 -0.227,-0.394 -0.339,-0.591c-0.293,-0.516 -0.581,-1.034 -0.865,-1.555c-0.044,-0.08 -0.087,-0.161 -0.131,-0.241c-0.042,-0.078 -0.106,-0.189 -0.14,-0.275c-0.032,-0.079 -0.054,-0.161 -0.066,-0.245c-0.025,-0.167 -0.01,-0.339 0.044,-0.5c0.053,-0.161 0.145,-0.309 0.266,-0.432c0.09,-0.092 0.197,-0.169 0.315,-0.227c0.117,-0.058 0.244,-0.097 0.375,-0.115c0.044,-0.006 0.088,-0.007 0.132,-0.011c0.044,0.001 0.088,0.002 0.132,0.004ZM12.446,177.702c0.116,0.015 0.146,0.015 0.258,0.048c0.253,0.077 0.475,0.236 0.623,0.446c0.066,0.094 0.074,0.122 0.122,0.224c0.088,0.218 0.176,0.435 0.265,0.652c0.469,1.137 0.962,2.264 1.475,3.384l0.038,0.083c0.015,0.039 0.033,0.078 0.046,0.118c0.053,0.161 0.067,0.333 0.041,0.5c-0.019,0.126 -0.06,0.248 -0.121,0.36c-0.062,0.112 -0.143,0.214 -0.239,0.3c-0.227,0.203 -0.534,0.314 -0.844,0.304c-0.132,-0.005 -0.263,-0.03 -0.386,-0.076c-0.205,-0.077 -0.387,-0.209 -0.518,-0.378c-0.07,-0.091 -0.08,-0.119 -0.133,-0.218c-0.111,-0.243 -0.222,-0.485 -0.331,-0.728c-0.496,-1.103 -0.972,-2.213 -1.426,-3.333l-0.063,-0.156c-0.013,-0.04 -0.029,-0.08 -0.04,-0.12c-0.034,-0.123 -0.046,-0.251 -0.035,-0.377c0.025,-0.296 0.174,-0.575 0.411,-0.768c0.1,-0.082 0.215,-0.147 0.338,-0.193c0.083,-0.03 0.168,-0.052 0.255,-0.064c0.044,-0.006 0.088,-0.007 0.132,-0.011c0.044,0.001 0.088,0.002 0.132,0.003ZM44.115,175.737c0.043,0.006 0.087,0.01 0.13,0.019c0.173,0.036 0.336,0.109 0.475,0.212c0.093,0.07 0.109,0.094 0.189,0.177c0.112,0.131 0.223,0.264 0.334,0.397c0.354,0.426 0.701,0.858 1.031,1.302c0.212,0.284 0.416,0.573 0.608,0.869c0.165,0.257 0.322,0.519 0.457,0.791c0.15,0.3 0.274,0.614 0.332,0.944l0.015,0.125c-0.001,0.113 0.004,0.141 -0.016,0.252c-0.029,0.167 -0.098,0.326 -0.201,0.464c-0.076,0.103 -0.171,0.193 -0.279,0.267c-0.144,0.097 -0.31,0.163 -0.484,0.191c-0.174,0.028 -0.354,0.018 -0.523,-0.029c-0.127,-0.035 -0.247,-0.091 -0.355,-0.164c-0.18,-0.123 -0.321,-0.294 -0.405,-0.489c-0.017,-0.039 -0.032,-0.079 -0.044,-0.119c-0.017,-0.057 -0.024,-0.114 -0.04,-0.17c-0.008,-0.028 -0.017,-0.056 -0.027,-0.083c-0.078,-0.202 -0.186,-0.394 -0.298,-0.58c-0.144,-0.238 -0.301,-0.468 -0.463,-0.695c-0.445,-0.623 -0.932,-1.217 -1.428,-1.802l-0.037,-0.044c-0.026,-0.034 -0.054,-0.067 -0.078,-0.102c-0.071,-0.106 -0.124,-0.224 -0.155,-0.347c-0.031,-0.123 -0.04,-0.251 -0.027,-0.377c0.027,-0.253 0.144,-0.493 0.329,-0.675c0.092,-0.091 0.201,-0.166 0.319,-0.222c0.118,-0.057 0.246,-0.094 0.377,-0.109c0.044,-0.006 0.088,-0.006 0.132,-0.009c0.044,0.002 0.088,0.004 0.132,0.006ZM9.192,166.88c0.044,0.006 0.088,0.008 0.131,0.016c0.087,0.015 0.171,0.039 0.252,0.072c0.286,0.117 0.515,0.341 0.631,0.617c0.044,0.104 0.045,0.133 0.07,0.243c0.022,0.13 0.045,0.26 0.068,0.39c0.078,0.433 0.164,0.864 0.258,1.294c0.191,0.873 0.414,1.74 0.658,2.6l0.028,0.124c0.004,0.042 0.011,0.084 0.013,0.126c0.007,0.169 -0.026,0.338 -0.096,0.493c-0.052,0.116 -0.125,0.224 -0.214,0.317c-0.09,0.093 -0.196,0.172 -0.312,0.231c-0.117,0.06 -0.244,0.1 -0.374,0.12c-0.262,0.039 -0.535,-0.01 -0.765,-0.136c-0.191,-0.105 -0.35,-0.261 -0.454,-0.448c-0.055,-0.099 -0.06,-0.128 -0.097,-0.234c-0.044,-0.155 -0.087,-0.311 -0.13,-0.466c-0.205,-0.751 -0.394,-1.505 -0.561,-2.264c-0.124,-0.569 -0.235,-1.141 -0.333,-1.715l-0.013,-0.077c-0.005,-0.042 -0.012,-0.084 -0.014,-0.126c-0.004,-0.084 0.002,-0.168 0.018,-0.252c0.047,-0.25 0.183,-0.48 0.383,-0.648c0.099,-0.083 0.213,-0.15 0.336,-0.198c0.081,-0.031 0.167,-0.054 0.254,-0.067c0.043,-0.007 0.087,-0.009 0.131,-0.013c0.044,0.001 0.088,0.001 0.132,0.001ZM36.127,167.476c0.043,0.007 0.087,0.011 0.13,0.021c0.129,0.028 0.252,0.077 0.364,0.144c0.1,0.06 0.119,0.083 0.206,0.158c0.184,0.176 0.367,0.352 0.55,0.528c0.422,0.408 0.844,0.817 1.262,1.227c0.503,0.493 1.002,0.99 1.498,1.488l0.086,0.096c0.066,0.093 0.087,0.114 0.135,0.217c0.091,0.192 0.124,0.408 0.095,0.618c-0.018,0.125 -0.058,0.247 -0.118,0.36c-0.06,0.113 -0.14,0.216 -0.236,0.303c-0.095,0.088 -0.206,0.159 -0.326,0.212c-0.242,0.104 -0.518,0.128 -0.775,0.066c-0.171,-0.041 -0.331,-0.12 -0.466,-0.228c-0.034,-0.027 -0.065,-0.058 -0.097,-0.087c-0.191,-0.191 -0.382,-0.382 -0.573,-0.573c-0.892,-0.886 -1.791,-1.763 -2.699,-2.632l-0.088,-0.095c-0.026,-0.034 -0.053,-0.067 -0.077,-0.103c-0.07,-0.107 -0.121,-0.225 -0.15,-0.349c-0.059,-0.247 -0.028,-0.511 0.087,-0.74c0.057,-0.114 0.134,-0.219 0.228,-0.308c0.093,-0.09 0.202,-0.164 0.321,-0.219c0.119,-0.055 0.248,-0.09 0.379,-0.104c0.044,-0.005 0.088,-0.005 0.132,-0.007c0.044,0.002 0.088,0.004 0.132,0.007ZM27.498,159.824c0.115,0.019 0.146,0.019 0.257,0.057c0.083,0.029 0.162,0.066 0.236,0.111c0.038,0.023 0.072,0.049 0.108,0.074c0.162,0.126 0.324,0.252 0.486,0.379c0.441,0.348 0.88,0.701 1.313,1.06c0.542,0.449 1.076,0.905 1.606,1.368l0.157,0.139c0.056,0.048 0.098,0.084 0.15,0.141c0.086,0.096 0.156,0.205 0.204,0.323c0.065,0.157 0.093,0.327 0.08,0.496c-0.013,0.168 -0.065,0.333 -0.153,0.48c-0.065,0.11 -0.15,0.209 -0.25,0.292c-0.1,0.082 -0.215,0.149 -0.337,0.196c-0.123,0.046 -0.254,0.073 -0.386,0.078c-0.22,0.009 -0.442,-0.043 -0.633,-0.148c-0.102,-0.056 -0.122,-0.078 -0.213,-0.15c-0.171,-0.151 -0.343,-0.301 -0.516,-0.451c-0.463,-0.401 -0.931,-0.798 -1.405,-1.187c-0.471,-0.388 -0.949,-0.769 -1.431,-1.144l-0.151,-0.117c-0.033,-0.029 -0.067,-0.055 -0.098,-0.085c-0.124,-0.12 -0.219,-0.267 -0.276,-0.427c-0.043,-0.119 -0.064,-0.246 -0.064,-0.372c0.002,-0.297 0.13,-0.587 0.35,-0.796c0.094,-0.089 0.204,-0.162 0.323,-0.216c0.119,-0.055 0.248,-0.089 0.38,-0.103c0.043,-0.004 0.087,-0.004 0.131,-0.006c0.044,0.002 0.088,0.005 0.132,0.008ZM11.047,156.08c0.043,0.008 0.086,0.014 0.129,0.025c0.128,0.032 0.25,0.084 0.359,0.155c0.11,0.071 0.207,0.159 0.286,0.26c0.106,0.135 0.179,0.293 0.213,0.459c0.033,0.166 0.028,0.338 -0.017,0.501c-0.033,0.123 -0.088,0.24 -0.162,0.345c-0.046,0.066 -0.063,0.081 -0.104,0.128c-0.034,0.039 -0.067,0.078 -0.1,0.118c-0.033,0.04 -0.066,0.08 -0.098,0.12c-0.182,0.234 -0.348,0.479 -0.495,0.735c-0.456,0.791 -0.735,1.664 -0.905,2.551l-0.031,0.122c-0.04,0.106 -0.046,0.134 -0.104,0.232c-0.11,0.184 -0.273,0.336 -0.467,0.436c-0.117,0.059 -0.244,0.1 -0.374,0.12c-0.262,0.039 -0.534,-0.009 -0.765,-0.135c-0.114,-0.063 -0.218,-0.144 -0.305,-0.24c-0.086,-0.095 -0.156,-0.205 -0.205,-0.322c-0.065,-0.157 -0.093,-0.328 -0.08,-0.496c0.005,-0.068 0.014,-0.117 0.027,-0.179c0.014,-0.073 0.028,-0.145 0.044,-0.217c0.041,-0.192 0.086,-0.382 0.136,-0.571c0.305,-1.148 0.794,-2.257 1.515,-3.224c0.1,-0.134 0.204,-0.265 0.312,-0.393c0.069,-0.081 0.137,-0.164 0.217,-0.236c0.096,-0.087 0.207,-0.158 0.328,-0.209c0.121,-0.051 0.25,-0.083 0.382,-0.093c0.044,-0.004 0.088,-0.002 0.132,-0.003c0.044,0.003 0.088,0.007 0.132,0.011ZM17.385,154.234c0.043,0.008 0.086,0.016 0.129,0.024c0.031,0.005 0.061,0.014 0.092,0.022c0.026,0.006 0.052,0.013 0.079,0.02c0.132,0.033 0.264,0.068 0.395,0.106c0.322,0.092 0.641,0.195 0.956,0.307c1.045,0.373 2.049,0.843 3.023,1.361l0.074,0.04c0.037,0.023 0.076,0.043 0.112,0.068c0.143,0.098 0.262,0.228 0.347,0.376c0.063,0.111 0.107,0.232 0.128,0.357c0.05,0.293 -0.024,0.599 -0.205,0.84c-0.077,0.103 -0.172,0.193 -0.28,0.266c-0.108,0.073 -0.229,0.128 -0.356,0.162c-0.212,0.058 -0.44,0.057 -0.652,-0.003c-0.112,-0.032 -0.137,-0.048 -0.243,-0.098c-0.124,-0.066 -0.249,-0.132 -0.374,-0.197c-0.576,-0.297 -1.162,-0.574 -1.764,-0.818c-0.614,-0.248 -1.243,-0.461 -1.889,-0.618l-0.006,-0.002c-0.042,-0.012 -0.085,-0.022 -0.126,-0.037c-0.165,-0.058 -0.316,-0.152 -0.438,-0.274c-0.092,-0.091 -0.168,-0.197 -0.223,-0.312c-0.055,-0.115 -0.09,-0.238 -0.103,-0.364c-0.025,-0.253 0.041,-0.511 0.186,-0.724c0.072,-0.106 0.163,-0.2 0.268,-0.277c0.14,-0.103 0.303,-0.175 0.476,-0.21c0.115,-0.023 0.145,-0.019 0.262,-0.024c0.044,0.003 0.088,0.006 0.132,0.009Z" style="fill:#dffaf1;fill-rule:nonzero;"/><path d="M39.011,181.916c0.095,0.015 0.12,0.016 0.213,0.043c0.138,0.04 0.269,0.106 0.383,0.192c0.076,0.057 0.091,0.076 0.157,0.143c0.222,0.243 0.443,0.487 0.664,0.731c0.362,0.401 0.723,0.805 1.079,1.211c0.276,0.314 0.549,0.63 0.816,0.95c0.124,0.149 0.247,0.299 0.366,0.451c0.039,0.051 0.077,0.101 0.116,0.152c0.036,0.048 0.074,0.1 0.105,0.151c0.072,0.121 0.121,0.254 0.143,0.391c0.028,0.172 0.013,0.349 -0.042,0.515c-0.055,0.166 -0.151,0.318 -0.277,0.443c-0.076,0.074 -0.163,0.139 -0.257,0.191c-0.095,0.052 -0.196,0.091 -0.302,0.116c-0.141,0.034 -0.288,0.043 -0.432,0.025c-0.252,-0.03 -0.491,-0.14 -0.674,-0.31c-0.026,-0.024 -0.051,-0.05 -0.074,-0.076c-0.053,-0.059 -0.097,-0.124 -0.145,-0.187c-0.052,-0.067 -0.104,-0.133 -0.157,-0.2c-0.358,-0.44 -0.73,-0.869 -1.106,-1.295c-0.513,-0.584 -1.035,-1.161 -1.559,-1.736l-0.034,-0.037c-0.023,-0.027 -0.047,-0.054 -0.068,-0.082c-0.085,-0.112 -0.148,-0.24 -0.185,-0.374c-0.028,-0.101 -0.041,-0.205 -0.039,-0.31c0.003,-0.104 0.02,-0.208 0.052,-0.307c0.096,-0.301 0.325,-0.555 0.622,-0.689c0.131,-0.06 0.273,-0.096 0.418,-0.106c0.036,-0.002 0.072,-0.002 0.108,-0.002c0.037,0.002 0.073,0.004 0.109,0.006ZM16.892,173.149c0.036,0.003 0.072,0.006 0.108,0.011c0.071,0.011 0.142,0.028 0.21,0.052c0.24,0.082 0.448,0.239 0.588,0.443c0.04,0.058 0.074,0.119 0.102,0.184c0.014,0.032 0.025,0.065 0.037,0.097c0.057,0.173 0.114,0.345 0.172,0.517c0.419,1.227 0.883,2.44 1.393,3.635l0.036,0.098c0.024,0.09 0.033,0.112 0.044,0.204c0.024,0.208 -0.013,0.42 -0.107,0.609c-0.062,0.125 -0.148,0.24 -0.254,0.335c-0.079,0.072 -0.168,0.133 -0.265,0.181c-0.161,0.08 -0.341,0.124 -0.522,0.127c-0.181,0.003 -0.363,-0.034 -0.527,-0.109c-0.098,-0.044 -0.19,-0.102 -0.271,-0.171c-0.109,-0.092 -0.2,-0.203 -0.267,-0.326c-0.017,-0.031 -0.031,-0.063 -0.046,-0.095c-0.062,-0.144 -0.122,-0.288 -0.183,-0.433c-0.221,-0.534 -0.435,-1.071 -0.641,-1.611c-0.264,-0.693 -0.511,-1.392 -0.745,-2.096l-0.038,-0.116c-0.02,-0.061 -0.038,-0.111 -0.052,-0.175c-0.023,-0.102 -0.031,-0.207 -0.024,-0.311c0.022,-0.314 0.184,-0.61 0.44,-0.807c0.085,-0.065 0.18,-0.118 0.28,-0.159c0.101,-0.04 0.207,-0.067 0.315,-0.079c0.036,-0.004 0.072,-0.005 0.108,-0.008c0.036,0.001 0.073,0.002 0.109,0.003ZM31.013,173.596c0.096,0.011 0.121,0.011 0.214,0.034c0.141,0.035 0.274,0.095 0.392,0.176c0.079,0.054 0.094,0.073 0.164,0.137c0.263,0.264 0.526,0.529 0.788,0.794c0.617,0.625 1.231,1.253 1.843,1.883c0.15,0.155 0.299,0.31 0.449,0.465c0.047,0.049 0.169,0.17 0.225,0.24c0.088,0.11 0.154,0.236 0.195,0.369c0.03,0.1 0.046,0.205 0.047,0.309c0.001,0.174 -0.04,0.347 -0.12,0.503c-0.08,0.156 -0.197,0.294 -0.341,0.399c-0.087,0.064 -0.182,0.116 -0.284,0.154c-0.134,0.051 -0.279,0.078 -0.424,0.079c-0.255,0.001 -0.507,-0.078 -0.711,-0.224c-0.078,-0.055 -0.093,-0.074 -0.161,-0.139c-0.275,-0.284 -0.549,-0.568 -0.825,-0.851c-0.763,-0.785 -1.53,-1.565 -2.301,-2.341l-0.083,-0.083c-0.023,-0.026 -0.048,-0.051 -0.071,-0.079c-0.09,-0.108 -0.159,-0.233 -0.202,-0.366c-0.097,-0.301 -0.057,-0.634 0.11,-0.905c0.055,-0.09 0.123,-0.172 0.202,-0.244c0.079,-0.072 0.168,-0.134 0.264,-0.182c0.128,-0.065 0.269,-0.107 0.413,-0.123c0.036,-0.004 0.072,-0.005 0.108,-0.007c0.037,0.001 0.073,0.002 0.109,0.002ZM22.629,165.698c0.036,0.005 0.072,0.007 0.108,0.013c0.143,0.024 0.281,0.073 0.405,0.144c0.083,0.048 0.1,0.065 0.175,0.123c0.114,0.096 0.227,0.193 0.339,0.289c0.425,0.367 0.847,0.736 1.265,1.11c0.6,0.537 1.192,1.081 1.78,1.629l0.096,0.09c0.025,0.025 0.051,0.05 0.075,0.076c0.094,0.106 0.167,0.228 0.215,0.359c0.035,0.099 0.057,0.202 0.063,0.306c0.007,0.104 -0.002,0.209 -0.026,0.311c-0.039,0.169 -0.12,0.329 -0.234,0.465c-0.114,0.135 -0.261,0.244 -0.426,0.316c-0.132,0.057 -0.275,0.091 -0.42,0.099c-0.254,0.015 -0.51,-0.052 -0.722,-0.187c-0.08,-0.052 -0.097,-0.07 -0.169,-0.131c-0.179,-0.168 -0.359,-0.335 -0.539,-0.502c-0.937,-0.864 -1.884,-1.716 -2.857,-2.541l-0.078,-0.073c-0.023,-0.026 -0.048,-0.052 -0.071,-0.079c-0.089,-0.11 -0.156,-0.235 -0.198,-0.368c-0.031,-0.1 -0.048,-0.204 -0.05,-0.308c-0.001,-0.104 0.012,-0.209 0.041,-0.309c0.085,-0.304 0.304,-0.565 0.596,-0.709c0.129,-0.064 0.27,-0.105 0.415,-0.12c0.036,-0.003 0.072,-0.004 0.108,-0.006c0.036,0.001 0.072,0.002 0.109,0.003ZM16.621,162.498c0.097,0.009 0.121,0.008 0.216,0.03c0.141,0.032 0.275,0.089 0.395,0.168c0.089,0.059 0.17,0.13 0.24,0.21c0.209,0.243 0.304,0.565 0.258,0.877c-0.015,0.103 -0.045,0.204 -0.089,0.299c-0.104,0.223 -0.283,0.411 -0.505,0.529c-0.032,0.017 -0.065,0.032 -0.098,0.046c-0.033,0.014 -0.067,0.025 -0.101,0.038c-0.013,0.004 -0.025,0.008 -0.037,0.014c-0.011,0.005 -0.022,0.012 -0.032,0.02c-0.031,0.025 -0.057,0.057 -0.08,0.089c-0.033,0.046 -0.06,0.095 -0.084,0.145c-0.082,0.172 -0.131,0.359 -0.168,0.544c-0.056,0.287 -0.08,0.58 -0.088,0.872c-0.012,0.401 0.008,0.802 0.041,1.201l0,-0.001l0.004,0.104l-0.006,0.104c-0.014,0.092 -0.014,0.116 -0.041,0.205c-0.061,0.2 -0.181,0.382 -0.343,0.522c-0.081,0.07 -0.172,0.128 -0.27,0.174c-0.098,0.046 -0.202,0.079 -0.309,0.097c-0.287,0.049 -0.588,-0.007 -0.835,-0.156c-0.122,-0.074 -0.231,-0.169 -0.317,-0.281c-0.108,-0.139 -0.182,-0.303 -0.214,-0.474c-0.013,-0.068 -0.017,-0.134 -0.023,-0.203c-0.005,-0.064 -0.009,-0.124 -0.014,-0.188c-0.02,-0.302 -0.032,-0.604 -0.03,-0.906c0,-0.2 0.007,-0.4 0.02,-0.6c0.011,-0.164 0.026,-0.328 0.048,-0.492c0.014,-0.106 0.03,-0.212 0.049,-0.317c0.125,-0.684 0.374,-1.371 0.861,-1.899c0.074,-0.08 0.154,-0.157 0.238,-0.228c0.107,-0.09 0.223,-0.172 0.344,-0.245c0.17,-0.1 0.352,-0.181 0.542,-0.241l0.105,-0.028c0.107,-0.019 0.106,-0.019 0.215,-0.029c0.036,0 0.072,0 0.108,0Z" style="fill:#dffaf1;fill-rule:nonzero;"/><path d="M144.04,53.947c-1.233,-2.722 1.175,-3.5 3.404,-2.085c1.972,1.252 7.2,6.504 8.695,11.438c1.236,4.081 -1.988,1.054 -1.988,1.054c-3.859,-4.031 -9.402,-8.842 -10.111,-10.407Z" style="fill:#dffaf1;"/><path d="M139.183,47.79c0.816,-0.941 2.41,-0.964 3.557,-0.05c1.146,0.913 1.414,2.419 0.598,3.36c-0.817,0.941 -2.411,0.963 -3.557,0.05c-1.147,-0.913 -1.415,-2.419 -0.598,-3.36Z" style="fill:#dffaf1;"/><ellipse cx="83.259" cy="216.668" rx="0.891" ry="1.376" style="fill:#dffaf1;"/><ellipse cx="83.259" cy="216.668" rx="0.891" ry="1.376" style="fill:#dffaf1;"/><ellipse cx="44.582" cy="212.969" rx="0.891" ry="1.376" style="fill:#dffaf1;"/><path d="M72.299,317.089c-5.865,3.768 -6.391,8.814 -2.095,16.726" style="fill:none;stroke-width:2.97px;stroke-dasharray:5.94,8.91,0,0;stroke:#b4dfc3;"/></g></svg>