<?xml version="1.0" standalone="no"?><!DOCTYPE svg PUBLIC "-//W3C//DTD SVG 1.1//EN" "http://www.w3.org/Graphics/SVG/1.1/DTD/svg11.dtd"><svg width="100%" height="100%" viewBox="0 0 198 321" version="1.1" xmlns="http://www.w3.org/2000/svg" xmlns:xlink="http://www.w3.org/1999/xlink" xml:space="preserve" style="fill-rule:evenodd;clip-rule:evenodd;stroke-linejoin:round;stroke-miterlimit:1.41421;"><circle cx="6.984" cy="313.567" r="6.984" style="fill:#f4d8cf;"/><circle cx="78.808" cy="274.741" r="5.528" style="fill:#bcdbc3;"/><circle cx="50.791" cy="52.662" r="2.748" style="fill:#bcdbc3;"/><circle cx="51.601" cy="178.936" r="3.456" style="fill:#f4d8cf;"/><path d="M193.876,3.666c2.023,2.023 2.023,5.308 0,7.331c-2.023,2.024 -5.308,2.024 -7.331,0c-2.024,-2.023 -2.024,-5.308 0,-7.331c2.023,-2.023 5.308,-2.023 7.331,0Z" style="fill:#f4d8cf;"/><path d="M186.545,3.666c1.072,1.072 1.072,2.813 0,3.886c-1.073,1.072 -2.814,1.072 -3.886,0c-1.072,-1.073 -1.072,-2.814 0,-3.886c1.072,-1.072 2.813,-1.072 3.886,0Z" style="fill:#bcdbc3;"/></svg>