<?xml version="1.0" standalone="no"?><!DOCTYPE svg PUBLIC "-//W3C//DTD SVG 1.1//EN" "http://www.w3.org/Graphics/SVG/1.1/DTD/svg11.dtd"><svg width="100%" height="100%" viewBox="0 0 50 205" version="1.1" xmlns="http://www.w3.org/2000/svg" xmlns:xlink="http://www.w3.org/1999/xlink" xml:space="preserve" style="fill-rule:evenodd;clip-rule:evenodd;stroke-linejoin:round;stroke-miterlimit:1.41421;"><path d="M11.849,12.307c-2.843,-1.106 -4.254,-4.312 -3.148,-7.155c1.106,-2.844 4.313,-4.254 7.156,-3.148c2.843,1.106 4.254,4.313 3.148,7.156c-1.106,2.843 -4.313,4.253 -7.156,3.147Z" style="fill:#bcdbc3;"/><path d="M40.349,202.937c-2.843,-1.106 -4.253,-4.313 -3.147,-7.156c1.106,-2.843 4.312,-4.254 7.156,-3.147c2.843,1.106 4.253,4.312 3.147,7.155c-1.106,2.844 -4.312,4.254 -7.156,3.148Z" style="fill:#bcdbc3;"/><path d="M36.924,186.176c-1.777,-0.691 -2.659,-2.696 -1.967,-4.474c0.691,-1.778 2.696,-2.659 4.474,-1.968c1.777,0.692 2.659,2.697 1.968,4.474c-0.692,1.778 -2.697,2.66 -4.475,1.968Z" style="fill:#f4d8cf;"/><path d="M3.221,109.528c-1.778,-0.692 -2.66,-2.697 -1.968,-4.474c0.692,-1.778 2.696,-2.66 4.474,-1.968c1.778,0.691 2.66,2.696 1.968,4.474c-0.692,1.777 -2.696,2.659 -4.474,1.968Z" style="fill:#f4d8cf;"/></svg>