<?xml version="1.0" standalone="no"?><!DOCTYPE svg PUBLIC "-//W3C//DTD SVG 1.1//EN" "http://www.w3.org/Graphics/SVG/1.1/DTD/svg11.dtd"><svg width="100%" height="100%" viewBox="0 0 110 133" version="1.1" xmlns="http://www.w3.org/2000/svg" xmlns:xlink="http://www.w3.org/1999/xlink" xml:space="preserve" style="fill-rule:evenodd;clip-rule:evenodd;stroke-linejoin:round;stroke-miterlimit:1.41421;"><path d="M47.108,4.172c0,0 51.765,53.498 47.799,91.466c-3.471,33.221 -43.638,35.864 -58.172,2.177c-8.894,-20.614 5.072,-44.445 9.516,-61.457c5.536,-21.191 0.857,-32.186 0.857,-32.186Z" style="fill:#f9d6ce;"/><path d="M77.303,58.754c0,0 6.054,9.469 8.85,21.153c2.115,8.834 1.548,19.278 -1.442,25.53c-4.937,10.318 -24.744,11.543 -33.152,0.908c-0.136,-0.172 -0.062,-0.758 0.25,-0.696c41.17,8.19 25.494,-46.895 25.494,-46.895Z" style="fill:#fff;"/></svg>