<?xml version="1.0" standalone="no"?><!DOCTYPE svg PUBLIC "-//W3C//DTD SVG 1.1//EN" "http://www.w3.org/Graphics/SVG/1.1/DTD/svg11.dtd"><svg width="100%" height="100%" viewBox="0 0 194 194" version="1.1" xmlns="http://www.w3.org/2000/svg" xmlns:xlink="http://www.w3.org/1999/xlink" xml:space="preserve" style="fill-rule:evenodd;clip-rule:evenodd;stroke-linejoin:round;stroke-miterlimit:1.41421;"><path d="M77.416,24.383c39.983,-10.713 81.143,13.05 91.856,53.033c10.714,39.983 -13.05,81.143 -53.033,91.856c-39.983,10.714 -81.142,-13.05 -91.856,-53.033c-10.713,-39.983 13.05,-81.142 53.033,-91.856Z" style="fill:#dffaf1;"/><path d="M97.057,19.47c2.534,0.011 5.066,0.139 7.587,0.397c4.668,0.476 9.291,1.382 13.795,2.699c4.464,1.304 8.809,3.012 12.968,5.094c4.289,2.146 8.379,4.69 12.2,7.587c3.466,2.629 6.711,5.548 9.687,8.72c3.008,3.206 5.741,6.668 8.158,10.34c2.196,3.336 4.13,6.843 5.781,10.479c1.556,3.426 2.859,6.966 3.902,10.582c1.14,3.952 1.97,7.993 2.473,12.076c0.49,3.977 0.669,7.992 0.534,11.997c-0.151,4.48 -0.697,8.947 -1.626,13.332c-0.95,4.487 -2.302,8.888 -4.031,13.136c-1.807,4.443 -4.027,8.718 -6.62,12.752c-2.682,4.173 -5.763,8.088 -9.19,11.674c-3.569,3.734 -7.513,7.109 -11.756,10.055c-3.999,2.776 -8.262,5.17 -12.713,7.14c-9.773,4.327 -20.441,6.618 -31.13,6.655c-4.655,0.017 -9.311,-0.392 -13.893,-1.218c-4.749,-0.856 -9.416,-2.159 -13.923,-3.884c-4.336,-1.659 -8.523,-3.708 -12.494,-6.113c-3.908,-2.366 -7.608,-5.077 -11.04,-8.091c-3.104,-2.726 -5.989,-5.7 -8.617,-8.886c-2.56,-3.104 -4.876,-6.409 -6.919,-9.875c-3.591,-6.093 -6.327,-12.678 -8.135,-19.514c-0.965,-3.648 -1.667,-7.366 -2.093,-11.117c-0.452,-3.976 -0.594,-7.987 -0.421,-11.985c0.186,-4.32 0.739,-8.622 1.647,-12.849c0.915,-4.256 2.192,-8.434 3.808,-12.476c1.81,-4.525 4.046,-8.88 6.669,-12.987c2.586,-4.05 5.547,-7.859 8.835,-11.362c3.532,-3.763 7.442,-7.172 11.655,-10.155c3.968,-2.81 8.204,-5.241 12.631,-7.251c6.949,-3.154 14.368,-5.277 21.933,-6.282c2.08,-0.276 4.17,-0.468 6.265,-0.573c1.039,-0.052 2.078,-0.082 3.117,-0.094c0.319,-0.002 0.637,-0.004 0.956,-0.003ZM96.596,24.158c-0.975,0.004 -1.95,0.026 -2.925,0.069c-1.966,0.087 -3.928,0.254 -5.881,0.501c-7.116,0.899 -14.102,2.852 -20.651,5.776c-4.24,1.893 -8.296,4.195 -12.094,6.867c-3.906,2.748 -7.537,5.884 -10.827,9.347c-3.16,3.326 -6.004,6.951 -8.484,10.811c-2.437,3.791 -4.523,7.809 -6.222,11.984c-1.541,3.787 -2.763,7.703 -3.647,11.695c-0.877,3.962 -1.42,7.997 -1.62,12.05c-0.185,3.75 -0.076,7.514 0.324,11.247c0.378,3.522 1.015,7.016 1.899,10.446c1.66,6.439 4.193,12.649 7.534,18.4c1.899,3.268 4.056,6.387 6.443,9.318c2.452,3.009 5.146,5.819 8.046,8.398c3.318,2.949 6.905,5.594 10.702,7.893c3.608,2.185 7.405,4.057 11.334,5.588c4.292,1.671 8.741,2.936 13.271,3.766c4.224,0.775 8.518,1.172 12.813,1.184c10.04,0.027 20.074,-2.065 29.28,-6.071c4.194,-1.825 8.215,-4.049 11.989,-6.635c4.003,-2.743 7.728,-5.892 11.102,-9.38c3.191,-3.298 6.068,-6.899 8.583,-10.736c2.471,-3.77 4.593,-7.768 6.329,-11.928c1.659,-3.974 2.966,-8.096 3.897,-12.301c0.909,-4.107 1.459,-8.293 1.64,-12.495c0.162,-3.755 0.03,-7.521 -0.395,-11.255c-0.436,-3.835 -1.179,-7.635 -2.213,-11.354c-0.99,-3.559 -2.248,-7.043 -3.764,-10.412c-1.51,-3.353 -3.276,-6.59 -5.278,-9.674c-2.21,-3.402 -4.707,-6.616 -7.456,-9.599c-2.721,-2.953 -5.687,-5.679 -8.857,-8.144c-3.617,-2.811 -7.498,-5.281 -11.575,-7.367c-3.954,-2.023 -8.093,-3.686 -12.349,-4.958c-4.221,-1.261 -8.556,-2.138 -12.935,-2.613c-2.364,-0.256 -4.739,-0.391 -7.116,-0.416c-0.299,-0.002 -0.598,-0.003 -0.897,-0.002Z" style="fill:#dffaf1;fill-rule:nonzero;"/><path d="M80.098,31.577c26.075,-6.987 52.292,6.18 58.51,29.383c6.217,23.204 -9.905,47.715 -35.979,54.702c-26.075,6.986 -52.292,-6.18 -58.51,-29.384c-6.217,-23.203 9.904,-47.714 35.979,-54.701Z" style="fill:#b4dfc3;"/><path d="M89.75,63.616c0.138,0.02 0.175,0.02 0.308,0.063c0.352,0.116 0.65,0.371 0.818,0.701c0.047,0.094 0.084,0.193 0.11,0.295c0.013,0.051 0.02,0.103 0.029,0.155l6.059,45.309c0.011,0.139 0.019,0.175 0.006,0.315c-0.024,0.262 -0.122,0.516 -0.282,0.725c-0.096,0.126 -0.213,0.235 -0.345,0.321c-0.31,0.204 -0.695,0.277 -1.057,0.203c-0.155,-0.032 -0.304,-0.091 -0.439,-0.172c-0.136,-0.081 -0.257,-0.185 -0.358,-0.306c-0.135,-0.162 -0.232,-0.354 -0.283,-0.558c-0.013,-0.051 -0.02,-0.104 -0.03,-0.155l-6.058,-45.309c-0.004,-0.053 -0.011,-0.105 -0.012,-0.158c-0.003,-0.105 0.007,-0.21 0.028,-0.313c0.097,-0.47 0.437,-0.866 0.886,-1.033c0.098,-0.037 0.201,-0.063 0.305,-0.077c0.052,-0.007 0.105,-0.008 0.157,-0.012c0.053,0.002 0.105,0.004 0.158,0.006Z" style="fill:#e0faf1;fill-rule:nonzero;"/><path d="M89.819,63.624c0.047,0.009 0.094,0.016 0.14,0.027c0.093,0.023 0.182,0.055 0.268,0.096c0.115,0.055 0.139,0.077 0.243,0.148l36.881,27.914c0.037,0.031 0.075,0.059 0.109,0.092c0.14,0.129 0.252,0.287 0.329,0.461c0.057,0.13 0.095,0.269 0.111,0.411c0.016,0.142 0.01,0.286 -0.017,0.425c-0.082,0.424 -0.362,0.794 -0.748,0.988c-0.127,0.064 -0.264,0.109 -0.404,0.132c-0.282,0.046 -0.576,0.005 -0.834,-0.119c-0.115,-0.054 -0.139,-0.076 -0.243,-0.147l-36.881,-27.915c-0.036,-0.03 -0.074,-0.059 -0.109,-0.091c-0.139,-0.13 -0.252,-0.287 -0.329,-0.461c-0.057,-0.131 -0.095,-0.27 -0.111,-0.411c-0.043,-0.381 0.075,-0.769 0.321,-1.062c0.091,-0.109 0.2,-0.204 0.32,-0.281c0.16,-0.102 0.341,-0.172 0.529,-0.202c0.125,-0.021 0.157,-0.017 0.284,-0.018c0.047,0.004 0.094,0.009 0.141,0.013Z" style="fill:#e0faf1;fill-rule:nonzero;"/><path d="M89.799,63.621c0.045,0.008 0.091,0.014 0.136,0.024c0.179,0.041 0.35,0.118 0.501,0.224c0.34,0.242 0.559,0.632 0.588,1.049c0.01,0.138 -0.001,0.277 -0.031,0.411c-0.031,0.135 -0.082,0.265 -0.15,0.385c-0.023,0.04 -0.05,0.077 -0.075,0.116l-25.534,35.976c-0.028,0.036 -0.055,0.074 -0.085,0.108c-0.121,0.139 -0.269,0.254 -0.434,0.336c-0.124,0.062 -0.256,0.105 -0.392,0.128c-0.412,0.07 -0.843,-0.051 -1.158,-0.325c-0.104,-0.09 -0.195,-0.196 -0.268,-0.313c-0.098,-0.156 -0.165,-0.331 -0.196,-0.513c-0.046,-0.273 -0.01,-0.557 0.103,-0.81c0.05,-0.112 0.071,-0.136 0.137,-0.239l25.534,-35.976c0.076,-0.096 0.091,-0.123 0.181,-0.208c0.201,-0.19 0.457,-0.318 0.73,-0.364c0.121,-0.021 0.153,-0.017 0.275,-0.02c0.046,0.004 0.092,0.008 0.138,0.011Z" style="fill:#e0faf1;fill-rule:nonzero;"/><path d="M89.812,63.623c0.125,0.023 0.157,0.025 0.277,0.067c0.179,0.063 0.345,0.163 0.485,0.292c0.105,0.096 0.195,0.209 0.266,0.332c0.24,0.417 0.249,0.941 0.022,1.365c-0.067,0.126 -0.154,0.241 -0.256,0.341c-0.135,0.133 -0.298,0.238 -0.475,0.307c-0.044,0.017 -0.09,0.03 -0.135,0.045l-38.079,10.507c-0.047,0.01 -0.092,0.023 -0.139,0.031c-0.188,0.032 -0.381,0.025 -0.566,-0.02c-0.139,-0.033 -0.272,-0.088 -0.394,-0.161c-0.122,-0.074 -0.233,-0.166 -0.328,-0.273c-0.286,-0.323 -0.409,-0.77 -0.329,-1.194c0.026,-0.14 0.074,-0.276 0.142,-0.401c0.134,-0.252 0.346,-0.46 0.6,-0.59c0.113,-0.058 0.146,-0.063 0.266,-0.103l38.079,-10.507c0.046,-0.011 0.092,-0.023 0.139,-0.031c0.125,-0.022 0.157,-0.017 0.283,-0.019c0.048,0.004 0.095,0.008 0.142,0.012Z" style="fill:#e0faf1;fill-rule:nonzero;"/><path d="M61.45,45.832c0.041,0.007 0.081,0.012 0.121,0.021c0.08,0.017 0.159,0.041 0.234,0.072c0.102,0.041 0.124,0.058 0.219,0.111l28.345,17.789c0.09,0.062 0.115,0.075 0.196,0.148c0.121,0.11 0.223,0.241 0.299,0.385c0.077,0.145 0.128,0.303 0.151,0.465c0.016,0.122 0.017,0.245 0.002,0.367c-0.051,0.409 -0.286,0.783 -0.632,1.007c-0.137,0.089 -0.29,0.153 -0.45,0.19c-0.28,0.064 -0.577,0.04 -0.843,-0.068c-0.101,-0.041 -0.123,-0.058 -0.218,-0.112l-28.345,-17.788c-0.09,-0.062 -0.115,-0.075 -0.196,-0.148c-0.152,-0.137 -0.273,-0.308 -0.352,-0.496c-0.048,-0.114 -0.081,-0.233 -0.098,-0.354c-0.056,-0.409 0.073,-0.83 0.35,-1.136c0.11,-0.122 0.241,-0.224 0.385,-0.3c0.145,-0.077 0.303,-0.128 0.465,-0.15c0.108,-0.015 0.136,-0.012 0.245,-0.013c0.041,0.004 0.081,0.007 0.122,0.01Z" style="fill:#e0faf1;fill-rule:nonzero;"/><path d="M90.142,32.581c0.042,0.007 0.085,0.013 0.128,0.022c0.127,0.028 0.25,0.073 0.364,0.134c0.386,0.207 0.658,0.591 0.726,1.023c0.013,0.086 0.018,0.172 0.016,0.259c-0.002,0.043 -0.007,0.086 -0.01,0.129l-3.777,30.718c-0.007,0.042 -0.013,0.085 -0.022,0.128c-0.037,0.169 -0.105,0.331 -0.201,0.476c-0.071,0.108 -0.158,0.207 -0.257,0.291c-0.098,0.085 -0.209,0.156 -0.327,0.21c-0.397,0.183 -0.867,0.169 -1.253,-0.037c-0.153,-0.082 -0.29,-0.193 -0.403,-0.324c-0.198,-0.231 -0.317,-0.525 -0.336,-0.828c-0.007,-0.116 -0.001,-0.145 0.008,-0.26l3.776,-30.717c0.008,-0.042 0.013,-0.086 0.022,-0.128c0.019,-0.085 0.045,-0.167 0.079,-0.247c0.152,-0.362 0.456,-0.648 0.827,-0.779c0.122,-0.043 0.251,-0.07 0.38,-0.078c0.044,-0.002 0.087,-0.001 0.13,-0.002c0.043,0.004 0.087,0.007 0.13,0.01Z" style="fill:#e0faf1;fill-rule:nonzero;"/><path d="M82.815,39.472c14.991,-4.017 30.063,3.552 33.638,16.892c3.574,13.34 -5.694,27.432 -20.685,31.448c-14.99,4.017 -30.063,-3.552 -33.637,-16.892c-3.575,-13.34 5.694,-27.431 20.684,-31.448Z" style="fill:#280f25;"/><ellipse cx="116.095" cy="44.399" rx="11.979" ry="11.116" style="fill:#fff;"/><ellipse cx="121.148" cy="65.226" rx="5.616" ry="6.026" style="fill:#fff;"/></svg>