<?xml version="1.0" standalone="no"?><!DOCTYPE svg PUBLIC "-//W3C//DTD SVG 1.1//EN" "http://www.w3.org/Graphics/SVG/1.1/DTD/svg11.dtd"><svg width="100%" height="100%" viewBox="0 0 305 309" version="1.1" xmlns="http://www.w3.org/2000/svg" xmlns:xlink="http://www.w3.org/1999/xlink" xml:space="preserve" style="fill-rule:evenodd;clip-rule:evenodd;stroke-linejoin:round;stroke-miterlimit:1.41421;"><g><path d="M119.702,107.193c0,0 -38.977,-40.692 -39.676,-38.068c-0.698,2.625 9.545,40.932 17.337,51.164c7.791,10.232 22.339,-13.096 22.339,-13.096Z" style="fill:#280f25;"/><path d="M81.117,67.281c-0.088,-0.032 -0.177,-0.063 -0.268,-0.088c-0.23,-0.063 -0.469,-0.096 -0.708,-0.09c-0.248,0.007 -0.495,0.055 -0.725,0.147c-0.174,0.068 -0.338,0.16 -0.487,0.273c-0.132,0.101 -0.251,0.218 -0.355,0.347c-0.078,0.097 -0.147,0.201 -0.206,0.31c-0.041,0.075 -0.076,0.153 -0.107,0.233c-0.079,0.201 -0.123,0.414 -0.147,0.627c-0.033,0.289 -0.028,0.58 -0.01,0.87c0.008,0.125 0.019,0.251 0.031,0.376c0.017,0.171 0.037,0.341 0.059,0.511c0.035,0.269 0.076,0.538 0.119,0.806c0.058,0.352 0.12,0.704 0.187,1.055c0.095,0.507 0.198,1.013 0.304,1.518c0.135,0.639 0.277,1.276 0.423,1.912c0.196,0.852 0.401,1.702 0.611,2.551c0.253,1.019 0.514,2.037 0.782,3.052c0.625,2.367 1.285,4.724 1.975,7.073c0.751,2.556 1.536,5.102 2.36,7.635c0.806,2.479 1.648,4.945 2.539,7.395c0.759,2.088 1.553,4.164 2.4,6.219c0.651,1.578 1.335,3.143 2.066,4.685c0.273,0.574 0.553,1.144 0.842,1.71c0.38,0.742 0.775,1.477 1.192,2.198c0.422,0.73 0.867,1.447 1.35,2.138c0.115,0.166 0.233,0.33 0.353,0.493c0.139,0.188 0.281,0.373 0.43,0.553c0.328,0.396 0.684,0.769 1.071,1.108c0.545,0.479 1.151,0.888 1.807,1.199c0.465,0.22 0.953,0.39 1.454,0.505c0.342,0.079 0.69,0.132 1.04,0.159c0.272,0.022 0.544,0.029 0.816,0.021c0.172,-0.005 0.344,-0.015 0.515,-0.031c1.322,-0.121 2.598,-0.556 3.782,-1.145c0.201,-0.1 0.4,-0.204 0.597,-0.313c0.242,-0.134 0.482,-0.275 0.718,-0.42c0.304,-0.188 0.603,-0.384 0.896,-0.588c0.384,-0.265 0.758,-0.543 1.125,-0.831c0.477,-0.373 0.94,-0.762 1.392,-1.163c0.615,-0.545 1.21,-1.113 1.788,-1.697c0.773,-0.78 1.516,-1.589 2.236,-2.418c0.945,-1.089 1.849,-2.212 2.721,-3.359c0.65,-0.856 1.281,-1.727 1.894,-2.61c0.276,-0.398 0.548,-0.798 0.815,-1.201c0.171,-0.26 0.341,-0.52 0.508,-0.784l0.012,-0.019c0.031,-0.057 0.066,-0.111 0.094,-0.169c0.057,-0.116 0.102,-0.237 0.135,-0.362c0.048,-0.188 0.068,-0.383 0.058,-0.576c-0.013,-0.258 -0.08,-0.513 -0.194,-0.744c-0.058,-0.116 -0.126,-0.226 -0.206,-0.328c-0.04,-0.05 -0.084,-0.097 -0.127,-0.146c-0.433,-0.452 -0.866,-0.902 -1.3,-1.353c-2.324,-2.414 -4.656,-4.82 -6.995,-7.219c-2.089,-2.144 -4.185,-4.282 -6.287,-6.413c-2.127,-2.157 -4.261,-4.306 -6.406,-6.445c-1.875,-1.87 -3.758,-3.732 -5.654,-5.58c-1.45,-1.412 -2.907,-2.817 -4.379,-4.207c-1.244,-1.175 -2.499,-2.341 -3.777,-3.48c-0.502,-0.448 -1.008,-0.892 -1.521,-1.328c-0.433,-0.369 -0.871,-0.732 -1.318,-1.083c-0.364,-0.287 -0.734,-0.567 -1.118,-0.827c-0.261,-0.177 -0.529,-0.345 -0.811,-0.488c-0.09,-0.045 -0.181,-0.087 -0.273,-0.127c-0.059,-0.024 -0.059,-0.024 -0.118,-0.047ZM82.426,72.864c1.073,0.919 2.121,1.867 3.159,2.826c1.092,1.007 2.171,2.027 3.245,3.054c1.208,1.154 2.408,2.317 3.603,3.486c1.51,1.477 3.012,2.962 4.509,4.452c3.317,3.303 6.609,6.632 9.886,9.975c3.418,3.486 6.82,6.987 10.206,10.504l0.246,0.255c-0.832,1.229 -1.704,2.432 -2.613,3.606c-0.936,1.21 -1.913,2.391 -2.943,3.524c-0.585,0.644 -1.188,1.274 -1.813,1.881c-0.606,0.589 -1.233,1.158 -1.886,1.694c-0.492,0.404 -0.999,0.789 -1.526,1.146c-0.446,0.302 -0.906,0.584 -1.384,0.833c-0.332,0.173 -0.672,0.331 -1.021,0.465c-0.337,0.129 -0.683,0.237 -1.035,0.311c-0.53,0.112 -1.08,0.147 -1.614,0.048c-0.185,-0.034 -0.368,-0.084 -0.544,-0.15c-0.138,-0.051 -0.273,-0.111 -0.403,-0.18c-0.496,-0.262 -0.924,-0.637 -1.294,-1.055c-0.159,-0.181 -0.307,-0.37 -0.45,-0.564c-0.143,-0.193 -0.282,-0.389 -0.417,-0.588c-0.323,-0.474 -0.626,-0.96 -0.916,-1.454c-0.333,-0.564 -0.649,-1.138 -0.954,-1.718c-0.688,-1.308 -1.319,-2.645 -1.92,-3.995c-0.459,-1.031 -0.899,-2.071 -1.326,-3.117c-0.52,-1.276 -1.02,-2.56 -1.504,-3.85c-0.603,-1.605 -1.181,-3.219 -1.741,-4.839c-0.602,-1.74 -1.181,-3.487 -1.743,-5.24c-0.527,-1.644 -1.038,-3.294 -1.534,-4.949c-0.89,-2.968 -1.734,-5.95 -2.518,-8.948c-0.326,-1.243 -0.641,-2.489 -0.941,-3.738c-0.287,-1.197 -0.561,-2.397 -0.809,-3.603l-0.017,-0.083c0.004,0.003 0.008,0.007 0.012,0.011Z" style="fill:#280f25;fill-rule:nonzero;"/><path d="M210.111,200.406c0,0 9.785,36.609 10.346,45.577c0.561,8.968 -30.483,-23.877 -35.916,-30.072" style="fill:#280f25;"/><path d="M210.605,198.571c-0.059,-0.013 -0.117,-0.029 -0.177,-0.039c-0.238,-0.04 -0.483,-0.035 -0.719,0.016c-0.177,0.038 -0.349,0.102 -0.508,0.188c-0.212,0.116 -0.401,0.271 -0.555,0.457c-0.193,0.233 -0.328,0.511 -0.393,0.806c-0.052,0.236 -0.058,0.481 -0.018,0.72c0.01,0.059 0.026,0.117 0.038,0.176c0.141,0.529 0.281,1.057 0.42,1.586c1.19,4.514 2.352,9.036 3.485,13.566c1.038,4.154 2.052,8.314 3.018,12.486c0.398,1.717 0.787,3.436 1.163,5.158c0.329,1.504 0.648,3.011 0.95,4.521c0.247,1.24 0.484,2.483 0.697,3.731c0.082,0.479 0.161,0.959 0.234,1.44c0.094,0.624 0.179,1.25 0.246,1.878l0.003,0.023c-0.115,-0.056 -0.228,-0.114 -0.34,-0.175c-0.202,-0.108 -0.399,-0.222 -0.595,-0.339c-0.404,-0.244 -0.799,-0.504 -1.188,-0.772c-0.485,-0.335 -0.961,-0.684 -1.431,-1.04c-0.478,-0.363 -0.95,-0.735 -1.417,-1.111c-1.123,-0.906 -2.219,-1.843 -3.301,-2.796c-1.345,-1.185 -2.667,-2.395 -3.974,-3.621c-1.989,-1.863 -3.944,-3.763 -5.878,-5.683c-2.065,-2.051 -4.106,-4.127 -6.127,-6.223c-1.564,-1.622 -3.117,-3.257 -4.654,-4.905c-0.645,-0.691 -1.287,-1.385 -1.924,-2.083c-0.569,-0.622 -1.134,-1.247 -1.691,-1.88l-0.126,-0.13c-0.122,-0.105 -0.15,-0.136 -0.286,-0.222c-0.204,-0.129 -0.433,-0.218 -0.67,-0.262c-0.178,-0.033 -0.361,-0.041 -0.541,-0.022c-0.18,0.018 -0.358,0.063 -0.525,0.131c-0.168,0.069 -0.325,0.161 -0.467,0.274c-0.141,0.113 -0.267,0.246 -0.37,0.394c-0.139,0.198 -0.239,0.422 -0.294,0.657c-0.042,0.176 -0.058,0.358 -0.048,0.539c0.014,0.241 0.073,0.479 0.175,0.698c0.051,0.11 0.113,0.214 0.184,0.312c0.072,0.099 0.165,0.202 0.246,0.293c0.099,0.112 0.198,0.224 0.298,0.336c0.432,0.485 0.869,0.967 1.307,1.446c1.421,1.555 2.861,3.092 4.311,4.619c2.23,2.35 4.486,4.675 6.769,6.972c2.21,2.223 4.445,4.422 6.72,6.579c0.975,0.924 1.957,1.841 2.949,2.747c0.879,0.802 1.765,1.596 2.662,2.377c0.83,0.723 1.669,1.435 2.521,2.131c0.766,0.624 1.542,1.236 2.336,1.823c0.455,0.337 0.917,0.667 1.387,0.983c0.356,0.24 0.717,0.473 1.085,0.695c0.249,0.15 0.502,0.295 0.758,0.433c0.198,0.106 0.398,0.208 0.601,0.304c0.151,0.071 0.305,0.139 0.46,0.203c0.108,0.045 0.217,0.087 0.327,0.127c0.617,0.224 1.277,0.372 1.937,0.322c0.081,-0.006 0.163,-0.015 0.243,-0.027c0.114,-0.017 0.226,-0.041 0.337,-0.071c0.146,-0.04 0.288,-0.09 0.426,-0.152c0.175,-0.079 0.341,-0.176 0.496,-0.29c0.209,-0.154 0.395,-0.337 0.551,-0.543c0.218,-0.286 0.377,-0.612 0.48,-0.955c0.103,-0.342 0.149,-0.698 0.157,-1.054c0.003,-0.151 -0.001,-0.303 -0.01,-0.454c-0.005,-0.081 -0.011,-0.162 -0.016,-0.242c-0.013,-0.167 -0.027,-0.334 -0.044,-0.5c-0.049,-0.513 -0.112,-1.025 -0.182,-1.536c-0.066,-0.477 -0.138,-0.954 -0.215,-1.429c-0.22,-1.365 -0.472,-2.724 -0.738,-4.08c-0.311,-1.585 -0.643,-3.166 -0.985,-4.744c-0.41,-1.89 -0.837,-3.777 -1.273,-5.661c-0.529,-2.284 -1.073,-4.564 -1.627,-6.842c-0.609,-2.51 -1.231,-5.016 -1.862,-7.521c-0.633,-2.51 -1.274,-5.018 -1.924,-7.524c-0.498,-1.923 -1.001,-3.846 -1.512,-5.767l-0.029,-0.106c-0.048,-0.153 -0.055,-0.193 -0.126,-0.338c-0.158,-0.327 -0.41,-0.605 -0.72,-0.794c-0.137,-0.085 -0.177,-0.095 -0.325,-0.159c-0.057,-0.018 -0.114,-0.037 -0.172,-0.055Z" style="fill:#280f25;fill-rule:nonzero;"/><path d="M213.535,135.912c0,0 53.26,-9.086 62.389,-7.899c9.129,1.186 -48.888,33.151 -50.576,33.396c-1.688,0.246 -11.813,-25.497 -11.813,-25.497Z" style="fill:#280f25;"/><path d="M277.117,126.362c-0.058,-0.022 -0.117,-0.044 -0.177,-0.064c-0.141,-0.046 -0.286,-0.084 -0.432,-0.114c-0.224,-0.046 -0.451,-0.073 -0.677,-0.095c-0.369,-0.037 -0.74,-0.057 -1.111,-0.07c-0.609,-0.02 -1.22,-0.017 -1.83,-0.004c-0.719,0.015 -1.438,0.046 -2.157,0.086c-0.946,0.052 -1.892,0.12 -2.837,0.197c-0.971,0.078 -1.942,0.167 -2.911,0.261c-2.288,0.224 -4.572,0.482 -6.855,0.757c-3.428,0.414 -6.852,0.868 -10.273,1.343c-3.845,0.535 -7.685,1.097 -11.523,1.677c-4.386,0.664 -8.768,1.351 -13.148,2.057c-3.274,0.528 -6.547,1.065 -9.817,1.618l-0.154,0.026c-0.065,0.015 -0.13,0.026 -0.194,0.044c-0.128,0.036 -0.251,0.085 -0.369,0.146c-0.235,0.123 -0.443,0.296 -0.608,0.503c-0.123,0.156 -0.222,0.331 -0.292,0.518c-0.069,0.186 -0.109,0.383 -0.117,0.582c-0.009,0.198 0.014,0.398 0.067,0.59c0.018,0.063 0.042,0.125 0.063,0.188c0.147,0.371 0.294,0.741 0.441,1.112c0.791,1.984 1.593,3.964 2.405,5.939c0.762,1.851 1.534,3.698 2.32,5.539c0.679,1.589 1.368,3.173 2.076,4.749c0.58,1.289 1.172,2.573 1.792,3.843c0.223,0.456 0.449,0.91 0.682,1.361c0.174,0.336 0.351,0.671 0.533,1.002c0.132,0.238 0.265,0.475 0.404,0.709c0.095,0.16 0.191,0.319 0.291,0.476c0.078,0.122 0.157,0.243 0.239,0.362c0.063,0.092 0.127,0.182 0.193,0.271c0.277,0.372 0.593,0.728 0.987,0.98c0.055,0.035 0.111,0.068 0.169,0.099c0.09,0.048 0.184,0.091 0.28,0.126c0.116,0.044 0.235,0.077 0.357,0.1c0.146,0.028 0.295,0.04 0.443,0.037c0.143,-0.004 0.284,-0.023 0.424,-0.055c0.21,-0.049 0.413,-0.129 0.612,-0.213c0.204,-0.087 0.406,-0.181 0.606,-0.276c0.351,-0.168 0.699,-0.341 1.046,-0.517c0.399,-0.201 0.797,-0.406 1.194,-0.613c1.327,-0.69 2.646,-1.397 3.962,-2.11c1.52,-0.823 3.035,-1.656 4.546,-2.496c2.781,-1.544 5.549,-3.11 8.306,-4.696c3.002,-1.727 5.991,-3.478 8.961,-5.26c2.508,-1.503 5.002,-3.029 7.475,-4.588c2.154,-1.359 4.292,-2.742 6.398,-4.174c0.85,-0.578 1.694,-1.164 2.53,-1.762c0.681,-0.488 1.356,-0.984 2.022,-1.492c0.531,-0.405 1.055,-0.818 1.57,-1.243c0.376,-0.311 0.747,-0.629 1.108,-0.956c0.256,-0.232 0.507,-0.469 0.751,-0.713c0.163,-0.164 0.323,-0.331 0.478,-0.503c0.111,-0.122 0.219,-0.247 0.323,-0.374c0.068,-0.082 0.134,-0.166 0.198,-0.251c0.383,-0.504 0.714,-1.068 0.849,-1.692c0.017,-0.082 0.031,-0.164 0.042,-0.247c0.013,-0.106 0.021,-0.214 0.022,-0.321c0.001,-0.156 -0.011,-0.313 -0.039,-0.467c-0.033,-0.187 -0.087,-0.37 -0.162,-0.544c-0.109,-0.255 -0.262,-0.49 -0.45,-0.694c-0.169,-0.184 -0.365,-0.342 -0.579,-0.471c-0.103,-0.062 -0.21,-0.117 -0.319,-0.166c-0.044,-0.02 -0.089,-0.039 -0.134,-0.057ZM273.821,129.824c-0.494,0.46 -1.009,0.897 -1.534,1.322c-0.53,0.429 -1.07,0.845 -1.615,1.254c-0.625,0.468 -1.257,0.925 -1.894,1.377c-0.748,0.529 -1.502,1.049 -2.261,1.563c-1.702,1.153 -3.426,2.274 -5.162,3.377c-2.112,1.342 -4.241,2.658 -6.381,3.955c-2.848,1.727 -5.716,3.423 -8.596,5.095c-2.918,1.695 -5.849,3.366 -8.793,5.013c-2.273,1.272 -4.553,2.531 -6.846,3.767c-0.853,0.46 -1.708,0.917 -2.566,1.368c-0.763,0.401 -1.529,0.798 -2.301,1.182l-0.061,0.03c-0.114,-0.186 -0.223,-0.375 -0.33,-0.565c-0.144,-0.255 -0.283,-0.512 -0.42,-0.77c-0.332,-0.627 -0.648,-1.262 -0.957,-1.901c-0.386,-0.796 -0.761,-1.597 -1.129,-2.402c-0.384,-0.839 -0.762,-1.682 -1.134,-2.527c-0.867,-1.966 -1.71,-3.942 -2.54,-5.923c-1.038,-2.479 -2.054,-4.967 -3.056,-7.46l-0.073,-0.183c3.065,-0.511 6.131,-1.011 9.198,-1.502c3.191,-0.511 6.384,-1.012 9.578,-1.5c2.889,-0.442 5.779,-0.874 8.671,-1.292c2.599,-0.376 5.199,-0.742 7.802,-1.092c2.387,-0.322 4.776,-0.63 7.167,-0.919c1.979,-0.239 3.96,-0.464 5.943,-0.665c1.696,-0.172 3.395,-0.327 5.096,-0.446c0.711,-0.049 1.423,-0.092 2.135,-0.123c0.68,-0.03 1.359,-0.05 2.04,-0.05l0.036,0c-0.005,0.006 -0.011,0.011 -0.017,0.017Z" style="fill:#280f25;fill-rule:nonzero;"/><path d="M102.964,186.41c0,0 -47.395,17.736 -56.6,17.736c-9.205,0 42.977,-38.049 42.779,-39.743c-0.21,-1.787 13.821,22.007 13.821,22.007Z" style="fill:#280f25;"/><path d="M89.79,162.504c-0.049,-0.014 -0.097,-0.029 -0.146,-0.042c-0.064,-0.017 -0.211,-0.037 -0.253,-0.044l-0.005,0c-0.11,-0.01 -0.11,-0.01 -0.222,-0.012l-0.004,0c-0.119,0.004 -0.119,0.004 -0.237,0.016l-0.004,0.001c-0.134,0.022 -0.133,0.022 -0.265,0.054l-0.004,0.001c-0.135,0.043 -0.135,0.043 -0.267,0.097l-0.004,0.001c-0.137,0.069 -0.137,0.069 -0.268,0.148l-0.003,0.002c-0.118,0.085 -0.118,0.085 -0.229,0.178l-0.003,0.002c-0.094,0.091 -0.094,0.091 -0.181,0.188l-0.003,0.004c-0.081,0.105 -0.081,0.105 -0.156,0.215l-0.002,0.004c-0.054,0.093 -0.054,0.093 -0.103,0.189l-0.003,0.004l-0.063,0.154c-0.04,0.042 -0.081,0.084 -0.122,0.125c-0.23,0.23 -0.469,0.452 -0.711,0.67c-0.261,0.237 -0.526,0.469 -0.793,0.7c-0.697,0.603 -1.405,1.194 -2.115,1.781c-0.898,0.742 -1.801,1.477 -2.706,2.209c-1.056,0.855 -2.116,1.705 -3.176,2.555c-1.887,1.513 -3.776,3.023 -5.664,4.534c-2.51,2.011 -5.016,4.026 -7.509,6.058c-1.938,1.579 -3.869,3.169 -5.786,4.775c-1.3,1.089 -2.594,2.187 -3.876,3.296c-1.182,1.023 -2.354,2.055 -3.511,3.105c-0.731,0.663 -1.456,1.333 -2.17,2.014c-0.695,0.663 -1.381,1.335 -2.049,2.025c-0.431,0.444 -0.855,0.897 -1.266,1.361c-0.359,0.405 -0.708,0.819 -1.037,1.248c-0.223,0.29 -0.437,0.587 -0.635,0.895c-0.176,0.275 -0.339,0.559 -0.478,0.855c-0.194,0.415 -0.338,0.859 -0.377,1.318c-0.029,0.34 0.001,0.686 0.101,1.014c0.072,0.239 0.18,0.467 0.321,0.673c0.117,0.172 0.257,0.33 0.414,0.467c0.118,0.104 0.246,0.196 0.381,0.276c0.108,0.065 0.222,0.122 0.338,0.171c0.344,0.145 0.713,0.22 1.085,0.247c0.205,0.014 0.411,0.013 0.617,0.007c0.216,-0.006 0.432,-0.018 0.647,-0.035c0.258,-0.021 0.515,-0.048 0.771,-0.079c0.336,-0.041 0.67,-0.089 1.004,-0.143c0.429,-0.069 0.857,-0.147 1.284,-0.23c0.574,-0.112 1.147,-0.235 1.717,-0.364c0.826,-0.186 1.647,-0.386 2.467,-0.595c1.08,-0.276 2.156,-0.566 3.23,-0.866c1.362,-0.381 2.72,-0.777 4.076,-1.184c1.655,-0.496 3.306,-1.007 4.954,-1.529c2.139,-0.677 4.272,-1.371 6.402,-2.077c2.66,-0.882 5.315,-1.783 7.965,-2.696c3.221,-1.11 6.436,-2.24 9.645,-3.385c2.036,-0.726 4.071,-1.459 6.103,-2.197c2.065,-0.751 4.128,-1.507 6.188,-2.272l0.4,-0.149c0.112,-0.042 0.206,-0.075 0.316,-0.129c0.175,-0.087 0.336,-0.2 0.477,-0.336c0.14,-0.136 0.259,-0.293 0.352,-0.465c0.123,-0.23 0.199,-0.484 0.22,-0.744c0.017,-0.195 0.003,-0.392 -0.041,-0.582c-0.029,-0.127 -0.071,-0.251 -0.126,-0.369c-0.027,-0.059 -0.06,-0.116 -0.09,-0.173c-0.307,-0.52 -0.614,-1.039 -0.922,-1.558c-1.69,-2.847 -3.387,-5.689 -5.101,-8.522c-0.757,-1.251 -1.516,-2.5 -2.281,-3.746c-0.664,-1.082 -1.332,-2.162 -2.006,-3.237c-0.449,-0.715 -0.901,-1.428 -1.36,-2.137c-0.382,-0.592 -0.769,-1.181 -1.169,-1.76c-0.198,-0.287 -0.399,-0.572 -0.611,-0.849c-0.101,-0.131 -0.204,-0.261 -0.314,-0.385c-0.159,-0.182 -0.334,-0.352 -0.535,-0.489c-0.091,-0.062 -0.187,-0.118 -0.288,-0.166c-0.033,-0.015 -0.067,-0.029 -0.1,-0.044c-0.042,-0.016 -0.083,-0.031 -0.125,-0.047ZM89.168,167.435c0.748,1.132 1.474,2.279 2.192,3.43c0.788,1.259 1.566,2.524 2.34,3.792c2.136,3.498 4.242,7.015 6.336,10.539l0.132,0.223c-2.709,0.999 -5.423,1.986 -8.14,2.963c-2.661,0.957 -5.326,1.903 -7.995,2.838c-2.579,0.903 -5.163,1.795 -7.751,2.673c-2.542,0.862 -5.089,1.71 -7.642,2.539c-1.968,0.638 -3.941,1.264 -5.919,1.872c-1.988,0.611 -3.982,1.205 -5.986,1.765c-1.555,0.434 -3.115,0.85 -4.686,1.223c-0.689,0.164 -1.379,0.319 -2.073,0.46c-0.597,0.121 -1.196,0.232 -1.798,0.323c0.045,-0.055 0.09,-0.11 0.135,-0.164c0.373,-0.445 0.763,-0.876 1.161,-1.298c0.322,-0.342 0.651,-0.679 0.983,-1.012c0.867,-0.871 1.759,-1.717 2.662,-2.55c1.091,-1.006 2.198,-1.994 3.316,-2.971c1.151,-1.007 2.313,-2.003 3.481,-2.991c2.791,-2.36 5.616,-4.679 8.454,-6.981c3.741,-3.034 7.506,-6.037 11.266,-9.047c0.479,-0.384 0.959,-0.768 1.438,-1.153c1.482,-1.19 2.962,-2.383 4.431,-3.589c0.624,-0.513 1.246,-1.028 1.863,-1.549c0.575,-0.486 1.145,-0.976 1.704,-1.479c0.032,0.048 0.064,0.096 0.096,0.144ZM87.245,164.54l-0.002,-0.025l0,-0.006c0.001,0.01 0.002,0.02 0.002,0.031ZM91.035,164.221l0.001,0.002c0,-0.001 -0.001,-0.004 -0.001,-0.002Z" style="fill:#280f25;fill-rule:nonzero;"/><path d="M187.946,112.328c4.52,-19.743 6.78,-39.962 6.376,-60.74c0,0 -26.546,35.648 -32.084,49.724" style="fill:#280f25;"/><path d="M194.321,49.686c-0.508,0.08 -0.673,0.045 -1.107,0.355c-0.257,0.184 -0.345,0.312 -0.496,0.516c-0.13,0.175 -0.26,0.35 -0.39,0.526c-0.436,0.59 -0.87,1.182 -1.304,1.774c-2.237,3.055 -4.448,6.128 -6.637,9.217c-2.777,3.919 -5.517,7.864 -8.203,11.846c-1.166,1.73 -2.322,3.467 -3.465,5.212c-1.181,1.805 -2.347,3.619 -3.493,5.447c-0.986,1.573 -1.957,3.156 -2.905,4.754c-0.785,1.322 -1.554,2.654 -2.298,4c-0.668,1.209 -1.317,2.43 -1.929,3.668c-0.586,1.183 -1.14,2.383 -1.625,3.611l-0.13,0.581c0.05,0.517 0.004,0.682 0.293,1.138c0.107,0.167 0.241,0.32 0.394,0.446c0.153,0.126 0.328,0.23 0.513,0.303c0.184,0.073 0.382,0.117 0.58,0.13c0.401,0.025 0.8,-0.078 1.139,-0.293c0.167,-0.106 0.319,-0.24 0.446,-0.393c0.126,-0.153 0.205,-0.34 0.302,-0.512c0.014,-0.025 0.021,-0.054 0.032,-0.081c0.031,-0.078 0.063,-0.157 0.095,-0.235c0.044,-0.108 0.088,-0.216 0.133,-0.323c0.555,-1.318 1.183,-2.604 1.84,-3.874c0.72,-1.391 1.479,-2.762 2.258,-4.12c0.874,-1.525 1.775,-3.034 2.693,-4.533c1.091,-1.782 2.206,-3.55 3.337,-5.307c1.396,-2.169 2.816,-4.322 4.252,-6.463c1.308,-1.949 2.629,-3.888 3.961,-5.82c3.184,-4.616 6.429,-9.188 9.72,-13.728l0.137,-0.189c-0.01,2.5 -0.059,4.999 -0.147,7.496c-0.3,8.538 -1.054,17.059 -2.243,25.518c-0.634,4.514 -1.392,9.011 -2.268,13.484c-0.363,1.85 -0.746,3.695 -1.148,5.537c-0.168,0.767 -0.339,1.534 -0.514,2.3l-0.052,0.23c-0.014,0.198 -0.058,0.396 -0.04,0.594c0.035,0.399 0.197,0.778 0.461,1.08c0.131,0.15 0.287,0.28 0.457,0.382c0.345,0.206 0.746,0.298 1.146,0.262c0.197,-0.018 0.395,-0.067 0.577,-0.145c0.182,-0.078 0.354,-0.186 0.504,-0.316c0.149,-0.13 0.279,-0.286 0.381,-0.456c0.175,-0.292 0.208,-0.493 0.275,-0.785c0.088,-0.388 0.176,-0.777 0.263,-1.165c0.26,-1.167 0.513,-2.335 0.758,-3.505c0.898,-4.292 1.689,-8.606 2.368,-12.938c1.317,-8.395 2.214,-16.855 2.671,-25.341c0.209,-3.882 0.327,-7.769 0.352,-11.657c0.013,-2.039 0,-4.078 -0.037,-6.117l-0.005,-0.244c-0.034,-0.193 -0.038,-0.394 -0.102,-0.579c-0.128,-0.376 -0.371,-0.702 -0.694,-0.933c-0.159,-0.114 -0.35,-0.176 -0.525,-0.264c-0.194,-0.03 -0.388,-0.06 -0.581,-0.091Z" style="fill:#280f25;fill-rule:nonzero;"/><path d="M155.304,215.031c0,0 -32.166,46.842 -36.66,47.717c-4.494,0.874 6.327,-45.629 8.546,-56.344" style="fill:#280f25;"/><path d="M155.254,213.13c-0.195,0.036 -0.398,0.042 -0.585,0.109c-0.187,0.066 -0.366,0.163 -0.523,0.283c-0.262,0.201 -0.348,0.342 -0.502,0.565c-0.089,0.13 -0.179,0.261 -0.269,0.391c-0.145,0.21 -0.29,0.42 -0.435,0.63c-0.313,0.454 -0.627,0.907 -0.941,1.36c-3.353,4.832 -6.736,9.643 -10.157,14.427c-1.697,2.374 -3.404,4.742 -5.124,7.1c-1.401,1.922 -2.811,3.838 -4.233,5.745c-1.23,1.649 -2.468,3.292 -3.721,4.924c-1.196,1.559 -2.405,3.109 -3.635,4.641c-0.988,1.23 -1.99,2.45 -3.021,3.644c-0.427,0.493 -0.858,0.982 -1.299,1.462c-0.432,0.472 -0.873,0.936 -1.33,1.383l-0.013,0.013c-0.008,-0.533 0.007,-1.066 0.034,-1.598c0.03,-0.605 0.075,-1.209 0.128,-1.813c0.123,-1.39 0.29,-2.775 0.477,-4.158c0.233,-1.725 0.497,-3.445 0.779,-5.163c0.314,-1.908 0.649,-3.813 0.997,-5.715c0.574,-3.131 1.184,-6.256 1.813,-9.377c0.864,-4.278 1.766,-8.549 2.685,-12.817c0.609,-2.824 1.225,-5.646 1.839,-8.469c0.132,-0.609 0.263,-1.218 0.394,-1.827c0.13,-0.606 0.259,-1.212 0.386,-1.819l0.054,-0.259c0.025,-0.519 0.094,-0.676 -0.128,-1.168c-0.081,-0.181 -0.193,-0.351 -0.326,-0.498c-0.27,-0.297 -0.628,-0.501 -1.021,-0.583c-0.194,-0.041 -0.397,-0.05 -0.594,-0.029c-0.197,0.022 -0.393,0.075 -0.574,0.156c-0.181,0.082 -0.351,0.193 -0.498,0.326c-0.146,0.134 -0.274,0.292 -0.372,0.464c-0.172,0.301 -0.201,0.51 -0.264,0.812c-0.038,0.184 -0.077,0.367 -0.115,0.55c-0.089,0.416 -0.177,0.832 -0.267,1.248c-0.075,0.353 -0.152,0.706 -0.228,1.058c-0.442,2.042 -0.888,4.084 -1.331,6.126c-1.507,6.947 -2.988,13.901 -4.339,20.881c-0.387,2.004 -0.764,4.011 -1.124,6.02c-0.354,1.979 -0.693,3.961 -1.004,5.948c-0.189,1.206 -0.368,2.414 -0.532,3.625c-0.146,1.086 -0.28,2.175 -0.393,3.265c-0.075,0.723 -0.14,1.448 -0.19,2.173c-0.046,0.664 -0.079,1.33 -0.089,1.996c-0.006,0.448 -0.002,0.896 0.02,1.343c0.021,0.397 0.056,0.794 0.118,1.187c0.08,0.499 0.205,0.998 0.43,1.454c0.155,0.312 0.358,0.602 0.612,0.842c0.188,0.177 0.403,0.326 0.636,0.437c0.168,0.081 0.345,0.141 0.527,0.181c0.144,0.031 0.29,0.049 0.436,0.054c0.123,0.004 0.247,-0.001 0.369,-0.015c0.081,-0.01 0.161,-0.023 0.24,-0.04c0.509,-0.107 0.975,-0.358 1.399,-0.651c0.074,-0.051 0.147,-0.103 0.219,-0.156c0.11,-0.082 0.218,-0.167 0.325,-0.253c0.131,-0.106 0.26,-0.215 0.387,-0.327c0.175,-0.153 0.347,-0.311 0.516,-0.472c0.226,-0.214 0.448,-0.433 0.667,-0.656c0.31,-0.315 0.614,-0.636 0.914,-0.96c0.409,-0.444 0.811,-0.895 1.209,-1.349c0.525,-0.602 1.042,-1.211 1.553,-1.824c0.686,-0.823 1.361,-1.653 2.031,-2.489c0.862,-1.076 1.713,-2.161 2.558,-3.252c1.112,-1.435 2.212,-2.88 3.304,-4.331c1.219,-1.619 2.428,-3.246 3.63,-4.878c1.624,-2.207 3.236,-4.423 4.838,-6.645c2.122,-2.945 4.229,-5.901 6.322,-8.866c1.232,-1.744 2.459,-3.491 3.683,-5.242c1.306,-1.868 2.607,-3.741 3.902,-5.617l0.27,-0.393l0.093,-0.135l0.256,-0.537c0.026,-0.197 0.083,-0.392 0.078,-0.59c-0.005,-0.198 -0.042,-0.398 -0.109,-0.585c-0.134,-0.378 -0.384,-0.705 -0.715,-0.932c-0.164,-0.113 -0.358,-0.171 -0.537,-0.257c-0.197,-0.026 -0.394,-0.052 -0.59,-0.078Z" style="fill:#280f25;fill-rule:nonzero;"/><path d="M219.091,189.923c0,0 11.383,-16.281 2.677,-41.79c-6.052,-17.731 -53.863,-70.387 -116.446,-33.629c-68.724,40.365 54.44,155.438 113.769,75.419Z" style="fill:#feede5;"/><path d="M222.085,179.289c-3.656,1.536 -66.052,48.163 -131.066,-13.638c-19.864,-18.882 29.111,39.563 13.463,24.213l30.495,19.735l26.859,6.631l30.782,-3.098l22.272,-17.412l7.195,-16.431Z" style="fill:#edb0a5;"/><path d="M178.014,104.718c-0.721,-0.288 -1.444,-0.568 -2.172,-0.837c-1.521,-0.561 -3.058,-1.078 -4.61,-1.548c-3.927,-1.191 -7.946,-2.079 -12.012,-2.639c-4.009,-0.552 -8.061,-0.784 -12.106,-0.693c-3.95,0.088 -7.891,0.483 -11.782,1.166c-4.676,0.82 -9.275,2.054 -13.748,3.637c-4.399,1.557 -8.676,3.45 -12.811,5.611c-1.257,0.657 -2.502,1.338 -3.733,2.043c-0.587,0.336 -1.173,0.676 -1.753,1.026c-0.615,0.371 -1.223,0.754 -1.825,1.147c-1.781,1.167 -3.498,2.434 -5.125,3.81c-1.575,1.333 -3.065,2.768 -4.442,4.307c-1.302,1.455 -2.502,3.003 -3.576,4.635c-1.31,1.991 -2.43,4.107 -3.33,6.314c-0.922,2.262 -1.611,4.617 -2.062,7.017c-0.264,1.407 -0.448,2.828 -0.553,4.256c-0.078,1.058 -0.113,2.119 -0.107,3.18c0.004,0.816 0.032,1.631 0.083,2.446c0.321,5.101 1.537,10.121 3.348,14.893c0.262,0.689 0.536,1.373 0.822,2.053c0.394,0.936 0.811,1.864 1.248,2.781c0.562,1.179 1.159,2.342 1.786,3.488c1.802,3.292 3.857,6.443 6.104,9.448c2.691,3.597 5.66,6.985 8.843,10.153c2.628,2.616 5.404,5.084 8.304,7.395c2.34,1.864 4.761,3.626 7.255,5.278c5.408,3.583 11.16,6.657 17.17,9.102c1.001,0.407 2.009,0.797 3.024,1.168c6.563,2.402 13.42,4.043 20.383,4.689c1.067,0.099 2.136,0.175 3.206,0.226c1.377,0.067 2.755,0.093 4.133,0.077c1.687,-0.018 3.374,-0.1 5.055,-0.246c2.229,-0.193 4.447,-0.5 6.643,-0.924c2.996,-0.579 5.949,-1.375 8.828,-2.386c2.652,-0.931 5.239,-2.043 7.74,-3.324c2.444,-1.251 4.805,-2.663 7.069,-4.216c4.256,-2.919 8.162,-6.333 11.693,-10.092c1.575,-1.676 3.076,-3.42 4.506,-5.221c0.431,-0.542 0.855,-1.089 1.273,-1.641c0.12,-0.159 0.24,-0.319 0.36,-0.479c0.15,-0.201 0.152,-0.199 0.248,-0.338c0.134,-0.196 0.262,-0.398 0.386,-0.6c0.152,-0.248 0.3,-0.499 0.443,-0.753c0.36,-0.634 0.696,-1.281 1.014,-1.937c0.352,-0.73 0.682,-1.471 0.99,-2.22c0.827,-2.009 1.501,-4.081 2.036,-6.186c1.176,-4.628 1.67,-9.421 1.545,-14.192c-0.091,-3.447 -0.503,-6.883 -1.196,-10.26c-0.411,-2.001 -0.919,-3.982 -1.516,-5.936c-0.157,-0.514 -0.32,-1.027 -0.489,-1.537c-0.122,-0.369 -0.245,-0.738 -0.379,-1.102c-0.201,-0.548 -0.422,-1.087 -0.657,-1.621c-0.507,-1.148 -1.082,-2.267 -1.697,-3.362c-0.732,-1.301 -1.524,-2.569 -2.356,-3.809c-0.933,-1.388 -1.917,-2.741 -2.943,-4.061c-1.261,-1.623 -2.583,-3.198 -3.956,-4.727c-1.704,-1.896 -3.486,-3.722 -5.337,-5.475c-1.926,-1.824 -3.925,-3.571 -5.992,-5.234c-4.895,-3.938 -10.169,-7.412 -15.75,-10.3c-1.513,-0.782 -3.048,-1.521 -4.604,-2.214c-0.701,-0.312 -1.406,-0.614 -2.115,-0.908c-0.268,-0.11 -0.536,-0.22 -0.804,-0.328ZM176.448,110.073c0.664,0.273 1.325,0.553 1.982,0.843c1.38,0.609 2.743,1.257 4.087,1.942c5.283,2.69 10.275,5.942 14.912,9.632c2.084,1.659 4.097,3.408 6.031,5.241c1.692,1.602 3.324,3.269 4.885,4.999c1.335,1.479 2.619,3.004 3.841,4.577c0.913,1.176 1.792,2.379 2.625,3.612c0.759,1.122 1.481,2.27 2.149,3.449c0.554,0.978 1.073,1.979 1.528,3.008c0.187,0.425 0.364,0.854 0.524,1.29c0.096,0.262 0.185,0.527 0.273,0.791c0.126,0.378 0.248,0.756 0.367,1.135c0.398,1.274 0.757,2.561 1.071,3.859c0.639,2.637 1.095,5.319 1.34,8.022c0.282,3.124 0.282,6.275 -0.035,9.396c-0.229,2.259 -0.623,4.502 -1.19,6.701c-0.414,1.605 -0.921,3.187 -1.526,4.73c-0.259,0.658 -0.535,1.308 -0.831,1.95c-0.178,0.384 -0.362,0.765 -0.556,1.142c-0.206,0.402 -0.939,1.683 -1.098,1.922c-0.101,0.136 -0.202,0.271 -0.304,0.407c-0.558,0.74 -1.125,1.472 -1.706,2.194c-1.231,1.528 -2.518,3.012 -3.862,4.442c-3.365,3.582 -7.095,6.828 -11.172,9.578c-1.89,1.274 -3.851,2.442 -5.876,3.488c-2.018,1.044 -4.1,1.968 -6.229,2.762c-2.81,1.047 -5.703,1.868 -8.644,2.459c-2.142,0.43 -4.309,0.738 -6.486,0.926c-1.472,0.128 -2.948,0.202 -4.425,0.223c-1.127,0.017 -2.255,0.003 -3.381,-0.04c-0.988,-0.038 -1.975,-0.099 -2.961,-0.181c-6.92,-0.576 -13.734,-2.222 -20.232,-4.656c-1.358,-0.509 -2.704,-1.053 -4.036,-1.63c-1.603,-0.695 -3.186,-1.437 -4.747,-2.224c-1.954,-0.985 -3.872,-2.04 -5.752,-3.16c-2.565,-1.528 -5.057,-3.175 -7.469,-4.935c-3.081,-2.248 -6.032,-4.677 -8.826,-7.274c-2.419,-2.249 -4.72,-4.625 -6.881,-7.123c-1.65,-1.908 -3.218,-3.888 -4.689,-5.938c-1.193,-1.665 -2.323,-3.376 -3.376,-5.133c-0.791,-1.321 -1.54,-2.667 -2.24,-4.039c-0.569,-1.113 -1.105,-2.244 -1.604,-3.39c-0.367,-0.841 -0.714,-1.691 -1.039,-2.549c-0.256,-0.674 -0.499,-1.353 -0.727,-2.038c-1.317,-3.942 -2.167,-8.058 -2.319,-12.217c-0.02,-0.543 -0.028,-1.086 -0.024,-1.629c0.007,-0.753 0.037,-1.506 0.092,-2.257c0.075,-1.009 0.194,-2.014 0.361,-3.011c0.236,-1.411 0.567,-2.805 0.994,-4.17c0.627,-2.002 1.461,-3.937 2.483,-5.77c0.738,-1.325 1.574,-2.596 2.491,-3.805c1.009,-1.33 2.117,-2.585 3.302,-3.762c2.015,-2.001 4.247,-3.777 6.609,-5.352c0.598,-0.398 1.205,-0.785 1.819,-1.159c0.428,-0.261 0.861,-0.515 1.295,-0.766c0.531,-0.309 1.066,-0.613 1.603,-0.912c2.903,-1.617 5.882,-3.1 8.933,-4.419c3.678,-1.59 7.46,-2.942 11.324,-4.004c4.06,-1.117 8.21,-1.913 12.4,-2.342c3.199,-0.328 6.42,-0.443 9.634,-0.336c3.305,0.109 6.601,0.452 9.858,1.021c3.27,0.572 6.499,1.371 9.661,2.381c1.175,0.375 2.341,0.778 3.496,1.21c0.594,0.221 1.184,0.451 1.772,0.686c0.167,0.067 0.334,0.135 0.501,0.203Z" style="fill:#edb0a5;fill-rule:nonzero;"/><path d="M191.678,141.783c-5.005,-2.025 -10.879,0.806 -13.109,6.32c-2.23,5.513 0.023,11.634 5.028,13.659c5.005,2.026 10.878,-0.806 13.108,-6.319c2.231,-5.514 -0.022,-11.634 -5.027,-13.66Z" style="fill:#280f25;"/><path d="M114.174,124.793c-4.573,-1.851 -9.902,0.644 -11.894,5.568c-1.991,4.923 0.105,10.423 4.678,12.274c4.573,1.851 9.902,-0.644 11.894,-5.568c1.991,-4.923 -0.105,-10.423 -4.678,-12.274Z" style="fill:#280f25;"/><path d="M143.574,150.915c-3.473,-0.884 -6.198,-2.139 -6.797,0.221c-0.6,2.36 1.733,4.993 5.206,5.876c3.472,0.884 6.779,-0.315 7.379,-2.675c0.599,-2.36 -2.315,-2.539 -5.788,-3.422Z" style="fill:#280f25;"/><path d="M186.467,144.324c-1.175,-0.476 -2.515,0.092 -2.99,1.267c-0.475,1.174 0.093,2.514 1.268,2.99c1.176,0.476 2.516,-0.092 2.991,-1.267c0.475,-1.174 -0.093,-2.514 -1.269,-2.99Z" style="fill:#dffaf1;"/><path d="M108.999,127.112c-1.175,-0.476 -2.515,0.092 -2.991,1.266c-0.475,1.175 0.094,2.515 1.269,2.991c1.175,0.475 2.515,-0.092 2.991,-1.267c0.475,-1.175 -0.094,-2.515 -1.269,-2.99Z" style="fill:#dffaf1;"/><path d="M134.72,194.903c-1.09,-0.349 -2.175,-0.711 -3.255,-1.089c-1.225,-0.429 -2.443,-0.879 -3.654,-1.347l-0.006,-0.002c-0.193,-0.042 -0.383,-0.115 -0.581,-0.126c-0.401,-0.023 -0.799,0.082 -1.137,0.3c-0.166,0.107 -0.318,0.242 -0.443,0.396c-0.125,0.154 -0.228,0.329 -0.299,0.514c-0.072,0.185 -0.115,0.383 -0.126,0.581c-0.022,0.401 0.083,0.799 0.301,1.136c0.107,0.167 0.243,0.319 0.396,0.444c0.264,0.216 0.463,0.28 0.744,0.388c0.073,0.028 0.147,0.057 0.221,0.085c0.515,0.197 1.031,0.391 1.548,0.581c1.75,0.643 3.513,1.246 5.29,1.81l0.588,0.089c0.513,-0.084 0.681,-0.05 1.115,-0.37c0.16,-0.118 0.303,-0.262 0.418,-0.423c0.234,-0.327 0.358,-0.719 0.355,-1.12c-0.001,-0.199 -0.034,-0.399 -0.097,-0.587c-0.062,-0.188 -0.156,-0.369 -0.274,-0.528c-0.32,-0.435 -0.49,-0.452 -0.955,-0.685c-0.05,-0.016 -0.099,-0.031 -0.149,-0.047ZM110.378,184.167c-0.519,-0.028 -0.676,-0.097 -1.169,0.122c-0.181,0.08 -0.352,0.191 -0.499,0.323c-0.299,0.269 -0.505,0.625 -0.588,1.018c-0.042,0.193 -0.052,0.396 -0.032,0.594c0.021,0.197 0.074,0.393 0.154,0.574c0.081,0.181 0.192,0.352 0.324,0.499c0.226,0.252 0.406,0.343 0.664,0.491c0.067,0.04 0.135,0.078 0.203,0.117c0.339,0.195 0.679,0.388 1.02,0.58c1.229,0.69 2.471,1.359 3.723,2.007c0.419,0.216 0.838,0.43 1.259,0.641c0.07,0.036 0.14,0.071 0.211,0.106c0.061,0.031 0.12,0.069 0.185,0.092c0.186,0.068 0.371,0.15 0.567,0.179c0.196,0.03 0.4,0.028 0.595,-0.004c0.196,-0.033 0.388,-0.097 0.564,-0.189c0.176,-0.091 0.34,-0.212 0.479,-0.354c0.139,-0.141 0.257,-0.306 0.345,-0.484c0.179,-0.359 0.24,-0.766 0.174,-1.162c-0.033,-0.195 -0.097,-0.388 -0.189,-0.564c-0.092,-0.176 -0.212,-0.339 -0.354,-0.478c-0.241,-0.237 -0.408,-0.308 -0.666,-0.436c-0.136,-0.068 -0.272,-0.137 -0.408,-0.205c-0.136,-0.069 -0.271,-0.138 -0.407,-0.207c-1.015,-0.519 -2.023,-1.05 -3.023,-1.596c-0.865,-0.473 -1.723,-0.957 -2.577,-1.45c-0.185,-0.072 -0.37,-0.143 -0.555,-0.214ZM153.075,199.15c-0.158,-0.023 -0.317,-0.047 -0.476,-0.07c-0.148,-0.022 -0.296,-0.045 -0.444,-0.067c-1.112,-0.172 -2.223,-0.358 -3.33,-0.563c-1.038,-0.192 -2.072,-0.399 -3.105,-0.619l-0.002,-0.001c-0.198,-0.01 -0.397,-0.052 -0.594,-0.032c-0.399,0.041 -0.776,0.207 -1.074,0.475c-0.148,0.132 -0.276,0.29 -0.376,0.461c-0.099,0.172 -0.173,0.361 -0.214,0.555c-0.084,0.393 -0.042,0.802 0.12,1.169c0.081,0.181 0.191,0.352 0.323,0.5c0.133,0.148 0.291,0.276 0.462,0.375c0.295,0.171 0.497,0.203 0.79,0.265c0.076,0.016 0.152,0.032 0.229,0.048c0.534,0.112 1.069,0.221 1.605,0.325c1.22,0.239 2.445,0.457 3.673,0.656c0.612,0.099 1.225,0.192 1.839,0.281l0.036,0.006c0.52,-0.008 0.681,0.051 1.158,-0.201c0.355,-0.188 0.642,-0.483 0.819,-0.843c0.087,-0.178 0.147,-0.372 0.175,-0.568c0.028,-0.197 0.025,-0.4 -0.009,-0.595c-0.034,-0.196 -0.1,-0.388 -0.193,-0.563c-0.252,-0.478 -0.418,-0.519 -0.843,-0.819c-0.19,-0.058 -0.379,-0.117 -0.569,-0.175ZM171.682,200.103c-0.126,0.006 -0.251,0.011 -0.377,0.017c-0.144,0.006 -0.288,0.012 -0.433,0.017c-0.361,0.013 -0.723,0.025 -1.084,0.035c-0.726,0.019 -1.453,0.029 -2.179,0.03c-1.095,0.003 -2.191,-0.016 -3.286,-0.05l-0.094,-0.003c-0.197,0.024 -0.4,0.018 -0.59,0.073c-0.386,0.111 -0.727,0.342 -0.974,0.658c-0.121,0.157 -0.22,0.335 -0.287,0.521c-0.068,0.186 -0.106,0.386 -0.113,0.584c-0.006,0.198 0.019,0.4 0.074,0.59c0.111,0.386 0.342,0.727 0.659,0.974c0.157,0.122 0.334,0.22 0.521,0.287c0.186,0.068 0.389,0.08 0.584,0.113c0.033,0.006 0.066,0.002 0.099,0.004c0.076,0.002 0.152,0.004 0.228,0.007c0.076,0.002 0.152,0.004 0.228,0.006c0.532,0.015 1.064,0.026 1.597,0.032c1.869,0.022 3.738,-0.01 5.605,-0.097l0.583,-0.12c0.452,-0.257 0.621,-0.283 0.917,-0.734c0.221,-0.335 0.33,-0.732 0.311,-1.133c-0.01,-0.198 -0.051,-0.397 -0.121,-0.583c-0.07,-0.185 -0.171,-0.362 -0.294,-0.517c-0.338,-0.421 -0.509,-0.431 -0.983,-0.646c-0.197,-0.021 -0.394,-0.043 -0.591,-0.065ZM190.559,197.075c-0.197,0.025 -0.394,0.047 -0.591,0.075c-0.021,0.003 -0.041,0.012 -0.061,0.018c-0.067,0.019 -0.134,0.038 -0.2,0.057c-0.134,0.038 -0.267,0.076 -0.401,0.114c-0.334,0.093 -0.67,0.184 -1.005,0.273c-0.742,0.196 -1.486,0.379 -2.233,0.552c-0.751,0.173 -1.505,0.334 -2.26,0.484c-0.345,0.068 -0.69,0.133 -1.036,0.197l-0.015,0.003c-0.187,0.066 -0.386,0.103 -0.561,0.197c-0.353,0.191 -0.637,0.488 -0.811,0.85c-0.086,0.179 -0.144,0.374 -0.17,0.57c-0.053,0.398 0.021,0.803 0.212,1.156c0.094,0.175 0.217,0.336 0.361,0.473c0.143,0.137 0.311,0.253 0.489,0.338c0.179,0.086 0.374,0.144 0.571,0.171c0.334,0.045 0.539,-0.003 0.832,-0.058c0.073,-0.014 0.145,-0.027 0.218,-0.041c0.507,-0.096 1.013,-0.197 1.518,-0.303c1.221,-0.256 2.437,-0.542 3.645,-0.857c0.637,-0.166 1.272,-0.341 1.904,-0.523l0.067,-0.02c0.471,-0.221 0.641,-0.234 0.972,-0.66c0.121,-0.157 0.219,-0.335 0.286,-0.522c0.136,-0.378 0.149,-0.789 0.036,-1.174c-0.055,-0.191 -0.142,-0.374 -0.254,-0.538c-0.303,-0.447 -0.473,-0.47 -0.929,-0.72c-0.195,-0.038 -0.39,-0.075 -0.584,-0.112ZM207.878,189.295c-0.197,0.02 -0.4,0.009 -0.592,0.06c-0.309,0.082 -0.427,0.166 -0.637,0.3c-0.028,0.019 -0.057,0.037 -0.086,0.056c-0.087,0.055 -0.173,0.11 -0.26,0.165c-0.144,0.091 -0.289,0.182 -0.434,0.272c-0.901,0.557 -1.815,1.092 -2.743,1.602c-0.869,0.476 -1.749,0.931 -2.639,1.366l-0.092,0.044l-0.08,0.039l-0.488,0.34c-0.314,0.414 -0.459,0.505 -0.554,1.036c-0.035,0.195 -0.039,0.398 -0.012,0.595c0.028,0.196 0.087,0.391 0.173,0.569c0.087,0.179 0.203,0.345 0.34,0.488c0.279,0.29 0.642,0.484 1.037,0.555c0.195,0.035 0.399,0.039 0.595,0.012c0.196,-0.027 0.381,-0.111 0.569,-0.173c0.029,-0.009 0.056,-0.027 0.083,-0.04c0.098,-0.047 0.196,-0.095 0.293,-0.143c0.488,-0.24 0.974,-0.486 1.456,-0.738c1.254,-0.656 2.488,-1.354 3.696,-2.092c0.435,-0.265 0.866,-0.536 1.294,-0.811l0.009,-0.006c0.388,-0.347 0.548,-0.408 0.742,-0.911c0.072,-0.185 0.114,-0.384 0.125,-0.582c0.022,-0.401 -0.083,-0.798 -0.301,-1.136c-0.108,-0.166 -0.244,-0.318 -0.397,-0.443c-0.154,-0.125 -0.343,-0.199 -0.515,-0.299c-0.194,-0.042 -0.388,-0.083 -0.582,-0.125Z" style="fill:#feede5;fill-rule:nonzero;"/><path d="M140.183,203.326c-1.005,-0.284 -2.01,-0.572 -3.013,-0.864c-1.326,-0.386 -2.649,-0.78 -3.971,-1.178l-0.59,-0.08c-0.511,0.093 -0.68,0.061 -1.109,0.387c-0.158,0.121 -0.299,0.267 -0.411,0.43c-0.113,0.163 -0.202,0.346 -0.259,0.536c-0.057,0.19 -0.084,0.391 -0.08,0.589c0.009,0.402 0.145,0.79 0.388,1.11c0.121,0.158 0.267,0.298 0.43,0.411c0.307,0.212 0.604,0.279 0.946,0.382c0.54,0.162 1.079,0.323 1.619,0.483c1.296,0.384 2.594,0.763 3.894,1.134c0.375,0.107 0.751,0.214 1.127,0.32c0.307,0.087 0.528,0.164 0.878,0.15c0.198,-0.008 0.398,-0.048 0.584,-0.116c0.186,-0.069 0.363,-0.169 0.518,-0.291c0.156,-0.123 0.294,-0.273 0.404,-0.438c0.11,-0.165 0.194,-0.349 0.248,-0.54c0.108,-0.386 0.092,-0.797 -0.048,-1.174c-0.139,-0.377 -0.394,-0.699 -0.729,-0.922c-0.165,-0.11 -0.36,-0.166 -0.54,-0.249c-0.095,-0.027 -0.19,-0.053 -0.286,-0.08ZM158.771,207.613c-0.165,-0.026 -0.331,-0.052 -0.496,-0.078c-0.18,-0.029 -0.361,-0.059 -0.541,-0.089c-2.115,-0.352 -4.217,-0.773 -6.31,-1.241l-0.594,-0.037c-0.503,0.129 -0.673,0.11 -1.078,0.467c-0.149,0.131 -0.278,0.287 -0.379,0.458c-0.204,0.346 -0.294,0.747 -0.256,1.147c0.019,0.197 0.07,0.394 0.148,0.576c0.079,0.182 0.188,0.353 0.32,0.502c0.131,0.149 0.287,0.278 0.458,0.379c0.171,0.101 0.367,0.152 0.554,0.219c0.045,0.017 0.093,0.021 0.14,0.032c0.103,0.023 0.207,0.045 0.31,0.068c0.511,0.113 1.022,0.222 1.533,0.329c1.862,0.388 3.732,0.734 5.611,1.025l0.595,-0.002c0.494,-0.162 0.665,-0.153 1.045,-0.536c0.283,-0.285 0.468,-0.652 0.53,-1.049c0.03,-0.196 0.029,-0.399 -0.003,-0.595c-0.032,-0.196 -0.095,-0.389 -0.186,-0.565c-0.247,-0.48 -0.412,-0.524 -0.834,-0.828c-0.189,-0.061 -0.378,-0.122 -0.567,-0.182ZM177.678,207.734c-0.198,0.003 -0.397,0.006 -0.595,0.01c-0.037,0 -0.073,0.012 -0.11,0.019c-0.106,0.018 -0.213,0.036 -0.319,0.053c-0.142,0.023 -0.284,0.046 -0.426,0.068c-1.104,0.17 -2.213,0.304 -3.326,0.397c-1.023,0.085 -2.049,0.136 -3.076,0.158l-0.017,0.001c-0.195,0.034 -0.398,0.039 -0.586,0.104c-0.379,0.131 -0.707,0.379 -0.937,0.709c-0.113,0.162 -0.202,0.345 -0.26,0.535c-0.116,0.384 -0.108,0.795 0.023,1.174c0.065,0.188 0.161,0.367 0.281,0.525c0.119,0.158 0.266,0.299 0.429,0.413c0.162,0.113 0.345,0.202 0.535,0.26c0.19,0.057 0.393,0.055 0.589,0.082c0.008,0 0.015,-0.001 0.022,-0.001c0.04,-0.001 0.08,-0.002 0.12,-0.002c0.08,-0.002 0.16,-0.004 0.24,-0.006c0.515,-0.014 1.03,-0.036 1.545,-0.064c1.171,-0.066 2.34,-0.172 3.504,-0.317c0.808,-0.101 1.614,-0.223 2.418,-0.361l0.007,-0.001c0.492,-0.169 0.663,-0.162 1.038,-0.55c0.138,-0.143 0.255,-0.309 0.342,-0.487c0.177,-0.36 0.234,-0.768 0.165,-1.163c-0.034,-0.195 -0.1,-0.388 -0.193,-0.563c-0.253,-0.477 -0.419,-0.519 -0.844,-0.818c-0.19,-0.058 -0.379,-0.116 -0.569,-0.175ZM195.839,201.851c-0.198,-0.012 -0.397,-0.054 -0.594,-0.035c-0.342,0.034 -0.517,0.126 -0.792,0.246c-0.17,0.074 -0.339,0.148 -0.509,0.222c-0.169,0.073 -0.337,0.145 -0.505,0.218c-0.898,0.384 -1.799,0.762 -2.705,1.128c-0.975,0.393 -1.956,0.773 -2.942,1.137l-0.058,0.021c-0.174,0.097 -0.364,0.168 -0.52,0.29c-0.316,0.248 -0.544,0.59 -0.654,0.976c-0.054,0.191 -0.078,0.393 -0.07,0.591c0.007,0.198 0.047,0.397 0.115,0.583c0.069,0.187 0.168,0.364 0.29,0.52c0.123,0.156 0.272,0.294 0.437,0.404c0.334,0.224 0.729,0.336 1.131,0.321c0.198,-0.008 0.39,-0.074 0.583,-0.115c0.021,-0.005 0.041,-0.015 0.061,-0.022c0.04,-0.015 0.08,-0.03 0.121,-0.045c0.08,-0.03 0.16,-0.059 0.24,-0.089c0.324,-0.121 0.647,-0.243 0.969,-0.367c1.34,-0.515 2.67,-1.058 3.991,-1.62c0.431,-0.183 0.861,-0.369 1.291,-0.556c0.087,-0.037 0.174,-0.075 0.261,-0.113c0.274,-0.12 0.466,-0.192 0.719,-0.418c0.148,-0.132 0.277,-0.289 0.377,-0.46c0.1,-0.171 0.174,-0.36 0.216,-0.554c0.086,-0.392 0.045,-0.802 -0.117,-1.169c-0.217,-0.495 -0.379,-0.548 -0.782,-0.878c-0.185,-0.072 -0.369,-0.144 -0.554,-0.216Z" style="fill:#feede5;fill-rule:nonzero;"/></g></svg>