<?xml version="1.0" standalone="no"?><!DOCTYPE svg PUBLIC "-//W3C//DTD SVG 1.1//EN" "http://www.w3.org/Graphics/SVG/1.1/DTD/svg11.dtd"><svg width="100%" height="100%" viewBox="0 0 276 294" version="1.1" xmlns="http://www.w3.org/2000/svg" xmlns:xlink="http://www.w3.org/1999/xlink" xml:space="preserve" style="fill-rule:evenodd;clip-rule:evenodd;stroke-linejoin:round;stroke-miterlimit:1.41421;"><g><path d="M197.349,132.669c0,0 59.654,-3.984 58.278,-1.334c-1.377,2.649 -37.193,26.098 -50.647,28.596c-13.455,2.498 -7.631,-27.262 -7.631,-27.262Z" style="fill:#280f25;"/><path d="M256.132,129.026c0.092,0.039 0.183,0.081 0.271,0.128c0.223,0.12 0.431,0.271 0.61,0.454c0.186,0.19 0.34,0.413 0.451,0.659c0.083,0.185 0.143,0.383 0.175,0.585c0.028,0.18 0.035,0.364 0.02,0.546c-0.01,0.136 -0.033,0.272 -0.068,0.404c-0.023,0.092 -0.053,0.182 -0.087,0.27c-0.086,0.221 -0.207,0.427 -0.344,0.618c-0.186,0.258 -0.403,0.491 -0.627,0.712c-0.098,0.096 -0.198,0.19 -0.298,0.283c-0.138,0.126 -0.277,0.249 -0.419,0.37c-0.223,0.192 -0.45,0.38 -0.679,0.565c-0.301,0.243 -0.606,0.482 -0.912,0.717c-0.444,0.341 -0.892,0.675 -1.342,1.005c-0.569,0.418 -1.143,0.829 -1.72,1.236c-0.772,0.545 -1.549,1.083 -2.33,1.615c-0.938,0.639 -1.881,1.269 -2.827,1.894c-2.207,1.454 -4.434,2.875 -6.677,4.267c-2.442,1.514 -4.903,2.995 -7.384,4.436c-2.427,1.411 -4.874,2.785 -7.345,4.109c-2.107,1.129 -4.232,2.221 -6.382,3.257c-1.652,0.795 -3.318,1.556 -5.006,2.262c-0.628,0.263 -1.26,0.517 -1.895,0.761c-0.833,0.319 -1.672,0.621 -2.519,0.895c-0.857,0.278 -1.722,0.528 -2.598,0.73c-0.209,0.048 -0.42,0.094 -0.631,0.136c-0.244,0.049 -0.488,0.093 -0.734,0.129c-0.541,0.077 -1.087,0.114 -1.632,0.102c-0.768,-0.018 -1.533,-0.137 -2.264,-0.374c-0.518,-0.167 -1.017,-0.393 -1.486,-0.673c-0.321,-0.191 -0.627,-0.407 -0.917,-0.646c-0.224,-0.184 -0.438,-0.382 -0.642,-0.59c-0.129,-0.132 -0.254,-0.268 -0.374,-0.409c-0.928,-1.083 -1.593,-2.386 -2.073,-3.745c-0.082,-0.231 -0.159,-0.464 -0.231,-0.699c-0.089,-0.29 -0.171,-0.582 -0.246,-0.876c-0.097,-0.378 -0.184,-0.76 -0.261,-1.144c-0.101,-0.501 -0.187,-1.006 -0.259,-1.512c-0.095,-0.657 -0.167,-1.318 -0.223,-1.98c-0.075,-0.901 -0.118,-1.804 -0.137,-2.709c-0.025,-1.208 -0.007,-2.418 0.044,-3.627c0.067,-1.586 0.19,-3.171 0.357,-4.751c0.125,-1.179 0.274,-2.355 0.447,-3.528c0.077,-0.528 0.16,-1.055 0.249,-1.581c0.057,-0.339 0.117,-0.677 0.181,-1.014l0.005,-0.025c0.017,-0.069 0.03,-0.139 0.05,-0.207c0.041,-0.137 0.095,-0.269 0.161,-0.395c0.099,-0.188 0.226,-0.361 0.375,-0.51c0.198,-0.199 0.435,-0.356 0.692,-0.459c0.129,-0.051 0.262,-0.089 0.397,-0.112c0.068,-0.012 0.136,-0.017 0.204,-0.025c0.663,-0.044 1.325,-0.087 1.987,-0.129c3.548,-0.227 7.096,-0.443 10.645,-0.647c3.17,-0.183 6.341,-0.358 9.512,-0.521c3.209,-0.165 6.418,-0.32 9.627,-0.457c2.806,-0.121 5.612,-0.229 8.419,-0.316c2.145,-0.066 4.29,-0.121 6.435,-0.152c1.815,-0.027 3.63,-0.038 5.444,-0.011c0.713,0.011 1.426,0.028 2.138,0.056c0.602,0.024 1.203,0.055 1.804,0.102c0.489,0.039 0.977,0.088 1.462,0.163c0.33,0.051 0.659,0.114 0.98,0.208c0.102,0.03 0.203,0.064 0.303,0.1c0.062,0.025 0.062,0.025 0.124,0.05ZM251.054,132.58c-1.496,-0.053 -2.993,-0.065 -4.491,-0.06c-1.574,0.005 -3.148,0.028 -4.722,0.061c-1.771,0.037 -3.543,0.087 -5.314,0.145c-2.238,0.074 -4.477,0.16 -6.715,0.254c-4.96,0.209 -9.919,0.458 -14.878,0.729c-5.171,0.283 -10.341,0.59 -15.51,0.921l-0.375,0.024c-0.256,1.617 -0.463,3.242 -0.62,4.871c-0.163,1.68 -0.272,3.365 -0.307,5.051c-0.019,0.959 -0.015,1.918 0.023,2.876c0.036,0.93 0.103,1.858 0.215,2.78c0.084,0.693 0.193,1.384 0.338,2.066c0.123,0.577 0.271,1.148 0.457,1.706c0.128,0.388 0.275,0.769 0.446,1.138c0.165,0.356 0.352,0.7 0.569,1.023c0.326,0.485 0.723,0.923 1.206,1.241c0.168,0.11 0.345,0.205 0.528,0.284c0.144,0.061 0.291,0.112 0.442,0.153c0.572,0.157 1.175,0.171 1.764,0.108c0.254,-0.028 0.506,-0.072 0.758,-0.122c0.251,-0.05 0.5,-0.106 0.749,-0.167c0.594,-0.144 1.182,-0.313 1.765,-0.496c0.668,-0.211 1.33,-0.441 1.987,-0.685c1.483,-0.549 2.943,-1.163 4.39,-1.81c1.105,-0.495 2.202,-1.011 3.293,-1.542c1.33,-0.647 2.651,-1.317 3.964,-2.003c1.634,-0.853 3.256,-1.732 4.869,-2.629c1.731,-0.964 3.451,-1.949 5.162,-2.953c1.605,-0.942 3.201,-1.9 4.789,-2.872c2.849,-1.745 5.673,-3.537 8.462,-5.384c1.157,-0.766 2.308,-1.543 3.45,-2.333c1.094,-0.757 2.18,-1.526 3.25,-2.32l0.074,-0.055c-0.006,0 -0.012,0 -0.018,0Z" style="fill:#280f25;fill-rule:nonzero;"/><path d="M59.834,140.958c0,0 -34.224,22.412 -41.197,29.27c-6.972,6.858 40.859,3.332 49.555,2.352" style="fill:#280f25;"/><path d="M60.792,139.101c0.055,0.033 0.111,0.064 0.164,0.1c0.213,0.145 0.398,0.332 0.542,0.549c0.109,0.163 0.194,0.342 0.253,0.531c0.079,0.251 0.111,0.519 0.094,0.784c-0.021,0.332 -0.12,0.659 -0.285,0.946c-0.133,0.23 -0.307,0.434 -0.511,0.597c-0.051,0.041 -0.106,0.077 -0.159,0.115c-0.493,0.324 -0.986,0.649 -1.479,0.974c-4.207,2.776 -8.399,5.579 -12.573,8.41c-3.828,2.597 -7.643,5.217 -11.428,7.882c-1.558,1.097 -3.111,2.202 -4.657,3.319c-1.349,0.975 -2.693,1.96 -4.026,2.96c-1.096,0.822 -2.185,1.654 -3.258,2.507c-0.413,0.328 -0.823,0.659 -1.23,0.995c-0.528,0.436 -1.05,0.881 -1.56,1.34l-0.018,0.017c0.129,0.04 0.259,0.077 0.389,0.111c0.233,0.063 0.469,0.117 0.705,0.167c0.489,0.104 0.982,0.187 1.477,0.259c0.617,0.09 1.237,0.161 1.859,0.222c0.632,0.062 1.266,0.112 1.9,0.154c1.524,0.102 3.051,0.158 4.578,0.191c1.898,0.04 3.797,0.042 5.697,0.022c2.888,-0.031 5.777,-0.116 8.665,-0.234c3.085,-0.126 6.169,-0.29 9.251,-0.485c2.386,-0.151 4.772,-0.32 7.157,-0.513c1,-0.081 1.999,-0.165 2.999,-0.256c0.891,-0.082 1.782,-0.168 2.672,-0.267l0.191,-0.011c0.17,0.006 0.214,0.001 0.382,0.033c0.251,0.047 0.492,0.145 0.707,0.286c0.161,0.106 0.307,0.236 0.432,0.385c0.125,0.149 0.229,0.317 0.308,0.498c0.079,0.18 0.133,0.372 0.159,0.569c0.026,0.197 0.026,0.399 -0.003,0.596c-0.037,0.264 -0.123,0.52 -0.252,0.752c-0.097,0.174 -0.218,0.333 -0.357,0.473c-0.186,0.185 -0.406,0.334 -0.644,0.436c-0.119,0.05 -0.242,0.089 -0.368,0.116c-0.128,0.027 -0.275,0.04 -0.404,0.054c-0.158,0.018 -0.316,0.034 -0.474,0.051c-0.686,0.071 -1.373,0.137 -2.06,0.199c-2.226,0.204 -4.455,0.378 -6.684,0.537c-3.429,0.245 -6.859,0.452 -10.291,0.615c-3.321,0.158 -6.643,0.277 -9.966,0.333c-1.424,0.024 -2.848,0.036 -4.272,0.032c-1.26,-0.004 -2.521,-0.02 -3.781,-0.054c-1.165,-0.032 -2.33,-0.079 -3.493,-0.149c-1.044,-0.064 -2.086,-0.146 -3.126,-0.26c-0.596,-0.066 -1.191,-0.143 -1.783,-0.236c-0.45,-0.07 -0.897,-0.15 -1.342,-0.244c-0.301,-0.064 -0.601,-0.134 -0.898,-0.214c-0.23,-0.061 -0.458,-0.127 -0.684,-0.201c-0.169,-0.054 -0.336,-0.113 -0.502,-0.177c-0.116,-0.044 -0.231,-0.091 -0.344,-0.141c-0.639,-0.278 -1.254,-0.649 -1.725,-1.181c-0.058,-0.065 -0.114,-0.134 -0.167,-0.204c-0.075,-0.098 -0.144,-0.201 -0.208,-0.308c-0.083,-0.14 -0.155,-0.288 -0.216,-0.44c-0.077,-0.195 -0.134,-0.398 -0.17,-0.605c-0.049,-0.28 -0.058,-0.568 -0.028,-0.852c0.041,-0.393 0.156,-0.777 0.327,-1.132c0.17,-0.353 0.394,-0.677 0.648,-0.971c0.108,-0.125 0.222,-0.245 0.339,-0.361c0.063,-0.062 0.126,-0.123 0.189,-0.184c0.132,-0.126 0.264,-0.251 0.398,-0.374c0.412,-0.379 0.834,-0.748 1.26,-1.11c0.399,-0.338 0.802,-0.67 1.208,-0.999c1.164,-0.944 2.35,-1.859 3.543,-2.761c1.395,-1.054 2.803,-2.089 4.218,-3.114c1.694,-1.228 3.397,-2.441 5.107,-3.645c2.073,-1.459 4.154,-2.904 6.241,-4.34c2.299,-1.581 4.606,-3.152 6.917,-4.714c2.317,-1.565 4.64,-3.122 6.967,-4.671c1.786,-1.189 3.575,-2.375 5.369,-3.552l0.099,-0.065c0.149,-0.088 0.184,-0.116 0.344,-0.181c0.36,-0.147 0.756,-0.185 1.133,-0.108c0.167,0.034 0.205,0.055 0.365,0.113c0.058,0.028 0.116,0.056 0.173,0.084Z" style="fill:#280f25;fill-rule:nonzero;"/><path d="M104.236,86.085c0,0 -34.338,-47.037 -42.224,-52.873c-7.887,-5.836 13.423,63.305 14.543,64.761c1.119,1.456 27.681,-11.888 27.681,-11.888Z" style="fill:#280f25;"/><path d="M62.298,30.985c0.061,0.025 0.122,0.051 0.182,0.079c0.144,0.068 0.283,0.145 0.417,0.23c0.205,0.129 0.399,0.276 0.59,0.427c0.31,0.245 0.61,0.504 0.904,0.77c0.484,0.438 0.952,0.895 1.411,1.359c0.542,0.549 1.073,1.11 1.596,1.677c0.69,0.748 1.369,1.507 2.04,2.273c0.689,0.787 1.371,1.581 2.048,2.38c1.596,1.885 3.165,3.796 4.72,5.719c2.335,2.889 4.637,5.807 6.921,8.741c2.568,3.297 5.111,6.613 7.64,9.942c2.889,3.805 5.759,7.626 8.612,11.46c2.134,2.867 4.259,5.741 6.371,8.625l0.099,0.136c0.039,0.06 0.081,0.118 0.117,0.18c0.072,0.124 0.132,0.256 0.177,0.393c0.091,0.275 0.126,0.57 0.101,0.861c-0.019,0.218 -0.07,0.434 -0.153,0.637c-0.082,0.203 -0.195,0.392 -0.334,0.56c-0.138,0.167 -0.301,0.312 -0.482,0.428c-0.06,0.039 -0.124,0.071 -0.186,0.106c-0.383,0.192 -0.766,0.383 -1.15,0.574c-2.055,1.02 -4.115,2.029 -6.181,3.026c-1.936,0.935 -3.877,1.859 -5.824,2.767c-1.68,0.783 -3.366,1.555 -5.06,2.306c-1.386,0.614 -2.777,1.215 -4.181,1.784c-0.504,0.204 -1.009,0.403 -1.517,0.595c-0.379,0.144 -0.759,0.284 -1.141,0.417c-0.275,0.095 -0.55,0.187 -0.827,0.274c-0.19,0.059 -0.38,0.116 -0.572,0.169c-0.148,0.042 -0.298,0.081 -0.448,0.116c-0.114,0.028 -0.23,0.053 -0.345,0.076c-0.485,0.096 -0.987,0.149 -1.474,0.06c-0.068,-0.012 -0.136,-0.027 -0.202,-0.045c-0.105,-0.029 -0.208,-0.064 -0.308,-0.106c-0.12,-0.052 -0.237,-0.113 -0.348,-0.185c-0.132,-0.087 -0.255,-0.187 -0.367,-0.301c-0.107,-0.109 -0.201,-0.23 -0.285,-0.36c-0.127,-0.196 -0.225,-0.412 -0.316,-0.628c-0.094,-0.223 -0.18,-0.449 -0.265,-0.676c-0.148,-0.397 -0.289,-0.797 -0.428,-1.198c-0.16,-0.461 -0.316,-0.923 -0.471,-1.386c-0.517,-1.549 -1.016,-3.105 -1.508,-4.663c-0.569,-1.8 -1.126,-3.604 -1.677,-5.411c-1.012,-3.324 -1.999,-6.656 -2.963,-9.996c-1.049,-3.637 -2.071,-7.283 -3.056,-10.941c-0.832,-3.087 -1.638,-6.182 -2.402,-9.289c-0.666,-2.706 -1.302,-5.421 -1.878,-8.151c-0.232,-1.102 -0.454,-2.206 -0.66,-3.314c-0.168,-0.903 -0.326,-1.808 -0.467,-2.717c-0.113,-0.723 -0.216,-1.449 -0.301,-2.176c-0.063,-0.533 -0.116,-1.067 -0.155,-1.602c-0.028,-0.378 -0.048,-0.757 -0.058,-1.137c-0.006,-0.255 -0.007,-0.51 -0.001,-0.765c0.004,-0.181 0.012,-0.362 0.024,-0.543c0.008,-0.118 0.018,-0.235 0.031,-0.351c0.073,-0.694 0.23,-1.398 0.582,-2.005c0.046,-0.08 0.095,-0.157 0.147,-0.232c0.067,-0.096 0.14,-0.189 0.217,-0.277c0.113,-0.127 0.237,-0.245 0.37,-0.35c0.162,-0.127 0.337,-0.235 0.522,-0.32c0.27,-0.126 0.559,-0.202 0.852,-0.228c0.265,-0.024 0.531,-0.005 0.79,0.049c0.124,0.026 0.246,0.062 0.366,0.102c0.048,0.018 0.096,0.036 0.144,0.055ZM62.309,36.248c0.044,0.741 0.121,1.479 0.215,2.215c0.095,0.742 0.207,1.482 0.328,2.22c0.14,0.845 0.292,1.687 0.453,2.528c0.189,0.986 0.389,1.969 0.598,2.951c0.469,2.203 0.977,4.397 1.507,6.584c0.646,2.662 1.324,5.315 2.024,7.962c0.931,3.522 1.9,7.033 2.895,10.535c1.009,3.548 2.045,7.086 3.108,10.616c0.82,2.724 1.656,5.444 2.518,8.154c0.32,1.009 0.645,2.016 0.976,3.021c0.294,0.894 0.593,1.786 0.908,2.673l0.024,0.069c0.224,-0.066 0.446,-0.138 0.667,-0.212c0.296,-0.1 0.591,-0.204 0.884,-0.312c0.712,-0.262 1.419,-0.542 2.122,-0.829c0.877,-0.359 1.75,-0.73 2.62,-1.108c0.908,-0.395 1.813,-0.798 2.716,-1.206c2.1,-0.949 4.189,-1.924 6.272,-2.914c2.606,-1.238 5.202,-2.499 7.791,-3.776l0.19,-0.094c-1.985,-2.696 -3.978,-5.386 -5.979,-8.069c-2.081,-2.791 -4.172,-5.575 -6.272,-8.35c-1.9,-2.51 -3.808,-5.012 -5.727,-7.506c-1.725,-2.24 -3.458,-4.474 -5.204,-6.696c-1.602,-2.039 -3.214,-4.069 -4.843,-6.084c-1.348,-1.667 -2.707,-3.325 -4.085,-4.965c-1.18,-1.403 -2.373,-2.794 -3.595,-4.157c-0.511,-0.57 -1.027,-1.134 -1.552,-1.69c-0.501,-0.53 -1.009,-1.053 -1.532,-1.559l-0.029,-0.028c0.001,0.009 0.001,0.018 0.002,0.027Z" style="fill:#280f25;fill-rule:nonzero;"/><path d="M152.45,209.401c0,0 23.517,49.687 30.597,56.543c7.08,6.855 -5.306,-62.876 -3.917,-64.103c1.464,-1.293 -26.68,7.56 -26.68,7.56Z" style="fill:#280f25;"/><path d="M180.016,199.819c0.048,0.025 0.096,0.048 0.144,0.074c0.061,0.034 0.189,0.128 0.226,0.153l0.004,0.003c0.092,0.075 0.092,0.075 0.179,0.156l0.004,0.003c0.088,0.092 0.088,0.092 0.17,0.19l0.003,0.004c0.086,0.117 0.086,0.117 0.164,0.24l0.002,0.004c0.073,0.137 0.073,0.136 0.135,0.278l0.002,0.004c0.055,0.158 0.055,0.158 0.098,0.32l0.001,0.004c0.029,0.156 0.029,0.156 0.047,0.314l0,0.004c0.006,0.144 0.006,0.144 0.002,0.288l0,0.005c-0.014,0.146 -0.014,0.146 -0.037,0.291l-0.001,0.005c-0.026,0.115 -0.026,0.115 -0.059,0.23l-0.001,0.005l-0.063,0.172c0,0.064 0.001,0.128 0.002,0.192c0.009,0.358 0.031,0.716 0.058,1.073c0.029,0.387 0.063,0.773 0.1,1.159c0.096,1.008 0.21,2.014 0.328,3.02c0.149,1.27 0.308,2.539 0.47,3.807c0.189,1.48 0.384,2.959 0.579,4.438c0.349,2.633 0.7,5.265 1.05,7.897c0.464,3.501 0.921,7.002 1.357,10.507c0.339,2.725 0.666,5.452 0.968,8.183c0.205,1.852 0.4,3.706 0.577,5.561c0.163,1.709 0.312,3.42 0.436,5.133c0.079,1.083 0.147,2.166 0.2,3.251c0.052,1.055 0.089,2.111 0.1,3.168c0.007,0.682 0.003,1.365 -0.019,2.047c-0.02,0.596 -0.053,1.192 -0.112,1.785c-0.041,0.401 -0.093,0.802 -0.165,1.199c-0.065,0.354 -0.147,0.706 -0.256,1.05c-0.154,0.481 -0.366,0.948 -0.671,1.35c-0.226,0.298 -0.502,0.556 -0.817,0.748c-0.23,0.139 -0.48,0.243 -0.739,0.306c-0.215,0.053 -0.437,0.076 -0.658,0.071c-0.167,-0.004 -0.332,-0.024 -0.495,-0.06c-0.13,-0.028 -0.259,-0.067 -0.384,-0.113c-0.371,-0.139 -0.709,-0.353 -1.014,-0.608c-0.169,-0.141 -0.327,-0.295 -0.481,-0.453c-0.162,-0.166 -0.319,-0.337 -0.472,-0.512c-0.183,-0.208 -0.361,-0.421 -0.535,-0.637c-0.229,-0.283 -0.45,-0.572 -0.668,-0.864c-0.28,-0.376 -0.552,-0.757 -0.819,-1.143c-0.36,-0.519 -0.712,-1.044 -1.057,-1.574c-0.498,-0.766 -0.984,-1.54 -1.462,-2.32c-0.63,-1.028 -1.246,-2.065 -1.853,-3.108c-0.77,-1.324 -1.526,-2.657 -2.272,-3.996c-0.911,-1.635 -1.808,-3.28 -2.695,-4.93c-1.151,-2.142 -2.285,-4.294 -3.408,-6.453c-1.404,-2.697 -2.789,-5.405 -4.161,-8.119c-1.667,-3.3 -3.316,-6.61 -4.949,-9.929c-1.037,-2.106 -2.067,-4.216 -3.092,-6.329c-1.041,-2.146 -2.076,-4.296 -3.102,-6.451l-0.199,-0.419c-0.055,-0.117 -0.104,-0.214 -0.149,-0.34c-0.071,-0.2 -0.112,-0.413 -0.121,-0.628c-0.009,-0.214 0.014,-0.431 0.068,-0.639c0.072,-0.278 0.2,-0.541 0.373,-0.768c0.129,-0.17 0.284,-0.319 0.456,-0.441c0.115,-0.082 0.238,-0.151 0.366,-0.206c0.064,-0.028 0.13,-0.049 0.196,-0.073c0.614,-0.193 1.229,-0.385 1.844,-0.577c3.376,-1.052 6.755,-2.093 10.139,-3.115c1.494,-0.451 2.989,-0.899 4.486,-1.34c1.3,-0.383 2.601,-0.762 3.904,-1.132c0.867,-0.246 1.735,-0.488 2.604,-0.722c0.726,-0.194 1.453,-0.385 2.183,-0.557c0.362,-0.085 0.724,-0.166 1.089,-0.233c0.174,-0.031 0.347,-0.059 0.522,-0.079c0.256,-0.028 0.514,-0.037 0.768,0.002c0.116,0.017 0.231,0.044 0.342,0.08c0.037,0.012 0.074,0.026 0.11,0.039c0.044,0.018 0.087,0.037 0.13,0.055ZM176.898,204.282c-1.401,0.362 -2.795,0.752 -4.187,1.15c-1.524,0.436 -3.045,0.882 -4.565,1.334c-4.194,1.247 -8.378,2.532 -12.558,3.831l-0.265,0.083c1.355,2.828 2.722,5.65 4.1,8.466c1.349,2.758 2.708,5.511 4.079,8.257c1.325,2.653 2.661,5.301 4.012,7.941c1.326,2.592 2.666,5.177 4.026,7.751c1.048,1.984 2.109,3.961 3.187,5.927c1.083,1.977 2.184,3.943 3.317,5.89c0.879,1.51 1.776,3.009 2.712,4.482c0.41,0.646 0.828,1.287 1.259,1.918c0.371,0.543 0.75,1.079 1.147,1.601c0.006,-0.078 0.011,-0.156 0.016,-0.234c0.037,-0.639 0.052,-1.279 0.054,-1.918c0.001,-0.518 -0.005,-1.035 -0.018,-1.553c-0.032,-1.352 -0.101,-2.702 -0.188,-4.051c-0.105,-1.629 -0.237,-3.255 -0.384,-4.88c-0.151,-1.674 -0.318,-3.347 -0.496,-5.019c-0.425,-3.993 -0.907,-7.978 -1.411,-11.96c-0.664,-5.247 -1.371,-10.488 -2.067,-15.73c-0.088,-0.668 -0.177,-1.337 -0.265,-2.006c-0.271,-2.069 -0.54,-4.139 -0.79,-6.212c-0.106,-0.881 -0.209,-1.762 -0.304,-2.645c-0.088,-0.821 -0.169,-1.644 -0.232,-2.468c-0.059,0.015 -0.119,0.03 -0.179,0.045ZM180.489,203.365l0.02,-0.018l0.005,-0.005c-0.009,0.008 -0.017,0.015 -0.025,0.023ZM177.807,200.284l-0.002,0.001c0.001,0 0.003,-0.002 0.002,-0.001Z" style="fill:#280f25;fill-rule:nonzero;"/><path d="M141.116,86.01c10.923,-19.384 23.93,-37.47 39.394,-54.026c0,0 -5.581,48.691 -11.587,64.235" style="fill:#280f25;"/><path d="M181.898,30.443c0.332,0.442 0.484,0.537 0.592,1.111c0.063,0.341 0.038,0.51 0.005,0.788c-0.027,0.239 -0.055,0.478 -0.084,0.717c-0.095,0.804 -0.192,1.607 -0.29,2.411c-0.508,4.144 -1.048,8.284 -1.617,12.421c-0.723,5.247 -1.493,10.489 -2.331,15.719c-0.364,2.272 -0.742,4.542 -1.136,6.809c-0.408,2.344 -0.834,4.684 -1.286,7.02c-0.389,2.011 -0.796,4.019 -1.232,6.02c-0.361,1.658 -0.741,3.311 -1.15,4.957c-0.368,1.479 -0.76,2.952 -1.192,4.413c-0.412,1.396 -0.861,2.782 -1.384,4.14l-0.323,0.567c-0.416,0.383 -0.501,0.551 -1.056,0.705c-0.204,0.057 -0.418,0.08 -0.628,0.069c-0.21,-0.011 -0.42,-0.058 -0.615,-0.136c-0.195,-0.078 -0.38,-0.19 -0.541,-0.327c-0.327,-0.278 -0.559,-0.658 -0.662,-1.085c-0.052,-0.211 -0.071,-0.433 -0.057,-0.652c0.015,-0.218 0.09,-0.428 0.141,-0.64c0.008,-0.031 0.023,-0.06 0.034,-0.089c0.034,-0.087 0.067,-0.175 0.099,-0.262c0.045,-0.12 0.089,-0.241 0.133,-0.361c0.534,-1.483 0.99,-2.994 1.41,-4.513c0.461,-1.665 0.877,-3.342 1.269,-5.024c0.439,-1.888 0.847,-3.783 1.234,-5.683c0.46,-2.259 0.892,-4.523 1.304,-6.792c0.508,-2.798 0.986,-5.602 1.443,-8.41c0.416,-2.554 0.814,-5.112 1.198,-7.671c0.918,-6.115 1.757,-12.242 2.536,-18.375l0.032,-0.256c-1.815,2.035 -3.599,4.099 -5.353,6.191c-5.996,7.15 -11.631,14.624 -16.886,22.372c-2.804,4.135 -5.5,8.347 -8.088,12.629c-1.071,1.77 -2.122,3.553 -3.156,5.346c-0.43,0.748 -0.857,1.497 -1.282,2.249l-0.127,0.226c-0.134,0.17 -0.245,0.364 -0.402,0.511c-0.32,0.298 -0.72,0.484 -1.144,0.533c-0.209,0.024 -0.424,0.014 -0.629,-0.031c-0.416,-0.089 -0.791,-0.313 -1.073,-0.64c-0.139,-0.162 -0.254,-0.349 -0.338,-0.547c-0.083,-0.199 -0.137,-0.415 -0.157,-0.632c-0.02,-0.217 -0.006,-0.441 0.04,-0.654c0.078,-0.367 0.199,-0.555 0.36,-0.841c0.215,-0.381 0.431,-0.762 0.648,-1.142c0.651,-1.14 1.308,-2.276 1.973,-3.408c2.44,-4.15 4.978,-8.239 7.614,-12.26c5.109,-7.791 10.59,-15.323 16.427,-22.547c2.67,-3.305 5.415,-6.546 8.231,-9.719c1.477,-1.664 2.974,-3.309 4.489,-4.936l0.182,-0.194c0.167,-0.132 0.317,-0.291 0.501,-0.394c0.372,-0.209 0.797,-0.293 1.214,-0.24c0.205,0.026 0.397,0.118 0.596,0.177c0.171,0.12 0.343,0.24 0.514,0.36Z" style="fill:#280f25;fill-rule:nonzero;"/><path d="M91.321,193.641c0,0 -9.423,61.958 -6.604,66.014c2.819,4.056 28.41,-41.73 34.518,-52.075" style="fill:#280f25;"/><path d="M92.746,192.136c0.123,0.175 0.275,0.331 0.371,0.524c0.095,0.192 0.162,0.404 0.195,0.619c0.055,0.359 0.018,0.536 -0.026,0.832c-0.026,0.172 -0.052,0.345 -0.078,0.517c-0.042,0.279 -0.084,0.557 -0.125,0.836c-0.09,0.601 -0.179,1.203 -0.268,1.804c-0.945,6.417 -1.852,12.839 -2.71,19.268c-0.426,3.19 -0.84,6.382 -1.237,9.576c-0.324,2.603 -0.637,5.208 -0.934,7.813c-0.257,2.255 -0.502,4.51 -0.729,6.767c-0.217,2.156 -0.418,4.313 -0.589,6.472c-0.137,1.734 -0.256,3.47 -0.334,5.207c-0.032,0.717 -0.056,1.435 -0.068,2.153c-0.011,0.705 -0.011,1.409 0.015,2.113l0.001,0.02c0.394,-0.427 0.771,-0.871 1.139,-1.322c0.418,-0.513 0.824,-1.037 1.223,-1.566c0.919,-1.219 1.801,-2.468 2.666,-3.729c1.079,-1.572 2.13,-3.165 3.166,-4.768c1.151,-1.782 2.282,-3.577 3.401,-5.379c1.843,-2.968 3.653,-5.957 5.444,-8.958c2.457,-4.114 4.877,-8.251 7.282,-12.398c1.592,-2.744 3.176,-5.493 4.763,-8.24c0.343,-0.592 0.686,-1.184 1.029,-1.776c0.342,-0.589 0.685,-1.176 1.03,-1.763l0.147,-0.25c0.36,-0.44 0.421,-0.618 0.951,-0.853c0.194,-0.086 0.404,-0.14 0.614,-0.16c0.424,-0.04 0.848,0.06 1.21,0.286c0.179,0.112 0.342,0.255 0.478,0.42c0.136,0.164 0.248,0.353 0.328,0.554c0.079,0.201 0.129,0.418 0.145,0.635c0.015,0.217 -0.002,0.441 -0.052,0.654c-0.088,0.372 -0.218,0.563 -0.39,0.855c-0.104,0.177 -0.208,0.354 -0.311,0.532c-0.236,0.403 -0.471,0.807 -0.706,1.21c-0.199,0.343 -0.398,0.686 -0.597,1.029c-1.149,1.987 -2.295,3.974 -3.443,5.961c-3.908,6.759 -7.84,13.503 -11.892,20.172c-1.163,1.914 -2.337,3.823 -3.525,5.721c-1.171,1.869 -2.356,3.73 -3.566,5.573c-0.734,1.12 -1.477,2.233 -2.234,3.337c-0.68,0.99 -1.371,1.973 -2.079,2.942c-0.47,0.642 -0.948,1.279 -1.439,1.904c-0.449,0.573 -0.909,1.138 -1.387,1.686c-0.322,0.368 -0.652,0.728 -0.995,1.074c-0.305,0.307 -0.622,0.603 -0.956,0.875c-0.426,0.346 -0.886,0.657 -1.391,0.859c-0.347,0.139 -0.715,0.223 -1.086,0.228c-0.273,0.004 -0.547,-0.035 -0.807,-0.119c-0.188,-0.06 -0.369,-0.142 -0.538,-0.246c-0.133,-0.081 -0.258,-0.176 -0.374,-0.281c-0.098,-0.088 -0.189,-0.184 -0.273,-0.287c-0.055,-0.067 -0.107,-0.138 -0.156,-0.211c-0.313,-0.466 -0.487,-1.016 -0.601,-1.57c-0.02,-0.096 -0.038,-0.192 -0.054,-0.289c-0.025,-0.149 -0.047,-0.298 -0.066,-0.448c-0.023,-0.184 -0.042,-0.368 -0.059,-0.553c-0.023,-0.255 -0.04,-0.511 -0.053,-0.767c-0.017,-0.343 -0.028,-0.686 -0.034,-1.029c-0.009,-0.486 -0.009,-0.973 -0.002,-1.46c0.008,-0.665 0.027,-1.33 0.054,-1.995c0.034,-0.879 0.081,-1.758 0.135,-2.636c0.072,-1.178 0.159,-2.355 0.253,-3.532c0.122,-1.515 0.258,-3.029 0.404,-4.543c0.192,-1.993 0.399,-3.985 0.617,-5.975c0.244,-2.221 0.5,-4.442 0.767,-6.66c0.36,-3 0.736,-5.998 1.125,-8.995c0.515,-3.969 1.051,-7.936 1.603,-11.901c0.324,-2.332 0.655,-4.664 0.99,-6.995c0.359,-2.488 0.723,-4.976 1.096,-7.463l0.079,-0.521l0.027,-0.178l0.194,-0.627c0.124,-0.178 0.222,-0.379 0.371,-0.536c0.148,-0.157 0.322,-0.291 0.51,-0.394c0.379,-0.207 0.81,-0.285 1.23,-0.223c0.208,0.03 0.4,0.128 0.6,0.192c0.17,0.125 0.34,0.251 0.511,0.376Z" style="fill:#280f25;fill-rule:nonzero;"/><path d="M60.572,125.765c0,0 3.12,-21.686 28.419,-35.896c17.585,-9.878 92.76,-16.99 114.086,59.441c23.418,83.93 -155.231,85.559 -142.505,-23.545Z" style="fill:#b4dfc3;"/><path d="M66.025,114.908c1.692,3.969 15.676,88.267 110.751,86.549c29.048,-0.525 -51.243,10.415 -28.013,9.617l-37.847,-6.701l-25.493,-14.624l-21.416,-25.439l-4.431,-30.713l6.449,-18.689Z" style="fill:#dffaf1;"/><path d="M154.305,87.233c0.764,0.303 1.525,0.615 2.281,0.939c1.579,0.677 3.139,1.402 4.674,2.176c3.889,1.96 7.628,4.233 11.163,6.806c3.486,2.538 6.772,5.367 9.817,8.453c2.974,3.014 5.717,6.27 8.212,9.722c2.997,4.147 5.635,8.573 7.921,13.189c2.248,4.54 4.156,9.261 5.761,14.093c0.488,1.469 0.948,2.949 1.381,4.438c0.207,0.71 0.409,1.422 0.6,2.138c0.202,0.759 0.391,1.522 0.567,2.289c0.519,2.274 0.916,4.581 1.163,6.908c0.24,2.255 0.339,4.529 0.276,6.802c-0.06,2.151 -0.266,4.301 -0.631,6.424c-0.444,2.591 -1.126,5.142 -2.043,7.603c-0.941,2.521 -2.128,4.945 -3.532,7.228c-0.822,1.338 -1.718,2.628 -2.678,3.864c-0.712,0.917 -1.458,1.804 -2.237,2.661c-0.598,0.658 -1.214,1.299 -1.847,1.921c-3.967,3.9 -8.564,7.067 -13.437,9.589c-0.704,0.365 -1.413,0.716 -2.129,1.054c-0.986,0.466 -1.983,0.908 -2.988,1.327c-1.293,0.538 -2.6,1.037 -3.918,1.499c-3.787,1.329 -7.665,2.355 -11.585,3.119c-4.693,0.914 -9.447,1.452 -14.206,1.651c-3.929,0.165 -7.864,0.101 -11.779,-0.185c-3.159,-0.231 -6.307,-0.604 -9.43,-1.121c-6.772,-1.122 -13.438,-2.911 -19.844,-5.403c-1.067,-0.416 -2.126,-0.85 -3.178,-1.305c-6.799,-2.939 -13.27,-6.714 -19.096,-11.376c-0.893,-0.715 -1.77,-1.449 -2.631,-2.205c-1.107,-0.971 -2.186,-1.976 -3.235,-3.015c-1.284,-1.272 -2.522,-2.594 -3.708,-3.965c-1.573,-1.816 -3.055,-3.718 -4.435,-5.697c-1.882,-2.7 -3.573,-5.546 -5.05,-8.51c-1.361,-2.73 -2.539,-5.56 -3.529,-8.461c-0.967,-2.836 -1.753,-5.739 -2.362,-8.685c-1.145,-5.538 -1.659,-11.216 -1.633,-16.896c0.011,-2.532 0.128,-5.065 0.342,-7.591c0.064,-0.761 0.137,-1.521 0.218,-2.28c0.023,-0.219 0.048,-0.438 0.072,-0.657c0.032,-0.274 0.028,-0.274 0.056,-0.459c0.04,-0.259 0.089,-0.517 0.141,-0.774c0.063,-0.315 0.133,-0.628 0.207,-0.941c0.186,-0.782 0.4,-1.557 0.634,-2.326c0.261,-0.855 0.548,-1.701 0.857,-2.539c0.83,-2.245 1.822,-4.428 2.946,-6.535c2.471,-4.63 5.586,-8.886 9.162,-12.664c2.583,-2.729 5.406,-5.209 8.402,-7.433c1.776,-1.318 3.611,-2.546 5.495,-3.687c0.496,-0.3 0.995,-0.594 1.497,-0.882c0.363,-0.209 0.727,-0.416 1.096,-0.612c0.553,-0.295 1.117,-0.568 1.687,-0.825c1.228,-0.555 2.486,-1.034 3.757,-1.464c1.512,-0.511 3.046,-0.95 4.59,-1.336c1.729,-0.431 3.474,-0.795 5.226,-1.103c2.153,-0.378 4.318,-0.67 6.489,-0.888c2.694,-0.269 5.396,-0.423 8.098,-0.467c2.812,-0.046 5.623,0.026 8.425,0.216c6.637,0.451 13.227,1.56 19.626,3.374c1.734,0.492 3.454,1.036 5.155,1.632c0.767,0.269 1.53,0.55 2.29,0.839c0.286,0.11 0.572,0.221 0.857,0.333ZM151.604,92.743c-0.71,-0.272 -1.423,-0.538 -2.14,-0.792c-1.505,-0.533 -3.026,-1.023 -4.559,-1.468c-6.025,-1.752 -12.236,-2.832 -18.494,-3.291c-2.813,-0.207 -5.636,-0.287 -8.46,-0.241c-2.47,0.04 -4.941,0.178 -7.404,0.418c-2.105,0.206 -4.204,0.486 -6.291,0.852c-1.56,0.274 -3.113,0.596 -4.654,0.976c-1.402,0.345 -2.794,0.739 -4.167,1.198c-1.141,0.381 -2.269,0.806 -3.37,1.302c-0.453,0.205 -0.902,0.422 -1.343,0.657c-0.265,0.141 -0.526,0.289 -0.787,0.438c-0.372,0.212 -0.742,0.428 -1.11,0.648c-1.236,0.736 -2.45,1.513 -3.638,2.332c-2.415,1.664 -4.722,3.5 -6.881,5.51c-2.496,2.324 -4.793,4.881 -6.826,7.649c-1.472,2.004 -2.804,4.117 -3.972,6.323c-0.852,1.61 -1.616,3.271 -2.275,4.974c-0.281,0.726 -0.543,1.459 -0.783,2.2c-0.143,0.445 -0.28,0.891 -0.406,1.341c-0.134,0.479 -0.505,2.065 -0.557,2.377c-0.021,0.185 -0.042,0.371 -0.063,0.557c-0.11,1.015 -0.208,2.032 -0.287,3.05c-0.168,2.157 -0.261,4.319 -0.271,6.48c-0.024,5.412 0.479,10.824 1.609,16.091c0.523,2.441 1.181,4.849 1.974,7.206c0.792,2.35 1.719,4.649 2.778,6.88c1.397,2.942 3.023,5.763 4.854,8.432c1.334,1.944 2.776,3.808 4.313,5.582c1.039,1.2 2.121,2.359 3.241,3.477c0.855,0.853 1.732,1.681 2.63,2.485c0.788,0.705 1.591,1.391 2.409,2.058c5.743,4.687 12.183,8.426 18.956,11.291c1.417,0.599 2.848,1.16 4.293,1.683c1.74,0.631 3.499,1.208 5.273,1.731c2.221,0.656 4.467,1.229 6.729,1.721c3.086,0.67 6.205,1.19 9.343,1.559c4.01,0.471 8.05,0.698 12.094,0.671c3.5,-0.022 7.003,-0.236 10.487,-0.653c2.661,-0.319 5.311,-0.758 7.936,-1.326c2.132,-0.461 4.249,-1.009 6.34,-1.65c1.572,-0.482 3.13,-1.016 4.669,-1.608c1.249,-0.48 2.486,-0.998 3.706,-1.556c0.895,-0.409 1.782,-0.84 2.658,-1.293c0.689,-0.357 1.371,-0.727 2.046,-1.112c3.888,-2.218 7.543,-4.923 10.693,-8.185c0.411,-0.425 0.814,-0.86 1.206,-1.304c0.545,-0.616 1.07,-1.249 1.575,-1.899c0.679,-0.874 1.32,-1.779 1.919,-2.712c0.847,-1.32 1.609,-2.698 2.276,-4.123c0.978,-2.091 1.748,-4.283 2.299,-6.53c0.398,-1.625 0.683,-3.279 0.859,-4.942c0.194,-1.831 0.257,-3.675 0.204,-5.512c-0.09,-3.124 -0.512,-6.227 -1.18,-9.263c-0.169,-0.77 -0.354,-1.535 -0.554,-2.296c-0.139,-0.53 -0.286,-1.058 -0.437,-1.586c-0.184,-0.646 -0.373,-1.29 -0.568,-1.933c-1.053,-3.475 -2.263,-6.896 -3.648,-10.239c-1.669,-4.028 -3.592,-7.942 -5.789,-11.682c-2.308,-3.929 -4.919,-7.666 -7.829,-11.134c-2.221,-2.649 -4.615,-5.141 -7.165,-7.448c-2.621,-2.373 -5.406,-4.55 -8.327,-6.514c-2.931,-1.971 -5.998,-3.727 -9.166,-5.263c-1.177,-0.571 -2.368,-1.112 -3.571,-1.622c-0.618,-0.262 -1.24,-0.516 -1.864,-0.763c-0.178,-0.07 -0.355,-0.139 -0.533,-0.209Z" style="fill:#b4dfc3;fill-rule:nonzero;"/><path d="M116.764,107.127c5.327,2.084 7.78,8.756 5.474,14.889c-2.306,6.134 -8.502,9.422 -13.829,7.338c-5.326,-2.085 -7.779,-8.756 -5.473,-14.89c2.306,-6.134 8.502,-9.422 13.828,-7.337Z" style="fill:#280f25;"/><path d="M188.764,151.065c4.867,1.904 7.147,7.897 5.088,13.375c-2.059,5.477 -7.682,8.378 -12.549,6.474c-4.867,-1.905 -7.147,-7.898 -5.088,-13.375c2.059,-5.478 7.682,-8.379 12.549,-6.474Z" style="fill:#280f25;"/><path d="M147.473,145.947c4.172,2.182 6.363,6.364 4.889,9.334c-1.474,2.97 -6.058,3.609 -10.23,1.427c-4.172,-2.181 -6.362,-6.364 -4.888,-9.334c1.473,-2.969 6.057,-3.609 10.229,-1.427Z" style="fill:#280f25;"/><path d="M118.919,113.069c1.251,0.489 1.867,1.947 1.376,3.254c-0.491,1.307 -1.906,1.971 -3.156,1.482c-1.251,-0.49 -1.868,-1.948 -1.377,-3.255c0.492,-1.307 1.906,-1.971 3.157,-1.481Z" style="fill:#dffaf1;"/><path d="M191.054,156.8c1.251,0.489 1.868,1.948 1.376,3.255c-0.491,1.306 -1.905,1.97 -3.156,1.481c-1.251,-0.49 -1.868,-1.948 -1.376,-3.255c0.491,-1.307 1.905,-1.971 3.156,-1.481Z" style="fill:#dffaf1;"/><path d="M121.832,192.641c1.092,0.529 2.191,1.044 3.297,1.541c1.256,0.564 2.521,1.106 3.793,1.628l0.006,0.003c0.18,0.11 0.379,0.192 0.539,0.331c0.325,0.28 0.554,0.662 0.655,1.089c0.05,0.212 0.068,0.434 0.053,0.652c-0.016,0.218 -0.066,0.437 -0.145,0.64c-0.08,0.203 -0.192,0.396 -0.328,0.565c-0.275,0.342 -0.646,0.586 -1.059,0.698c-0.204,0.055 -0.419,0.077 -0.629,0.065c-0.36,-0.022 -0.56,-0.118 -0.855,-0.239c-0.077,-0.032 -0.154,-0.064 -0.231,-0.096c-0.54,-0.224 -1.078,-0.451 -1.615,-0.682c-1.815,-0.781 -3.611,-1.606 -5.389,-2.471l-0.517,-0.366c-0.333,-0.45 -0.487,-0.547 -0.588,-1.131c-0.037,-0.214 -0.041,-0.437 -0.012,-0.654c0.058,-0.439 0.248,-0.85 0.543,-1.173c0.146,-0.16 0.318,-0.298 0.503,-0.404c0.185,-0.106 0.389,-0.183 0.596,-0.225c0.563,-0.114 0.707,0 1.234,0.157c0.05,0.024 0.099,0.048 0.149,0.072ZM148.383,202.06c0.42,0.365 0.591,0.425 0.81,0.97c0.081,0.2 0.132,0.417 0.148,0.634c0.034,0.44 -0.067,0.882 -0.289,1.263c-0.11,0.188 -0.25,0.361 -0.409,0.505c-0.16,0.145 -0.344,0.265 -0.538,0.352c-0.194,0.087 -0.403,0.143 -0.613,0.164c-0.357,0.035 -0.562,-0.025 -0.868,-0.096c-0.081,-0.019 -0.161,-0.037 -0.242,-0.056c-0.402,-0.095 -0.805,-0.191 -1.206,-0.29c-1.45,-0.356 -2.893,-0.737 -4.328,-1.145c-0.48,-0.136 -0.959,-0.275 -1.436,-0.417c-0.08,-0.023 -0.16,-0.047 -0.239,-0.071c-0.07,-0.021 -0.143,-0.034 -0.21,-0.063c-0.193,-0.084 -0.395,-0.155 -0.567,-0.277c-0.172,-0.122 -0.328,-0.275 -0.454,-0.447c-0.127,-0.172 -0.228,-0.368 -0.297,-0.573c-0.068,-0.206 -0.106,-0.425 -0.11,-0.643c-0.003,-0.219 0.026,-0.441 0.088,-0.651c0.124,-0.424 0.374,-0.8 0.714,-1.072c0.167,-0.134 0.358,-0.242 0.556,-0.317c0.199,-0.074 0.411,-0.117 0.621,-0.124c0.359,-0.013 0.539,0.055 0.831,0.142c0.154,0.046 0.308,0.092 0.463,0.137c0.155,0.046 0.309,0.091 0.464,0.136c1.158,0.335 2.321,0.655 3.489,0.957c1.01,0.26 2.023,0.507 3.039,0.742c0.195,0.08 0.389,0.16 0.583,0.24ZM104.617,182.416c0.139,0.1 0.278,0.199 0.417,0.298c0.13,0.092 0.26,0.184 0.391,0.276c0.98,0.69 1.971,1.365 2.971,2.024c0.938,0.617 1.885,1.22 2.84,1.81l0.002,0.001c0.16,0.139 0.343,0.253 0.48,0.416c0.278,0.331 0.446,0.746 0.48,1.186c0.017,0.217 0.001,0.441 -0.047,0.654c-0.049,0.213 -0.131,0.421 -0.24,0.61c-0.222,0.381 -0.553,0.681 -0.945,0.858c-0.194,0.087 -0.404,0.144 -0.613,0.165c-0.21,0.021 -0.425,0.008 -0.629,-0.039c-0.351,-0.081 -0.53,-0.206 -0.8,-0.374c-0.071,-0.043 -0.141,-0.087 -0.212,-0.131c-0.492,-0.307 -0.983,-0.617 -1.471,-0.931c-1.113,-0.716 -2.215,-1.451 -3.304,-2.205c-0.543,-0.375 -1.082,-0.756 -1.619,-1.141l-0.032,-0.022c-0.394,-0.394 -0.561,-0.466 -0.744,-1.026c-0.136,-0.416 -0.142,-0.869 -0.015,-1.293c0.063,-0.209 0.158,-0.412 0.28,-0.592c0.121,-0.18 0.272,-0.342 0.44,-0.475c0.169,-0.134 0.36,-0.241 0.559,-0.314c0.542,-0.199 0.7,-0.11 1.246,-0.036c0.188,0.094 0.377,0.187 0.565,0.281ZM89.611,169.332c0.093,0.098 0.185,0.196 0.278,0.294c0.106,0.113 0.213,0.225 0.32,0.337c0.268,0.28 0.538,0.559 0.809,0.836c0.545,0.556 1.096,1.105 1.653,1.647c0.841,0.818 1.697,1.619 2.564,2.406l0.075,0.068c0.133,0.166 0.294,0.313 0.401,0.499c0.215,0.378 0.309,0.818 0.268,1.259c-0.02,0.218 -0.074,0.435 -0.158,0.636c-0.085,0.202 -0.2,0.392 -0.34,0.558c-0.139,0.166 -0.306,0.311 -0.487,0.424c-0.367,0.23 -0.793,0.335 -1.217,0.299c-0.209,-0.018 -0.417,-0.07 -0.61,-0.154c-0.193,-0.085 -0.357,-0.225 -0.532,-0.344c-0.029,-0.02 -0.052,-0.047 -0.078,-0.071c-0.06,-0.055 -0.121,-0.109 -0.181,-0.164c-0.06,-0.055 -0.12,-0.11 -0.18,-0.165c-0.42,-0.384 -0.837,-0.772 -1.251,-1.163c-1.454,-1.374 -2.868,-2.792 -4.241,-4.253l-0.36,-0.532c-0.16,-0.545 -0.272,-0.692 -0.171,-1.278c0.075,-0.437 0.281,-0.84 0.588,-1.151c0.152,-0.154 0.328,-0.284 0.518,-0.383c0.189,-0.098 0.395,-0.166 0.603,-0.2c0.567,-0.09 0.706,0.029 1.227,0.208c0.167,0.129 0.335,0.258 0.502,0.387ZM77.301,152.817c0.133,0.167 0.269,0.332 0.4,0.501c0.014,0.018 0.022,0.04 0.034,0.06c0.037,0.065 0.074,0.13 0.112,0.196c0.075,0.13 0.15,0.26 0.225,0.39c0.19,0.325 0.381,0.648 0.574,0.97c0.428,0.711 0.866,1.415 1.315,2.111c0.452,0.699 0.914,1.391 1.385,2.076c0.216,0.312 0.433,0.622 0.653,0.931l0.009,0.014c0.096,0.192 0.222,0.371 0.288,0.578c0.133,0.417 0.134,0.87 0.004,1.293c-0.065,0.209 -0.162,0.41 -0.285,0.589c-0.249,0.363 -0.601,0.636 -1.006,0.781c-0.2,0.071 -0.412,0.11 -0.623,0.114c-0.21,0.004 -0.423,-0.027 -0.623,-0.09c-0.2,-0.064 -0.392,-0.161 -0.563,-0.286c-0.29,-0.213 -0.412,-0.405 -0.598,-0.668c-0.046,-0.065 -0.092,-0.13 -0.137,-0.195c-0.32,-0.455 -0.636,-0.914 -0.947,-1.376c-0.752,-1.118 -1.479,-2.255 -2.178,-3.41c-0.369,-0.609 -0.729,-1.224 -1.083,-1.843l-0.038,-0.066c-0.2,-0.53 -0.322,-0.667 -0.265,-1.259c0.021,-0.218 0.075,-0.435 0.16,-0.636c0.171,-0.408 0.461,-0.751 0.829,-0.98c0.181,-0.113 0.382,-0.198 0.587,-0.248c0.56,-0.136 0.707,-0.028 1.24,0.108c0.177,0.115 0.354,0.23 0.531,0.345ZM69.654,133.606c0.137,0.164 0.301,0.306 0.412,0.49c0.178,0.297 0.208,0.453 0.271,0.718c0.008,0.037 0.017,0.073 0.026,0.11c0.026,0.109 0.052,0.218 0.079,0.327c0.045,0.182 0.09,0.363 0.136,0.544c0.286,1.123 0.599,2.238 0.941,3.342c0.321,1.034 0.666,2.058 1.034,3.074l0.038,0.105l0.033,0.091l0.127,0.639c-0.06,0.57 -0.014,0.751 -0.329,1.253c-0.116,0.184 -0.261,0.352 -0.425,0.491c-0.164,0.139 -0.351,0.253 -0.548,0.333c-0.197,0.081 -0.408,0.129 -0.618,0.143c-0.425,0.027 -0.846,-0.085 -1.201,-0.322c-0.176,-0.118 -0.335,-0.266 -0.467,-0.434c-0.131,-0.168 -0.211,-0.373 -0.312,-0.564c-0.015,-0.029 -0.023,-0.062 -0.034,-0.094c-0.041,-0.111 -0.081,-0.223 -0.121,-0.335c-0.201,-0.558 -0.394,-1.119 -0.581,-1.682c-0.487,-1.467 -0.927,-2.951 -1.318,-4.45c-0.141,-0.539 -0.275,-1.08 -0.403,-1.622l-0.003,-0.012c-0.045,-0.57 -0.123,-0.738 0.094,-1.292c0.08,-0.203 0.192,-0.396 0.328,-0.564c0.275,-0.342 0.647,-0.586 1.06,-0.697c0.204,-0.055 0.419,-0.077 0.629,-0.064c0.209,0.013 0.409,0.094 0.614,0.141c0.179,0.11 0.359,0.221 0.538,0.331Z" style="fill:#b4dfc3;fill-rule:nonzero;"/><path d="M111.487,195.406c0.98,0.518 1.963,1.033 2.948,1.543c1.301,0.674 2.606,1.34 3.913,2.002l0.512,0.374c0.326,0.456 0.478,0.556 0.571,1.141c0.033,0.215 0.034,0.438 0.002,0.655c-0.032,0.216 -0.097,0.43 -0.192,0.627c-0.094,0.196 -0.22,0.38 -0.368,0.537c-0.3,0.319 -0.687,0.533 -1.108,0.611c-0.207,0.039 -0.423,0.043 -0.63,0.014c-0.391,-0.056 -0.668,-0.224 -1.006,-0.395c-0.533,-0.27 -1.066,-0.542 -1.598,-0.814c-1.277,-0.653 -2.551,-1.312 -3.822,-1.979c-0.367,-0.193 -0.733,-0.386 -1.099,-0.58c-0.3,-0.159 -0.527,-0.261 -0.786,-0.533c-0.146,-0.154 -0.27,-0.334 -0.363,-0.529c-0.093,-0.194 -0.157,-0.406 -0.187,-0.622c-0.03,-0.216 -0.027,-0.439 0.009,-0.655c0.035,-0.216 0.105,-0.429 0.203,-0.623c0.198,-0.395 0.511,-0.716 0.893,-0.917c0.382,-0.202 0.813,-0.274 1.233,-0.206c0.207,0.034 0.398,0.134 0.597,0.201c0.093,0.049 0.185,0.098 0.278,0.148ZM94.064,185.04c0.146,0.102 0.292,0.205 0.439,0.306c0.16,0.111 0.32,0.221 0.48,0.331c1.884,1.289 3.808,2.514 5.758,3.693l0.484,0.412c0.293,0.48 0.438,0.59 0.489,1.182c0.019,0.217 0.005,0.44 -0.042,0.654c-0.095,0.432 -0.319,0.825 -0.64,1.121c-0.158,0.146 -0.341,0.268 -0.534,0.357c-0.193,0.089 -0.402,0.147 -0.612,0.169c-0.209,0.023 -0.424,0.012 -0.629,-0.034c-0.205,-0.045 -0.393,-0.15 -0.585,-0.234c-0.047,-0.02 -0.088,-0.053 -0.131,-0.079c-0.096,-0.058 -0.193,-0.117 -0.289,-0.175c-0.475,-0.289 -0.947,-0.581 -1.419,-0.876c-1.714,-1.072 -3.405,-2.183 -5.063,-3.346l-0.456,-0.445c-0.261,-0.499 -0.399,-0.62 -0.412,-1.214c-0.01,-0.442 0.115,-0.878 0.357,-1.245c0.12,-0.182 0.269,-0.346 0.436,-0.481c0.167,-0.135 0.357,-0.244 0.555,-0.32c0.54,-0.206 0.699,-0.118 1.246,-0.05c0.189,0.091 0.379,0.183 0.568,0.274ZM79.434,171.058c0.15,0.15 0.301,0.3 0.451,0.45c0.028,0.029 0.047,0.065 0.07,0.097c0.069,0.094 0.138,0.188 0.207,0.282c0.092,0.124 0.185,0.249 0.278,0.372c0.725,0.96 1.481,1.895 2.269,2.799c0.725,0.832 1.476,1.637 2.25,2.419l0.013,0.014c0.125,0.173 0.278,0.328 0.374,0.52c0.197,0.389 0.268,0.835 0.204,1.273c-0.031,0.217 -0.096,0.431 -0.19,0.628c-0.19,0.398 -0.497,0.726 -0.874,0.936c-0.187,0.103 -0.391,0.177 -0.599,0.217c-0.207,0.039 -0.423,0.044 -0.631,0.015c-0.208,-0.029 -0.413,-0.093 -0.601,-0.188c-0.188,-0.095 -0.343,-0.247 -0.513,-0.373c-0.006,-0.004 -0.011,-0.011 -0.017,-0.016c-0.03,-0.031 -0.06,-0.061 -0.09,-0.092c-0.06,-0.061 -0.12,-0.122 -0.18,-0.183c-0.386,-0.395 -0.767,-0.796 -1.142,-1.203c-0.852,-0.925 -1.674,-1.881 -2.463,-2.866c-0.549,-0.684 -1.08,-1.383 -1.597,-2.094l-0.004,-0.006c-0.256,-0.503 -0.392,-0.625 -0.398,-1.219c-0.002,-0.219 0.029,-0.44 0.092,-0.65c0.127,-0.424 0.38,-0.797 0.721,-1.066c0.169,-0.133 0.36,-0.24 0.559,-0.313c0.543,-0.199 0.701,-0.109 1.246,-0.035c0.188,0.094 0.377,0.188 0.565,0.282ZM69.757,152.759c0.161,0.138 0.345,0.252 0.482,0.415c0.238,0.282 0.306,0.486 0.43,0.788c0.076,0.187 0.153,0.373 0.23,0.56c0.076,0.184 0.153,0.369 0.229,0.553c0.411,0.981 0.828,1.958 1.258,2.93c0.463,1.045 0.94,2.083 1.434,3.113l0.029,0.061c0.062,0.207 0.157,0.406 0.188,0.622c0.062,0.436 -0.011,0.884 -0.209,1.279c-0.098,0.195 -0.226,0.376 -0.377,0.531c-0.15,0.155 -0.326,0.288 -0.514,0.388c-0.188,0.1 -0.394,0.17 -0.602,0.205c-0.208,0.035 -0.423,0.036 -0.631,0.003c-0.419,-0.067 -0.806,-0.271 -1.103,-0.582c-0.147,-0.154 -0.246,-0.35 -0.365,-0.528c-0.013,-0.02 -0.021,-0.042 -0.031,-0.063c-0.02,-0.042 -0.04,-0.084 -0.06,-0.126c-0.04,-0.084 -0.08,-0.168 -0.12,-0.252c-0.161,-0.339 -0.32,-0.678 -0.478,-1.019c-0.655,-1.416 -1.281,-2.847 -1.888,-4.287c-0.198,-0.469 -0.393,-0.94 -0.587,-1.412c-0.039,-0.095 -0.079,-0.191 -0.118,-0.286c-0.123,-0.302 -0.219,-0.503 -0.249,-0.875c-0.018,-0.217 -0.002,-0.44 0.046,-0.654c0.048,-0.213 0.129,-0.421 0.238,-0.61c0.22,-0.382 0.55,-0.684 0.942,-0.862c0.528,-0.239 0.692,-0.162 1.242,-0.129c0.195,0.079 0.389,0.158 0.584,0.237Z" style="fill:#b4dfc3;fill-rule:nonzero;"/></g></svg>