<?xml version="1.0" standalone="no"?><!DOCTYPE svg PUBLIC "-//W3C//DTD SVG 1.1//EN" "http://www.w3.org/Graphics/SVG/1.1/DTD/svg11.dtd"><svg width="100%" height="100%" viewBox="0 0 485 519" version="1.1" xmlns="http://www.w3.org/2000/svg" xmlns:xlink="http://www.w3.org/1999/xlink" xml:space="preserve" style="fill-rule:evenodd;clip-rule:evenodd;stroke-linecap:round;stroke-linejoin:round;stroke-miterlimit:1.41421;"><g><g><g><g><g><g><g><path d="M201.558,276.925c0,0 7.69,66.28 32.714,80.025c25.024,13.744 21.357,-19.388 20.954,-22.869c-0.402,-3.481 20.387,23.378 38.11,16.661c17.723,-6.718 7.928,-44.961 6.134,-48.867c-1.793,-3.906 21.965,15.865 30.089,-5.912c8.123,-21.776 -48.484,-66.252 -56.126,-63.44c-7.643,2.812 -71.875,44.402 -71.875,44.402Z" style="fill:#280f25;"/><path d="M213.983,271.549c0,0 5.347,46.088 22.748,55.645c17.4,9.557 14.85,-13.48 14.57,-15.901c-0.28,-2.421 14.176,16.256 26.5,11.585c12.323,-4.671 5.512,-31.264 4.265,-33.98c-1.247,-2.716 16.584,12.485 22.233,-2.657c5.649,-15.143 -35.024,-47.522 -40.338,-45.566c-5.314,1.955 -49.978,30.874 -49.978,30.874Z" style="fill:#f9d6ce;"/><path d="M163.766,260.624c-3.787,1.663 -7.612,3.281 -11.476,4.855c-21.536,5.736 -40.977,6.132 -52.334,-11.467l-41.154,-63.777c-0.632,-0.979 -1.213,-1.977 -1.744,-2.989c-0.547,-0.669 -1.056,-1.369 -1.528,-2.099c-15.348,-23.785 19.147,-70.047 72.673,-104.465c52.524,-33.775 103.85,-43.713 120.386,-21.563c1.76,1.801 3.366,3.804 4.783,6.001l41.155,63.776c11.357,17.6 3.447,38.166 -11.179,52.309c-1.258,1.216 -2.524,2.424 -3.798,3.622l24.291,20.477c0,0 10.404,20.877 -12.545,37.086c-22.948,16.209 -34.994,23.822 -34.994,23.822l-0.025,-0.004c-1.643,1.068 -15.662,10.134 -42.132,25.793c-28.226,16.698 -43.329,-1.157 -43.329,-1.157l-7.05,-30.22ZM243.939,54.356c0,0 19.571,-55.051 45.552,-17.722c23.414,33.641 35.151,55.225 35.475,62.37c0.262,5.783 1.569,20.906 -26.638,37.176c-0.28,0.161 -0.976,-2.196 -2.564,-5.04c-2.58,-4.624 -6.629,-10.728 -6.629,-10.728c0,0 2.278,-11.041 15.247,-9.61c12.969,1.43 2.411,-17.607 0.09,-21.982c-2.322,-4.375 -23.532,-37.277 -25.109,-39.933c-0.772,-1.3 -10.297,-17.406 -25.625,16.221c-0.222,0.487 -0.709,-0.708 -1.65,-1.915c-1.355,-1.74 -3.248,-3.864 -3.323,-3.959c-2.37,-3.012 -5.026,-4.813 -4.826,-4.878Z" style="fill:#fdd7ce;"/><path d="M243.434,55.9l0.715,-1.934c0,0 9.307,8.639 9.57,10.963c0.264,2.324 -0.299,0.81 -0.299,0.81l-3.591,-3.538l-6.395,-6.301Z" style="fill:#fdd7ce;"/><path d="M289.092,120.994l0.431,-0.81c0,0 8.815,13.381 9.076,15.52c0.139,1.138 -1.373,0.402 -1.165,0.862l-4.907,-9.16l-3.435,-6.412Z" style="fill:#fdd7ce;"/><path d="M170.032,258.22l20.731,-9.177l11.482,-5.078l16.852,-10.459l14.74,-10.369l13.051,-9.374l10.939,-9.173l14.802,-13.298l9.13,-7.325l8.176,5.457l8.258,6.576l7.286,9.498l2.509,9.105l-0.422,11.25l-7.123,10.257l-14.928,11.639l-69.122,44.888l-13.056,5.965l-9.081,2.487l-8.862,0.229l-6.998,-1.66l-6.216,-5.128l-5.042,-6.387l-2.112,-8.27l-1.974,-10.352l-0.319,-8.924l7.299,-2.377Z" style="fill:#fdd7ce;"/><path d="M328.899,401.856c0.092,-0.04 0.181,-0.085 0.275,-0.119c0.188,-0.07 0.382,-0.12 0.581,-0.149c0.396,-0.058 0.804,-0.032 1.191,0.076c0.387,0.108 0.75,0.298 1.06,0.555c0.155,0.128 0.297,0.272 0.422,0.429c0.062,0.079 0.116,0.163 0.175,0.245l6.193,9.706c0.132,0.233 0.175,0.287 0.27,0.538c0.212,0.566 0.241,1.193 0.082,1.774c-0.08,0.29 -0.205,0.566 -0.371,0.816c-0.165,0.251 -0.37,0.475 -0.605,0.661c-0.234,0.187 -0.499,0.336 -0.78,0.441c-0.375,0.139 -0.78,0.198 -1.18,0.173c-0.4,-0.026 -0.795,-0.136 -1.151,-0.322c-0.356,-0.187 -0.672,-0.448 -0.923,-0.763c-0.062,-0.078 -0.116,-0.163 -0.175,-0.245l-6.193,-9.706c-0.05,-0.087 -0.104,-0.172 -0.149,-0.262c-0.09,-0.18 -0.161,-0.369 -0.211,-0.563c-0.153,-0.585 -0.116,-1.211 0.103,-1.771c0.11,-0.28 0.263,-0.542 0.454,-0.773c0.127,-0.155 0.27,-0.296 0.427,-0.42c0.078,-0.062 0.163,-0.116 0.244,-0.174c0.087,-0.049 0.174,-0.098 0.261,-0.147ZM313.415,377.591c0.092,-0.04 0.181,-0.085 0.275,-0.12c0.188,-0.069 0.382,-0.119 0.581,-0.148c0.396,-0.058 0.804,-0.032 1.191,0.076c0.387,0.108 0.75,0.298 1.06,0.554c0.155,0.128 0.297,0.272 0.422,0.43c0.062,0.078 0.117,0.163 0.175,0.245l6.193,9.706c0.05,0.087 0.104,0.172 0.149,0.262c0.18,0.36 0.283,0.756 0.302,1.157c0.014,0.301 -0.02,0.603 -0.099,0.893c-0.107,0.386 -0.294,0.748 -0.549,1.057c-0.254,0.309 -0.573,0.563 -0.932,0.741c-0.268,0.134 -0.558,0.225 -0.855,0.268c-0.298,0.044 -0.602,0.04 -0.898,-0.01c-0.595,-0.101 -1.152,-0.393 -1.576,-0.824c-0.188,-0.192 -0.219,-0.253 -0.375,-0.471l-6.193,-9.706c-0.05,-0.087 -0.104,-0.172 -0.149,-0.262c-0.09,-0.18 -0.161,-0.369 -0.211,-0.563c-0.153,-0.585 -0.116,-1.211 0.103,-1.772c0.11,-0.279 0.263,-0.541 0.454,-0.773c0.127,-0.154 0.27,-0.295 0.427,-0.419c0.078,-0.062 0.163,-0.116 0.244,-0.174c0.087,-0.049 0.174,-0.098 0.261,-0.147ZM297.931,353.325c0.092,-0.039 0.182,-0.084 0.275,-0.119c0.188,-0.069 0.382,-0.119 0.581,-0.148c0.396,-0.059 0.804,-0.033 1.191,0.076c0.387,0.108 0.75,0.298 1.06,0.554c0.155,0.128 0.297,0.272 0.422,0.43c0.062,0.078 0.117,0.163 0.175,0.245l6.194,9.706c0.049,0.087 0.103,0.172 0.148,0.262c0.18,0.36 0.283,0.756 0.302,1.157c0.014,0.301 -0.02,0.603 -0.099,0.892c-0.107,0.387 -0.294,0.749 -0.549,1.058c-0.254,0.309 -0.573,0.563 -0.932,0.741c-0.268,0.134 -0.558,0.224 -0.855,0.268c-0.298,0.044 -0.602,0.04 -0.898,-0.01c-0.595,-0.102 -1.152,-0.393 -1.576,-0.824c-0.188,-0.192 -0.219,-0.254 -0.375,-0.471l-6.193,-9.706c-0.05,-0.088 -0.104,-0.173 -0.149,-0.262c-0.09,-0.18 -0.161,-0.369 -0.211,-0.563c-0.153,-0.585 -0.116,-1.211 0.103,-1.772c0.11,-0.279 0.263,-0.541 0.454,-0.773c0.127,-0.154 0.27,-0.295 0.427,-0.419c0.078,-0.063 0.163,-0.116 0.244,-0.174c0.087,-0.049 0.174,-0.099 0.261,-0.148Z" style="fill:#280f25;fill-rule:nonzero;"/><path d="M358.843,447.744c0.092,-0.039 0.182,-0.084 0.275,-0.119c0.188,-0.07 0.382,-0.119 0.581,-0.149c0.396,-0.058 0.804,-0.032 1.191,0.077c0.387,0.108 0.75,0.298 1.06,0.554c0.155,0.128 0.297,0.272 0.422,0.429c0.062,0.079 0.117,0.164 0.175,0.246l6.194,9.706c0.049,0.087 0.103,0.172 0.148,0.262c0.18,0.359 0.283,0.756 0.302,1.157c0.014,0.3 -0.02,0.603 -0.099,0.892c-0.107,0.387 -0.294,0.749 -0.549,1.058c-0.254,0.309 -0.573,0.563 -0.932,0.741c-0.268,0.134 -0.558,0.224 -0.855,0.268c-0.298,0.044 -0.602,0.04 -0.898,-0.01c-0.595,-0.102 -1.152,-0.393 -1.576,-0.824c-0.188,-0.192 -0.219,-0.254 -0.375,-0.471l-6.193,-9.706c-0.05,-0.088 -0.104,-0.173 -0.149,-0.262c-0.09,-0.18 -0.161,-0.369 -0.211,-0.563c-0.153,-0.585 -0.116,-1.211 0.103,-1.772c0.11,-0.279 0.263,-0.541 0.454,-0.773c0.127,-0.154 0.27,-0.295 0.427,-0.419c0.078,-0.063 0.163,-0.116 0.244,-0.174c0.087,-0.049 0.174,-0.099 0.261,-0.148ZM343.359,423.479c0.092,-0.04 0.182,-0.084 0.275,-0.119c0.188,-0.07 0.383,-0.12 0.581,-0.149c0.396,-0.058 0.804,-0.032 1.191,0.076c0.387,0.109 0.75,0.299 1.06,0.555c0.155,0.128 0.297,0.272 0.422,0.429c0.062,0.079 0.117,0.164 0.175,0.245l6.194,9.707c0.049,0.087 0.103,0.172 0.148,0.262c0.18,0.359 0.283,0.756 0.302,1.157c0.014,0.3 -0.02,0.602 -0.099,0.892c-0.106,0.387 -0.294,0.749 -0.549,1.058c-0.254,0.309 -0.573,0.563 -0.932,0.741c-0.268,0.133 -0.558,0.224 -0.855,0.268c-0.298,0.043 -0.602,0.04 -0.898,-0.011c-0.595,-0.101 -1.152,-0.392 -1.576,-0.824c-0.188,-0.191 -0.219,-0.253 -0.375,-0.471l-6.193,-9.706c-0.05,-0.087 -0.104,-0.172 -0.149,-0.262c-0.09,-0.18 -0.161,-0.368 -0.211,-0.563c-0.153,-0.584 -0.116,-1.21 0.103,-1.771c0.11,-0.28 0.263,-0.541 0.454,-0.773c0.127,-0.155 0.27,-0.295 0.427,-0.42c0.078,-0.062 0.163,-0.116 0.244,-0.174c0.087,-0.049 0.174,-0.098 0.261,-0.147Z" style="fill:#280f25;fill-rule:nonzero;"/><path d="M176.241,156.97c-28.447,17.767 -75.191,48.845 -51.825,70.179c2.354,2.149 4.719,3.977 7.091,5.513c25.312,16.382 51.507,-0.577 75.78,-16.047c36.699,-23.39 66.506,-44.537 52.028,-78.216c-8.783,-20.43 -34.18,-11.965 -83.074,18.571Z" style="fill:#280f25;"/><path d="M128.296,193.755c0,0 7.141,7.305 12.094,3.282c5,-4.061 -2.911,-11.598 -3.297,-12.004c-0.369,-0.388 -7.732,6.414 -8.797,8.722Z" style="fill:#fdede5;"/><path d="M227.408,130.202c0,0 3.686,6.179 -0.678,10.993c-4.363,4.815 -9.951,-5.232 -10.748,-6.411c-0.198,-0.293 10.615,-4.534 11.426,-4.582Z" style="fill:#fdede5;"/><path d="M180.38,232.411c0,0 -1.564,-7.012 -8.002,-7.535c-6.439,-0.522 -4.519,10.329 -4.054,11.673c0.466,1.344 12.056,-4.138 12.056,-4.138Z" style="fill:#fdede5;"/><path d="M234.601,198.018c0,0 -5.175,-9.159 -9.946,-7.17c-5.95,2.48 0.01,12.509 0.57,13.817c0.309,0.721 9.376,-6.647 9.376,-6.647Z" style="fill:#fdede5;"/><path d="M261.385,143.725c0,0 -9.171,-0.327 -11.116,5.824c-1.946,6.151 11.107,5.629 12.518,5.489c1.412,-0.14 -1.402,-11.313 -1.402,-11.313Z" style="fill:#fdede5;"/><path d="M136.451,235.625c0,0 4.845,-5.264 1.562,-10.845c-3.284,-5.581 -11.072,2.155 -11.904,3.3c-0.833,1.145 10.342,7.545 10.342,7.545Z" style="fill:#fdede5;"/><path d="M94.815,183.943c4.242,-2.727 10.221,-1.014 13.343,3.824c3.122,4.839 2.213,10.981 -2.029,13.709c-4.243,2.728 -10.221,1.015 -13.344,-3.824c-3.122,-4.838 -2.212,-10.981 2.03,-13.709Z" style="fill:#280f25;"/><path d="M234.121,94.365c4.242,-2.728 10.221,-1.014 13.343,3.824c1.348,2.088 1.944,4.42 1.846,6.615c-0.13,2.89 -1.464,5.543 -3.876,7.094c-4.242,2.728 -10.221,1.014 -13.343,-3.824c-3.122,-4.838 -2.213,-10.981 2.03,-13.709Z" style="fill:#280f25;"/><path d="M156.438,123.797c-15.933,10.733 -27.968,17.411 -37.099,21.277c-18.585,7.868 -37.599,12.395 -40.479,7.449c-2.993,-5.142 13.806,-29.812 56.227,-57.427l0.037,0.043c39.901,-25.573 72.796,-31.197 75.887,-26.728c3.805,5.499 -6.292,25.354 -54.534,55.432l-0.039,-0.046Z" style="fill:#280f25;stroke-width:4.69px;stroke:#280f25;"/><path d="M296.486,122.548c0,0 2.921,1.477 11.647,-6.43c7.12,-6.452 -24.511,-3.631 -11.647,6.43Z" style="fill:#fdede5;"/><path d="M245.802,53.887c0,0 2.225,5.452 3.78,3.441c1.26,-1.631 8.555,-14.825 15.417,-21.805c1.6,-1.628 3.177,-2.917 4.648,-3.643c7.78,-3.841 0.693,-9.41 -6.738,-4.118c-7.017,4.997 -18.055,24.571 -17.107,26.125Z" style="fill:#fdede5;"/><path d="M164.975,164.23c0.339,0.79 5.108,9.249 10.835,6.414c5.792,-2.867 -0.065,-13.423 -0.633,-13.062c-1.084,0.69 -7.861,4.552 -10.202,6.648Z" style="fill:#fdede5;"/><path d="M239.792,96.609c1.369,-0.88 3.2,-0.479 4.087,0.895c0.887,1.374 0.496,3.205 -0.873,4.085c-1.369,0.88 -3.2,0.479 -4.087,-0.896c-0.887,-1.374 -0.495,-3.204 0.873,-4.084Z" style="fill:#fff;"/><path d="M100.212,184.933c1.369,-0.88 3.2,-0.479 4.087,0.895c0.887,1.375 0.496,3.205 -0.873,4.085c-1.369,0.88 -3.2,0.479 -4.087,-0.896c-0.886,-1.374 -0.495,-3.204 0.873,-4.084Z" style="fill:#fff;"/></g><path d="M237.021,311.096c0.161,-0.085 0.199,-0.11 0.368,-0.177c0.19,-0.076 0.389,-0.13 0.591,-0.163c0.472,-0.077 0.962,-0.034 1.415,0.125c0.387,0.136 0.745,0.356 1.042,0.641c0.148,0.142 0.281,0.3 0.396,0.471c0.038,0.056 0.073,0.116 0.109,0.174c0.192,0.333 0.385,0.666 0.578,0.999c1.001,1.716 2.021,3.422 3.064,5.114c0.729,1.183 1.467,2.36 2.225,3.525l0.035,0.053c0.035,0.058 0.073,0.116 0.106,0.175c0.067,0.12 0.125,0.244 0.174,0.372c0.197,0.513 0.243,1.078 0.132,1.614c-0.055,0.267 -0.149,0.527 -0.278,0.767c-0.192,0.361 -0.463,0.679 -0.789,0.927c-0.38,0.289 -0.833,0.479 -1.306,0.55c-0.27,0.04 -0.546,0.042 -0.817,0.004c-0.338,-0.047 -0.669,-0.155 -0.97,-0.317c-0.302,-0.163 -0.574,-0.379 -0.8,-0.636c-0.121,-0.138 -0.144,-0.178 -0.249,-0.327c-0.148,-0.227 -0.295,-0.455 -0.442,-0.683c-1.864,-2.908 -3.65,-5.865 -5.381,-8.853l-0.173,-0.299c-0.063,-0.11 -0.119,-0.203 -0.175,-0.32c-0.09,-0.185 -0.16,-0.379 -0.208,-0.579c-0.113,-0.466 -0.107,-0.958 0.016,-1.42c0.106,-0.396 0.298,-0.767 0.559,-1.082c0.13,-0.158 0.278,-0.301 0.439,-0.427c0.054,-0.042 0.11,-0.08 0.165,-0.12c0.058,-0.036 0.116,-0.072 0.174,-0.108ZM225.408,286.631c0.16,-0.086 0.198,-0.112 0.367,-0.181c0.189,-0.076 0.387,-0.133 0.589,-0.167c0.269,-0.046 0.545,-0.054 0.817,-0.022c0.682,0.08 1.324,0.408 1.79,0.915c0.186,0.202 0.342,0.43 0.463,0.676c0.081,0.164 0.093,0.209 0.156,0.38c0.074,0.226 0.149,0.452 0.225,0.678c0.647,1.898 1.376,3.766 2.159,5.612c0.359,0.846 0.73,1.686 1.108,2.524l0.023,0.05c0.026,0.063 0.055,0.126 0.079,0.19c0.048,0.128 0.086,0.26 0.115,0.394c0.117,0.536 0.076,1.101 -0.115,1.613c-0.119,0.32 -0.296,0.617 -0.52,0.875c-0.179,0.205 -0.387,0.385 -0.617,0.532c-0.345,0.22 -0.737,0.364 -1.143,0.42c-0.474,0.066 -0.963,0.011 -1.412,-0.159c-0.256,-0.097 -0.498,-0.23 -0.717,-0.395c-0.274,-0.207 -0.51,-0.462 -0.695,-0.751c-0.098,-0.154 -0.114,-0.197 -0.196,-0.36c-0.123,-0.271 -0.245,-0.543 -0.367,-0.815c-0.858,-1.93 -1.671,-3.881 -2.407,-5.861c-0.298,-0.801 -0.582,-1.608 -0.853,-2.419l-0.062,-0.184c-0.041,-0.127 -0.083,-0.247 -0.116,-0.377c-0.049,-0.2 -0.078,-0.404 -0.085,-0.609c-0.021,-0.686 0.209,-1.368 0.641,-1.899c0.129,-0.158 0.276,-0.303 0.436,-0.43c0.053,-0.042 0.109,-0.081 0.164,-0.121c0.058,-0.037 0.115,-0.073 0.173,-0.109Z" style="fill:#280f25;fill-rule:nonzero;"/><path d="M290.574,275.5c0.163,-0.08 0.203,-0.104 0.374,-0.166c0.192,-0.069 0.393,-0.117 0.596,-0.144c0.406,-0.053 0.823,-0.017 1.216,0.103c0.327,0.101 0.636,0.26 0.908,0.469c0.163,0.125 0.313,0.267 0.446,0.424c0.044,0.052 0.085,0.108 0.127,0.161c0.258,0.353 0.516,0.706 0.773,1.06c1.208,1.67 2.393,3.356 3.551,5.061c0.776,1.143 1.543,2.293 2.287,3.458l0.037,0.058c0.092,0.157 0.119,0.195 0.195,0.361c0.14,0.313 0.225,0.649 0.248,0.991c0.023,0.341 -0.016,0.686 -0.113,1.013c-0.078,0.261 -0.194,0.511 -0.342,0.74c-0.223,0.343 -0.521,0.637 -0.866,0.855c-0.404,0.256 -0.871,0.407 -1.349,0.437c-0.273,0.017 -0.548,-0.006 -0.815,-0.066c-0.534,-0.122 -1.03,-0.398 -1.416,-0.789c-0.096,-0.098 -0.186,-0.202 -0.267,-0.312c-0.041,-0.055 -0.077,-0.113 -0.116,-0.17c-0.13,-0.204 -0.261,-0.407 -0.392,-0.61c-0.771,-1.185 -1.559,-2.359 -2.359,-3.525c-1.078,-1.57 -2.179,-3.124 -3.3,-4.664l-0.192,-0.262l-0.186,-0.254l-0.115,-0.17c-0.035,-0.059 -0.071,-0.117 -0.103,-0.178c-0.097,-0.181 -0.175,-0.372 -0.231,-0.57c-0.131,-0.461 -0.145,-0.953 -0.04,-1.42c0.091,-0.4 0.268,-0.779 0.516,-1.104c0.124,-0.162 0.266,-0.312 0.421,-0.444c0.139,-0.117 0.18,-0.139 0.33,-0.241c0.059,-0.034 0.118,-0.068 0.177,-0.102ZM273.644,256.417c0.06,-0.031 0.12,-0.064 0.182,-0.093c0.185,-0.086 0.38,-0.152 0.58,-0.197c0.669,-0.149 1.383,-0.05 1.989,0.276c0.12,0.065 0.236,0.139 0.346,0.22c0.155,0.115 0.299,0.245 0.444,0.371c0.192,0.166 0.383,0.333 0.573,0.501c1.861,1.649 3.622,3.407 5.323,5.221l0.008,0.008c0.119,0.138 0.153,0.17 0.258,0.32c0.196,0.281 0.341,0.596 0.427,0.928c0.086,0.331 0.112,0.677 0.077,1.017c-0.028,0.272 -0.095,0.539 -0.198,0.792c-0.156,0.379 -0.393,0.723 -0.692,1.002c-0.349,0.326 -0.779,0.562 -1.243,0.68c-0.264,0.067 -0.538,0.096 -0.812,0.086c-0.547,-0.02 -1.085,-0.199 -1.536,-0.512c-0.113,-0.079 -0.22,-0.165 -0.32,-0.258c-0.05,-0.046 -0.097,-0.097 -0.146,-0.145c-0.172,-0.185 -0.346,-0.368 -0.52,-0.552c-1.095,-1.149 -2.217,-2.273 -3.38,-3.353c-0.51,-0.474 -1.029,-0.938 -1.555,-1.394l-0.129,-0.111l-0.132,-0.114l-0.152,-0.139c-0.125,-0.132 -0.16,-0.162 -0.271,-0.308c-0.166,-0.218 -0.301,-0.46 -0.399,-0.715c-0.098,-0.256 -0.159,-0.526 -0.182,-0.798c-0.056,-0.685 0.14,-1.378 0.546,-1.929c0.121,-0.165 0.26,-0.317 0.413,-0.452c0.137,-0.12 0.177,-0.142 0.326,-0.247c0.058,-0.035 0.116,-0.07 0.175,-0.105Z" style="fill:#280f25;fill-rule:nonzero;"/><path d="M264.65,296.218c0.072,-0.038 0.142,-0.078 0.215,-0.113c0.22,-0.104 0.453,-0.18 0.692,-0.226c0.399,-0.075 0.814,-0.065 1.209,0.031c0.396,0.096 0.77,0.276 1.092,0.526c0.193,0.15 0.367,0.325 0.516,0.518c0.05,0.065 0.094,0.133 0.141,0.2l6.238,9.678c0.11,0.187 0.143,0.231 0.229,0.431c0.224,0.525 0.288,1.113 0.18,1.673c-0.061,0.319 -0.177,0.627 -0.341,0.907c-0.247,0.42 -0.601,0.774 -1.022,1.019c-0.35,0.205 -0.744,0.333 -1.148,0.374c-0.242,0.025 -0.488,0.019 -0.729,-0.018c-0.321,-0.05 -0.634,-0.154 -0.922,-0.308c-0.287,-0.154 -0.548,-0.356 -0.768,-0.597c-0.147,-0.16 -0.173,-0.209 -0.298,-0.386l-6.238,-9.678c-0.041,-0.07 -0.085,-0.139 -0.123,-0.211c-0.115,-0.216 -0.202,-0.446 -0.259,-0.684c-0.094,-0.396 -0.104,-0.811 -0.027,-1.21c0.077,-0.399 0.239,-0.78 0.473,-1.111c0.141,-0.198 0.307,-0.379 0.493,-0.535c0.062,-0.052 0.128,-0.099 0.192,-0.148c0.069,-0.044 0.137,-0.088 0.205,-0.132ZM249.056,272.024c0.071,-0.038 0.141,-0.079 0.215,-0.114c0.219,-0.104 0.453,-0.18 0.692,-0.225c0.399,-0.076 0.813,-0.066 1.209,0.03c0.395,0.096 0.77,0.276 1.092,0.526c0.193,0.15 0.367,0.325 0.516,0.518c0.05,0.065 0.094,0.134 0.141,0.2l6.238,9.678c0.109,0.187 0.143,0.231 0.228,0.431c0.128,0.3 0.205,0.621 0.226,0.945c0.021,0.325 -0.013,0.653 -0.101,0.965c-0.133,0.47 -0.386,0.902 -0.731,1.246c-0.287,0.286 -0.635,0.51 -1.015,0.652c-0.228,0.085 -0.467,0.141 -0.709,0.166c-0.323,0.033 -0.652,0.01 -0.968,-0.066c-0.555,-0.134 -1.065,-0.436 -1.451,-0.857c-0.147,-0.161 -0.173,-0.21 -0.298,-0.387l-6.238,-9.678c-0.041,-0.07 -0.085,-0.139 -0.124,-0.211c-0.114,-0.216 -0.201,-0.446 -0.258,-0.683c-0.095,-0.396 -0.104,-0.811 -0.027,-1.21c0.076,-0.399 0.239,-0.78 0.473,-1.111c0.14,-0.199 0.306,-0.379 0.493,-0.536c0.062,-0.052 0.128,-0.099 0.192,-0.148c0.068,-0.044 0.136,-0.088 0.205,-0.131Z" style="fill:#280f25;fill-rule:nonzero;"/><path d="M199.194,247.653l17.103,44.821c12.856,-7.209 26.252,-15.622 39.05,-24.045c10.726,-7.058 21.031,-14.124 30.249,-20.496l-37.33,-32.962c11.888,-9.214 23.083,-19.246 33.724,-29.932c0,0 26.468,15.803 26.47,28.291c0.002,9.21 1.018,18.256 -22.722,34.496" style="fill:none;stroke-width:4.69px;stroke:#edb0a5;"/></g><path d="M164.445,262.158c0,0 8.446,-2.141 22.687,-8.738c11.956,-5.538 27.996,-14.218 46.554,-27.408c14.667,-10.427 30.908,-23.671 47.946,-40.411" style="fill:none;stroke-width:4.69px;stroke:#edb0a5;"/></g><path d="M163.611,262.505c0.485,2.468 -3.572,56.892 43.916,35.008c2.946,-1.357 6.085,-3.025 9.43,-5.036" style="fill:none;stroke-width:4.69px;stroke:#edb0a5;"/></g></g><path d="M195.257,258.345l12.295,33.605" style="fill:none;stroke-width:2.34px;stroke-dasharray:4.69,7.03,0,0;stroke:#edb0a5;"/><path d="M209.659,250.823l13.44,33.164" style="fill:none;stroke-width:2.34px;stroke-dasharray:4.69,7.03,0,0;stroke:#edb0a5;"/><path d="M248.398,224.909l25.332,25.274" style="fill:none;stroke-width:2.34px;stroke-dasharray:4.69,7.03,0,0;stroke:#edb0a5;"/><path d="M259.299,214.206l26.87,23.633" style="fill:none;stroke-width:2.34px;stroke-dasharray:4.69,7.03,0,0;stroke:#edb0a5;"/></g></g></svg>