<?xml version="1.0" standalone="no"?><!DOCTYPE svg PUBLIC "-//W3C//DTD SVG 1.1//EN" "http://www.w3.org/Graphics/SVG/1.1/DTD/svg11.dtd"><svg width="100%" height="100%" viewBox="0 0 37 53" version="1.1" xmlns="http://www.w3.org/2000/svg" xmlns:xlink="http://www.w3.org/1999/xlink" xml:space="preserve" style="fill-rule:evenodd;clip-rule:evenodd;stroke-linejoin:round;stroke-miterlimit:1.41421;"><path d="M17.575,16.69c-2.866,0.16 -7.889,-0.098 -10.857,-3.844c-2.366,-2.986 -0.855,-7.632 2.142,-9.484c2.997,-1.853 6.68,-0.466 8.72,2.77c1.623,2.575 1.619,10.467 -0.005,10.558Z" style="fill:#e5b4a8;"/><path d="M15.213,13.732c-1.665,0.093 -4.584,-0.057 -6.31,-2.234c-1.375,-1.735 -0.497,-4.435 1.245,-5.512c1.742,-1.077 3.883,-0.271 5.068,1.61c0.944,1.497 0.941,6.084 -0.003,6.136Z" style="fill:#fff;"/><path d="M18.688,16.69c2.923,0.16 8.048,-0.098 11.075,-3.844c2.414,-2.986 0.873,-7.632 -2.185,-9.484c-3.057,-1.853 -6.814,-0.466 -8.895,2.77c-1.655,2.575 -1.651,10.467 0.005,10.558Z" style="fill:#e5b4a8;"/><path d="M21.282,13.346c1.619,0.089 4.457,-0.054 6.135,-2.129c1.337,-1.654 0.483,-4.228 -1.211,-5.254c-1.693,-1.026 -3.774,-0.258 -4.927,1.535c-0.917,1.426 -0.915,5.798 0.003,5.848Z" style="fill:#fff;"/><path d="M36.137,24.977c0,-4.986 -4.048,-9.034 -9.035,-9.034l-18.068,0c-4.986,0 -9.034,4.048 -9.034,9.034l0,18.069c0,4.986 4.048,9.034 9.034,9.034l18.068,0c4.987,0 9.035,-4.048 9.035,-9.034l0,-18.069Z" style="fill:#251325;"/><rect x="14.467" y="15.943" width="7.202" height="36.137" style="fill:#fbeee6;"/><path d="M0,30.41l0,7.203l36.137,0l0,-7.203l-36.137,0Z" style="fill:#fbeee6;"/><rect x="18.068" y="15.599" width="3.601" height="36.481" style="fill:#e5b4a8;"/><path d="M36.137,37.613l0,-7.203l-16.268,0l0,7.203l16.268,0Z" style="fill:#e5b4a8;"/></svg>