<?xml version="1.0" standalone="no"?><!DOCTYPE svg PUBLIC "-//W3C//DTD SVG 1.1//EN" "http://www.w3.org/Graphics/SVG/1.1/DTD/svg11.dtd"><svg width="100%" height="100%" viewBox="0 0 231 346" version="1.1" xmlns="http://www.w3.org/2000/svg" xmlns:xlink="http://www.w3.org/1999/xlink" xml:space="preserve" style="fill-rule:evenodd;clip-rule:evenodd;stroke-linejoin:round;stroke-miterlimit:1.41421;"><g><g><path d="M92.041,332.772c0,0 -11.007,-0.538 -14.51,-4.5c-5.046,-5.708 9.006,-12.105 14.752,-25.607c3.597,-8.452 6.768,-25.786 6.768,-25.786l14.107,5.066c0,0 -1.31,42.301 -21.117,50.827Z" style="fill:#e0faf1;"/><path d="M92.248,216.598c0,0 -133.267,-2.898 -59.866,-170.825c19.773,-45.235 39.861,-30.544 43.066,-25.699c6.549,9.899 26.275,39.973 31.597,4.97c12.49,-82.144 183.19,139.031 69.406,185.133" style="fill:#b4dfc3;"/><path d="M149.279,331.715c0,0 10.696,2.341 15.656,-1.714c7.156,-5.85 -1.237,-42.119 -11.6,-50.58c-10.362,-8.462 -11.325,3.174 -11.325,3.174c-0.025,1.114 8.335,20.307 8.643,27.391c0.275,6.322 -2.011,13.974 -1.374,21.729Z" style="fill:#e0faf1;"/><path d="M97.613,227.229l1.018,11.908c0,0 -44.432,-2.707 -42.995,10.803c1.222,11.483 25.338,8.571 27.392,8.456c2.053,-0.115 0.368,8.441 0.368,8.441c0,0 -39.943,14.54 -42.955,-16.243c-1.284,-13.129 8.928,-19.31 21.063,-22.08c16.316,-3.724 36.109,-1.285 36.109,-1.285Z" style="fill:#b4dfc3;"/><path d="M82.638,256.787c0.077,-0.006 0.154,-0.012 0.231,-0.017l0.074,-0.005c0.075,-0.003 0.15,-0.004 0.225,-0.001c0.191,0.008 0.38,0.04 0.562,0.096c0.176,0.054 0.345,0.129 0.502,0.224c0.129,0.078 0.25,0.169 0.362,0.271c0.086,0.078 0.166,0.163 0.24,0.252c0.375,0.455 0.578,1.024 0.692,1.596c0.02,0.097 0.037,0.195 0.052,0.293c0.017,0.115 0.031,0.23 0.044,0.345c0.015,0.15 0.027,0.301 0.036,0.452c0.014,0.239 0.02,0.478 0.021,0.718c0.001,0.315 -0.007,0.631 -0.022,0.946c-0.021,0.423 -0.053,0.846 -0.093,1.267c-0.053,0.562 -0.121,1.123 -0.198,1.682c-0.103,0.741 -0.222,1.481 -0.362,2.216l-0.006,0.028c-0.015,0.06 -0.027,0.121 -0.046,0.18c-0.037,0.118 -0.088,0.232 -0.152,0.339c-0.126,0.214 -0.302,0.398 -0.51,0.534c-0.052,0.034 -0.106,0.065 -0.161,0.093c-0.1,0.05 -0.2,0.084 -0.304,0.121c-0.077,0.027 -0.077,0.027 -0.154,0.053c-0.201,0.07 -0.403,0.137 -0.605,0.203c-0.879,0.287 -1.766,0.551 -2.657,0.798c-2.21,0.612 -4.448,1.122 -6.707,1.519c-2.744,0.482 -5.519,0.8 -8.305,0.888c-0.878,0.027 -1.756,0.03 -2.634,0.007c-0.676,-0.017 -1.352,-0.051 -2.027,-0.103c-2.08,-0.157 -4.152,-0.485 -6.164,-1.041c-1.443,-0.399 -2.855,-0.917 -4.199,-1.576c-0.464,-0.227 -0.919,-0.47 -1.365,-0.729c-0.488,-0.284 -0.963,-0.588 -1.425,-0.912c-0.684,-0.481 -1.338,-1.004 -1.954,-1.57c-0.733,-0.674 -1.413,-1.405 -2.032,-2.187c-0.633,-0.799 -1.201,-1.649 -1.703,-2.537c-0.56,-0.99 -1.036,-2.027 -1.435,-3.092c-0.683,-1.818 -1.14,-3.716 -1.427,-5.636c-0.064,-0.425 -0.119,-0.852 -0.167,-1.28c-0.059,-0.533 -0.106,-1.068 -0.134,-1.605c-0.046,-0.88 -0.043,-1.764 0.015,-2.644c0.101,-1.514 0.369,-3.018 0.827,-4.467c0.241,-0.763 0.534,-1.51 0.878,-2.233c0.269,-0.565 0.569,-1.117 0.897,-1.651c0.349,-0.567 0.731,-1.115 1.14,-1.64c0.327,-0.419 0.672,-0.824 1.032,-1.214c0.271,-0.293 0.55,-0.578 0.837,-0.855c1.867,-1.797 4.055,-3.233 6.364,-4.395c0.419,-0.212 0.843,-0.414 1.271,-0.607c0.475,-0.216 0.955,-0.421 1.439,-0.617c1.166,-0.472 2.353,-0.89 3.555,-1.262c1.498,-0.463 3.017,-0.859 4.548,-1.198c1.978,-0.438 3.976,-0.784 5.983,-1.061c1.267,-0.175 2.539,-0.322 3.813,-0.444c2.343,-0.224 4.693,-0.367 7.046,-0.445c2.77,-0.092 5.543,-0.093 8.314,-0.017c2.216,0.06 4.43,0.171 6.641,0.33c0.668,0.049 1.335,0.102 2.002,0.161c0.781,0.069 1.561,0.145 2.34,0.234l0.076,0.009l0.06,0.008l0.183,0.032c0.157,0.048 0.2,0.053 0.348,0.127c0.334,0.166 0.605,0.446 0.759,0.786c0.051,0.113 0.09,0.231 0.114,0.352c0.012,0.061 0.018,0.123 0.026,0.184l1.018,11.908c0.002,0.062 0.007,0.125 0.006,0.187c-0.004,0.124 -0.022,0.248 -0.054,0.369c-0.095,0.362 -0.317,0.686 -0.621,0.906c-0.151,0.109 -0.321,0.192 -0.501,0.245c-0.119,0.034 -0.242,0.055 -0.367,0.062c-0.118,0.007 -0.197,-0.001 -0.31,-0.007c-0.05,-0.003 -0.1,-0.006 -0.15,-0.009c-0.267,-0.013 -0.534,-0.026 -0.801,-0.039c-0.343,-0.015 -0.687,-0.03 -1.03,-0.043c-1.451,-0.055 -2.902,-0.089 -4.354,-0.107c-1.832,-0.022 -3.664,-0.018 -5.496,0.016c-1.853,0.035 -3.705,0.101 -5.556,0.205c-1.764,0.099 -3.527,0.232 -5.285,0.413c-1.162,0.119 -2.323,0.259 -3.479,0.426c-1.424,0.205 -2.841,0.45 -4.247,0.753c-0.976,0.211 -1.945,0.451 -2.903,0.732c-1.045,0.307 -2.077,0.662 -3.076,1.098c-0.476,0.208 -0.945,0.435 -1.399,0.688c-0.383,0.213 -0.756,0.443 -1.112,0.698c-0.597,0.429 -1.155,0.929 -1.581,1.533c-0.277,0.394 -0.489,0.834 -0.603,1.302c-0.08,0.327 -0.111,0.664 -0.101,0.999c0.006,0.221 0.03,0.441 0.065,0.659c0.076,0.485 0.211,0.961 0.409,1.411c0.17,0.383 0.386,0.745 0.638,1.081c0.344,0.457 0.756,0.861 1.204,1.216c0.28,0.222 0.575,0.425 0.88,0.612c0.293,0.18 0.594,0.345 0.902,0.497c1.115,0.549 2.301,0.941 3.504,1.244c0.681,0.171 1.369,0.311 2.06,0.431c0.666,0.115 1.334,0.209 2.005,0.285c1.813,0.208 3.637,0.296 5.462,0.312c1.654,0.014 3.309,-0.038 4.96,-0.135c0.721,-0.042 1.441,-0.095 2.161,-0.154c0.384,-0.032 0.767,-0.065 1.151,-0.097ZM72.608,228.491c-1.034,0.091 -2.066,0.194 -3.097,0.317c-2.44,0.291 -4.871,0.683 -7.271,1.214c-1.444,0.32 -2.877,0.693 -4.29,1.13c-1.322,0.408 -2.626,0.877 -3.899,1.42c-0.552,0.235 -1.097,0.484 -1.635,0.749c-0.376,0.185 -0.747,0.378 -1.115,0.579c-0.252,0.138 -0.502,0.281 -0.751,0.427c-0.312,0.184 -0.621,0.375 -0.925,0.574c-1.564,1.019 -3.015,2.228 -4.217,3.662c-0.258,0.308 -0.504,0.625 -0.737,0.952c-0.315,0.444 -0.607,0.905 -0.871,1.382c-0.503,0.908 -0.904,1.871 -1.197,2.866c-0.329,1.115 -0.522,2.268 -0.599,3.427c-0.053,0.798 -0.051,1.599 -0.004,2.397c0.034,0.594 0.095,1.187 0.171,1.777c0.206,1.62 0.539,3.227 1.048,4.78c0.33,1.007 0.732,1.991 1.221,2.932c0.181,0.347 0.372,0.688 0.575,1.021c0.246,0.406 0.51,0.801 0.791,1.184c0.471,0.641 0.99,1.246 1.552,1.809c0.749,0.75 1.577,1.421 2.46,2.006c0.364,0.241 0.736,0.468 1.117,0.68c2.218,1.237 4.679,1.986 7.175,2.405c1.029,0.172 2.066,0.29 3.106,0.363c0.892,0.062 1.787,0.091 2.681,0.091c2.317,0 4.632,-0.183 6.927,-0.498c1.624,-0.222 3.238,-0.513 4.84,-0.859c1.06,-0.229 2.116,-0.482 3.165,-0.761c0.65,-0.173 1.298,-0.354 1.943,-0.548c0.379,-0.114 0.757,-0.232 1.134,-0.352l0.052,-0.017c0.091,-0.554 0.173,-1.11 0.243,-1.667c0.066,-0.525 0.121,-1.052 0.16,-1.579c0.029,-0.388 0.049,-0.777 0.052,-1.167c0.004,-0.364 -0.005,-0.73 -0.049,-1.092l-0.001,-0.008c-0.307,0.027 -0.614,0.052 -0.921,0.077c-0.235,0.018 -0.469,0.036 -0.704,0.053c-0.406,0.029 -0.813,0.057 -1.22,0.081c-2.067,0.121 -4.14,0.173 -6.21,0.124c-1.177,-0.029 -2.352,-0.088 -3.525,-0.191c-0.994,-0.087 -1.986,-0.203 -2.972,-0.36c-1.539,-0.245 -3.067,-0.583 -4.547,-1.076c-1.231,-0.41 -2.432,-0.928 -3.539,-1.608c-0.746,-0.458 -1.45,-0.99 -2.073,-1.606c-0.52,-0.515 -0.985,-1.088 -1.371,-1.711c-0.302,-0.489 -0.556,-1.008 -0.756,-1.547c-0.207,-0.561 -0.356,-1.142 -0.449,-1.732c-0.061,-0.388 -0.099,-0.779 -0.105,-1.171c-0.009,-0.547 0.044,-1.095 0.162,-1.628c0.109,-0.49 0.272,-0.966 0.484,-1.421c0.144,-0.309 0.311,-0.607 0.496,-0.893c0.706,-1.088 1.681,-1.979 2.746,-2.708c0.19,-0.13 0.384,-0.255 0.58,-0.375c0.823,-0.507 1.692,-0.933 2.582,-1.308c1.032,-0.436 2.094,-0.797 3.169,-1.113c1.35,-0.396 2.722,-0.718 4.102,-0.991c1.33,-0.263 2.67,-0.481 4.013,-0.665c2.15,-0.295 4.311,-0.506 6.475,-0.663c2.018,-0.146 4.04,-0.243 6.062,-0.301c2.424,-0.07 4.849,-0.087 7.273,-0.057c1.559,0.019 3.117,0.057 4.674,0.119l0.056,0.002l-0.744,-8.709c-0.243,-0.024 -0.487,-0.047 -0.73,-0.069c-1.653,-0.151 -3.31,-0.267 -4.969,-0.356c-1.912,-0.102 -3.827,-0.168 -5.743,-0.194c-0.68,-0.009 -1.361,-0.012 -2.042,-0.013c-0.351,0.001 -0.702,0.003 -1.053,0.006c-1.966,0.018 -3.931,0.079 -5.894,0.19c-0.893,0.05 -1.786,0.113 -2.678,0.186c-0.128,0.011 -0.256,0.021 -0.384,0.032Z" style="fill:#b4dfc3;fill-rule:nonzero;"/><path d="M153.297,226.694l1.018,11.907c0,0 45.571,-10.401 46.433,3.158c0.732,11.525 -24.764,12.854 -26.912,13.098c-2.148,0.245 1.088,8.38 1.088,8.38c0,0 43.921,7.371 41.683,-23.478c-0.954,-13.158 -12.612,-17.468 -25.669,-18.085c-17.556,-0.829 -37.641,5.02 -37.641,5.02Z" style="fill:#b4dfc3;"/><path d="M179.361,220.313c0.982,-0.082 1.966,-0.15 2.95,-0.205c0.991,-0.055 1.983,-0.096 2.975,-0.12c1.769,-0.043 3.54,-0.037 5.308,0.037c0.972,0.04 1.943,0.1 2.912,0.182c0.615,0.053 1.23,0.116 1.843,0.187c1.651,0.193 3.295,0.462 4.917,0.827c0.575,0.129 1.147,0.271 1.716,0.427c1.745,0.477 3.458,1.081 5.093,1.857c1.245,0.591 2.445,1.28 3.563,2.085c0.331,0.239 0.655,0.487 0.971,0.744c0.421,0.344 0.827,0.705 1.216,1.083c0.505,0.491 0.981,1.011 1.423,1.559c0.375,0.463 0.725,0.945 1.049,1.444c0.408,0.628 0.773,1.282 1.096,1.957c0.538,1.124 0.954,2.306 1.255,3.515c0.228,0.911 0.391,1.838 0.497,2.772c0.079,0.697 0.126,1.399 0.154,2.1c0.087,2.24 -0.057,4.496 -0.529,6.69c-0.287,1.331 -0.694,2.636 -1.234,3.887c-0.55,1.276 -1.237,2.493 -2.051,3.62c-0.741,1.028 -1.586,1.979 -2.511,2.844c-0.326,0.304 -0.662,0.597 -1.007,0.88c-2.094,1.721 -4.503,3.03 -7.022,4.014c-0.373,0.145 -0.748,0.284 -1.126,0.416c-2.258,0.79 -4.592,1.348 -6.951,1.739c-1.654,0.275 -3.32,0.467 -4.992,0.594c-0.942,0.072 -1.885,0.123 -2.829,0.153c-1.792,0.058 -3.586,0.05 -5.378,-0.019c-1.636,-0.063 -3.272,-0.175 -4.902,-0.341c-1.028,-0.105 -2.055,-0.226 -3.077,-0.388l-0.042,-0.007c-0.16,-0.037 -0.203,-0.039 -0.356,-0.103c-0.228,-0.096 -0.434,-0.245 -0.597,-0.431c-0.082,-0.094 -0.153,-0.196 -0.211,-0.305c-0.048,-0.089 -0.082,-0.178 -0.118,-0.271c-0.035,-0.09 -0.07,-0.18 -0.104,-0.271c-0.16,-0.421 -0.312,-0.845 -0.458,-1.271c-0.197,-0.573 -0.384,-1.149 -0.555,-1.73c-0.129,-0.439 -0.25,-0.881 -0.359,-1.326c-0.084,-0.343 -0.16,-0.689 -0.225,-1.037c-0.045,-0.239 -0.084,-0.478 -0.116,-0.718c-0.023,-0.168 -0.041,-0.336 -0.055,-0.505c-0.011,-0.135 -0.019,-0.27 -0.023,-0.405c-0.02,-0.619 0.038,-1.257 0.294,-1.829c0.035,-0.078 0.074,-0.154 0.116,-0.229c0.057,-0.1 0.121,-0.197 0.191,-0.289c0.092,-0.119 0.194,-0.229 0.307,-0.329c0.137,-0.122 0.289,-0.226 0.451,-0.312c0.189,-0.098 0.391,-0.171 0.599,-0.215c0.071,-0.014 0.142,-0.024 0.213,-0.034c0.077,-0.008 0.154,-0.016 0.231,-0.023c0.432,-0.039 0.864,-0.075 1.296,-0.113c0.223,-0.02 0.445,-0.04 0.668,-0.061c0.609,-0.058 1.218,-0.12 1.826,-0.189c1.998,-0.226 3.99,-0.514 5.966,-0.893c1.649,-0.317 3.288,-0.692 4.901,-1.16c1.385,-0.402 2.754,-0.871 4.076,-1.45c0.634,-0.277 1.257,-0.581 1.862,-0.918c0.43,-0.24 0.851,-0.497 1.256,-0.777c0.469,-0.324 0.919,-0.676 1.334,-1.066c0.285,-0.267 0.554,-0.552 0.798,-0.858c0.206,-0.258 0.394,-0.53 0.559,-0.816c0.18,-0.311 0.33,-0.64 0.444,-0.981c0.163,-0.483 0.251,-0.989 0.268,-1.498c0.005,-0.137 0.005,-0.274 -0.001,-0.411c-0.011,-0.306 -0.048,-0.609 -0.126,-0.905c-0.049,-0.185 -0.113,-0.365 -0.191,-0.539c-0.177,-0.392 -0.432,-0.746 -0.731,-1.054c-0.262,-0.269 -0.558,-0.505 -0.87,-0.715c-0.091,-0.061 -0.184,-0.12 -0.278,-0.177c-0.119,-0.072 -0.24,-0.141 -0.363,-0.206c-0.151,-0.082 -0.306,-0.158 -0.462,-0.232c-0.211,-0.099 -0.427,-0.19 -0.644,-0.275c-0.26,-0.102 -0.523,-0.196 -0.789,-0.281c-0.374,-0.121 -0.752,-0.227 -1.133,-0.323c-0.475,-0.119 -0.955,-0.22 -1.437,-0.308c-0.957,-0.175 -1.923,-0.295 -2.891,-0.385c-0.384,-0.035 -0.768,-0.064 -1.152,-0.089c-0.927,-0.061 -1.857,-0.093 -2.786,-0.105c-1.499,-0.02 -2.998,0.011 -4.495,0.08c-1.504,0.068 -3.005,0.172 -4.505,0.304c-2.093,0.183 -4.181,0.418 -6.264,0.695c-1.992,0.264 -3.98,0.562 -5.963,0.891c-1.63,0.27 -3.257,0.561 -4.881,0.872c-1.502,0.289 -3.002,0.593 -4.496,0.925l-0.196,0.031c-0.066,0.002 -0.132,0.009 -0.198,0.007c-0.133,-0.003 -0.265,-0.023 -0.392,-0.058c-0.192,-0.052 -0.374,-0.14 -0.534,-0.258c-0.214,-0.157 -0.388,-0.366 -0.503,-0.605c-0.058,-0.12 -0.101,-0.246 -0.128,-0.375c-0.014,-0.065 -0.02,-0.131 -0.029,-0.197l-1.018,-11.908c-0.002,-0.062 -0.007,-0.124 -0.006,-0.187c0.004,-0.125 0.022,-0.249 0.054,-0.37c0.032,-0.121 0.078,-0.238 0.137,-0.348c0.147,-0.276 0.373,-0.508 0.647,-0.66c0.054,-0.03 0.111,-0.058 0.168,-0.081c0.096,-0.04 0.15,-0.054 0.236,-0.079c0.059,-0.017 0.119,-0.034 0.178,-0.051c0.227,-0.063 0.455,-0.126 0.682,-0.188c1.443,-0.391 2.895,-0.752 4.35,-1.095c1.597,-0.376 3.2,-0.726 4.807,-1.052c1.588,-0.323 3.18,-0.622 4.776,-0.897c2.704,-0.465 5.42,-0.859 8.146,-1.166c0.893,-0.1 1.786,-0.191 2.681,-0.273c0.278,-0.024 0.556,-0.048 0.834,-0.072ZM176.807,233.49c0.546,-0.044 1.093,-0.085 1.64,-0.122c1.803,-0.12 3.609,-0.197 5.416,-0.21c1.553,-0.011 3.107,0.026 4.657,0.133c0.853,0.059 1.706,0.141 2.554,0.253c0.653,0.086 1.304,0.189 1.95,0.314c0.509,0.099 1.015,0.213 1.518,0.343c0.38,0.099 0.758,0.209 1.133,0.329c0.264,0.086 0.526,0.177 0.787,0.275c0.191,0.072 0.381,0.148 0.569,0.228c1.19,0.504 2.328,1.173 3.255,2.081c0.112,0.111 0.221,0.224 0.327,0.341c0.147,0.163 0.287,0.334 0.42,0.51c0.162,0.216 0.311,0.442 0.446,0.675c0.192,0.332 0.356,0.681 0.489,1.041c0.186,0.507 0.309,1.037 0.373,1.573c0.034,0.295 0.051,0.592 0.054,0.888c0.006,0.5 -0.03,1.001 -0.11,1.494c-0.066,0.404 -0.16,0.803 -0.284,1.193c-0.189,0.596 -0.444,1.171 -0.757,1.713c-0.37,0.644 -0.819,1.241 -1.32,1.788c-0.423,0.46 -0.883,0.885 -1.367,1.279c-0.316,0.256 -0.643,0.498 -0.977,0.729c-0.751,0.519 -1.544,0.975 -2.358,1.386c-0.622,0.315 -1.258,0.602 -1.903,0.868c-0.96,0.395 -1.941,0.743 -2.932,1.055c-1.864,0.585 -3.765,1.046 -5.681,1.426c-2.209,0.439 -4.438,0.768 -6.675,1.022c-0.629,0.071 -1.259,0.136 -1.889,0.195c-0.468,0.044 -0.937,0.085 -1.406,0.125c0.002,0.054 0.006,0.108 0.009,0.162c0.03,0.366 0.089,0.73 0.162,1.09c0.071,0.355 0.155,0.708 0.247,1.059c0.262,1.001 0.584,1.985 0.932,2.959l0.027,0.076c1.045,0.14 2.094,0.25 3.145,0.34c1.309,0.111 2.621,0.189 3.934,0.233c1.735,0.058 3.473,0.057 5.208,-0.013c1.546,-0.062 3.092,-0.177 4.629,-0.361c0.892,-0.107 1.781,-0.233 2.666,-0.388c0.486,-0.085 0.97,-0.176 1.451,-0.277c0.722,-0.152 1.44,-0.32 2.153,-0.511c0.823,-0.221 1.638,-0.47 2.443,-0.751c0.341,-0.119 0.679,-0.244 1.015,-0.376c0.371,-0.144 0.737,-0.297 1.101,-0.457c2.073,-0.915 4.041,-2.1 5.721,-3.629c0.836,-0.76 1.597,-1.604 2.258,-2.52c0.723,-1.001 1.324,-2.087 1.796,-3.228c0.409,-0.987 0.72,-2.013 0.945,-3.057c0.403,-1.872 0.527,-3.798 0.464,-5.709c-0.01,-0.308 -0.026,-0.616 -0.045,-0.923c-0.027,-0.414 -0.063,-0.827 -0.112,-1.239c-0.103,-0.849 -0.261,-1.692 -0.484,-2.518c-0.349,-1.294 -0.86,-2.546 -1.545,-3.699c-0.285,-0.481 -0.598,-0.945 -0.94,-1.387c-0.396,-0.514 -0.827,-0.999 -1.288,-1.455c-0.185,-0.184 -0.376,-0.361 -0.57,-0.535c-1.584,-1.411 -3.446,-2.482 -5.398,-3.299c-1.481,-0.62 -3.02,-1.097 -4.581,-1.472c-1.079,-0.26 -2.169,-0.47 -3.265,-0.641c-0.565,-0.088 -1.132,-0.167 -1.7,-0.235c-2.825,-0.338 -5.674,-0.452 -8.518,-0.424c-3.404,0.035 -6.804,0.277 -10.187,0.651c-1.432,0.158 -2.862,0.343 -4.288,0.549c-2.325,0.335 -4.641,0.729 -6.948,1.174c-1.6,0.308 -3.196,0.641 -4.786,0.998c-1.41,0.316 -2.816,0.652 -4.217,1.01c-0.357,0.091 -0.712,0.185 -1.068,0.279l-0.062,0.016l0.744,8.708c0.219,-0.045 0.439,-0.09 0.658,-0.135c2.959,-0.601 5.932,-1.133 8.915,-1.6c1.15,-0.181 2.301,-0.35 3.454,-0.507c1.22,-0.166 2.44,-0.321 3.663,-0.459c1.17,-0.133 2.341,-0.251 3.514,-0.355c0.273,-0.024 0.546,-0.047 0.819,-0.069Z" style="fill:#b4dfc3;fill-rule:nonzero;"/><path d="M161.516,242.915l-64.739,-9.816c0,0 -4.563,5.447 -4.371,30.443c0.191,24.995 39.546,19.57 39.546,19.57c0,0 37.394,1.219 34.388,-21.382c-2.521,-18.957 -4.824,-18.815 -4.824,-18.815Z" style="fill:#b4dfc3;"/><path d="M90.332,224.548c0,0 2.818,3.778 7.752,8.453c14.544,13.778 47.475,35.341 80.846,-9.108c3.978,-5.299 -3.386,-19.489 -3.386,-19.489c-3.055,3.091 16.955,-31.48 -5.028,-64.516c-12.882,-19.36 -38.167,-28.643 -67.581,-25.564c-29.413,3.079 -61.663,32.152 -36.112,80.442c3.3,6.237 23.46,13.075 22.698,20.477c-0.393,3.824 0.811,9.305 0.811,9.305Z" style="fill:#e0faf1;"/><path d="M97.483,145.411c7.68,-1.567 16.382,9.25 19.419,24.14c3.038,14.89 -0.731,28.251 -8.411,29.818c-7.681,1.567 -16.382,-9.25 -19.42,-24.14c-3.038,-14.89 0.731,-28.251 8.412,-29.818Z" style="fill:#280f25;"/><path d="M152.795,140.682c7.68,-1.567 16.382,9.25 19.419,24.141c3.038,14.89 -0.731,28.251 -8.411,29.818c-7.681,1.566 -16.382,-9.25 -19.42,-24.141c-3.038,-14.89 0.731,-28.251 8.412,-29.818Z" style="fill:#280f25;"/><path d="M138.767,186.275c3.832,1.746 10.303,8.807 2.431,10.011c-7.459,1.142 -6.216,-5.257 -2.431,-10.011Z" style="fill:#280f25;"/><path d="M112.345,214.791c0.045,0.004 0.09,0.005 0.135,0.01c0.134,0.015 0.266,0.047 0.393,0.095c0.21,0.08 0.403,0.203 0.564,0.361c0.161,0.157 0.289,0.348 0.373,0.557c0.033,0.083 0.06,0.169 0.079,0.257c0.01,0.044 0.016,0.089 0.024,0.133l3.9,28.797c0.011,0.119 0.017,0.149 0.014,0.269c-0.006,0.18 -0.042,0.359 -0.105,0.527c-0.064,0.169 -0.155,0.326 -0.27,0.465c-0.087,0.104 -0.186,0.197 -0.295,0.276c-0.218,0.16 -0.475,0.263 -0.743,0.3c-0.223,0.03 -0.452,0.013 -0.668,-0.049c-0.174,-0.049 -0.338,-0.127 -0.486,-0.23c-0.259,-0.181 -0.462,-0.437 -0.58,-0.73c-0.033,-0.083 -0.06,-0.169 -0.079,-0.257c-0.01,-0.044 -0.016,-0.089 -0.024,-0.133l-3.9,-28.797c-0.004,-0.045 -0.01,-0.089 -0.012,-0.134c-0.007,-0.135 0.003,-0.271 0.029,-0.403c0.07,-0.354 0.26,-0.68 0.533,-0.916c0.136,-0.118 0.292,-0.213 0.459,-0.28c0.125,-0.051 0.256,-0.086 0.39,-0.104c0.045,-0.006 0.09,-0.008 0.134,-0.012c0.045,-0.001 0.09,-0.001 0.135,-0.002Z" style="fill:#280f25;fill-rule:nonzero;"/><path d="M133.429,212.981c0.051,0.002 0.101,0.001 0.151,0.004c0.101,0.008 0.2,0.024 0.297,0.05c0.195,0.051 0.38,0.139 0.543,0.257c0.203,0.148 0.372,0.343 0.488,0.566c0.07,0.133 0.121,0.277 0.152,0.425c0.01,0.049 0.016,0.099 0.024,0.148l3.922,34.929c0.009,0.134 0.016,0.167 0.006,0.301c-0.026,0.352 -0.168,0.692 -0.4,0.957c-0.133,0.152 -0.294,0.278 -0.472,0.371c-0.134,0.07 -0.277,0.121 -0.425,0.152c-0.148,0.03 -0.3,0.04 -0.45,0.029c-0.251,-0.018 -0.497,-0.095 -0.713,-0.223c-0.217,-0.129 -0.402,-0.307 -0.539,-0.519c-0.109,-0.169 -0.187,-0.358 -0.228,-0.555c-0.01,-0.049 -0.015,-0.099 -0.023,-0.149l-3.923,-34.928c-0.003,-0.05 -0.009,-0.1 -0.01,-0.151c-0.002,-0.1 0.005,-0.201 0.022,-0.3c0.041,-0.248 0.141,-0.486 0.288,-0.69c0.148,-0.203 0.343,-0.372 0.566,-0.488c0.134,-0.07 0.277,-0.121 0.425,-0.152c0.049,-0.01 0.099,-0.016 0.149,-0.024c0.05,-0.003 0.1,-0.006 0.15,-0.01Z" style="fill:#280f25;fill-rule:nonzero;"/><path d="M150.312,211.539c0.046,0.002 0.092,0.001 0.138,0.005c0.139,0.01 0.275,0.038 0.407,0.083c0.218,0.075 0.42,0.197 0.589,0.355c0.168,0.158 0.303,0.352 0.391,0.566c0.035,0.085 0.063,0.174 0.084,0.264c0.01,0.045 0.016,0.091 0.024,0.136l4.198,30.34c0.012,0.123 0.019,0.154 0.015,0.277c-0.006,0.185 -0.044,0.368 -0.111,0.54c-0.101,0.259 -0.268,0.49 -0.483,0.667c-0.178,0.147 -0.388,0.255 -0.611,0.316c-0.134,0.036 -0.272,0.055 -0.411,0.057c-0.184,0.001 -0.369,-0.028 -0.544,-0.088c-0.175,-0.06 -0.34,-0.15 -0.485,-0.264c-0.254,-0.202 -0.445,-0.478 -0.543,-0.787c-0.037,-0.118 -0.039,-0.149 -0.061,-0.27l-4.198,-30.34c-0.004,-0.046 -0.011,-0.092 -0.013,-0.138c-0.007,-0.139 0.003,-0.278 0.031,-0.414c0.046,-0.226 0.141,-0.442 0.277,-0.63c0.163,-0.224 0.383,-0.406 0.635,-0.523c0.126,-0.058 0.259,-0.1 0.395,-0.125c0.046,-0.009 0.092,-0.013 0.137,-0.019c0.047,-0.003 0.093,-0.005 0.139,-0.008Z" style="fill:#280f25;fill-rule:nonzero;"/><path d="M166.149,210.184c0.039,0 0.079,-0.001 0.119,0.001c0.119,0.005 0.238,0.023 0.353,0.055c0.192,0.051 0.374,0.139 0.535,0.256c0.193,0.14 0.354,0.323 0.469,0.532c0.058,0.105 0.104,0.215 0.137,0.33c0.03,0.102 0.032,0.129 0.05,0.233l3.032,21.832c0.01,0.106 0.016,0.132 0.015,0.238c-0.001,0.159 -0.026,0.318 -0.073,0.47c-0.059,0.19 -0.153,0.369 -0.275,0.525c-0.099,0.125 -0.215,0.236 -0.345,0.327c-0.294,0.207 -0.654,0.312 -1.012,0.296c-0.159,-0.007 -0.317,-0.038 -0.467,-0.09c-0.15,-0.053 -0.292,-0.128 -0.421,-0.221c-0.258,-0.188 -0.457,-0.451 -0.569,-0.749c-0.028,-0.075 -0.05,-0.151 -0.067,-0.229c-0.008,-0.039 -0.014,-0.078 -0.02,-0.118l-3.032,-21.832c-0.004,-0.039 -0.01,-0.079 -0.012,-0.119c-0.008,-0.119 -0.003,-0.238 0.016,-0.356c0.024,-0.157 0.072,-0.311 0.14,-0.454c0.156,-0.324 0.418,-0.592 0.738,-0.753c0.107,-0.054 0.219,-0.096 0.335,-0.125c0.103,-0.026 0.13,-0.027 0.235,-0.042c0.039,-0.002 0.079,-0.005 0.119,-0.007Z" style="fill:#280f25;fill-rule:nonzero;"/><path d="M105.032,112.486c2.508,-0.21 5.024,-0.335 7.542,-0.366c1.948,-0.025 3.898,0.008 5.845,0.098c1.74,0.08 3.478,0.209 5.211,0.388c0.958,0.099 1.915,0.212 2.87,0.342c5.598,0.763 11.132,2.066 16.441,4.008c1.158,0.424 2.306,0.878 3.441,1.363c1.208,0.517 2.402,1.069 3.578,1.656c1.29,0.645 2.558,1.333 3.8,2.065c0.942,0.555 1.87,1.134 2.78,1.74c0.747,0.496 1.482,1.009 2.205,1.539c2.114,1.548 4.121,3.243 5.996,5.072c2.334,2.278 4.462,4.767 6.341,7.433c0.497,0.706 0.976,1.425 1.441,2.152c0.461,0.72 0.908,1.448 1.341,2.186c2.034,3.465 3.746,7.12 5.087,10.908c1.074,3.032 1.912,6.146 2.509,9.306c0.598,3.168 0.955,6.38 1.084,9.6c0.149,3.694 -0.003,7.398 -0.419,11.071c-0.381,3.359 -0.983,6.692 -1.776,9.977c-0.477,1.975 -1.023,3.932 -1.629,5.871c-0.261,0.837 -0.534,1.671 -0.814,2.502c-0.224,0.663 -0.452,1.324 -0.678,1.987c-0.042,0.125 -0.084,0.25 -0.126,0.375l-0.022,0.065c0.057,0.113 0.113,0.227 0.169,0.34c0.442,0.905 0.859,1.821 1.254,2.747c0.364,0.853 0.708,1.715 1.031,2.584c0.341,0.92 0.658,1.85 0.943,2.789c0.287,0.948 0.541,1.906 0.748,2.874c0.146,0.681 0.268,1.368 0.357,2.059c0.074,0.57 0.126,1.145 0.148,1.72c0.037,0.975 -0.011,1.959 -0.203,2.918c-0.162,0.808 -0.429,1.601 -0.836,2.32c-0.103,0.181 -0.213,0.357 -0.332,0.528c-0.103,0.147 -0.214,0.29 -0.322,0.433c-0.066,0.088 -0.132,0.175 -0.198,0.262c-0.392,0.517 -0.789,1.03 -1.19,1.54c-1.58,2.009 -3.23,3.966 -4.958,5.85c-0.84,0.916 -1.699,1.815 -2.577,2.694c-0.776,0.777 -1.568,1.539 -2.376,2.283c-0.585,0.539 -1.178,1.069 -1.78,1.588c-3.6,3.106 -7.521,5.862 -11.768,8.014c-0.639,0.324 -1.285,0.634 -1.938,0.929c-0.949,0.429 -1.911,0.827 -2.886,1.191c-1.251,0.467 -2.523,0.877 -3.811,1.227c-1.661,0.45 -3.351,0.8 -5.055,1.04c-2.225,0.314 -4.473,0.444 -6.719,0.388c-1.578,-0.04 -3.154,-0.171 -4.718,-0.386c-1.135,-0.157 -2.265,-0.359 -3.384,-0.603c-1.047,-0.229 -2.085,-0.494 -3.114,-0.794c-2.485,-0.723 -4.911,-1.647 -7.262,-2.73c-3.001,-1.383 -5.881,-3.024 -8.631,-4.855c-0.747,-0.497 -1.484,-1.008 -2.212,-1.532c-1.126,-0.81 -2.23,-1.652 -3.311,-2.521c-1.409,-1.133 -2.781,-2.314 -4.115,-3.535c-1.959,-1.795 -3.839,-3.679 -5.625,-5.646c-0.711,-0.782 -1.407,-1.578 -2.083,-2.389c-0.23,-0.277 -0.458,-0.555 -0.684,-0.835c-0.208,-0.259 -0.413,-0.52 -0.613,-0.785l-0.181,-0.304c-0.038,-0.112 -0.077,-0.224 -0.112,-0.336c-0.007,-0.022 -0.009,-0.044 -0.014,-0.066c-0.006,-0.028 -0.012,-0.055 -0.017,-0.083c-0.017,-0.081 -0.035,-0.167 -0.051,-0.248c-0.045,-0.226 -0.088,-0.452 -0.13,-0.678c-0.116,-0.636 -0.221,-1.274 -0.313,-1.913c-0.128,-0.889 -0.232,-1.782 -0.303,-2.678c-0.066,-0.831 -0.105,-1.665 -0.097,-2.499c0.003,-0.38 0.017,-0.761 0.043,-1.14c0.007,-0.103 0.015,-0.205 0.024,-0.307c0.008,-0.093 0.019,-0.187 0.026,-0.28c0.002,-0.034 0.004,-0.068 0.005,-0.102c0.002,-0.104 -0.001,-0.208 -0.012,-0.312c-0.056,-0.555 -0.286,-1.079 -0.568,-1.554c-0.062,-0.103 -0.126,-0.205 -0.193,-0.305c-0.081,-0.12 -0.165,-0.237 -0.252,-0.352c-0.121,-0.161 -0.247,-0.317 -0.378,-0.47c-0.162,-0.191 -0.332,-0.376 -0.506,-0.556c-0.442,-0.46 -0.913,-0.89 -1.399,-1.302c-0.548,-0.464 -1.115,-0.905 -1.692,-1.332c-0.779,-0.576 -1.576,-1.125 -2.383,-1.66c-0.73,-0.485 -1.467,-0.958 -2.207,-1.426c-1.091,-0.69 -2.188,-1.369 -3.281,-2.054c-0.251,-0.158 -0.501,-0.315 -0.751,-0.473c-0.815,-0.517 -1.627,-1.038 -2.429,-1.575c-0.722,-0.484 -1.435,-0.981 -2.131,-1.502c-0.548,-0.41 -1.084,-0.835 -1.601,-1.283c-0.567,-0.492 -1.109,-1.014 -1.603,-1.58c-0.353,-0.405 -0.679,-0.838 -0.956,-1.299c-0.121,-0.202 -0.229,-0.411 -0.338,-0.619c-0.126,-0.239 -0.25,-0.478 -0.373,-0.717c-0.412,-0.8 -0.815,-1.604 -1.206,-2.414c-1.551,-3.213 -2.931,-6.511 -4.084,-9.888c-1.58,-4.625 -2.736,-9.405 -3.289,-14.265c-0.339,-2.981 -0.45,-5.99 -0.294,-8.987c0.149,-2.856 0.54,-5.699 1.19,-8.485c0.5,-2.144 1.153,-4.253 1.957,-6.302c0.682,-1.739 1.472,-3.436 2.364,-5.077c0.563,-1.037 1.167,-2.052 1.809,-3.043c0.881,-1.359 1.834,-2.673 2.852,-3.934c0.887,-1.098 1.822,-2.157 2.801,-3.175c2.687,-2.791 5.703,-5.262 8.944,-7.383c2.468,-1.615 5.066,-3.032 7.758,-4.236c1.079,-0.483 2.172,-0.934 3.278,-1.349c1.444,-0.542 2.909,-1.025 4.392,-1.45c0.647,-0.185 1.298,-0.358 1.952,-0.52c1.589,-0.394 3.196,-0.718 4.813,-0.97c0.711,-0.111 1.424,-0.207 2.139,-0.289c0.7,-0.081 1.401,-0.148 2.103,-0.212c0.232,-0.021 0.464,-0.041 0.697,-0.061ZM104.967,115.769c-0.507,0.044 -1.015,0.092 -1.522,0.144c-0.28,0.028 -0.561,0.057 -0.841,0.089c-0.671,0.078 -1.341,0.168 -2.008,0.272c-1.522,0.237 -3.034,0.542 -4.529,0.913c-0.616,0.153 -1.23,0.316 -1.84,0.49c-1.174,0.337 -2.337,0.712 -3.486,1.126c-1.268,0.457 -2.519,0.963 -3.749,1.514c-1.291,0.578 -2.56,1.207 -3.8,1.887c-1.923,1.054 -3.781,2.227 -5.555,3.517c-2.407,1.752 -4.658,3.721 -6.699,5.89c-0.78,0.828 -1.528,1.687 -2.243,2.572c-0.908,1.125 -1.761,2.295 -2.553,3.506c-1.547,2.366 -2.859,4.885 -3.903,7.513c-0.778,1.958 -1.408,3.975 -1.887,6.027c-0.362,1.555 -0.639,3.131 -0.832,4.717c-0.142,1.166 -0.238,2.338 -0.291,3.511c-0.045,0.999 -0.059,1.999 -0.044,2.999c0.083,5.224 0.981,10.413 2.432,15.425c0.233,0.803 0.479,1.601 0.74,2.394c0.268,0.818 0.549,1.63 0.845,2.438c1.027,2.811 2.212,5.562 3.521,8.253c0.36,0.739 0.729,1.473 1.107,2.203c0.095,0.185 0.192,0.37 0.289,0.554c0.091,0.173 0.179,0.347 0.281,0.513c0.158,0.255 0.341,0.494 0.535,0.722c0.405,0.475 0.86,0.908 1.331,1.317c0.519,0.45 1.061,0.873 1.613,1.28c0.662,0.489 1.34,0.955 2.024,1.411c0.947,0.63 1.908,1.237 2.87,1.842c0.842,0.528 1.686,1.052 2.527,1.579c0.975,0.612 1.948,1.229 2.908,1.865c0.775,0.513 1.543,1.037 2.295,1.583c0.571,0.414 1.134,0.84 1.682,1.284c0.386,0.313 0.765,0.634 1.134,0.967c0.292,0.264 0.578,0.534 0.854,0.813c0.209,0.211 0.413,0.428 0.611,0.649c0.138,0.155 0.273,0.313 0.405,0.474c0.756,0.927 1.402,1.97 1.739,3.125c0.044,0.152 0.083,0.306 0.116,0.461c0.046,0.215 0.08,0.432 0.102,0.65c0.024,0.241 0.033,0.484 0.027,0.726c-0.003,0.101 -0.009,0.202 -0.016,0.303c-0.011,0.121 -0.023,0.241 -0.033,0.361c-0.053,0.671 -0.059,1.344 -0.036,2.016c0.019,0.59 0.06,1.178 0.115,1.765c0.062,0.671 0.144,1.341 0.24,2.009c0.116,0.807 0.254,1.612 0.412,2.412c0.09,0.115 0.18,0.229 0.271,0.343c0.961,1.2 1.971,2.361 3.011,3.493c1.169,1.271 2.378,2.506 3.622,3.703c1.392,1.338 2.83,2.628 4.312,3.866c1.176,0.983 2.381,1.931 3.615,2.84c0.8,0.59 1.611,1.164 2.435,1.72c0.725,0.489 1.458,0.964 2.201,1.424c3.445,2.13 7.095,3.945 10.925,5.273c0.688,0.239 1.382,0.462 2.081,0.668c0.703,0.208 1.412,0.398 2.125,0.57c0.821,0.199 1.648,0.373 2.479,0.522c1.264,0.225 2.538,0.391 3.818,0.494c1.693,0.137 3.395,0.159 5.091,0.068c2.535,-0.136 5.054,-0.537 7.51,-1.179c1.619,-0.423 3.21,-0.951 4.764,-1.571c2.389,-0.952 4.69,-2.124 6.886,-3.461c3.417,-2.079 6.585,-4.551 9.525,-7.259c1.516,-1.397 2.973,-2.858 4.376,-4.369c1.601,-1.723 3.133,-3.511 4.603,-5.348c0.72,-0.9 1.425,-1.812 2.118,-2.732c0.025,-0.034 0.049,-0.068 0.073,-0.103c0.059,-0.086 0.114,-0.175 0.165,-0.267c0.13,-0.233 0.231,-0.481 0.312,-0.735c0.098,-0.307 0.165,-0.623 0.212,-0.941c0.068,-0.459 0.093,-0.924 0.091,-1.387c-0.002,-0.556 -0.043,-1.111 -0.109,-1.662c-0.106,-0.894 -0.278,-1.78 -0.488,-2.655c-0.218,-0.909 -0.478,-1.808 -0.767,-2.697c-0.313,-0.966 -0.661,-1.922 -1.034,-2.867c-0.363,-0.918 -0.749,-1.827 -1.159,-2.725c-0.125,-0.274 -0.252,-0.547 -0.381,-0.819l-0.005,-0.01l-0.172,-0.088c-0.043,-0.029 -0.084,-0.061 -0.127,-0.091c-0.001,-0.001 -0.003,-0.003 -0.004,-0.004c-0.074,-0.069 -0.156,-0.13 -0.219,-0.209c-0.031,-0.038 -0.061,-0.076 -0.092,-0.115l-0.004,-0.005c-0.028,-0.045 -0.121,-0.184 -0.157,-0.261c-0.021,-0.044 -0.04,-0.089 -0.058,-0.135c-0.03,-0.078 -0.053,-0.161 -0.072,-0.243c-0.014,-0.065 -0.024,-0.128 -0.031,-0.194c-0.035,-0.31 0.014,-0.62 0.088,-0.921c0.037,-0.151 0.08,-0.301 0.125,-0.45c0.146,-0.481 0.311,-0.956 0.474,-1.431c0.145,-0.421 0.289,-0.842 0.432,-1.264c0.065,-0.191 0.13,-0.383 0.194,-0.575c0.141,-0.422 0.281,-0.845 0.417,-1.269c0.255,-0.791 0.501,-1.586 0.735,-2.383c0.546,-1.855 1.033,-3.726 1.452,-5.613c1.263,-5.685 1.922,-11.513 1.808,-17.339c-0.061,-3.148 -0.348,-6.291 -0.877,-9.395c-0.507,-2.978 -1.237,-5.917 -2.188,-8.785c-0.633,-1.907 -1.364,-3.781 -2.187,-5.614c-1.021,-2.27 -2.183,-4.476 -3.473,-6.604c-0.486,-0.803 -0.991,-1.596 -1.513,-2.377c-1.728,-2.581 -3.7,-4.998 -5.879,-7.212c-1.758,-1.787 -3.647,-3.443 -5.643,-4.96c-1.315,-0.999 -2.675,-1.936 -4.073,-2.814c-1.035,-0.65 -2.09,-1.266 -3.164,-1.849c-0.967,-0.525 -1.948,-1.024 -2.942,-1.495c-1.093,-0.519 -2.2,-1.007 -3.321,-1.463c-3.477,-1.415 -7.073,-2.533 -10.729,-3.378c-3.005,-0.694 -6.049,-1.207 -9.112,-1.557c-1.609,-0.184 -3.224,-0.322 -4.842,-0.416c-2.088,-0.122 -4.181,-0.175 -6.274,-0.158c-1.596,0.012 -3.191,0.063 -4.785,0.15c-0.894,0.049 -1.786,0.111 -2.678,0.182c-0.225,0.019 -0.45,0.037 -0.675,0.057Z" style="fill:#b4dfc3;fill-rule:nonzero;"/><g id="Layer1"><path d="M90.338,307.58l16.497,5.619l-1.952,6.229l-5.976,8.594l-5.775,4.128l-6.291,-0.277l-7.233,-2.354l-3.349,-3.504l2.155,-3.991l6.011,-7.617l5.913,-6.827Z" style="fill:#280f25;"/><path d="M150.437,311.249l16.492,-0.721l1.113,13.028l-3.224,5.947l-6.066,2.744l-9.048,-0.892l-0.583,-6.77l1.316,-13.336Z" style="fill:#280f25;"/><path d="M110.759,247.885l1.81,9.846l10.257,1.485l-9.138,4.601l1.811,9.847l-7.459,-7.003l-9.138,4.6l4.529,-8.929l-7.459,-7.003l10.258,1.485l4.529,-8.929Z" style="fill:#280f25;"/><path d="M96.518,311.099c0.09,0.005 0.114,0.003 0.203,0.022c0.134,0.03 0.261,0.088 0.371,0.169c0.11,0.081 0.203,0.185 0.27,0.304c0.102,0.179 0.145,0.389 0.122,0.593c-0.01,0.089 -0.033,0.176 -0.064,0.26c-0.011,0.032 -0.023,0.064 -0.037,0.095c-0.042,0.093 -0.1,0.18 -0.169,0.256c-0.162,0.177 -0.388,0.291 -0.628,0.314c-0.136,0.013 -0.275,-0.002 -0.404,-0.045c-0.098,-0.033 -0.19,-0.081 -0.272,-0.141c-0.194,-0.143 -0.33,-0.356 -0.379,-0.592c-0.02,-0.101 -0.025,-0.204 -0.013,-0.306c0.009,-0.089 0.032,-0.176 0.063,-0.259c0.012,-0.032 0.023,-0.065 0.038,-0.096c0.056,-0.124 0.139,-0.237 0.241,-0.327c0.103,-0.091 0.224,-0.16 0.355,-0.202c0.087,-0.027 0.11,-0.027 0.2,-0.041c0.034,-0.001 0.068,-0.003 0.103,-0.004ZM99.489,301.749c0.034,0.004 0.068,0.006 0.102,0.012c0.067,0.012 0.133,0.031 0.197,0.056c0.095,0.039 0.184,0.092 0.263,0.158c0.184,0.155 0.307,0.376 0.34,0.614c0.015,0.101 0.013,0.205 -0.005,0.306c-0.006,0.034 -0.015,0.067 -0.023,0.1c-0.081,0.285 -0.164,0.57 -0.247,0.855c-0.282,0.965 -0.571,1.929 -0.866,2.89l-0.009,0.03c-0.012,0.032 -0.022,0.064 -0.035,0.096c-0.054,0.126 -0.134,0.24 -0.235,0.333c-0.201,0.188 -0.479,0.283 -0.754,0.258c-0.102,-0.009 -0.202,-0.034 -0.297,-0.074c-0.094,-0.041 -0.182,-0.096 -0.259,-0.163c-0.078,-0.068 -0.144,-0.147 -0.197,-0.235c-0.106,-0.177 -0.153,-0.386 -0.135,-0.591c0.008,-0.091 0.017,-0.112 0.039,-0.201c0.119,-0.385 0.236,-0.771 0.353,-1.157c0.257,-0.855 0.509,-1.711 0.756,-2.568l0.003,-0.011c0.029,-0.086 0.033,-0.109 0.076,-0.19c0.113,-0.213 0.304,-0.379 0.53,-0.461c0.064,-0.024 0.131,-0.04 0.198,-0.05c0.034,-0.005 0.068,-0.006 0.103,-0.009c0.034,0.001 0.068,0.001 0.102,0.002ZM101.813,292.25c0.034,0.002 0.069,0.002 0.103,0.005c0.102,0.011 0.202,0.038 0.296,0.079c0.094,0.042 0.181,0.098 0.257,0.166c0.179,0.161 0.295,0.386 0.32,0.625c0.008,0.068 0.008,0.137 0.001,0.205c-0.004,0.034 -0.011,0.068 -0.016,0.101c-0.036,0.17 -0.072,0.339 -0.108,0.508c-0.175,0.813 -0.359,1.624 -0.552,2.432c-0.052,0.219 -0.105,0.438 -0.159,0.656c-0.012,0.051 -0.06,0.265 -0.092,0.354c-0.035,0.097 -0.085,0.188 -0.148,0.269c-0.063,0.081 -0.138,0.152 -0.223,0.209c-0.17,0.116 -0.376,0.176 -0.582,0.169c-0.102,-0.003 -0.204,-0.023 -0.301,-0.057c-0.096,-0.035 -0.187,-0.085 -0.268,-0.148c-0.081,-0.063 -0.152,-0.139 -0.21,-0.224c-0.115,-0.17 -0.175,-0.375 -0.169,-0.581c0.003,-0.091 0.011,-0.113 0.028,-0.203c0.048,-0.192 0.095,-0.385 0.141,-0.578c0.101,-0.417 0.2,-0.834 0.296,-1.252c0.149,-0.651 0.292,-1.303 0.43,-1.957l0.026,-0.099c0.012,-0.032 0.023,-0.064 0.037,-0.096c0.027,-0.062 0.061,-0.122 0.102,-0.177c0.12,-0.167 0.293,-0.293 0.489,-0.357c0.086,-0.028 0.11,-0.029 0.2,-0.043c0.034,-0.002 0.068,-0.004 0.102,-0.006ZM102.98,282.549c0.034,0.004 0.069,0.006 0.102,0.011c0.068,0.011 0.134,0.029 0.198,0.054c0.257,0.099 0.464,0.307 0.562,0.565c0.038,0.098 0.055,0.201 0.068,0.305c0.013,0.109 0.021,0.218 0.028,0.327c0.026,0.407 0.025,0.816 0.014,1.224c-0.006,0.214 -0.016,0.429 -0.028,0.643c-0.014,0.255 -0.033,0.51 -0.054,0.765c-0.029,0.351 -0.065,0.703 -0.104,1.054l-0.006,0.05c-0.005,0.034 -0.009,0.068 -0.017,0.101c-0.029,0.134 -0.087,0.261 -0.169,0.371c-0.061,0.082 -0.135,0.155 -0.219,0.214c-0.083,0.06 -0.176,0.106 -0.274,0.137c-0.263,0.083 -0.554,0.049 -0.792,-0.091c-0.088,-0.052 -0.168,-0.118 -0.236,-0.195c-0.136,-0.154 -0.221,-0.35 -0.241,-0.555c-0.009,-0.091 -0.004,-0.114 0.002,-0.205c0.013,-0.117 0.026,-0.233 0.038,-0.35c0.071,-0.692 0.128,-1.386 0.144,-2.081c0.006,-0.247 0.006,-0.494 -0.002,-0.741c-0.004,-0.105 -0.009,-0.209 -0.018,-0.313c-0.004,-0.054 -0.009,-0.108 -0.017,-0.161l-0.011,-0.102c0.001,-0.034 -0.001,-0.068 0.001,-0.102c0.003,-0.068 0.014,-0.136 0.032,-0.202c0.027,-0.099 0.069,-0.194 0.126,-0.28c0.112,-0.172 0.279,-0.307 0.471,-0.38c0.064,-0.024 0.13,-0.042 0.198,-0.052c0.034,-0.006 0.068,-0.007 0.102,-0.011c0.034,0 0.068,0 0.102,0Z" style="fill:#280f25;fill-rule:nonzero;"/><path d="M157.384,311.925c0.035,0.001 0.071,0 0.106,0.003c0.07,0.006 0.14,0.019 0.208,0.04c0.272,0.084 0.499,0.287 0.612,0.549c0.014,0.033 0.026,0.066 0.036,0.1c0.024,0.077 0.043,0.191 0.057,0.264c0.009,0.049 0.059,0.284 0.067,0.384c0.017,0.212 -0.037,0.428 -0.152,0.607c-0.058,0.089 -0.129,0.169 -0.212,0.236c-0.083,0.066 -0.177,0.119 -0.276,0.155c-0.2,0.073 -0.422,0.079 -0.626,0.016c-0.101,-0.031 -0.197,-0.079 -0.283,-0.141c-0.087,-0.062 -0.162,-0.139 -0.224,-0.225c-0.062,-0.086 -0.11,-0.182 -0.141,-0.284c-0.029,-0.096 -0.068,-0.331 -0.078,-0.381l-0.03,-0.16c-0.005,-0.035 -0.012,-0.07 -0.015,-0.105c-0.005,-0.071 -0.003,-0.142 0.006,-0.212c0.015,-0.105 0.046,-0.208 0.093,-0.303c0.095,-0.19 0.252,-0.347 0.443,-0.442c0.063,-0.031 0.13,-0.056 0.199,-0.073c0.034,-0.008 0.069,-0.013 0.104,-0.02c0.035,-0.003 0.07,-0.005 0.106,-0.008ZM155.404,302.346c0.036,0.003 0.071,0.004 0.106,0.009c0.07,0.011 0.139,0.029 0.205,0.054c0.233,0.088 0.426,0.265 0.535,0.489c0.041,0.085 0.044,0.11 0.071,0.2c0.067,0.284 0.135,0.569 0.201,0.854c0.231,0.991 0.454,1.983 0.671,2.977l0.001,0.009c0.015,0.093 0.023,0.116 0.023,0.21c-0.001,0.178 -0.051,0.353 -0.142,0.505c-0.055,0.091 -0.125,0.172 -0.206,0.241c-0.082,0.068 -0.174,0.123 -0.273,0.162c-0.098,0.039 -0.203,0.062 -0.309,0.067c-0.285,0.015 -0.568,-0.099 -0.763,-0.307c-0.097,-0.103 -0.172,-0.227 -0.216,-0.361c-0.011,-0.034 -0.019,-0.069 -0.028,-0.103c-0.068,-0.314 -0.138,-0.629 -0.207,-0.943c-0.198,-0.886 -0.4,-1.771 -0.61,-2.654l-0.048,-0.204c-0.006,-0.034 -0.015,-0.069 -0.019,-0.104c-0.013,-0.105 -0.009,-0.213 0.012,-0.317c0.042,-0.208 0.153,-0.401 0.313,-0.541c0.08,-0.07 0.171,-0.127 0.269,-0.168c0.065,-0.027 0.133,-0.048 0.203,-0.06c0.035,-0.007 0.07,-0.009 0.105,-0.013c0.036,-0.001 0.071,-0.002 0.106,-0.002ZM152.824,292.907c0.093,0.012 0.117,0.011 0.208,0.037c0.205,0.059 0.387,0.185 0.515,0.356c0.042,0.056 0.078,0.118 0.107,0.182c0.015,0.032 0.026,0.066 0.038,0.099c0.077,0.233 0.151,0.467 0.225,0.701c0.306,0.974 0.597,1.952 0.877,2.934l0.043,0.153c0.021,0.092 0.03,0.115 0.035,0.209c0.011,0.177 -0.028,0.355 -0.11,0.512c-0.049,0.094 -0.114,0.18 -0.191,0.253c-0.076,0.074 -0.165,0.135 -0.261,0.18c-0.259,0.121 -0.563,0.122 -0.823,0.003c-0.096,-0.044 -0.186,-0.104 -0.263,-0.176c-0.103,-0.097 -0.185,-0.216 -0.238,-0.348c-0.013,-0.032 -0.023,-0.067 -0.034,-0.1c-0.076,-0.266 -0.152,-0.532 -0.229,-0.798c-0.283,-0.975 -0.579,-1.945 -0.892,-2.911l-0.001,-0.004c-0.009,-0.034 -0.02,-0.068 -0.027,-0.103c-0.015,-0.069 -0.022,-0.14 -0.021,-0.21c0.001,-0.106 0.019,-0.212 0.054,-0.313c0.082,-0.235 0.254,-0.433 0.475,-0.548c0.094,-0.049 0.196,-0.082 0.301,-0.098c0.035,-0.005 0.07,-0.007 0.106,-0.011c0.035,0.001 0.07,0.001 0.106,0.001ZM148.806,283.979c0.094,0.004 0.119,0.001 0.211,0.02c0.139,0.029 0.271,0.088 0.385,0.173c0.087,0.065 0.159,0.145 0.227,0.23c0.07,0.086 0.136,0.175 0.2,0.266c0.12,0.17 0.233,0.346 0.343,0.523c0.107,0.174 0.209,0.35 0.309,0.528c0.106,0.189 0.208,0.379 0.308,0.571c0.119,0.229 0.234,0.459 0.346,0.691c0.154,0.32 0.302,0.643 0.447,0.968l0.017,0.039c0.033,0.088 0.046,0.109 0.064,0.201c0.035,0.174 0.022,0.356 -0.038,0.523c-0.035,0.1 -0.087,0.194 -0.153,0.278c-0.066,0.083 -0.145,0.155 -0.234,0.213c-0.239,0.156 -0.541,0.2 -0.814,0.119c-0.102,-0.031 -0.199,-0.078 -0.285,-0.139c-0.116,-0.081 -0.214,-0.188 -0.284,-0.311c-0.018,-0.03 -0.032,-0.063 -0.048,-0.094c-0.047,-0.105 -0.094,-0.209 -0.141,-0.314c-0.288,-0.631 -0.592,-1.257 -0.936,-1.861c-0.121,-0.213 -0.246,-0.423 -0.381,-0.628c-0.045,-0.068 -0.092,-0.137 -0.14,-0.204c-0.041,-0.058 -0.083,-0.116 -0.13,-0.17l-0.065,-0.083c-0.019,-0.03 -0.039,-0.06 -0.056,-0.091c-0.051,-0.093 -0.086,-0.194 -0.105,-0.299c-0.018,-0.104 -0.019,-0.212 -0.003,-0.317c0.042,-0.282 0.211,-0.536 0.453,-0.686c0.09,-0.056 0.19,-0.097 0.293,-0.121c0.035,-0.008 0.07,-0.012 0.105,-0.018c0.035,-0.002 0.07,-0.005 0.105,-0.007Z" style="fill:#280f25;fill-rule:nonzero;"/></g><path d="M146.455,274.72c0.089,-0.005 0.179,-0.011 0.269,-0.013c0.176,-0.005 0.352,-0.002 0.527,0.008c0.503,0.029 1.003,0.115 1.489,0.245c0.242,0.065 0.481,0.141 0.717,0.224c0.383,0.136 0.758,0.297 1.124,0.473c0.464,0.223 0.914,0.474 1.351,0.744c0.279,0.172 0.554,0.352 0.824,0.539c0.375,0.259 0.743,0.53 1.103,0.811c0.266,0.206 0.529,0.416 0.784,0.636c0.278,0.239 0.547,0.489 0.807,0.748c0.621,0.616 1.195,1.278 1.733,1.967c0.538,0.689 1.04,1.405 1.515,2.138c0.55,0.849 1.063,1.721 1.548,2.608c0.554,1.015 1.071,2.05 1.559,3.098c0.567,1.219 1.094,2.456 1.588,3.707c0.578,1.462 1.11,2.942 1.603,4.435c0.755,2.286 1.417,4.602 1.991,6.94c0.461,1.876 0.863,3.766 1.201,5.668c0.25,1.409 0.464,2.825 0.634,4.246c0.137,1.147 0.245,2.297 0.317,3.45c0.063,1.005 0.098,2.013 0.095,3.02c-0.001,0.865 -0.031,1.731 -0.098,2.594c-0.069,0.884 -0.178,1.766 -0.346,2.638c-0.1,0.516 -0.222,1.029 -0.371,1.533c-0.172,0.578 -0.381,1.144 -0.641,1.688c-0.358,0.747 -0.818,1.452 -1.408,2.038c-0.28,0.278 -0.591,0.522 -0.913,0.75c-0.593,0.418 -1.234,0.767 -1.901,1.054c-0.936,0.403 -1.919,0.688 -2.917,0.889c-1.293,0.26 -2.612,0.381 -3.929,0.414c-0.871,0.023 -1.742,0.005 -2.611,-0.044c-0.624,-0.035 -1.247,-0.086 -1.869,-0.153c-0.615,-0.065 -1.229,-0.145 -1.84,-0.24c-0.474,-0.074 -0.946,-0.157 -1.416,-0.253l-0.037,-0.008c-0.163,-0.045 -0.206,-0.05 -0.359,-0.122c-0.344,-0.164 -0.625,-0.448 -0.783,-0.795c-0.053,-0.115 -0.092,-0.236 -0.117,-0.361c-0.021,-0.106 -0.026,-0.18 -0.034,-0.28c-0.01,-0.128 -0.019,-0.255 -0.028,-0.383c-0.04,-0.6 -0.065,-1.202 -0.076,-1.804c-0.037,-2.097 0.097,-4.193 0.306,-6.279c0.186,-1.857 0.433,-3.707 0.663,-5.558c0.028,-0.222 0.055,-0.443 0.082,-0.665c0.187,-1.567 0.358,-3.139 0.424,-4.717c0.023,-0.531 0.033,-1.062 0.026,-1.594c-0.005,-0.407 -0.018,-0.815 -0.056,-1.221c-0.056,-0.584 -0.15,-1.164 -0.261,-1.74c-0.136,-0.705 -0.298,-1.405 -0.473,-2.101c-0.2,-0.79 -0.419,-1.575 -0.648,-2.357c-0.262,-0.892 -0.539,-1.779 -0.826,-2.663c-0.481,-1.48 -0.988,-2.951 -1.511,-4.417c-0.633,-1.774 -1.288,-3.539 -1.954,-5.301c-0.507,-1.343 -1.021,-2.684 -1.531,-4.026c-0.095,-0.249 -0.189,-0.498 -0.283,-0.747c-0.26,-0.691 -0.522,-1.383 -0.761,-2.082c-0.077,-0.224 -0.151,-0.449 -0.217,-0.676c-0.064,-0.222 -0.121,-0.449 -0.137,-0.679c-0.005,-0.074 -0.005,-0.075 -0.005,-0.138l0.007,-0.16c0.02,-0.218 0.05,-0.434 0.084,-0.65c0.049,-0.304 0.108,-0.606 0.177,-0.907c0.072,-0.311 0.155,-0.62 0.249,-0.925c0.071,-0.229 0.149,-0.455 0.233,-0.679c0.075,-0.2 0.156,-0.398 0.243,-0.592c0.417,-0.931 0.98,-1.809 1.731,-2.506c0.133,-0.124 0.273,-0.242 0.417,-0.353c0.171,-0.132 0.35,-0.254 0.536,-0.365c0.289,-0.173 0.595,-0.318 0.911,-0.434c0.276,-0.1 0.56,-0.178 0.848,-0.232c0.162,-0.03 0.326,-0.052 0.489,-0.07c0.051,-0.005 0.101,-0.009 0.152,-0.013ZM146.649,277.98c-0.18,0.018 -0.359,0.051 -0.53,0.111c-0.116,0.041 -0.228,0.091 -0.336,0.15c-0.23,0.128 -0.435,0.3 -0.614,0.493c-0.318,0.343 -0.563,0.75 -0.762,1.172c-0.063,0.134 -0.122,0.27 -0.176,0.407c-0.07,0.176 -0.133,0.354 -0.191,0.534c-0.074,0.232 -0.139,0.467 -0.195,0.704c-0.077,0.323 -0.139,0.649 -0.184,0.978c-0.001,0.006 0.003,0.011 0.004,0.016c0.007,0.022 0.014,0.044 0.02,0.066c0.107,0.344 0.228,0.683 0.35,1.022c0.169,0.467 0.343,0.932 0.518,1.397c0.477,1.265 0.962,2.527 1.442,3.79c0.188,0.495 0.375,0.99 0.562,1.485c0.851,2.265 1.688,4.536 2.476,6.824c0.511,1.483 1.003,2.972 1.459,4.472c0.242,0.796 0.474,1.595 0.691,2.398c0.179,0.664 0.348,1.332 0.5,2.003c0.131,0.576 0.25,1.155 0.35,1.737c0.095,0.559 0.174,1.121 0.22,1.686c0.022,0.269 0.034,0.538 0.043,0.808c0.008,0.266 0.012,0.533 0.012,0.799c0.002,0.922 -0.039,1.842 -0.106,2.761c-0.089,1.224 -0.223,2.444 -0.37,3.662c-0.122,1.021 -0.254,2.04 -0.382,3.06c-0.028,0.229 -0.056,0.457 -0.084,0.686c-0.181,1.494 -0.346,2.991 -0.45,4.492c-0.072,1.04 -0.116,2.081 -0.117,3.123c0,0.491 0.009,0.981 0.028,1.471l0.002,0.05c1.008,0.157 2.022,0.273 3.039,0.343c0.718,0.05 1.438,0.076 2.158,0.075c0.831,-0.002 1.664,-0.041 2.491,-0.133c0.64,-0.072 1.276,-0.173 1.903,-0.319c0.587,-0.138 1.165,-0.313 1.723,-0.543c0.296,-0.123 0.586,-0.261 0.865,-0.418c0.228,-0.129 0.45,-0.27 0.662,-0.426c0.121,-0.089 0.242,-0.181 0.352,-0.284c0.324,-0.306 0.568,-0.69 0.767,-1.086c0.133,-0.266 0.246,-0.541 0.345,-0.821c0.123,-0.348 0.225,-0.704 0.312,-1.063c0.13,-0.541 0.227,-1.09 0.301,-1.641c0.073,-0.54 0.124,-1.083 0.159,-1.626c0.085,-1.312 0.079,-2.629 0.02,-3.941c-0.044,-0.993 -0.12,-1.985 -0.219,-2.974c-0.119,-1.176 -0.272,-2.348 -0.452,-3.517c-0.372,-2.405 -0.858,-4.793 -1.439,-7.157c-0.655,-2.667 -1.428,-5.306 -2.329,-7.901c-0.776,-2.234 -1.645,-4.437 -2.643,-6.582c-0.457,-0.984 -0.943,-1.956 -1.463,-2.909c-0.462,-0.845 -0.951,-1.675 -1.477,-2.482c-0.439,-0.673 -0.903,-1.329 -1.403,-1.958c-0.453,-0.57 -0.934,-1.119 -1.457,-1.626c-0.173,-0.167 -0.349,-0.33 -0.532,-0.487c-0.178,-0.154 -0.363,-0.301 -0.548,-0.448c-0.247,-0.194 -0.499,-0.384 -0.754,-0.568c-0.439,-0.316 -0.89,-0.615 -1.36,-0.883c-0.42,-0.241 -0.855,-0.459 -1.307,-0.635c-0.318,-0.123 -0.646,-0.224 -0.981,-0.289c-0.251,-0.049 -0.507,-0.075 -0.763,-0.067c-0.05,0.002 -0.1,0.005 -0.15,0.009Z" style="fill:#b4dfc3;fill-rule:nonzero;"/><path d="M99.049,275.246c0.062,0.004 0.125,0.004 0.188,0.011c0.167,0.019 0.206,0.038 0.366,0.085l14.107,5.067c0.057,0.024 0.116,0.045 0.172,0.073c0.112,0.055 0.217,0.123 0.313,0.203c0.097,0.079 0.184,0.169 0.259,0.268c0.152,0.198 0.257,0.431 0.306,0.676c0.012,0.061 0.02,0.123 0.025,0.185c0.008,0.093 0.006,0.143 0.003,0.219c-0.003,0.084 -0.006,0.168 -0.009,0.252c-0.009,0.212 -0.02,0.423 -0.031,0.635c-0.034,0.651 -0.076,1.302 -0.123,1.952c-0.158,2.161 -0.375,4.319 -0.643,6.469c-0.302,2.428 -0.671,4.848 -1.112,7.255c-0.452,2.463 -0.979,4.913 -1.601,7.339c-0.606,2.363 -1.299,4.704 -2.108,7.006c-0.652,1.852 -1.377,3.68 -2.197,5.465c-0.687,1.494 -1.44,2.959 -2.276,4.376c-0.815,1.384 -1.71,2.724 -2.699,3.991c-0.768,0.983 -1.592,1.924 -2.478,2.802c-1.229,1.216 -2.578,2.314 -4.044,3.233c-0.616,0.387 -1.253,0.742 -1.907,1.062c-0.206,0.101 -0.413,0.197 -0.622,0.291c-0.039,0.017 -0.206,0.092 -0.247,0.108c-0.047,0.019 -0.094,0.039 -0.142,0.054c-0.096,0.032 -0.196,0.054 -0.296,0.068c-0.05,0.006 -0.101,0.01 -0.152,0.012c-0.094,0.004 -0.19,-0.003 -0.284,-0.009c-0.087,-0.005 -0.174,-0.011 -0.261,-0.017c-0.352,-0.024 -0.704,-0.054 -1.055,-0.087c-0.743,-0.071 -1.484,-0.158 -2.223,-0.262c-0.94,-0.132 -1.877,-0.29 -2.808,-0.482c-0.807,-0.166 -1.61,-0.357 -2.403,-0.58c-0.892,-0.251 -1.772,-0.543 -2.628,-0.897c-0.537,-0.222 -1.063,-0.469 -1.572,-0.748c-0.477,-0.262 -0.939,-0.552 -1.373,-0.881c-0.321,-0.243 -0.628,-0.505 -0.911,-0.792c-0.239,-0.242 -0.463,-0.501 -0.665,-0.775c-0.301,-0.408 -0.555,-0.852 -0.74,-1.324c-0.135,-0.344 -0.233,-0.702 -0.291,-1.066c-0.041,-0.256 -0.061,-0.515 -0.063,-0.773c-0.001,-0.188 0.007,-0.375 0.026,-0.561c0.098,-1.011 0.471,-1.974 0.955,-2.86c0.083,-0.152 0.169,-0.302 0.259,-0.451c0.109,-0.181 0.222,-0.359 0.339,-0.536c0.16,-0.241 0.326,-0.478 0.497,-0.712c0.222,-0.303 0.452,-0.601 0.686,-0.894c0.321,-0.401 0.651,-0.794 0.986,-1.182c0.466,-0.539 0.942,-1.069 1.42,-1.597c0.6,-0.661 1.203,-1.32 1.804,-1.981c0.601,-0.664 1.199,-1.33 1.787,-2.007c0.677,-0.78 1.34,-1.572 1.981,-2.383c1.572,-1.985 3.009,-4.087 4.181,-6.334c0.348,-0.667 0.673,-1.346 0.972,-2.037c0.266,-0.616 0.512,-1.241 0.745,-1.871c0.266,-0.717 0.516,-1.441 0.754,-2.168c0.609,-1.855 1.148,-3.733 1.654,-5.619c0.422,-1.578 0.819,-3.163 1.197,-4.752c0.312,-1.313 0.614,-2.63 0.902,-3.949c0.346,-1.576 0.678,-3.156 0.994,-4.738c0.163,-0.815 0.322,-1.63 0.474,-2.447l0.009,-0.049c0.015,-0.061 0.026,-0.123 0.045,-0.183c0.037,-0.12 0.088,-0.236 0.151,-0.345c0.192,-0.326 0.496,-0.58 0.852,-0.71c0.158,-0.057 0.202,-0.057 0.366,-0.087c0.063,-0.003 0.126,-0.007 0.189,-0.011ZM100.284,279.12c-0.519,2.625 -1.076,5.242 -1.677,7.849c-0.577,2.503 -1.194,4.998 -1.878,7.474c-0.436,1.581 -0.899,3.154 -1.41,4.711c-0.277,0.844 -0.568,1.683 -0.881,2.514c-0.228,0.606 -0.467,1.208 -0.724,1.803c-0.423,0.978 -0.893,1.935 -1.404,2.869c-0.682,1.246 -1.436,2.452 -2.244,3.619c-0.887,1.281 -1.839,2.515 -2.832,3.714c-0.673,0.812 -1.363,1.608 -2.065,2.395c-0.91,1.022 -1.838,2.029 -2.758,3.042c-0.168,0.185 -0.336,0.371 -0.503,0.557c-0.511,0.573 -1.019,1.15 -1.507,1.743c-0.45,0.546 -0.885,1.106 -1.276,1.696c-0.263,0.397 -0.508,0.809 -0.702,1.245c-0.084,0.188 -0.158,0.381 -0.216,0.579c-0.047,0.161 -0.084,0.326 -0.103,0.493c-0.021,0.182 -0.021,0.366 0.008,0.548c0.01,0.067 0.025,0.134 0.043,0.2c0.111,0.399 0.354,0.749 0.628,1.052c0.081,0.09 0.167,0.176 0.256,0.259c0.096,0.089 0.197,0.175 0.3,0.257c0.127,0.101 0.258,0.197 0.392,0.289c0.144,0.098 0.291,0.19 0.441,0.279c0.215,0.127 0.436,0.246 0.66,0.358c0.28,0.139 0.566,0.267 0.854,0.386c0.373,0.154 0.752,0.295 1.134,0.423c0.469,0.158 0.942,0.3 1.42,0.429c0.624,0.168 1.255,0.315 1.888,0.445c0.821,0.169 1.647,0.31 2.476,0.429c0.733,0.104 1.468,0.192 2.204,0.262c0.291,0.028 0.581,0.052 0.872,0.074l0.064,0.004c0.581,-0.267 1.146,-0.565 1.694,-0.894c0.297,-0.178 0.588,-0.366 0.874,-0.56c1.994,-1.359 3.708,-3.095 5.18,-4.998c0.234,-0.302 0.461,-0.608 0.683,-0.918c0.762,-1.065 1.457,-2.176 2.1,-3.316c0.735,-1.304 1.399,-2.649 2.006,-4.018c0.701,-1.578 1.327,-3.189 1.892,-4.821c0.477,-1.377 0.913,-2.768 1.312,-4.17c0.567,-1.996 1.064,-4.012 1.502,-6.041c0.57,-2.648 1.04,-5.317 1.427,-7.998c0.242,-1.681 0.45,-3.366 0.626,-5.055c0.182,-1.746 0.328,-3.495 0.429,-5.246l0.001,-0.008l-11.175,-4.014c-0.004,0.02 -0.008,0.04 -0.011,0.06Z" style="fill:#b4dfc3;fill-rule:nonzero;"/></g><circle cx="101.687" cy="206.71" r="6.88" style="fill:#edb0a5;"/><circle cx="166.606" cy="201.199" r="5.501" style="fill:#edb0a5;"/></g></svg>