<?xml version="1.0" standalone="no"?><!DOCTYPE svg PUBLIC "-//W3C//DTD SVG 1.1//EN" "http://www.w3.org/Graphics/SVG/1.1/DTD/svg11.dtd"><svg width="100%" height="100%" viewBox="0 0 363 510" version="1.1" xmlns="http://www.w3.org/2000/svg" xmlns:xlink="http://www.w3.org/1999/xlink" xml:space="preserve" style="fill-rule:evenodd;clip-rule:evenodd;stroke-linejoin:round;stroke-miterlimit:1.41421;"><g><path d="M118.262,106.968c0,2.96 2.339,5.363 5.219,5.363l10.438,0c2.881,0 5.219,-2.403 5.219,-5.363l0,-101.605c0,-2.96 -2.338,-5.363 -5.219,-5.363l-10.438,0c-2.88,0 -5.219,2.403 -5.219,5.363l0,101.605Z" style="fill:#edb0a5;"/><path d="M191.753,209.44c0.367,2.651 0.556,5.358 0.556,8.108c0,32.455 -26.349,58.805 -58.804,58.805c-32.455,0 -58.805,-26.35 -58.805,-58.805l0,-0.01l-0.322,0.025c0,0 -5.203,-30.59 4.632,-38.292c9.835,-7.702 14.36,-12.071 14.36,-12.071c0,0 2.655,1.013 2.19,-18.595c-0.465,-19.609 -1.195,-40.784 6.38,-41.286c3.621,-0.24 14.643,-0.659 25.164,-1.03c0.388,-0.014 0.758,0.095 1.111,0.317c0.41,-0.222 0.839,-0.331 1.288,-0.317c12.195,0.371 24.972,0.79 29.169,1.03c8.781,0.502 7.934,21.677 7.396,41.286c-0.539,19.608 2.539,18.595 2.539,18.595c0,0 5.245,4.369 16.645,12.071c7.625,5.152 7.452,20.541 6.501,30.169l0,0Z" style="fill:#f9d6ce;"/><path d="M129.483,106.287c6.452,-1.688 39.222,168.207 4.022,170.066c-33.467,1.766 -58.805,-26.35 -58.805,-58.805l0,-0.01l-0.322,0.025c0,0 -5.203,-30.59 4.632,-38.292c9.835,-7.702 14.36,-12.071 14.36,-12.071c0,0 2.655,1.013 2.19,-18.595c-0.465,-19.609 -1.195,-40.784 6.38,-41.286c3.621,-0.24 14.643,-0.659 25.164,-1.03c0.388,-0.014 1.508,-0.094 2.379,-0.002l0,0Z" style="fill:#fdede5;"/><path d="M77.687,81c0,2.324 1.887,4.211 4.211,4.211l92.752,0c2.325,0 4.212,-1.887 4.212,-4.211l0,-8.423c0,-2.324 -1.887,-4.211 -4.212,-4.211l-92.752,0c-2.324,0 -4.211,1.887 -4.211,4.211l0,8.423Z" style="fill:#f9d6ce;"/><path d="M77.687,52.693c0,2.324 1.887,4.211 4.211,4.211l92.752,0c2.325,0 4.212,-1.887 4.212,-4.211l0,-8.422c0,-2.325 -1.887,-4.212 -4.212,-4.212l-92.752,0c-2.324,0 -4.211,1.887 -4.211,4.212l0,8.422Z" style="fill:#f9d6ce;"/><path d="M77.687,52.725c0,2.3 1.175,4.168 2.376,4.168l47.946,0c1.202,0 2.177,-1.868 2.177,-4.168l0,-8.337c0,-2.301 -0.71,-4.329 -1.912,-4.329l-47.892,0c-1.201,0 -2.695,1.828 -2.695,4.129l0,8.537Z" style="fill:#fdede5;"/><path d="M77.887,80.964c0,2.301 0.975,4.169 2.176,4.169l47.946,0c1.202,0 2.177,-1.868 2.177,-4.169l0,-8.336c0,-2.301 -0.975,-4.168 -2.177,-4.168l-47.946,0c-1.201,0 -2.176,1.867 -2.176,4.168l0,8.336Z" style="fill:#fdede5;"/><path d="M77.687,22.751c0,2.324 1.887,4.211 4.211,4.211l92.752,0c2.325,0 4.212,-1.887 4.212,-4.211l0,-8.423c0,-2.324 -1.887,-4.211 -4.212,-4.211l-92.752,0c-2.324,0 -4.211,1.887 -4.211,4.211l0,8.423Z" style="fill:#f9d6ce;"/><path d="M77.687,22.622c0,2.301 1.727,4.224 3.763,4.312l46.534,0.069c1.202,0 2.202,-2.053 2.202,-4.354l0,-8.336c0,-2.301 -0.975,-4.169 -2.177,-4.169l-47.946,0c-1.201,0 -2.376,1.866 -2.376,4.167l0,8.337l0,-0.026Z" style="fill:#fdede5;"/><path d="M142.767,155.786c0,0 -21.942,-7.695 -35.623,0.749c-16.435,10.143 -1.621,-21.063 17.123,-22.646c15.496,-1.309 32.745,25.391 18.5,21.897Z" style="fill:#280f25;"/><rect x="133.733" y="130.132" width="3.643" height="30.727" style="fill:#fdede5;"/><rect x="120.758" y="130.132" width="3.643" height="30.727" style="fill:#fdede5;"/><rect x="107.686" y="130.132" width="3.643" height="30.727" style="fill:#fdede5;"/><path d="M172.187,177.647c0,0 -11.67,3.059 -14.287,-13.745c-0.526,-3.38 0.861,-4.872 1.251,-4.652c0.799,0.45 0.694,7.713 4.205,12.245c3.642,4.7 8.358,5.033 8.831,6.152Z" style="fill:#edb0a5;"/><path d="M97.829,157.759c0,0 8.485,8.577 -4.76,19.246c-2.664,2.146 -4.65,1.69 -4.654,1.242c-0.01,-0.916 6.332,-4.458 8.502,-9.764c2.25,-5.504 0.18,-9.755 0.912,-10.724Z" style="fill:#edb0a5;"/><g><path d="M45.227,465.376c0.988,4.073 5.096,6.579 9.17,5.591l17.666,-4.281c4.074,-0.987 6.579,-5.096 5.592,-9.169l-3.578,-14.76c-0.988,-4.074 -5.096,-6.579 -9.17,-5.592l-17.666,4.282c-4.074,0.987 -6.579,5.095 -5.592,9.168l3.578,14.761Z" style="fill:#f9d6ce;"/><path d="M90.901,459.927c2.37,2.161 3.465,4.784 2.446,5.984c-1.029,1.212 -3.84,0.532 -6.378,-1.504c-0.082,-0.049 -0.162,-0.105 -0.238,-0.17l-4.069,-3.454c-0.67,-0.569 -0.776,-1.545 -0.238,-2.18l1.951,-2.298c0.539,-0.634 1.52,-0.687 2.19,-0.119l4.069,3.455c0.102,0.087 0.191,0.183 0.267,0.286l0,0Z" style="fill:#f9d6ce;"/><path d="M93.133,490.596c1.515,2.85 1.948,5.701 0.585,6.488c-1.377,0.795 -4.081,-0.805 -5.795,-3.594c-0.062,-0.074 -0.118,-0.154 -0.168,-0.241l-2.685,-4.65c-0.442,-0.766 -0.216,-1.725 0.504,-2.141l2.611,-1.508c0.721,-0.416 1.665,-0.132 2.107,0.634l2.685,4.65c0.067,0.117 0.119,0.238 0.156,0.362l0,0Z" style="fill:#f9d6ce;"/><path d="M38.517,483.871c-1.143,1.777 -2.981,2.639 -4.207,1.932c-1.238,-0.715 -1.401,-2.772 -0.401,-4.666c0.018,-0.062 0.043,-0.121 0.076,-0.178l1.756,-3.042c0.289,-0.501 1.05,-0.603 1.698,-0.229l2.348,1.355c0.647,0.374 0.939,1.084 0.65,1.585l-1.757,3.042c-0.044,0.077 -0.099,0.144 -0.163,0.201l0,0Z" style="fill:#f9d6ce;"/><path d="M65.66,490.294c0.215,0.799 1.038,1.274 1.837,1.06l2.897,-0.776c0.799,-0.214 1.274,-1.037 1.06,-1.837l-2.081,-7.764c-0.214,-0.799 -1.037,-1.274 -1.837,-1.06l-2.896,0.776c-0.8,0.214 -1.275,1.037 -1.06,1.837l2.08,7.764Z" style="fill:#f9d6ce;"/><path d="M81.965,483.26c0.414,0.716 1.332,0.962 2.048,0.549l2.597,-1.5c0.717,-0.414 0.963,-1.331 0.549,-2.048l-3.098,-5.366c-0.414,-0.716 -1.332,-0.962 -2.048,-0.548l-2.597,1.499c-0.717,0.414 -0.963,1.332 -0.549,2.048l3.098,5.366Z" style="fill:#f9d6ce;"/><path d="M78.827,458.075c0.658,0.502 1.6,0.376 2.102,-0.282l1.819,-2.384c0.502,-0.658 0.376,-1.599 -0.282,-2.101l-6.774,-5.171c-0.658,-0.502 -1.6,-0.375 -2.102,0.283l-1.819,2.383c-0.502,0.658 -0.376,1.6 0.282,2.102l6.774,5.17Z" style="fill:#f9d6ce;"/><path d="M75.99,473.169c0.414,0.716 1.331,0.962 2.048,0.549l2.597,-1.5c0.717,-0.414 0.963,-1.331 0.549,-2.048l-3.944,-6.829c-0.413,-0.717 -1.331,-0.963 -2.048,-0.549l-2.597,1.499c-0.717,0.414 -0.962,1.332 -0.549,2.048l3.944,6.83Z" style="fill:#f9d6ce;"/><path d="M61.827,476.495c0.214,0.8 1.037,1.275 1.836,1.061l2.897,-0.777c0.799,-0.214 1.274,-1.037 1.06,-1.836l-2.081,-7.764c-0.214,-0.799 -1.037,-1.275 -1.836,-1.06l-2.897,0.776c-0.799,0.214 -1.274,1.037 -1.06,1.836l2.081,7.764Z" style="fill:#f9d6ce;"/><path d="M74.936,501.033c0.861,3.648 0.379,6.839 -1.141,7.246c-1.536,0.412 -3.574,-2.167 -4.644,-5.813c-0.045,-0.103 -0.083,-0.21 -0.113,-0.322l-1.614,-6.024c-0.266,-0.991 0.171,-1.971 0.974,-2.186l2.913,-0.781c0.803,-0.215 1.672,0.415 1.937,1.407l1.615,6.023c0.04,0.151 0.064,0.302 0.073,0.45l0,0Z" style="fill:#f9d6ce;"/><path d="M54.894,501.175c-0.113,3.225 -1.164,5.911 -2.738,5.911c-1.59,0 -3.131,-2.738 -3.222,-6.009c-0.016,-0.095 -0.025,-0.193 -0.025,-0.293l0,-5.37c0,-0.884 0.675,-1.602 1.507,-1.602l3.015,0c0.832,0 1.508,0.718 1.508,1.602l0,5.37c0,0.135 -0.015,0.266 -0.045,0.391Z" style="fill:#f9d6ce;"/><path d="M48.889,489.238c0.001,0.827 0.672,1.499 1.5,1.499l2.999,0c0.827,0 1.499,-0.672 1.499,-1.499l0,-6.196c0,-0.827 -0.672,-1.499 -1.5,-1.499l-2.999,0c-0.827,0 -1.499,0.672 -1.499,1.499l0,6.196Z" style="fill:#f9d6ce;"/><path d="M48.76,477.511c0,0.828 0.672,1.5 1.5,1.5l2.998,0c0.828,0 1.5,-0.672 1.5,-1.5l-0.001,-7.885c0,-0.828 -0.672,-1.5 -1.499,-1.5l-2.999,0c-0.828,0 -1.499,0.672 -1.499,1.5l0,7.885Z" style="fill:#f9d6ce;"/><path d="M37.644,473.812c-0.414,0.717 -0.168,1.635 0.549,2.049l2.597,1.499c0.716,0.414 1.634,0.168 2.048,-0.549l1.773,-3.071c0.414,-0.717 0.168,-1.635 -0.549,-2.048l-2.597,-1.5c-0.717,-0.414 -1.635,-0.168 -2.048,0.549l-1.773,3.071Z" style="fill:#f9d6ce;"/><path d="M41.428,466.796c-0.413,0.716 -0.167,1.634 0.549,2.048l2.598,1.499c0.716,0.414 1.634,0.168 2.048,-0.548l2.375,-4.114c0.413,-0.717 0.167,-1.635 -0.549,-2.048l-2.598,-1.5c-0.716,-0.414 -1.634,-0.168 -2.048,0.549l-2.375,4.114Z" style="fill:#f9d6ce;"/></g><g><path d="M45.177,465.706c0.988,4.136 5.23,6.266 10.597,4.946l-6.24,-29.757c-2.686,0.413 -4.708,1.241 -6.138,2.762c-1.782,1.895 -2.345,4.763 -1.797,7.058l3.578,14.991Z" style="fill:#fdede5;"/><path d="M38.517,483.871c-1.143,1.777 -2.981,2.639 -4.207,1.932c-1.238,-0.715 -1.401,-2.772 -0.401,-4.666c0.018,-0.062 0.043,-0.121 0.076,-0.178l1.756,-3.042c0.289,-0.501 1.05,-0.603 1.698,-0.229l2.348,1.355c0.647,0.374 0.939,1.084 0.65,1.585l-1.757,3.042c-0.044,0.077 -0.099,0.144 -0.163,0.201l0,0Z" style="fill:#fdede5;"/><path d="M54.894,501.175c-0.113,3.225 -1.164,5.911 -2.738,5.911c-1.59,0 -3.131,-2.738 -3.222,-6.009c-0.016,-0.095 -0.025,-0.193 -0.025,-0.293l0,-5.37c0,-0.884 0.675,-1.602 1.507,-1.602l3.015,0c0.832,0 1.508,0.718 1.508,1.602l0,5.37c0,0.135 -0.015,0.266 -0.045,0.391Z" style="fill:#fdede5;"/><path d="M48.889,489.238c0.001,0.827 0.672,1.499 1.5,1.499l2.999,0c0.827,0 1.499,-0.672 1.499,-1.499l0,-6.196c0,-0.827 -0.672,-1.499 -1.5,-1.499l-2.999,0c-0.827,0 -1.499,0.672 -1.499,1.499l0,6.196Z" style="fill:#fdede5;"/><path d="M48.76,477.511c0,0.828 0.672,1.5 1.5,1.5l2.998,0c0.828,0 1.5,-0.672 1.5,-1.5l-0.001,-7.885c0,-0.828 -0.672,-1.5 -1.499,-1.5l-2.999,0c-0.828,0 -1.499,0.672 -1.499,1.5l0,7.885Z" style="fill:#fdede5;"/><path d="M37.644,473.812c-0.414,0.717 -0.168,1.635 0.549,2.049l2.597,1.499c0.716,0.414 1.634,0.168 2.048,-0.549l1.773,-3.071c0.414,-0.717 0.168,-1.635 -0.549,-2.048l-2.597,-1.5c-0.717,-0.414 -1.635,-0.168 -2.048,0.549l-1.773,3.071Z" style="fill:#fdede5;"/><path d="M41.428,466.796c-0.413,0.716 -0.167,1.634 0.549,2.048l2.598,1.499c0.716,0.414 1.634,0.168 2.048,-0.548l2.375,-4.114c0.413,-0.717 0.167,-1.635 -0.549,-2.048l-2.598,-1.5c-0.716,-0.414 -1.634,-0.168 -2.048,0.549l-2.375,4.114Z" style="fill:#fdede5;"/></g><path d="M34.759,254.6c3.513,5.032 16.708,25.142 4.849,27.371c-13.569,2.55 -13.784,-8.414 -15.051,-9.426c-1.266,-1.012 -11.465,10.65 -19.028,2.956c-7.564,-7.693 -3.329,-12.499 1.851,-17.552c3.605,-3.517 6.747,-5.8 8.323,-6.864c0.02,-0.334 0.076,-0.671 0.169,-1.007l37.91,-136.678c-2.626,-4.546 -14.902,-26.942 -2.555,-28.106c13.745,-1.297 12.955,9.641 14.124,10.764c1.168,1.124 12.392,-9.554 19.219,-1.201c6.827,8.354 2.17,12.752 -3.451,17.309c-3.588,2.91 -6.693,4.821 -8.469,5.824l-37.891,136.61l0,0Z" style="fill:#f9d6ce;"/><path d="M65.351,96.058c0.584,0.373 5.883,5.794 -10.357,56.053c-5.912,18.297 -30.362,120.263 -30.437,120.434c-0.649,1.485 -11.465,10.65 -19.028,2.956c-7.564,-7.693 -3.329,-12.499 1.851,-17.552c3.605,-3.517 6.747,-5.8 8.323,-6.864c0.02,-0.334 0.076,-0.671 0.169,-1.007l37.91,-136.678c-2.626,-4.546 -14.902,-26.942 -2.555,-28.106c13.745,-1.297 12.757,9.893 14.124,10.764l0,0Z" style="fill:#fdede5;"/><path d="M182.485,114.262c-5.893,-1.715 -28.783,-9.101 -20.944,-18.275c8.968,-10.497 16.013,-2.093 17.634,-2.099c1.621,-0.007 2.25,-15.486 12.966,-14.238c10.716,1.248 10.432,7.647 9.567,14.832c-0.602,5 -1.616,8.749 -2.178,10.566c0.194,0.273 0.363,0.57 0.501,0.89l56.202,130.228c4.897,1.893 28.505,11.636 19.62,20.287c-9.892,9.631 -16.138,0.618 -17.753,0.476c-1.615,-0.142 -3.658,15.214 -14.215,12.99c-10.557,-2.224 -9.688,-8.57 -8.169,-15.646c0.97,-4.516 2.189,-7.952 2.944,-9.847l-56.175,-130.164l0,0Z" style="fill:#f9d6ce;"/><path d="M182.485,114.262c-5.893,-1.715 -28.783,-9.101 -20.944,-18.275c8.968,-10.497 16.013,-2.093 17.634,-2.099c0.35,-0.002 7.848,7.658 13.839,19.632c13.892,27.765 34.921,80.191 49.557,113.296c8.22,18.592 15.984,30.153 15.529,30.113c-1.615,-0.142 -3.658,15.214 -14.215,12.99c-10.557,-2.224 -9.688,-8.57 -8.169,-15.646c0.97,-4.516 2.189,-7.952 2.944,-9.847l-56.175,-130.164l0,0Z" style="fill:#fdede5;"/><path d="M60.194,412.399c5.615,4.991 16.703,15.344 7.622,20.094c-3.055,1.598 -9.487,0.956 -12.322,-1.824c0,0 -3.997,6.2 -11.725,6.068c-15.929,-0.272 -2.022,-18.904 -0.662,-20.677c-0.071,-0.192 -0.128,-0.392 -0.172,-0.598l-22.065,-103.434l-0.161,0.037c-5.498,-4.872 -17.201,-15.537 -7.943,-20.379c3.055,-1.598 9.487,-0.956 12.322,1.824c0,0 3.997,-6.2 11.725,-6.068c14.915,0.254 3.673,16.605 1.064,20.142l22.231,104.216c0.043,0.2 0.072,0.4 0.086,0.599l0,0Z" style="fill:#f9d6ce;"/><path d="M25.088,293.51c0,0 33.241,139.939 30.406,137.159c0,0 -3.997,6.2 -11.725,6.068c-15.929,-0.272 -2.022,-18.904 -0.662,-20.677c-0.071,-0.192 -0.128,-0.392 -0.172,-0.598l-22.065,-103.434l-0.161,0.037c-5.498,-4.872 -17.201,-15.537 -7.943,-20.379c3.055,-1.598 9.487,-0.956 12.322,1.824l0,0Z" style="fill:#fdede5;"/><path d="M276.609,283.503c1.928,-6.75 5.487,-20.463 -4.082,-19.484c-3.22,0.329 -7.982,4.128 -8.826,7.737c0,0 -6.279,-2.754 -12.322,1.314c-12.458,8.385 7.91,15.688 9.878,16.364c0.041,0.185 0.096,0.369 0.164,0.551l34.587,91.481l-0.145,0.054c-1.896,6.597 -5.784,20.868 3.971,19.87c3.22,-0.33 7.982,-4.128 8.826,-7.737c0,0 6.278,2.754 12.322,-1.314c11.664,-7.851 -5.449,-14.754 -9.291,-16.156l-34.849,-92.172c-0.067,-0.177 -0.145,-0.347 -0.233,-0.508Z" style="fill:#f9d6ce;"/><path d="M308.66,393.653c0,0 -44.115,-125.506 -44.959,-121.897c0,0 -6.279,-2.754 -12.322,1.314c-12.458,8.385 7.91,15.688 9.878,16.364c0.041,0.185 0.096,0.369 0.164,0.551l34.587,91.481l-0.145,0.054c-1.896,6.597 -5.784,20.868 3.971,19.87c3.22,-0.33 7.982,-4.128 8.826,-7.737l0,0Z" style="fill:#fdede5;"/><ellipse cx="156.759" cy="208.451" rx="11.838" ry="21.021" style="fill:#280f25;"/><path d="M150.325,206.228c0.079,0.006 0.099,0.006 0.177,0.021c0.088,0.016 0.174,0.041 0.256,0.075c0.249,0.102 0.463,0.281 0.607,0.508c0.079,0.126 0.138,0.265 0.171,0.41c0.02,0.087 0.031,0.176 0.032,0.265c0.002,0.08 -0.002,0.1 -0.008,0.179c-0.015,0.126 -0.029,0.253 -0.043,0.379c-0.048,0.445 -0.089,0.89 -0.121,1.337c-0.12,1.688 -0.118,3.388 0.057,5.073c0.14,1.342 0.389,2.676 0.789,3.966c0.147,0.478 0.316,0.949 0.508,1.41c0.164,0.391 0.344,0.776 0.545,1.149c0.145,0.268 0.3,0.531 0.469,0.785c0.122,0.184 0.252,0.366 0.396,0.534c0.007,0.008 0.014,0.016 0.022,0.024c0.051,0.06 0.066,0.074 0.111,0.139c0.12,0.171 0.197,0.37 0.224,0.577c0.019,0.148 0.013,0.298 -0.018,0.444c-0.025,0.116 -0.066,0.229 -0.121,0.335c-0.056,0.105 -0.126,0.203 -0.207,0.289c-0.123,0.13 -0.272,0.234 -0.437,0.304c-0.164,0.07 -0.342,0.106 -0.521,0.105c-0.269,-0.001 -0.534,-0.087 -0.752,-0.244c-0.049,-0.034 -0.095,-0.072 -0.138,-0.113c-0.077,-0.073 -0.146,-0.155 -0.213,-0.236c-0.159,-0.192 -0.307,-0.393 -0.447,-0.598c-0.359,-0.524 -0.671,-1.079 -0.948,-1.649c-0.378,-0.778 -0.69,-1.587 -0.949,-2.412c-0.376,-1.197 -0.638,-2.429 -0.809,-3.671c-0.224,-1.627 -0.292,-3.274 -0.244,-4.915c0.028,-0.929 0.093,-1.857 0.19,-2.782c0.014,-0.134 0.029,-0.268 0.045,-0.402c0.007,-0.061 0.017,-0.156 0.029,-0.221c0.011,-0.059 0.026,-0.116 0.044,-0.173c0.066,-0.198 0.18,-0.379 0.33,-0.524c0.128,-0.125 0.281,-0.222 0.448,-0.285c0.084,-0.032 0.171,-0.055 0.259,-0.069c0.078,-0.012 0.098,-0.011 0.178,-0.016c0.029,0.001 0.059,0.001 0.089,0.002l0,0Z" style="fill:#feede5;fill-rule:nonzero;"/><ellipse cx="97.625" cy="208.451" rx="11.838" ry="21.021" style="fill:#280f25;"/><path d="M121.212,186.482c0,0 -10.419,-14.342 -6.805,-17.522c2.623,-2.308 6.051,1.982 6.051,1.982c0,0 2.334,-3.152 5.372,-2.337c4.55,1.22 -3.243,18.268 -4.618,17.877l0,0Z" style="fill:#280f25;"/><path d="M90.329,206.228c0.079,0.006 0.099,0.006 0.177,0.021c0.088,0.016 0.174,0.041 0.257,0.075c0.248,0.102 0.462,0.282 0.606,0.508c0.08,0.126 0.138,0.265 0.171,0.41c0.02,0.087 0.031,0.176 0.033,0.266c0.001,0.079 -0.002,0.099 -0.009,0.178c-0.015,0.126 -0.029,0.253 -0.043,0.379c-0.052,0.484 -0.096,0.969 -0.129,1.454c-0.11,1.62 -0.106,3.25 0.056,4.866c0.14,1.394 0.397,2.779 0.817,4.117c0.27,0.86 0.606,1.703 1.034,2.498c0.145,0.268 0.3,0.531 0.469,0.785c0.123,0.184 0.252,0.366 0.396,0.534c0.007,0.008 0.015,0.016 0.022,0.024c0.052,0.06 0.066,0.074 0.112,0.139c0.119,0.171 0.196,0.37 0.223,0.577c0.02,0.148 0.013,0.298 -0.018,0.444c-0.025,0.116 -0.066,0.229 -0.121,0.335c-0.055,0.105 -0.125,0.203 -0.207,0.289c-0.123,0.13 -0.272,0.234 -0.436,0.304c-0.165,0.07 -0.343,0.106 -0.522,0.105c-0.268,-0.001 -0.534,-0.087 -0.752,-0.244c-0.049,-0.034 -0.095,-0.072 -0.138,-0.113c-0.077,-0.073 -0.146,-0.155 -0.213,-0.236c-0.159,-0.192 -0.307,-0.393 -0.447,-0.598c-0.358,-0.524 -0.67,-1.079 -0.948,-1.649c-0.388,-0.8 -0.708,-1.633 -0.97,-2.482c-0.355,-1.145 -0.606,-2.321 -0.774,-3.507c-0.235,-1.658 -0.307,-3.336 -0.258,-5.009c0.028,-0.929 0.093,-1.858 0.191,-2.782c0.014,-0.134 0.028,-0.268 0.044,-0.402c0.007,-0.061 0.017,-0.156 0.029,-0.221c0.011,-0.059 0.026,-0.116 0.045,-0.173c0.056,-0.169 0.148,-0.327 0.267,-0.46c0.139,-0.155 0.316,-0.276 0.511,-0.349c0.083,-0.032 0.17,-0.055 0.258,-0.069c0.079,-0.012 0.099,-0.011 0.178,-0.016c0.03,0.001 0.059,0.001 0.089,0.002l0,0Z" style="fill:#feede5;fill-rule:nonzero;"/><g><path d="M339.316,415.99c1.649,4.265 -0.482,9.045 -4.756,10.669l-18.142,6.891c-4.275,1.624 -9.084,-0.52 -10.734,-4.785l-5.977,-15.453c-1.65,-4.264 0.481,-9.045 4.756,-10.668l18.142,-6.892c4.274,-1.624 9.083,0.52 10.733,4.785l5.978,15.453Z" style="fill:#f9d6ce;"/><path d="M291.734,437.226c-1.615,3.079 -1.765,6.172 -0.292,7.038c1.488,0.874 4.093,-0.841 5.922,-3.852c0.067,-0.08 0.127,-0.166 0.18,-0.26l2.865,-5.023c0.472,-0.827 0.222,-1.87 -0.557,-2.328l-2.822,-1.658c-0.779,-0.458 -1.794,-0.158 -2.266,0.669l-2.864,5.023c-0.072,0.126 -0.127,0.257 -0.166,0.391l0,0Z" style="fill:#f9d6ce;"/><path d="M312.464,467.96c0.423,3.488 1.807,6.315 3.503,6.189c1.714,-0.128 3.12,-3.22 2.912,-6.775c0.009,-0.104 0.009,-0.211 0,-0.319l-0.502,-5.822c-0.082,-0.958 -0.878,-1.682 -1.775,-1.615l-3.25,0.242c-0.897,0.067 -1.558,0.9 -1.475,1.858l0.501,5.822c0.013,0.146 0.042,0.287 0.086,0.42l0,0Z" style="fill:#f9d6ce;"/><path d="M356.733,428.506c2.115,0.897 4.28,0.548 4.928,-0.838c0.655,-1.399 -0.476,-3.348 -2.537,-4.439c-0.054,-0.043 -0.113,-0.081 -0.177,-0.112l-3.443,-1.66c-0.567,-0.273 -1.306,0.1 -1.648,0.832l-1.242,2.655c-0.343,0.732 -0.161,1.549 0.406,1.822l3.443,1.659c0.087,0.042 0.177,0.069 0.27,0.081l0,0Z" style="fill:#f9d6ce;"/><path d="M336.648,450.9c0.302,0.84 -0.136,1.762 -0.978,2.059l-3.05,1.074c-0.842,0.297 -1.77,-0.144 -2.072,-0.984l-2.981,-8.285c-0.302,-0.84 0.136,-1.762 0.978,-2.059l3.05,-1.074c0.842,-0.297 1.77,0.144 2.072,0.984l2.981,8.285Z" style="fill:#f9d6ce;"/><path d="M317.822,454.546c0.076,0.892 -0.585,1.669 -1.478,1.736l-3.232,0.241c-0.892,0.067 -1.679,-0.603 -1.756,-1.494l-0.58,-6.738c-0.077,-0.892 0.585,-1.669 1.477,-1.736l3.233,-0.241c0.892,-0.067 1.678,0.603 1.755,1.494l0.581,6.738Z" style="fill:#f9d6ce;"/><path d="M303.313,430.953c-0.485,0.757 -1.489,0.969 -2.239,0.474l-2.72,-1.794c-0.751,-0.495 -0.966,-1.512 -0.48,-2.268l4.975,-7.756c0.486,-0.757 1.489,-0.969 2.24,-0.474l2.72,1.794c0.75,0.495 0.965,1.512 0.48,2.269l-4.976,7.755l0,0Z" style="fill:#f9d6ce;"/><path d="M291.734,437.226c-1.615,3.079 -1.765,6.172 -0.292,7.038c1.488,0.874 4.093,-0.841 5.922,-3.852c0.067,-0.08 0.127,-0.166 0.18,-0.26l2.865,-5.023c0.472,-0.827 0.222,-1.87 -0.557,-2.328l-2.822,-1.658c-0.779,-0.458 -1.794,-0.158 -2.266,0.669l-2.864,5.023c-0.072,0.126 -0.127,0.257 -0.166,0.391l0,0Z" style="fill:#fdede5;"/><path d="M303.313,430.953c-0.485,0.757 -1.489,0.969 -2.239,0.474l-2.72,-1.794c-0.751,-0.495 -0.966,-1.512 -0.48,-2.268l4.975,-7.756c0.486,-0.757 1.489,-0.969 2.24,-0.474l2.72,1.794c0.75,0.495 0.965,1.512 0.48,2.269l-4.976,7.755l0,0Z" style="fill:#fdede5;"/><path d="M316.865,441.823c0.077,0.891 -0.585,1.669 -1.477,1.735l-3.233,0.242c-0.892,0.066 -1.679,-0.603 -1.755,-1.495l-0.739,-8.57c-0.077,-0.892 0.585,-1.67 1.477,-1.736l3.233,-0.241c0.892,-0.067 1.679,0.603 1.756,1.494l0.738,8.571Z" style="fill:#f9d6ce;"/><path d="M312.464,467.96c0.423,3.488 1.807,6.315 3.503,6.189c1.714,-0.128 3.12,-3.22 2.912,-6.775c0.009,-0.104 0.009,-0.211 0,-0.319l-0.502,-5.822c-0.082,-0.958 -0.878,-1.682 -1.775,-1.615l-3.25,0.242c-0.897,0.067 -1.558,0.9 -1.475,1.858l0.501,5.822c0.013,0.146 0.042,0.287 0.086,0.42l0,0Z" style="fill:#fdede5;"/><path d="M317.822,454.546c0.076,0.892 -0.585,1.669 -1.478,1.736l-3.232,0.241c-0.892,0.067 -1.679,-0.603 -1.756,-1.494l-0.58,-6.738c-0.077,-0.892 0.585,-1.669 1.477,-1.736l3.233,-0.241c0.892,-0.067 1.678,0.603 1.755,1.494l0.581,6.738Z" style="fill:#fdede5;"/><path d="M316.865,441.823c0.077,0.891 -0.585,1.669 -1.477,1.735l-3.233,0.242c-0.892,0.066 -1.679,-0.603 -1.755,-1.495l-0.739,-8.57c-0.077,-0.892 0.585,-1.67 1.477,-1.736l3.233,-0.241c0.892,-0.067 1.679,0.603 1.756,1.494l0.738,8.571Z" style="fill:#fdede5;"/><path d="M331.493,436.155c0.302,0.84 -0.136,1.762 -0.977,2.059l-3.05,1.074c-0.842,0.297 -1.771,-0.144 -2.073,-0.984l-2.98,-8.285c-0.302,-0.84 0.136,-1.762 0.977,-2.059l3.051,-1.074c0.841,-0.297 1.77,0.144 2.072,0.984l2.98,8.285Z" style="fill:#f9d6ce;"/><path d="M335.073,466.208c1.498,3.804 3.903,6.377 5.504,5.813c1.617,-0.569 1.826,-4.133 0.515,-8.065c-0.024,-0.119 -0.057,-0.239 -0.1,-0.358l-2.302,-6.401c-0.379,-1.053 -1.374,-1.667 -2.22,-1.369l-3.067,1.081c-0.846,0.298 -1.225,1.395 -0.846,2.449l2.302,6.4c0.058,0.161 0.13,0.312 0.214,0.45l0,0Z" style="fill:#f9d6ce;"/><path d="M316.061,424.824c1.649,4.264 1.918,8.133 0.599,8.634l-5.597,2.126c-1.319,0.501 -3.729,-2.554 -5.379,-6.819l-5.977,-15.453c-1.65,-4.264 -1.918,-8.133 -0.599,-8.634l5.597,-2.127c1.319,-0.501 3.729,2.555 5.378,6.819l5.978,15.454Z" style="fill:#fdede5;"/><path d="M352.936,454.074c2.1,2.83 4.697,4.6 6.092,3.638c1.41,-0.973 1.08,-4.376 -0.868,-7.372c-0.044,-0.095 -0.097,-0.188 -0.159,-0.278l-3.329,-4.826c-0.548,-0.794 -1.592,-1.026 -2.33,-0.517l-2.674,1.844c-0.737,0.509 -0.892,1.567 -0.343,2.362l3.328,4.826c0.084,0.121 0.179,0.229 0.283,0.323l0,0Z" style="fill:#f9d6ce;"/><path d="M350.873,439.692c0.506,0.734 0.321,1.74 -0.413,2.247l-2.659,1.834c-0.734,0.507 -1.741,0.322 -2.247,-0.412l-3.865,-5.603c-0.507,-0.734 -0.322,-1.741 0.412,-2.247l2.66,-1.835c0.734,-0.506 1.741,-0.321 2.247,0.413l3.865,5.603Z" style="fill:#f9d6ce;"/><path d="M343.718,429.075c0.506,0.734 0.321,1.74 -0.413,2.247l-2.659,1.834c-0.734,0.507 -1.741,0.322 -2.247,-0.412l-4.913,-7.123c-0.506,-0.733 -0.321,-1.74 0.412,-2.247l2.66,-1.834c0.734,-0.506 1.741,-0.322 2.247,0.412l4.913,7.123Z" style="fill:#f9d6ce;"/><path d="M351.281,418.937c0.806,0.388 1.153,1.362 0.774,2.172l-1.374,2.936c-0.379,0.81 -1.342,1.153 -2.147,0.765l-3.496,-1.685c-0.806,-0.389 -1.153,-1.362 -0.774,-2.172l1.374,-2.936c0.379,-0.811 1.341,-1.153 2.147,-0.765l3.496,1.685Z" style="fill:#f9d6ce;"/><path d="M343.574,414.947c0.806,0.388 1.153,1.361 0.774,2.172l-1.374,2.936c-0.379,0.81 -1.341,1.153 -2.147,0.764l-4.676,-2.253c-0.806,-0.388 -1.152,-1.361 -0.773,-2.172l1.374,-2.936c0.379,-0.81 1.341,-1.153 2.147,-0.764l4.675,2.253Z" style="fill:#f9d6ce;"/></g></g></svg>