<?xml version="1.0" standalone="no"?><!DOCTYPE svg PUBLIC "-//W3C//DTD SVG 1.1//EN" "http://www.w3.org/Graphics/SVG/1.1/DTD/svg11.dtd"><svg width="100%" height="100%" viewBox="0 0 128 127" version="1.1" xmlns="http://www.w3.org/2000/svg" xmlns:xlink="http://www.w3.org/1999/xlink" xml:space="preserve" style="fill-rule:evenodd;clip-rule:evenodd;stroke-linejoin:round;stroke-miterlimit:1.41421;"><g><path d="M44.136,47.869c0,0 -21.14,-12.459 -21.145,-11.317c-0.005,1.143 8.632,15.663 13.092,19.008c4.46,3.345 8.053,-7.691 8.053,-7.691Z" style="fill:#280f25;"/><path d="M23.547,34.427c-0.166,-0.027 -0.332,-0.044 -0.5,-0.041c-0.319,0.004 -0.636,0.068 -0.925,0.198c-0.101,0.045 -0.186,0.092 -0.28,0.15c-0.025,0.016 -0.049,0.034 -0.073,0.051c-0.079,0.056 -0.078,0.057 -0.154,0.118l-0.005,0.003c-0.069,0.062 -0.069,0.062 -0.136,0.126l-0.004,0.004c-0.066,0.07 -0.066,0.07 -0.128,0.142l-0.004,0.004c-0.064,0.082 -0.064,0.082 -0.124,0.167l-0.003,0.005c-0.054,0.085 -0.054,0.085 -0.103,0.173l-0.003,0.005c-0.044,0.089 -0.044,0.089 -0.084,0.179l-0.003,0.006c-0.034,0.09 -0.034,0.09 -0.065,0.182l-0.002,0.005c-0.025,0.09 -0.026,0.09 -0.046,0.181c-0.007,0.031 -0.015,0.062 -0.019,0.093c-0.018,0.119 -0.026,0.205 -0.027,0.325c-0.001,0.044 0.001,0.088 0.003,0.133c0.018,0.371 0.13,0.733 0.267,1.079c0.125,0.316 0.27,0.625 0.42,0.931c0.144,0.292 0.293,0.581 0.446,0.868c0.262,0.495 0.534,0.985 0.811,1.472c0.324,0.571 0.656,1.139 0.993,1.703c0.816,1.365 1.661,2.714 2.532,4.046c0.662,1.013 1.34,2.017 2.037,3.007c0.524,0.746 1.06,1.484 1.61,2.211c0.409,0.541 0.827,1.076 1.256,1.603c0.314,0.385 0.633,0.765 0.961,1.138c0.264,0.3 0.534,0.596 0.81,0.884c0.403,0.421 0.821,0.828 1.264,1.207c0.348,0.297 0.711,0.579 1.108,0.811c0.517,0.302 1.084,0.52 1.674,0.622c0.281,0.048 0.565,0.07 0.849,0.065c0.365,-0.006 0.728,-0.056 1.08,-0.147c0.451,-0.116 0.882,-0.297 1.284,-0.525c0.633,-0.358 1.192,-0.83 1.689,-1.351c0.396,-0.414 0.754,-0.862 1.085,-1.327c0.351,-0.494 0.672,-1.008 0.971,-1.535c0.485,-0.853 0.913,-1.737 1.3,-2.637c0.172,-0.399 0.335,-0.803 0.491,-1.209c0.123,-0.322 0.242,-0.646 0.351,-0.973l0.013,-0.037c0.012,-0.043 0.026,-0.085 0.038,-0.129c0.033,-0.13 0.054,-0.264 0.062,-0.398c0.015,-0.27 -0.024,-0.542 -0.114,-0.799c-0.09,-0.257 -0.23,-0.496 -0.412,-0.702c-0.09,-0.103 -0.191,-0.197 -0.3,-0.281c-0.096,-0.075 -0.124,-0.089 -0.227,-0.154c-0.304,-0.179 -0.608,-0.358 -0.913,-0.536c-2.401,-1.405 -4.809,-2.798 -7.227,-4.175c-2.038,-1.161 -4.082,-2.312 -6.141,-3.435c-0.75,-0.41 -1.502,-0.815 -2.257,-1.214c-0.655,-0.346 -1.313,-0.686 -1.976,-1.016c-0.531,-0.264 -1.065,-0.522 -1.608,-0.758c-0.2,-0.086 -0.402,-0.17 -0.605,-0.247c-0.194,-0.073 -0.389,-0.14 -0.588,-0.194c-0.074,-0.02 -0.149,-0.037 -0.223,-0.054c-0.063,-0.012 -0.063,-0.012 -0.126,-0.023ZM27.769,40.969c2.257,1.216 4.493,2.469 6.721,3.735c2.351,1.336 4.692,2.689 7.028,4.052c-0.033,0.079 -0.067,0.158 -0.1,0.237c-0.355,0.829 -0.744,1.644 -1.195,2.425c-0.258,0.447 -0.536,0.883 -0.846,1.297c-0.181,0.24 -0.374,0.474 -0.584,0.69c-0.125,0.129 -0.256,0.252 -0.396,0.364c-0.078,0.062 -0.158,0.121 -0.243,0.173c-0.05,0.032 -0.103,0.061 -0.157,0.087c-0.032,0.015 -0.064,0.029 -0.098,0.04c-0.049,0.018 -0.103,0.034 -0.156,0.029c-0.04,-0.004 -0.079,-0.018 -0.116,-0.033c-0.025,-0.011 -0.05,-0.023 -0.074,-0.036c-0.041,-0.022 -0.081,-0.047 -0.12,-0.073c-0.064,-0.044 -0.126,-0.092 -0.187,-0.14c-0.101,-0.08 -0.2,-0.164 -0.297,-0.249c-0.203,-0.178 -0.399,-0.365 -0.59,-0.556c-0.374,-0.373 -0.729,-0.764 -1.075,-1.162c-0.686,-0.79 -1.335,-1.611 -1.964,-2.446c-0.917,-1.217 -1.793,-2.465 -2.642,-3.729c-1.04,-1.547 -2.039,-3.12 -3.001,-4.713l-0.037,-0.061c0.043,0.023 0.086,0.046 0.129,0.069Z" style="fill:#280f25;fill-rule:nonzero;"/><path d="M93.04,76.292c0,0 8.252,13.877 9.492,17.47c1.239,3.593 -15.647,-6.508 -18.652,-8.457" style="fill:#280f25;"/><path d="M93.323,74.223c-0.114,-0.014 -0.142,-0.02 -0.257,-0.023c-0.214,-0.005 -0.429,0.021 -0.635,0.078c-0.205,0.057 -0.402,0.145 -0.58,0.26c-0.214,0.138 -0.401,0.315 -0.55,0.519c-0.149,0.204 -0.259,0.435 -0.324,0.679c-0.054,0.203 -0.076,0.415 -0.066,0.625c0.013,0.253 0.072,0.504 0.175,0.737c0.046,0.104 0.062,0.128 0.117,0.227c0.181,0.306 0.362,0.612 0.542,0.918c1.398,2.377 2.779,4.764 4.131,7.167c0.552,0.979 1.098,1.962 1.636,2.948c0.552,1.014 1.096,2.032 1.622,3.059c-0.126,-0.057 -0.251,-0.114 -0.376,-0.172c-1.147,-0.53 -2.274,-1.103 -3.391,-1.692c-1.252,-0.661 -2.491,-1.345 -3.722,-2.044c-1.253,-0.71 -2.497,-1.435 -3.732,-2.175c-0.495,-0.296 -0.989,-0.594 -1.481,-0.896c-0.42,-0.258 -0.839,-0.518 -1.255,-0.783l-0.072,-0.047l-0.07,-0.045l-0.111,-0.067c-0.101,-0.054 -0.125,-0.069 -0.231,-0.114c-0.238,-0.1 -0.494,-0.157 -0.752,-0.168c-0.257,-0.011 -0.516,0.024 -0.759,0.104c-0.203,0.066 -0.395,0.162 -0.567,0.285c-0.173,0.123 -0.326,0.271 -0.453,0.439c-0.152,0.202 -0.266,0.431 -0.335,0.674c-0.069,0.243 -0.092,0.498 -0.068,0.75c0.019,0.21 0.072,0.418 0.154,0.614c0.116,0.274 0.29,0.524 0.509,0.729c0.063,0.059 0.129,0.113 0.198,0.164c0.035,0.026 0.071,0.049 0.106,0.073c0.113,0.073 0.225,0.145 0.338,0.217c0.618,0.391 1.242,0.774 1.869,1.154c0.74,0.448 1.484,0.891 2.231,1.329c1.211,0.71 2.429,1.408 3.655,2.09c0.924,0.513 1.852,1.017 2.787,1.509c0.826,0.433 1.657,0.856 2.496,1.262c0.754,0.365 1.516,0.716 2.29,1.037c0.58,0.24 1.169,0.466 1.77,0.648c0.234,0.071 0.47,0.135 0.709,0.188c0.252,0.056 0.506,0.1 0.763,0.123c0.295,0.027 0.594,0.026 0.886,-0.017c0.393,-0.058 0.772,-0.191 1.102,-0.405c0.115,-0.075 0.224,-0.159 0.325,-0.251c0.128,-0.117 0.243,-0.249 0.342,-0.39c0.116,-0.165 0.211,-0.345 0.281,-0.533c0.091,-0.24 0.142,-0.494 0.155,-0.751c0.015,-0.3 -0.023,-0.603 -0.101,-0.895c-0.053,-0.197 -0.125,-0.39 -0.198,-0.581c-0.093,-0.242 -0.194,-0.482 -0.298,-0.721c-0.203,-0.464 -0.42,-0.923 -0.643,-1.379c-0.26,-0.533 -0.529,-1.062 -0.802,-1.589c-0.398,-0.769 -0.807,-1.534 -1.22,-2.296c-0.475,-0.875 -0.956,-1.747 -1.442,-2.616c-0.869,-1.555 -1.752,-3.101 -2.643,-4.643c-0.795,-1.377 -1.597,-2.751 -2.407,-4.119l-0.094,-0.158c-0.023,-0.036 -0.044,-0.073 -0.068,-0.108c-0.048,-0.071 -0.1,-0.138 -0.157,-0.203c-0.196,-0.226 -0.441,-0.411 -0.713,-0.54c-0.117,-0.055 -0.239,-0.099 -0.363,-0.133c-0.042,-0.011 -0.084,-0.02 -0.126,-0.03c-0.042,-0.007 -0.085,-0.015 -0.127,-0.022Z" style="fill:#280f25;fill-rule:nonzero;"/><path d="M87.301,49.664c0,0 21.669,-9.32 25.689,-9.8c4.02,-0.48 -17.121,18.66 -17.812,18.938c-0.692,0.278 -7.877,-9.138 -7.877,-9.138Z" style="fill:#280f25;"/><path d="M113.516,37.793c-0.075,-0.01 -0.084,-0.012 -0.158,-0.019c-0.116,-0.01 -0.233,-0.013 -0.35,-0.01c-0.153,0.004 -0.304,0.021 -0.454,0.043c-0.175,0.025 -0.348,0.057 -0.521,0.092c-0.505,0.105 -1.002,0.241 -1.496,0.385c-0.794,0.233 -1.579,0.493 -2.361,0.762c-0.981,0.338 -1.956,0.692 -2.928,1.054c-1.459,0.543 -2.91,1.104 -4.357,1.675c-1.402,0.552 -2.8,1.114 -4.196,1.681c-1.705,0.694 -3.406,1.396 -5.104,2.105c-1.644,0.686 -3.284,1.378 -4.922,2.079l-0.245,0.105c-0.113,0.053 -0.143,0.063 -0.25,0.127c-0.16,0.096 -0.307,0.213 -0.436,0.347c-0.193,0.202 -0.343,0.442 -0.44,0.702c-0.08,0.217 -0.124,0.448 -0.127,0.68c-0.003,0.185 0.019,0.371 0.066,0.552c0.047,0.18 0.118,0.355 0.211,0.518c0.063,0.108 0.084,0.132 0.156,0.234c0.16,0.209 0.32,0.416 0.48,0.624c0.613,0.793 1.23,1.583 1.852,2.369c0.459,0.579 0.92,1.155 1.385,1.729c0.385,0.474 0.773,0.945 1.165,1.414c0.285,0.341 0.573,0.68 0.865,1.016c0.214,0.247 0.43,0.492 0.65,0.734c0.173,0.191 0.349,0.38 0.528,0.566c0.117,0.122 0.235,0.242 0.356,0.359c0.091,0.089 0.183,0.176 0.278,0.261c0.344,0.31 0.72,0.597 1.158,0.764c0.067,0.025 0.139,0.05 0.207,0.069c0.111,0.031 0.223,0.055 0.336,0.07c0.152,0.021 0.307,0.026 0.46,0.016c0.191,-0.012 0.38,-0.049 0.561,-0.109c0.137,-0.045 0.268,-0.105 0.393,-0.175c0.125,-0.07 0.242,-0.152 0.357,-0.238c0.121,-0.091 0.239,-0.186 0.356,-0.282c0.336,-0.276 0.664,-0.559 0.991,-0.844c0.524,-0.455 1.042,-0.916 1.558,-1.379c0.648,-0.581 1.293,-1.167 1.934,-1.756c1.199,-1.1 2.388,-2.21 3.567,-3.331c1.013,-0.962 2.018,-1.933 3.012,-2.915c0.951,-0.938 1.891,-1.886 2.814,-2.851c0.746,-0.78 1.482,-1.571 2.189,-2.385c0.254,-0.293 0.505,-0.589 0.75,-0.891c0.177,-0.218 0.351,-0.439 0.52,-0.664c0.117,-0.156 0.232,-0.314 0.342,-0.475c0.088,-0.127 0.173,-0.255 0.255,-0.385c0.047,-0.077 0.094,-0.154 0.139,-0.232c0.261,-0.451 0.478,-0.937 0.545,-1.458c0.013,-0.096 0.02,-0.193 0.022,-0.29c0.002,-0.113 -0.003,-0.226 -0.016,-0.338c-0.02,-0.166 -0.056,-0.332 -0.111,-0.492c-0.063,-0.185 -0.149,-0.363 -0.256,-0.528c-0.159,-0.245 -0.364,-0.461 -0.602,-0.633c-0.21,-0.152 -0.445,-0.27 -0.692,-0.351c-0.061,-0.019 -0.122,-0.037 -0.184,-0.052c-0.07,-0.017 -0.1,-0.022 -0.17,-0.036c-0.027,-0.004 -0.055,-0.009 -0.082,-0.013ZM108.306,43.53c-1.004,1.068 -2.034,2.113 -3.075,3.145c-1.123,1.112 -2.26,2.209 -3.407,3.297c-1.153,1.093 -2.315,2.177 -3.488,3.25c-1.017,0.931 -2.04,1.855 -3.078,2.763l-0.077,0.067c-0.286,-0.314 -0.565,-0.634 -0.841,-0.957c-0.339,-0.396 -0.674,-0.795 -1.006,-1.197c-0.853,-1.033 -1.688,-2.079 -2.516,-3.131l-0.149,-0.189l-0.031,-0.04c0.458,-0.194 0.917,-0.387 1.376,-0.58c2.939,-1.234 5.886,-2.45 8.847,-3.634c1.103,-0.441 2.208,-0.877 3.316,-1.306c1.363,-0.528 2.73,-1.045 4.105,-1.542l0.111,-0.039c-0.029,0.031 -0.058,0.062 -0.087,0.093Z" style="fill:#280f25;fill-rule:nonzero;"/><path d="M45.847,81.897c0,0 -18.205,12.225 -22.126,13.196c-3.92,0.971 14.058,-20.031 13.784,-20.7c-0.289,-0.705 8.342,7.504 8.342,7.504Z" style="fill:#280f25;"/><path d="M37.77,72.277l-0.006,-0.001l-0.114,-0.012c-0.043,-0.002 -0.134,-0.007 -0.184,-0.007c-0.041,0 -0.152,0.007 -0.18,0.009c-0.037,0.004 -0.074,0.009 -0.11,0.013l-0.003,0.001c-0.126,0.021 -0.126,0.021 -0.25,0.05l-0.002,0.001c-0.105,0.031 -0.105,0.031 -0.207,0.067l-0.002,0c-0.033,0.014 -0.065,0.026 -0.098,0.04c-0.085,0.038 -0.105,0.05 -0.188,0.094l-0.001,0.001c-0.078,0.046 -0.098,0.056 -0.172,0.107c-0.027,0.019 -0.054,0.04 -0.081,0.06l-0.002,0.001c-0.027,0.022 -0.055,0.043 -0.081,0.066c-0.071,0.061 -0.087,0.079 -0.153,0.145l-0.001,0.001c-0.066,0.073 -0.084,0.09 -0.143,0.167c-0.023,0.03 -0.043,0.06 -0.065,0.09l-0.001,0.001c-0.047,0.073 -0.06,0.09 -0.102,0.166c-0.016,0.028 -0.03,0.057 -0.045,0.086l-0.001,0.002c-0.036,0.077 -0.046,0.096 -0.077,0.176c-0.011,0.029 -0.021,0.06 -0.032,0.09l0,0.002l-0.022,0.073c-0.039,0.06 -0.079,0.119 -0.119,0.178c-0.298,0.432 -0.613,0.853 -0.929,1.272c-0.392,0.519 -0.789,1.034 -1.187,1.548c-1.013,1.307 -2.032,2.609 -3.048,3.913c-0.312,0.401 -0.623,0.802 -0.934,1.203c-0.82,1.059 -1.636,2.121 -2.442,3.191c-0.597,0.793 -1.19,1.59 -1.772,2.393c-0.53,0.732 -1.053,1.469 -1.56,2.217c-0.432,0.638 -0.854,1.285 -1.247,1.948c-0.151,0.257 -0.299,0.517 -0.437,0.781c-0.114,0.216 -0.222,0.434 -0.32,0.657c-0.189,0.427 -0.346,0.876 -0.401,1.342c-0.028,0.243 -0.028,0.489 0.008,0.732c0.054,0.357 0.184,0.704 0.389,1.007c0.09,0.133 0.194,0.258 0.31,0.371c0.146,0.143 0.311,0.267 0.489,0.369c0.193,0.11 0.401,0.194 0.616,0.249c0.204,0.052 0.413,0.079 0.623,0.081c0.265,0.004 0.529,-0.032 0.785,-0.095c0.277,-0.069 0.548,-0.159 0.814,-0.258c0.259,-0.096 0.514,-0.202 0.767,-0.313c0.622,-0.274 1.229,-0.577 1.83,-0.891c0.755,-0.393 1.499,-0.805 2.238,-1.224c0.913,-0.519 1.818,-1.051 2.718,-1.591c1.123,-0.672 2.238,-1.357 3.349,-2.049c1.26,-0.784 2.513,-1.578 3.762,-2.378c1.238,-0.793 2.471,-1.592 3.701,-2.396c1.139,-0.746 2.276,-1.497 3.409,-2.253l0.207,-0.138c0.099,-0.072 0.126,-0.087 0.218,-0.168c0.138,-0.122 0.259,-0.261 0.359,-0.414c0.125,-0.191 0.218,-0.403 0.274,-0.624c0.066,-0.266 0.079,-0.545 0.036,-0.817c-0.029,-0.182 -0.081,-0.36 -0.157,-0.528c-0.075,-0.169 -0.173,-0.328 -0.29,-0.472c-0.078,-0.096 -0.102,-0.117 -0.189,-0.205c-0.353,-0.335 -0.706,-0.669 -1.06,-1.004c-1.01,-0.952 -2.022,-1.902 -3.039,-2.846c-0.766,-0.71 -1.534,-1.417 -2.311,-2.115c-0.431,-0.388 -0.865,-0.774 -1.309,-1.147c-0.176,-0.148 -0.353,-0.294 -0.537,-0.432c-0.202,-0.152 -0.414,-0.295 -0.646,-0.399c-0.114,-0.051 -0.231,-0.094 -0.352,-0.127c-0.04,-0.012 -0.153,-0.034 -0.19,-0.041c-0.035,-0.006 -0.069,-0.011 -0.103,-0.016ZM38.056,77.508c1.464,1.317 2.902,2.661 4.337,4.008l0.082,0.077c-2.525,1.665 -5.065,3.309 -7.626,4.92c-1.021,0.643 -2.046,1.28 -3.076,1.908c-1.263,0.772 -2.535,1.53 -3.82,2.267l-0.001,0c1.095,-1.537 2.231,-3.047 3.378,-4.546c1.542,-2.016 3.109,-4.012 4.669,-6.014c0.256,-0.33 0.512,-0.661 0.768,-0.991c0.399,-0.516 0.795,-1.033 1.187,-1.553l0.075,-0.101c0.009,0.008 0.018,0.017 0.027,0.025ZM35.467,74.976l-0.022,-0.064l-0.004,-0.021c0.008,0.028 0.017,0.057 0.026,0.085ZM39.607,74.076l0,0.002c0,-0.002 0,-0.003 0,-0.002ZM39.522,73.746c0.014,0.046 0.029,0.092 0.043,0.139c0.001,0.004 0.005,0.018 0.003,0.014c-0.003,-0.005 -0.003,-0.01 -0.004,-0.016l-0.035,-0.115c-0.006,-0.017 -0.013,-0.039 -0.007,-0.022Z" style="fill:#280f25;fill-rule:nonzero;"/><path d="M73.772,42.76c-0.278,-8.518 -1.572,-16.991 -4.062,-25.41c0,0 -7.328,17.319 -8.116,23.636" style="fill:#280f25;"/><path d="M69.97,15.277c-0.048,-0.005 -0.097,-0.012 -0.145,-0.015c-0.146,-0.01 -0.293,-0.005 -0.437,0.015c-0.241,0.032 -0.475,0.106 -0.69,0.216c-0.257,0.133 -0.485,0.318 -0.665,0.541c-0.09,0.112 -0.169,0.232 -0.234,0.36c-0.021,0.043 -0.04,0.087 -0.06,0.13c-0.107,0.255 -0.214,0.511 -0.32,0.766c-0.588,1.417 -1.165,2.838 -1.731,4.263c-0.561,1.413 -1.111,2.83 -1.649,4.252c-0.498,1.316 -0.985,2.637 -1.456,3.962c-0.439,1.237 -0.865,2.478 -1.269,3.727c-0.289,0.896 -0.567,1.796 -0.826,2.702c-0.232,0.812 -0.449,1.629 -0.635,2.453c-0.114,0.504 -0.217,1.011 -0.298,1.521c-0.019,0.119 -0.037,0.237 -0.053,0.356c-0.014,0.103 -0.029,0.207 -0.035,0.31c-0.006,0.095 -0.005,0.191 0.003,0.286c0.016,0.19 0.058,0.379 0.125,0.558c0.067,0.18 0.159,0.351 0.273,0.507c0.171,0.234 0.39,0.434 0.641,0.583c0.208,0.125 0.438,0.214 0.676,0.263c0.238,0.049 0.484,0.058 0.724,0.027c0.24,-0.032 0.474,-0.104 0.688,-0.213c0.214,-0.109 0.408,-0.254 0.572,-0.428c0.196,-0.208 0.347,-0.457 0.442,-0.726c0.031,-0.09 0.056,-0.182 0.075,-0.275c0.017,-0.088 0.021,-0.13 0.032,-0.209c0.007,-0.057 0.009,-0.071 0.017,-0.129c0.01,-0.067 0.02,-0.135 0.031,-0.202c0.083,-0.514 0.19,-1.024 0.31,-1.53c0.131,-0.554 0.276,-1.105 0.429,-1.653c0.359,-1.286 0.762,-2.56 1.184,-3.826c0.517,-1.552 1.065,-3.094 1.629,-4.63c0.633,-1.72 1.289,-3.432 1.959,-5.138c0.043,0.192 0.086,0.385 0.128,0.577c0.211,0.968 0.409,1.938 0.591,2.91c0.374,2.001 0.685,4.012 0.935,6.029c0.248,2.011 0.435,4.028 0.562,6.048c0.065,1.044 0.114,2.088 0.149,3.133l0.01,0.142c0.017,0.126 0.019,0.158 0.049,0.282c0.057,0.233 0.155,0.456 0.288,0.657c0.159,0.242 0.369,0.451 0.612,0.612c0.203,0.134 0.428,0.233 0.664,0.294c0.189,0.048 0.383,0.07 0.577,0.067c0.438,-0.008 0.867,-0.151 1.216,-0.405c0.193,-0.141 0.361,-0.314 0.495,-0.511c0.186,-0.277 0.304,-0.597 0.339,-0.929c0.013,-0.126 0.01,-0.158 0.01,-0.285c-0.007,-0.203 -0.014,-0.406 -0.022,-0.608c-0.037,-0.95 -0.085,-1.899 -0.146,-2.847c-0.119,-1.831 -0.285,-3.66 -0.499,-5.484c-0.48,-4.083 -1.205,-8.143 -2.177,-12.148c-0.311,-1.284 -0.648,-2.562 -1.01,-3.834c-0.077,-0.269 -0.154,-0.537 -0.233,-0.806c-0.028,-0.096 -0.068,-0.237 -0.104,-0.336c-0.017,-0.045 -0.035,-0.09 -0.055,-0.134c-0.1,-0.22 -0.237,-0.423 -0.406,-0.598c-0.168,-0.176 -0.366,-0.323 -0.584,-0.433c-0.131,-0.066 -0.268,-0.12 -0.409,-0.159c-0.047,-0.012 -0.095,-0.022 -0.143,-0.034c-0.048,-0.008 -0.096,-0.016 -0.144,-0.024Z" style="fill:#280f25;fill-rule:nonzero;"/><path d="M71.624,87.261c0,0 -6.638,23.08 -8.381,24.053c-1.744,0.974 -3.937,-18.995 -4.557,-23.558" style="fill:#280f25;"/><path d="M71.628,85.171c-0.049,0.001 -0.098,0 -0.146,0.003c-0.145,0.008 -0.29,0.03 -0.43,0.067c-0.281,0.073 -0.545,0.204 -0.772,0.381c-0.188,0.147 -0.35,0.327 -0.477,0.529c-0.076,0.121 -0.139,0.249 -0.188,0.383c-0.017,0.045 -0.03,0.091 -0.044,0.136c-0.096,0.329 -0.191,0.658 -0.287,0.988c-0.986,3.367 -2,6.727 -3.06,10.072c-0.431,1.363 -0.871,2.723 -1.324,4.079c-0.464,1.388 -0.941,2.771 -1.447,4.144c-0.025,-0.127 -0.05,-0.253 -0.074,-0.38c-0.254,-1.329 -0.479,-2.663 -0.688,-4c-0.133,-0.85 -0.26,-1.702 -0.383,-2.554c-0.298,-2.07 -0.572,-4.144 -0.836,-6.218c-0.181,-1.417 -0.355,-2.835 -0.535,-4.252c-0.024,-0.188 -0.048,-0.375 -0.072,-0.562c-0.011,-0.084 -0.022,-0.168 -0.033,-0.251c-0.013,-0.099 -0.033,-0.263 -0.055,-0.369c-0.009,-0.047 -0.021,-0.093 -0.033,-0.139c-0.065,-0.231 -0.169,-0.45 -0.308,-0.647c-0.167,-0.236 -0.383,-0.439 -0.631,-0.591c-0.207,-0.128 -0.435,-0.22 -0.673,-0.273c-0.19,-0.042 -0.385,-0.058 -0.579,-0.048c-0.243,0.012 -0.482,0.065 -0.705,0.156c-0.269,0.109 -0.512,0.272 -0.713,0.478c-0.133,0.136 -0.247,0.291 -0.337,0.459c-0.159,0.293 -0.243,0.624 -0.245,0.957c-0.001,0.127 0.005,0.159 0.018,0.285c0.021,0.155 0.041,0.31 0.062,0.465c0.037,0.284 0.073,0.569 0.109,0.854c0.147,1.164 0.291,2.328 0.438,3.492c0.385,3.033 0.785,6.064 1.254,9.087c0.143,0.921 0.292,1.841 0.452,2.759c0.147,0.842 0.303,1.683 0.475,2.521c0.098,0.477 0.202,0.952 0.314,1.426c0.08,0.336 0.164,0.672 0.255,1.005c0.068,0.249 0.14,0.497 0.218,0.744c0.056,0.178 0.116,0.355 0.18,0.531c0.044,0.12 0.09,0.24 0.139,0.358c0.214,0.519 0.485,1.03 0.89,1.433c0.057,0.057 0.116,0.111 0.178,0.162c0.09,0.076 0.185,0.146 0.284,0.209c0.142,0.09 0.292,0.166 0.449,0.226c0.184,0.071 0.376,0.12 0.572,0.144c0.247,0.032 0.498,0.024 0.742,-0.021c0.356,-0.066 0.691,-0.214 0.982,-0.424c0.374,-0.27 0.662,-0.634 0.905,-1.019c0.11,-0.173 0.211,-0.352 0.307,-0.533c0.118,-0.22 0.227,-0.443 0.333,-0.668c0.218,-0.464 0.419,-0.935 0.612,-1.409c0.227,-0.556 0.443,-1.117 0.653,-1.679c0.267,-0.716 0.525,-1.435 0.777,-2.156c0.593,-1.695 1.156,-3.401 1.706,-5.11c0.66,-2.053 1.3,-4.112 1.927,-6.175c0.587,-1.93 1.162,-3.863 1.726,-5.799l0.091,-0.314c0.027,-0.093 0.086,-0.285 0.111,-0.399c0.049,-0.232 0.058,-0.473 0.026,-0.709c-0.033,-0.236 -0.107,-0.467 -0.218,-0.68c-0.134,-0.256 -0.321,-0.484 -0.547,-0.667c-0.151,-0.122 -0.318,-0.224 -0.496,-0.303c-0.133,-0.058 -0.273,-0.103 -0.416,-0.134c-0.126,-0.028 -0.159,-0.028 -0.288,-0.043c-0.048,-0.002 -0.097,-0.005 -0.145,-0.007Z" style="fill:#280f25;fill-rule:nonzero;"/><path d="M95.695,71.075c0,0 3.03,-7.832 -3.524,-17.302c-4.555,-6.583 -30.793,-22.983 -53.343,-1.409c-24.764,23.691 40.529,57.56 56.867,18.711Z" style="fill:#280f25;"/><path d="M68.693,40.708c-0.339,-0.041 -0.678,-0.079 -1.018,-0.111c-0.711,-0.069 -1.423,-0.117 -2.136,-0.145c-1.806,-0.07 -3.616,-0.007 -5.41,0.194c-1.769,0.198 -3.521,0.531 -5.233,0.994c-1.673,0.453 -3.307,1.03 -4.888,1.719c-1.9,0.827 -3.72,1.815 -5.449,2.931c-1.7,1.099 -3.31,2.321 -4.83,3.637c-0.462,0.4 -0.916,0.809 -1.361,1.226c-0.213,0.199 -0.425,0.399 -0.632,0.603c-0.221,0.216 -0.438,0.436 -0.65,0.66c-0.628,0.663 -1.218,1.36 -1.757,2.092c-0.522,0.709 -0.997,1.451 -1.411,2.223c-0.393,0.73 -0.731,1.487 -1.006,2.265c-0.336,0.949 -0.577,1.929 -0.714,2.923c-0.14,1.018 -0.171,2.05 -0.095,3.075c0.044,0.601 0.125,1.199 0.239,1.792c0.085,0.439 0.189,0.875 0.31,1.306c0.092,0.332 0.195,0.661 0.308,0.987c0.706,2.044 1.784,3.961 3.088,5.713c0.188,0.253 0.381,0.503 0.579,0.749c0.272,0.34 0.553,0.674 0.842,1.001c0.371,0.421 0.755,0.832 1.15,1.232c1.134,1.151 2.361,2.217 3.653,3.204c1.548,1.181 3.19,2.247 4.899,3.202c1.412,0.788 2.869,1.5 4.362,2.135c1.204,0.512 2.432,0.975 3.679,1.384c2.703,0.889 5.495,1.534 8.328,1.896c0.471,0.06 0.944,0.112 1.418,0.156c3.063,0.286 6.166,0.231 9.204,-0.241c0.465,-0.072 0.929,-0.154 1.39,-0.246c0.594,-0.118 1.184,-0.253 1.769,-0.405c0.716,-0.185 1.426,-0.397 2.125,-0.633c0.928,-0.314 1.838,-0.674 2.726,-1.078c1.211,-0.552 2.38,-1.188 3.493,-1.903c1.026,-0.659 2.004,-1.385 2.926,-2.17c0.901,-0.768 1.749,-1.592 2.54,-2.463c1.487,-1.638 2.769,-3.441 3.854,-5.344c0.483,-0.849 0.928,-1.718 1.336,-2.602c0.123,-0.266 0.243,-0.534 0.359,-0.803c0.033,-0.077 0.067,-0.155 0.1,-0.233c0.041,-0.097 0.043,-0.097 0.068,-0.164c0.035,-0.094 0.067,-0.189 0.097,-0.285c0.037,-0.117 0.072,-0.235 0.105,-0.353c0.082,-0.296 0.153,-0.595 0.215,-0.896c0.069,-0.334 0.127,-0.671 0.174,-1.009c0.128,-0.905 0.184,-1.82 0.177,-2.734c-0.015,-2.009 -0.34,-4.013 -0.925,-5.943c-0.424,-1.394 -0.983,-2.75 -1.655,-4.052c-0.398,-0.772 -0.835,-1.525 -1.308,-2.258c-0.124,-0.192 -0.25,-0.384 -0.379,-0.574c-0.093,-0.137 -0.187,-0.274 -0.285,-0.409c-0.146,-0.202 -0.301,-0.398 -0.46,-0.59c-0.345,-0.415 -0.714,-0.81 -1.098,-1.191c-0.457,-0.452 -0.936,-0.885 -1.429,-1.302c-0.552,-0.467 -1.122,-0.914 -1.706,-1.344c-0.718,-0.528 -1.457,-1.03 -2.212,-1.507c-0.938,-0.593 -1.901,-1.148 -2.884,-1.667c-1.024,-0.54 -2.07,-1.04 -3.136,-1.499c-2.524,-1.088 -5.158,-1.946 -7.857,-2.533c-0.732,-0.159 -1.468,-0.298 -2.208,-0.416c-0.333,-0.054 -0.667,-0.102 -1.002,-0.147c-0.126,-0.017 -0.252,-0.033 -0.379,-0.049ZM68.624,43.055c0.313,0.041 0.626,0.085 0.938,0.134c0.656,0.102 1.309,0.222 1.957,0.359c2.55,0.539 5.039,1.336 7.426,2.35c1.073,0.456 2.125,0.955 3.153,1.498c0.899,0.474 1.78,0.981 2.638,1.52c0.734,0.462 1.451,0.947 2.147,1.459c0.52,0.382 1.028,0.78 1.521,1.194c0.448,0.377 0.884,0.768 1.3,1.178c0.345,0.34 0.678,0.693 0.986,1.064c0.127,0.153 0.25,0.309 0.367,0.47c0.07,0.097 0.138,0.195 0.205,0.293c0.095,0.141 0.19,0.282 0.283,0.424c0.312,0.477 0.608,0.963 0.886,1.458c0.567,1.007 1.06,2.051 1.466,3.126c0.469,1.243 0.82,2.526 1.034,3.83c0.154,0.945 0.237,1.9 0.241,2.855c0.002,0.697 -0.037,1.395 -0.123,2.087c-0.036,0.296 -0.081,0.59 -0.136,0.882c-0.033,0.175 -0.069,0.35 -0.109,0.524c-0.043,0.185 -0.212,0.785 -0.253,0.898c-0.028,0.067 -0.056,0.132 -0.084,0.198c-0.155,0.361 -0.315,0.719 -0.482,1.074c-0.354,0.752 -0.736,1.492 -1.149,2.217c-1.033,1.814 -2.26,3.529 -3.689,5.079c-0.663,0.719 -1.368,1.401 -2.113,2.041c-0.743,0.638 -1.527,1.234 -2.345,1.782c-1.08,0.723 -2.22,1.363 -3.407,1.913c-0.864,0.401 -1.753,0.755 -2.659,1.062c-0.612,0.207 -1.233,0.393 -1.86,0.558c-0.478,0.125 -0.959,0.239 -1.444,0.34c-0.425,0.089 -0.852,0.168 -1.281,0.239c-3.011,0.495 -6.097,0.544 -9.136,0.238c-0.635,-0.064 -1.269,-0.143 -1.901,-0.238c-0.76,-0.113 -1.517,-0.249 -2.269,-0.404c-0.942,-0.196 -1.877,-0.423 -2.803,-0.681c-1.262,-0.351 -2.508,-0.759 -3.731,-1.221c-1.563,-0.591 -3.091,-1.268 -4.571,-2.032c-1.281,-0.66 -2.526,-1.385 -3.725,-2.174c-0.916,-0.603 -1.804,-1.244 -2.659,-1.924c-0.694,-0.552 -1.366,-1.13 -2.011,-1.734c-0.484,-0.454 -0.953,-0.924 -1.405,-1.409c-0.366,-0.393 -0.72,-0.797 -1.061,-1.211c-0.25,-0.304 -0.492,-0.613 -0.727,-0.928c-0.184,-0.248 -0.363,-0.499 -0.537,-0.754c-1.001,-1.466 -1.822,-3.053 -2.351,-4.731c-0.069,-0.219 -0.133,-0.439 -0.192,-0.661c-0.081,-0.307 -0.152,-0.617 -0.212,-0.929c-0.081,-0.418 -0.142,-0.84 -0.182,-1.264c-0.057,-0.599 -0.072,-1.202 -0.042,-1.803c0.043,-0.881 0.182,-1.758 0.413,-2.612c0.167,-0.618 0.381,-1.223 0.636,-1.812c0.282,-0.649 0.614,-1.277 0.987,-1.881c0.634,-1.028 1.387,-1.986 2.217,-2.877c0.21,-0.225 0.426,-0.447 0.646,-0.664c0.153,-0.151 0.309,-0.3 0.465,-0.449c0.192,-0.181 0.386,-0.361 0.581,-0.54c1.056,-0.965 2.16,-1.883 3.312,-2.743c1.389,-1.035 2.849,-1.985 4.375,-2.825c1.605,-0.883 3.284,-1.645 5.02,-2.262c1.326,-0.471 2.685,-0.858 4.066,-1.154c1.419,-0.304 2.861,-0.512 4.312,-0.624c1.456,-0.112 2.921,-0.127 4.38,-0.05c0.542,0.029 1.083,0.07 1.624,0.124c0.277,0.028 0.554,0.059 0.831,0.093c0.079,0.009 0.157,0.019 0.236,0.03Z" style="fill:#280f25;fill-rule:nonzero;"/><path d="M81.12,52.053c-5.161,-0.65 -9.947,3.232 -10.679,8.663c-0.732,5.432 2.864,10.369 8.025,11.019c5.162,0.65 9.947,-3.232 10.679,-8.664c0.733,-5.431 -2.863,-10.368 -8.025,-11.018Z" style="fill:#280f25;"/><path d="M81.881,50.055c-0.149,-0.025 -0.297,-0.048 -0.446,-0.068c-0.323,-0.043 -0.647,-0.072 -0.972,-0.086c-0.904,-0.041 -1.811,0.028 -2.695,0.205c-1.146,0.229 -2.249,0.637 -3.266,1.196c-0.889,0.489 -1.712,1.092 -2.445,1.786c-1.147,1.086 -2.073,2.393 -2.724,3.824c-0.875,1.927 -1.251,4.076 -1.076,6.194c0.097,1.175 0.364,2.339 0.798,3.444c0.412,1.053 0.976,2.051 1.673,2.951c0.78,1.005 1.727,1.886 2.799,2.585c0.623,0.407 1.287,0.752 1.98,1.027c0.663,0.263 1.351,0.461 2.052,0.593c0.735,0.137 1.484,0.202 2.231,0.191c0.633,-0.009 1.265,-0.072 1.886,-0.188c1.15,-0.215 2.26,-0.609 3.284,-1.156c0.895,-0.478 1.724,-1.072 2.466,-1.757c1.141,-1.055 2.07,-2.326 2.735,-3.723c0.931,-1.954 1.34,-4.151 1.174,-6.318c-0.086,-1.129 -0.33,-2.249 -0.727,-3.318c-0.402,-1.082 -0.963,-2.11 -1.664,-3.038c-0.767,-1.015 -1.703,-1.907 -2.766,-2.619c-0.799,-0.536 -1.667,-0.969 -2.578,-1.283c-0.325,-0.112 -0.655,-0.208 -0.989,-0.29c-0.169,-0.041 -0.339,-0.077 -0.509,-0.111c-0.074,-0.014 -0.147,-0.028 -0.221,-0.041ZM81.289,54.192c0.309,0.059 0.614,0.137 0.913,0.238c0.541,0.182 1.058,0.434 1.536,0.746c0.63,0.411 1.19,0.925 1.659,1.508c0.42,0.521 0.767,1.097 1.035,1.706c0.326,0.74 0.535,1.527 0.625,2.324c0.075,0.666 0.067,1.339 -0.018,2.001c-0.1,0.782 -0.309,1.55 -0.623,2.273c-0.484,1.117 -1.216,2.127 -2.144,2.926c-0.449,0.387 -0.943,0.724 -1.471,0.998c-0.621,0.321 -1.289,0.556 -1.981,0.685c-0.814,0.152 -1.658,0.155 -2.478,0.007c-0.44,-0.08 -0.873,-0.203 -1.289,-0.368c-0.408,-0.162 -0.799,-0.364 -1.168,-0.601c-0.633,-0.407 -1.196,-0.917 -1.668,-1.497c-0.422,-0.518 -0.773,-1.092 -1.044,-1.698c-0.344,-0.767 -0.561,-1.586 -0.649,-2.415c-0.071,-0.667 -0.06,-1.341 0.03,-2.004c0.101,-0.748 0.301,-1.482 0.597,-2.177c0.477,-1.121 1.205,-2.135 2.129,-2.941c0.446,-0.389 0.938,-0.729 1.466,-1.006c0.618,-0.326 1.285,-0.565 1.976,-0.698c0.528,-0.102 1.069,-0.142 1.609,-0.118c0.291,0.013 0.581,0.046 0.868,0.095c0.03,0.005 0.06,0.011 0.09,0.016Z" style="fill:#dffaf1;fill-rule:nonzero;"/><path d="M80.27,57.844c-1.949,-0.245 -3.756,1.221 -4.032,3.271c-0.277,2.051 1.081,3.915 3.03,4.16c1.948,0.246 3.755,-1.22 4.032,-3.271c0.276,-2.05 -1.082,-3.914 -3.03,-4.16Z" style="fill:#280f25;"/><path d="M80.732,55.802c-0.074,-0.012 -0.148,-0.024 -0.223,-0.033c-0.148,-0.019 -0.297,-0.031 -0.446,-0.038c-0.486,-0.022 -0.974,0.02 -1.447,0.124c-0.573,0.126 -1.123,0.342 -1.626,0.635c-0.437,0.254 -0.838,0.565 -1.192,0.921c-0.506,0.506 -0.915,1.104 -1.206,1.755c-0.39,0.872 -0.567,1.838 -0.511,2.795c0.034,0.583 0.155,1.161 0.359,1.712c0.201,0.539 0.482,1.05 0.834,1.51c0.397,0.519 0.884,0.971 1.436,1.326c0.613,0.394 1.304,0.667 2.022,0.796c0.678,0.123 1.376,0.119 2.049,-0.011c0.578,-0.112 1.134,-0.315 1.646,-0.596c0.443,-0.244 0.852,-0.545 1.215,-0.893c0.499,-0.478 0.911,-1.043 1.214,-1.661c0.441,-0.9 0.651,-1.91 0.604,-2.914c-0.026,-0.561 -0.132,-1.119 -0.316,-1.652c-0.188,-0.544 -0.456,-1.062 -0.798,-1.53c-0.383,-0.527 -0.858,-0.99 -1.4,-1.359c-0.418,-0.284 -0.874,-0.511 -1.352,-0.672c-0.164,-0.055 -0.329,-0.102 -0.497,-0.142c-0.072,-0.017 -0.145,-0.032 -0.218,-0.047c-0.073,-0.014 -0.073,-0.014 -0.147,-0.026ZM80.112,59.933c0.087,0.018 0.172,0.044 0.253,0.079c0.057,0.026 0.112,0.055 0.164,0.089c0.045,0.029 0.088,0.061 0.129,0.095c0.292,0.245 0.468,0.603 0.525,0.969c0.092,0.594 -0.115,1.225 -0.555,1.637c-0.052,0.049 -0.108,0.095 -0.166,0.136c-0.08,0.058 -0.166,0.108 -0.255,0.149c-0.118,0.054 -0.244,0.093 -0.373,0.111c-0.125,0.017 -0.252,0.015 -0.376,-0.005c-0.083,-0.014 -0.165,-0.037 -0.243,-0.068c-0.063,-0.025 -0.123,-0.055 -0.18,-0.09c-0.045,-0.027 -0.089,-0.058 -0.13,-0.091c-0.318,-0.253 -0.505,-0.639 -0.557,-1.031c-0.075,-0.576 0.127,-1.179 0.547,-1.581c0.056,-0.055 0.117,-0.105 0.181,-0.151c0.075,-0.054 0.155,-0.101 0.239,-0.141c0.118,-0.056 0.243,-0.096 0.373,-0.116c0.118,-0.018 0.239,-0.018 0.358,-0.002c0.022,0.003 0.044,0.007 0.066,0.011Z" style="fill:#dffaf1;fill-rule:nonzero;"/><path d="M51.675,50.879c-5.161,-0.65 -9.946,3.232 -10.679,8.663c-0.732,5.432 2.864,10.369 8.025,11.019c5.162,0.65 9.947,-3.232 10.679,-8.664c0.733,-5.431 -2.863,-10.368 -8.025,-11.018Z" style="fill:#280f25;"/><path d="M52.436,48.882c-0.173,-0.03 -0.347,-0.057 -0.521,-0.078c-0.322,-0.041 -0.646,-0.068 -0.97,-0.08c-0.88,-0.034 -1.762,0.036 -2.621,0.208c-1.146,0.229 -2.25,0.637 -3.267,1.196c-0.889,0.489 -1.711,1.092 -2.444,1.786c-1.13,1.07 -2.046,2.352 -2.694,3.758c-0.897,1.943 -1.283,4.118 -1.107,6.26c0.097,1.175 0.365,2.34 0.798,3.445c0.413,1.053 0.976,2.05 1.674,2.95c0.779,1.006 1.726,1.887 2.799,2.586c0.602,0.393 1.244,0.729 1.912,0.999c0.707,0.286 1.443,0.498 2.192,0.633c0.688,0.124 1.387,0.184 2.084,0.179c0.683,-0.005 1.363,-0.074 2.031,-0.203c1.148,-0.221 2.255,-0.623 3.275,-1.176c0.893,-0.483 1.719,-1.082 2.456,-1.771c1.117,-1.046 2.029,-2.299 2.683,-3.674c0.962,-2.021 1.367,-4.301 1.155,-6.539c-0.101,-1.078 -0.347,-2.145 -0.733,-3.164c-0.4,-1.059 -0.952,-2.064 -1.639,-2.972c-0.767,-1.015 -1.703,-1.907 -2.765,-2.619c-0.82,-0.549 -1.712,-0.991 -2.648,-1.306c-0.326,-0.11 -0.658,-0.205 -0.993,-0.284c-0.145,-0.034 -0.29,-0.065 -0.437,-0.094c-0.073,-0.014 -0.146,-0.027 -0.22,-0.04ZM51.844,53.018c0.309,0.059 0.614,0.137 0.912,0.238c0.542,0.183 1.059,0.435 1.537,0.746c0.631,0.411 1.191,0.925 1.66,1.508c0.419,0.522 0.766,1.098 1.035,1.706c0.326,0.74 0.535,1.527 0.625,2.324c0.074,0.666 0.067,1.339 -0.018,2.001c-0.103,0.799 -0.319,1.582 -0.643,2.318c-0.484,1.099 -1.21,2.093 -2.125,2.882c-0.449,0.386 -0.943,0.723 -1.471,0.997c-0.62,0.321 -1.289,0.556 -1.98,0.685c-0.8,0.149 -1.628,0.154 -2.434,0.015c-0.427,-0.074 -0.847,-0.189 -1.252,-0.344c-0.423,-0.162 -0.83,-0.366 -1.212,-0.609c-0.636,-0.403 -1.202,-0.909 -1.678,-1.486c-0.425,-0.516 -0.778,-1.087 -1.053,-1.691c-0.382,-0.839 -0.611,-1.741 -0.686,-2.652c-0.049,-0.586 -0.034,-1.176 0.041,-1.757c0.097,-0.75 0.293,-1.486 0.585,-2.184c0.465,-1.11 1.175,-2.118 2.078,-2.924c0.443,-0.395 0.932,-0.741 1.456,-1.026c0.615,-0.333 1.279,-0.58 1.969,-0.723c0.526,-0.108 1.066,-0.155 1.605,-0.138c0.291,0.009 0.581,0.038 0.869,0.083c0.06,0.01 0.12,0.02 0.18,0.031Z" style="fill:#dffaf1;fill-rule:nonzero;"/><path d="M50.574,57.038c-1.949,-0.245 -3.756,1.221 -4.032,3.271c-0.277,2.051 1.081,3.915 3.03,4.16c1.948,0.245 3.755,-1.22 4.032,-3.271c0.276,-2.05 -1.081,-3.914 -3.03,-4.16Z" style="fill:#280f25;"/><path d="M51.036,54.995c-0.074,-0.011 -0.148,-0.023 -0.222,-0.032c-0.148,-0.019 -0.298,-0.032 -0.447,-0.038c-0.486,-0.022 -0.974,0.02 -1.447,0.124c-0.573,0.126 -1.123,0.342 -1.626,0.635c-0.457,0.265 -0.874,0.593 -1.24,0.969c-0.5,0.513 -0.902,1.116 -1.186,1.771c-0.361,0.833 -0.529,1.749 -0.487,2.66c0.029,0.607 0.15,1.21 0.363,1.783c0.201,0.539 0.482,1.05 0.834,1.511c0.397,0.518 0.884,0.97 1.436,1.325c0.613,0.394 1.304,0.667 2.022,0.796c0.678,0.123 1.376,0.118 2.049,-0.012c0.578,-0.111 1.135,-0.314 1.647,-0.596c0.442,-0.243 0.851,-0.545 1.214,-0.892c0.516,-0.494 0.939,-1.081 1.244,-1.724c0.421,-0.884 0.62,-1.871 0.574,-2.852c-0.026,-0.56 -0.132,-1.118 -0.316,-1.651c-0.188,-0.544 -0.456,-1.062 -0.798,-1.531c-0.383,-0.527 -0.858,-0.99 -1.4,-1.358c-0.418,-0.284 -0.874,-0.511 -1.353,-0.672c-0.163,-0.055 -0.328,-0.103 -0.496,-0.142c-0.072,-0.017 -0.145,-0.032 -0.218,-0.047c-0.073,-0.014 -0.073,-0.014 -0.147,-0.027ZM50.415,59.127c0.087,0.017 0.172,0.043 0.254,0.079c0.057,0.025 0.112,0.055 0.164,0.089c0.045,0.029 0.088,0.061 0.129,0.095c0.297,0.249 0.475,0.616 0.528,0.99c0.083,0.581 -0.118,1.195 -0.543,1.602c-0.052,0.049 -0.107,0.096 -0.166,0.139c-0.075,0.055 -0.154,0.104 -0.238,0.145c-0.127,0.062 -0.264,0.106 -0.405,0.125c-0.124,0.018 -0.251,0.016 -0.376,-0.005c-0.083,-0.013 -0.164,-0.036 -0.242,-0.067c-0.063,-0.025 -0.123,-0.055 -0.18,-0.09c-0.046,-0.027 -0.09,-0.058 -0.131,-0.091c-0.318,-0.253 -0.505,-0.64 -0.557,-1.031c-0.075,-0.575 0.126,-1.179 0.547,-1.581c0.056,-0.055 0.117,-0.105 0.181,-0.151c0.075,-0.054 0.155,-0.102 0.239,-0.141c0.118,-0.056 0.243,-0.096 0.373,-0.116c0.119,-0.018 0.239,-0.018 0.359,-0.002c0.022,0.003 0.043,0.007 0.064,0.011Z" style="fill:#dffaf1;fill-rule:nonzero;"/><path d="M56.13,54.169c-1.466,-0.184 -2.809,0.802 -2.998,2.202c-0.188,1.399 0.848,2.685 2.314,2.87c1.466,0.184 2.809,-0.802 2.998,-2.202c0.189,-1.399 -0.848,-2.685 -2.314,-2.87Z" style="fill:#fff;"/><path d="M85.933,55.305c-1.394,-0.175 -2.672,0.763 -2.851,2.094c-0.18,1.332 0.806,2.555 2.201,2.731c1.394,0.175 2.672,-0.763 2.852,-2.094c0.179,-1.332 -0.807,-2.555 -2.202,-2.731Z" style="fill:#fff;"/></g></svg>