<?xml version="1.0" standalone="no"?><!DOCTYPE svg PUBLIC "-//W3C//DTD SVG 1.1//EN" "http://www.w3.org/Graphics/SVG/1.1/DTD/svg11.dtd"><svg width="100%" height="100%" viewBox="0 0 150 157" version="1.1" xmlns="http://www.w3.org/2000/svg" xmlns:xlink="http://www.w3.org/1999/xlink" xml:space="preserve" style="fill-rule:evenodd;clip-rule:evenodd;stroke-linejoin:round;stroke-miterlimit:1.41421;"><g><path d="M102.037,50.019c0,0 25.096,-22.116 25.378,-20.528c0.281,1.588 -7.697,23.74 -12.819,29.403c-5.121,5.662 -12.559,-8.875 -12.559,-8.875Z" style="fill:#280f25;"/><path d="M127.527,26.946c0.124,0.014 0.179,0.018 0.303,0.043c0.186,0.038 0.368,0.095 0.541,0.173c0.066,0.029 0.13,0.062 0.194,0.096c0.034,0.018 0.066,0.04 0.099,0.06c0.102,0.064 0.101,0.065 0.199,0.135l0.006,0.005c0.088,0.069 0.088,0.069 0.172,0.142l0.006,0.005c0.087,0.082 0.087,0.082 0.169,0.169l0.006,0.005c0.079,0.092 0.079,0.092 0.154,0.187l0.004,0.006c0.069,0.098 0.069,0.097 0.133,0.198l0.005,0.007c0.055,0.097 0.056,0.096 0.107,0.196c0.017,0.035 0.036,0.069 0.051,0.105c0.059,0.142 0.096,0.247 0.134,0.395c0.022,0.084 0.038,0.174 0.051,0.261c0.064,0.415 0.027,0.837 -0.041,1.248c-0.039,0.232 -0.088,0.462 -0.141,0.69c-0.061,0.26 -0.128,0.519 -0.198,0.776c-0.107,0.395 -0.221,0.787 -0.34,1.178c-0.221,0.729 -0.456,1.454 -0.698,2.175c-0.287,0.853 -0.584,1.703 -0.888,2.55c-0.706,1.96 -1.451,3.906 -2.231,5.838c-0.626,1.554 -1.275,3.098 -1.952,4.63c-0.512,1.16 -1.041,2.313 -1.59,3.455c-0.411,0.854 -0.833,1.701 -1.272,2.54c-0.343,0.657 -0.697,1.308 -1.065,1.951c-0.297,0.521 -0.604,1.035 -0.923,1.542c-0.424,0.673 -0.871,1.332 -1.357,1.962c-0.165,0.214 -0.335,0.424 -0.512,0.629c-0.211,0.246 -0.431,0.485 -0.668,0.708c-0.333,0.312 -0.697,0.594 -1.087,0.832c-0.402,0.245 -0.833,0.443 -1.283,0.584c-0.343,0.107 -0.697,0.181 -1.054,0.22c-0.46,0.05 -0.924,0.042 -1.382,-0.018c-0.644,-0.085 -1.271,-0.274 -1.865,-0.534c-0.86,-0.378 -1.649,-0.902 -2.375,-1.494c-0.6,-0.488 -1.159,-1.025 -1.688,-1.589c-0.544,-0.581 -1.057,-1.19 -1.546,-1.817c-0.826,-1.061 -1.586,-2.172 -2.297,-3.313c-0.292,-0.468 -0.575,-0.942 -0.85,-1.42c-0.238,-0.414 -0.471,-0.832 -0.692,-1.256l-0.024,-0.047c-0.025,-0.052 -0.052,-0.103 -0.074,-0.156c-0.069,-0.158 -0.121,-0.324 -0.155,-0.493c-0.056,-0.282 -0.063,-0.574 -0.02,-0.858c0.052,-0.342 0.177,-0.672 0.363,-0.963c0.093,-0.145 0.202,-0.28 0.323,-0.403c0.04,-0.041 0.084,-0.079 0.126,-0.119c0.36,-0.317 0.721,-0.634 1.082,-0.95c3.236,-2.833 6.487,-5.648 9.763,-8.436c1.568,-1.335 3.142,-2.663 4.726,-3.98c1.2,-0.997 2.405,-1.989 3.621,-2.967c0.582,-0.468 1.166,-0.933 1.754,-1.393c0.617,-0.482 1.238,-0.959 1.868,-1.424c0.478,-0.352 0.961,-0.699 1.457,-1.025c0.306,-0.201 0.617,-0.396 0.94,-0.567c0.366,-0.194 0.752,-0.358 1.162,-0.434c0.124,-0.023 0.251,-0.039 0.377,-0.046c0.102,-0.005 0.133,-0.003 0.234,-0.002c0.046,0.003 0.092,0.005 0.138,0.008ZM122.95,35.477c-1.574,1.264 -3.132,2.549 -4.681,3.844c-1.08,0.904 -2.156,1.811 -3.229,2.723c-3.264,2.772 -6.503,5.573 -9.728,8.391l-0.138,0.121c0.342,0.574 0.698,1.14 1.069,1.697c0.417,0.625 0.852,1.239 1.312,1.833c0.505,0.652 1.039,1.284 1.62,1.868c0.343,0.344 0.703,0.673 1.088,0.969c0.21,0.16 0.427,0.311 0.655,0.443c0.142,0.082 0.287,0.157 0.438,0.22c0.133,0.055 0.271,0.102 0.413,0.127c0.095,0.017 0.193,0.025 0.288,0.009c0.062,-0.01 0.121,-0.03 0.177,-0.057c0.103,-0.048 0.196,-0.116 0.283,-0.189c0.087,-0.074 0.169,-0.155 0.246,-0.24c0.152,-0.17 0.297,-0.345 0.438,-0.524c0.253,-0.323 0.491,-0.659 0.721,-1c0.413,-0.614 0.798,-1.247 1.167,-1.889c0.384,-0.667 0.751,-1.344 1.106,-2.028c0.366,-0.703 0.72,-1.412 1.064,-2.125c0.504,-1.043 0.989,-2.095 1.459,-3.154c0.484,-1.088 0.953,-2.182 1.41,-3.282c1.051,-2.532 2.039,-5.091 2.959,-7.674l0.09,-0.254l0.005,-0.015c-0.077,0.062 -0.154,0.124 -0.232,0.186Z" style="fill:#280f25;fill-rule:nonzero;"/><path d="M43.886,100.622c0,0 -7.622,21.17 -8.403,26.449c-0.782,5.279 19.228,-12.593 22.752,-15.985" style="fill:#280f25;"/><path d="M44.158,98.165c0.146,0.021 0.183,0.023 0.326,0.058c0.213,0.054 0.42,0.136 0.612,0.244c0.192,0.108 0.37,0.241 0.527,0.396c0.235,0.232 0.423,0.512 0.548,0.818c0.105,0.254 0.167,0.526 0.183,0.802c0.012,0.22 -0.005,0.441 -0.051,0.657c-0.031,0.143 -0.046,0.177 -0.09,0.317c-0.11,0.305 -0.219,0.61 -0.328,0.915c-0.773,2.175 -1.537,4.354 -2.289,6.537c-0.621,1.805 -1.235,3.613 -1.837,5.425c-0.553,1.665 -1.097,3.332 -1.623,5.005c-0.488,1.552 -0.961,3.109 -1.398,4.676l-0.017,0.06c0.574,-0.378 1.136,-0.773 1.693,-1.176c0.784,-0.567 1.556,-1.15 2.321,-1.743c1.596,-1.238 3.161,-2.516 4.708,-3.814c1.78,-1.494 3.537,-3.015 5.274,-4.56c0.668,-0.594 1.334,-1.192 1.995,-1.795c0.581,-0.53 1.16,-1.062 1.729,-1.605l0.083,-0.08c0.109,-0.098 0.134,-0.126 0.253,-0.212c0.222,-0.163 0.472,-0.288 0.735,-0.368c0.316,-0.097 0.652,-0.129 0.98,-0.095c0.274,0.029 0.543,0.103 0.793,0.22c0.299,0.141 0.569,0.341 0.79,0.588c0.221,0.246 0.392,0.536 0.499,0.849c0.071,0.208 0.115,0.426 0.129,0.646c0.013,0.22 -0.002,0.442 -0.047,0.658c-0.067,0.323 -0.2,0.633 -0.388,0.905c-0.063,0.09 -0.132,0.177 -0.206,0.258c-0.037,0.041 -0.077,0.079 -0.115,0.118c-0.131,0.126 -0.262,0.25 -0.393,0.374c-0.725,0.683 -1.46,1.354 -2.199,2.022c-0.948,0.856 -1.904,1.705 -2.866,2.547c-1.361,1.191 -2.734,2.37 -4.122,3.53c-1.017,0.851 -2.041,1.692 -3.076,2.519c-0.834,0.666 -1.674,1.324 -2.525,1.967c-0.673,0.51 -1.353,1.011 -2.042,1.498c-0.519,0.366 -1.042,0.724 -1.575,1.069c-0.347,0.225 -0.698,0.445 -1.054,0.656c-0.265,0.157 -0.533,0.309 -0.804,0.453c-0.193,0.103 -0.387,0.202 -0.584,0.296c-0.128,0.061 -0.256,0.12 -0.386,0.176c-0.094,0.041 -0.19,0.08 -0.286,0.118c-0.13,0.052 -0.262,0.1 -0.395,0.144c-0.537,0.179 -1.101,0.293 -1.669,0.27c-0.125,-0.005 -0.25,-0.016 -0.373,-0.035c-0.167,-0.025 -0.332,-0.062 -0.493,-0.113c-0.213,-0.067 -0.419,-0.157 -0.612,-0.269c-0.242,-0.141 -0.465,-0.315 -0.658,-0.518c-0.258,-0.272 -0.463,-0.591 -0.605,-0.938c-0.118,-0.289 -0.191,-0.596 -0.223,-0.906c-0.024,-0.233 -0.024,-0.469 -0.006,-0.703c0.012,-0.158 0.035,-0.316 0.06,-0.473c0.031,-0.191 0.066,-0.382 0.103,-0.571c0.103,-0.526 0.225,-1.049 0.354,-1.569c0.163,-0.653 0.338,-1.303 0.52,-1.951c0.207,-0.738 0.422,-1.474 0.643,-2.208c0.352,-1.172 0.717,-2.34 1.09,-3.506c0.423,-1.327 0.857,-2.651 1.296,-3.973c0.719,-2.164 1.455,-4.324 2.201,-6.479c0.724,-2.093 1.459,-4.183 2.205,-6.269l0.086,-0.24c0.02,-0.051 0.039,-0.103 0.061,-0.153c0.066,-0.152 0.147,-0.297 0.242,-0.432c0.19,-0.27 0.434,-0.502 0.715,-0.677c0.234,-0.146 0.492,-0.252 0.76,-0.313c0.162,-0.037 0.326,-0.057 0.492,-0.061c0.055,-0.002 0.11,0.001 0.165,0.001c0.055,0.005 0.11,0.009 0.164,0.013Z" style="fill:#280f25;fill-rule:nonzero;"/><path d="M45.09,62.285c0,0 -31.052,-8.06 -36.511,-7.818c-5.46,0.242 27.26,22.081 28.246,22.311c0.986,0.23 8.265,-14.493 8.265,-14.493Z" style="fill:#280f25;"/><path d="M9.256,51.998c0.514,0.02 1.027,0.066 1.538,0.123c0.38,0.043 0.76,0.093 1.139,0.146c1.04,0.147 2.075,0.322 3.108,0.511c1.399,0.255 2.794,0.531 4.186,0.82c1.281,0.265 2.559,0.54 3.836,0.822c3.688,0.814 7.363,1.679 11.033,2.569c3.76,0.911 7.515,1.847 11.262,2.812l0.351,0.09c0.162,0.049 0.205,0.057 0.361,0.124c0.176,0.076 0.342,0.172 0.496,0.286c0.204,0.152 0.385,0.336 0.533,0.543c0.149,0.207 0.265,0.438 0.344,0.68c0.098,0.303 0.136,0.625 0.113,0.943c-0.014,0.191 -0.051,0.38 -0.108,0.562c-0.051,0.162 -0.073,0.199 -0.143,0.354c-0.106,0.213 -0.212,0.426 -0.318,0.639c-0.623,1.245 -1.252,2.486 -1.89,3.723c-0.463,0.898 -0.93,1.794 -1.403,2.688c-0.396,0.747 -0.796,1.492 -1.203,2.234c-0.298,0.545 -0.6,1.088 -0.908,1.629c-0.227,0.398 -0.456,0.795 -0.691,1.188c-0.186,0.312 -0.375,0.622 -0.568,0.929c-0.126,0.199 -0.253,0.396 -0.384,0.591c-0.189,0.281 -0.384,0.558 -0.594,0.823c-0.244,0.308 -0.511,0.602 -0.825,0.84c-0.151,0.115 -0.311,0.216 -0.48,0.301c-0.127,0.064 -0.26,0.118 -0.396,0.161c-0.172,0.055 -0.349,0.092 -0.529,0.11c-0.044,0.005 -0.088,0.009 -0.132,0.011c-0.19,0.01 -0.382,-0.001 -0.57,-0.033c-0.171,-0.029 -0.338,-0.077 -0.499,-0.138c-0.168,-0.064 -0.328,-0.145 -0.485,-0.23c-0.179,-0.096 -0.354,-0.2 -0.529,-0.304c-0.509,-0.305 -1.011,-0.623 -1.512,-0.943c-0.896,-0.574 -1.786,-1.157 -2.674,-1.745c-0.908,-0.602 -1.813,-1.209 -2.716,-1.82c-1.735,-1.175 -3.461,-2.365 -5.178,-3.568c-1.698,-1.192 -3.387,-2.397 -5.062,-3.623c-1.433,-1.048 -2.855,-2.111 -4.259,-3.198c-0.668,-0.517 -1.332,-1.04 -1.989,-1.572c-0.553,-0.447 -1.101,-0.9 -1.642,-1.363c-0.443,-0.38 -0.882,-0.766 -1.311,-1.161c-0.281,-0.259 -0.557,-0.522 -0.827,-0.791c-0.186,-0.186 -0.369,-0.374 -0.547,-0.567c-0.127,-0.137 -0.25,-0.275 -0.371,-0.417c-0.078,-0.092 -0.154,-0.185 -0.229,-0.279c-0.419,-0.529 -0.793,-1.113 -0.975,-1.769c-0.023,-0.087 -0.044,-0.174 -0.061,-0.262c-0.025,-0.132 -0.043,-0.266 -0.051,-0.401c-0.011,-0.198 -0.004,-0.397 0.024,-0.593c0.026,-0.18 0.068,-0.357 0.128,-0.528c0.033,-0.097 0.061,-0.163 0.103,-0.255c0.042,-0.094 0.092,-0.186 0.145,-0.274c0.104,-0.172 0.227,-0.335 0.366,-0.48c0.092,-0.096 0.189,-0.187 0.293,-0.27c0.221,-0.175 0.467,-0.316 0.727,-0.422c0.307,-0.125 0.633,-0.199 0.962,-0.231c0.236,-0.023 0.474,-0.025 0.711,-0.023c0.1,0.002 0.2,0.004 0.3,0.008ZM13.952,57.685c1.633,1.346 3.312,2.636 5.008,3.901c1.858,1.387 3.738,2.743 5.63,4.081c2.15,1.52 4.316,3.016 6.497,4.489c0.785,0.53 1.571,1.057 2.36,1.58c0.927,0.614 1.859,1.224 2.797,1.822l0.024,0.016c0.323,-0.52 0.632,-1.048 0.935,-1.579c0.416,-0.727 0.821,-1.46 1.221,-2.196c0.991,-1.826 1.95,-3.671 2.895,-5.521l0.143,-0.281l0.04,-0.078c-0.65,-0.165 -1.3,-0.329 -1.95,-0.492c-4.792,-1.2 -9.591,-2.37 -14.406,-3.471c-1.936,-0.443 -3.875,-0.874 -5.817,-1.286c-1.822,-0.385 -3.647,-0.755 -5.48,-1.083l-0.021,-0.004c0.041,0.034 0.082,0.068 0.124,0.102Z" style="fill:#280f25;fill-rule:nonzero;"/><path d="M107.971,97.739c0,0 27.149,12.883 32.595,13.347c5.445,0.464 -23.519,-24.681 -23.316,-25.674c0.213,-1.046 -9.279,12.327 -9.279,12.327Z" style="fill:#280f25;"/><path d="M117.412,82.888l0.002,0.001l0.18,0.019l0.179,0.033l0.002,0c0.167,0.044 0.167,0.044 0.331,0.099l0.002,0c0.108,0.044 0.136,0.053 0.24,0.105c0.038,0.019 0.076,0.041 0.115,0.061l0.002,0.001c0.154,0.096 0.154,0.096 0.301,0.202l0.002,0.002c0.092,0.075 0.117,0.093 0.202,0.176c0.032,0.031 0.062,0.064 0.093,0.096l0.002,0.002c0.112,0.129 0.112,0.129 0.214,0.266l0.001,0.002c0.028,0.043 0.057,0.085 0.084,0.129c0.057,0.094 0.111,0.196 0.153,0.297c0.052,0.061 0.106,0.12 0.16,0.178c0.416,0.452 0.851,0.886 1.287,1.318c0.609,0.603 1.225,1.198 1.844,1.792c0.85,0.816 1.704,1.629 2.559,2.441c0.77,0.732 1.541,1.463 2.311,2.195c0.608,0.579 1.216,1.158 1.823,1.738c2.348,2.245 4.684,4.503 6.967,6.814c0.592,0.6 1.18,1.204 1.761,1.815c0.688,0.721 1.367,1.451 2.029,2.196c0.376,0.424 0.747,0.854 1.108,1.291c0.235,0.287 0.466,0.576 0.691,0.871c0.154,0.204 0.306,0.411 0.452,0.622c0.093,0.133 0.183,0.267 0.27,0.404c0.064,0.099 0.126,0.2 0.187,0.301c0.34,0.574 0.628,1.195 0.722,1.861c0.012,0.087 0.021,0.175 0.026,0.263c0.008,0.132 0.008,0.265 -0.001,0.397c-0.013,0.194 -0.044,0.386 -0.095,0.574c-0.059,0.217 -0.143,0.427 -0.251,0.624c-0.139,0.253 -0.317,0.485 -0.526,0.683c-0.285,0.271 -0.625,0.479 -0.994,0.614c-0.331,0.121 -0.682,0.182 -1.035,0.192c-0.203,0.006 -0.406,-0.007 -0.608,-0.028c-0.499,-0.054 -0.992,-0.154 -1.48,-0.272c-0.585,-0.14 -1.164,-0.307 -1.738,-0.486c-0.718,-0.223 -1.43,-0.464 -2.138,-0.716c-0.752,-0.266 -1.5,-0.544 -2.245,-0.828c-1.795,-0.685 -3.575,-1.408 -5.348,-2.147c-2.134,-0.89 -4.257,-1.807 -6.374,-2.739c-2.104,-0.926 -4.202,-1.867 -6.294,-2.819c-2.54,-1.156 -5.073,-2.326 -7.596,-3.518l-0.079,-0.038c-0.142,-0.073 -0.18,-0.088 -0.313,-0.177c-0.15,-0.1 -0.288,-0.216 -0.413,-0.346c-0.166,-0.173 -0.306,-0.37 -0.415,-0.584c-0.137,-0.267 -0.225,-0.558 -0.257,-0.856c-0.033,-0.298 -0.011,-0.602 0.064,-0.892c0.046,-0.174 0.11,-0.343 0.192,-0.504c0.073,-0.142 0.098,-0.173 0.186,-0.307c0.292,-0.411 0.585,-0.821 0.878,-1.232c1.206,-1.687 2.417,-3.37 3.639,-5.046c0.508,-0.697 1.018,-1.393 1.532,-2.086c0.464,-0.628 0.931,-1.253 1.404,-1.874c0.376,-0.494 0.754,-0.985 1.146,-1.466c0.15,-0.185 0.301,-0.367 0.458,-0.545c0.156,-0.176 0.316,-0.348 0.493,-0.502c0.193,-0.169 0.407,-0.317 0.639,-0.427c0.113,-0.054 0.233,-0.1 0.352,-0.137c0.097,-0.03 0.237,-0.062 0.336,-0.079c0.035,-0.006 0.071,-0.009 0.106,-0.013c0.12,-0.012 0.12,-0.011 0.241,-0.016l0.002,0l0.115,0c0.038,0.002 0.077,0.004 0.115,0.005ZM117.163,89.3c-0.836,1.106 -1.659,2.222 -2.476,3.341c-0.967,1.324 -1.926,2.653 -2.882,3.984l-0.097,0.135c2.366,1.101 4.738,2.188 7.118,3.26c1.926,0.867 3.856,1.724 5.793,2.566c1.847,0.803 3.701,1.594 5.563,2.361c1.773,0.731 3.555,1.441 5.354,2.106l0.043,0.016c-0.95,-1.025 -1.923,-2.028 -2.907,-3.021c-1.062,-1.072 -2.137,-2.131 -3.218,-3.184c-2.656,-2.589 -5.352,-5.137 -8.04,-7.692c-0.434,-0.414 -0.869,-0.827 -1.302,-1.241c-0.942,-0.901 -1.882,-1.804 -2.807,-2.722l-0.042,-0.041c-0.033,0.044 -0.067,0.088 -0.1,0.132ZM119.706,85.697c0.007,-0.046 0.009,-0.046 0.011,-0.093c-0.004,0.031 -0.007,0.062 -0.011,0.093ZM114.804,85.046l-0.015,0.137c0.004,-0.037 0.008,-0.074 0.012,-0.11c0.002,-0.017 0.005,-0.033 0.007,-0.05c0.001,-0.008 -0.003,0.015 -0.004,0.023Z" style="fill:#280f25;fill-rule:nonzero;"/><path d="M61.409,49.619c-1.685,-11.912 -2.009,-23.99 -0.729,-36.265c0,0 13.918,22.432 16.489,31.041" style="fill:#280f25;"/><path d="M60.958,10.897c0.164,0.025 0.206,0.027 0.366,0.07c0.42,0.113 0.807,0.339 1.113,0.648c0.087,0.088 0.168,0.183 0.241,0.283c0.036,0.05 0.069,0.103 0.103,0.154c0.205,0.33 0.408,0.661 0.61,0.992c1.122,1.836 2.23,3.68 3.324,5.531c1.086,1.837 2.158,3.681 3.215,5.534c0.978,1.716 1.942,3.44 2.886,5.174c0.88,1.617 1.744,3.243 2.579,4.884c0.599,1.176 1.183,2.36 1.742,3.556c0.501,1.069 0.983,2.148 1.426,3.242c0.269,0.666 0.524,1.338 0.751,2.018c0.053,0.157 0.104,0.315 0.153,0.473c0.042,0.133 0.085,0.267 0.115,0.403c0.027,0.12 0.045,0.243 0.053,0.366c0.022,0.307 -0.015,0.618 -0.108,0.912c-0.074,0.236 -0.183,0.459 -0.324,0.662c-0.14,0.203 -0.31,0.385 -0.504,0.538c-0.242,0.191 -0.52,0.335 -0.815,0.424c-0.295,0.09 -0.607,0.123 -0.914,0.098c-0.246,-0.02 -0.488,-0.077 -0.717,-0.168c-0.287,-0.114 -0.551,-0.283 -0.776,-0.494c-0.225,-0.211 -0.409,-0.464 -0.541,-0.742c-0.027,-0.056 -0.051,-0.113 -0.073,-0.17c-0.042,-0.109 -0.058,-0.168 -0.089,-0.27c-0.024,-0.079 -0.031,-0.101 -0.056,-0.18c-0.031,-0.095 -0.061,-0.189 -0.093,-0.284c-0.252,-0.749 -0.54,-1.486 -0.845,-2.216c-0.295,-0.705 -0.606,-1.403 -0.926,-2.097c-0.791,-1.714 -1.637,-3.402 -2.508,-5.076c-1.007,-1.938 -2.049,-3.857 -3.112,-5.765c-1.404,-2.522 -2.844,-5.023 -4.306,-7.511l-0.158,-0.268l-0.221,-0.374c-0.013,0.273 -0.026,0.546 -0.038,0.818c-0.065,1.494 -0.11,2.988 -0.129,4.483c-0.039,2.973 0.015,5.947 0.159,8.917c0.148,3.05 0.392,6.095 0.727,9.131c0.172,1.563 0.37,3.124 0.589,4.682l0.019,0.183c0.005,0.165 0.01,0.206 -0.004,0.37c-0.02,0.246 -0.078,0.488 -0.171,0.717c-0.115,0.286 -0.284,0.549 -0.496,0.773c-0.17,0.179 -0.366,0.333 -0.581,0.454c-0.215,0.121 -0.448,0.21 -0.689,0.262c-0.361,0.079 -0.74,0.075 -1.1,-0.011c-0.36,-0.086 -0.699,-0.253 -0.986,-0.487c-0.335,-0.273 -0.596,-0.633 -0.75,-1.037c-0.044,-0.116 -0.079,-0.234 -0.105,-0.354c-0.013,-0.061 -0.022,-0.122 -0.033,-0.182c-0.04,-0.283 -0.079,-0.566 -0.118,-0.849c-0.178,-1.324 -0.343,-2.651 -0.49,-3.979c-0.272,-2.47 -0.486,-4.946 -0.639,-7.426c-0.369,-5.959 -0.385,-11.94 -0.038,-17.901c0.107,-1.849 0.25,-3.697 0.428,-5.541c0.028,-0.292 0.057,-0.585 0.087,-0.877c0.013,-0.129 0.031,-0.336 0.056,-0.474c0.022,-0.123 0.053,-0.243 0.093,-0.36c0.08,-0.235 0.196,-0.458 0.342,-0.658c0.146,-0.201 0.323,-0.379 0.522,-0.527c0.249,-0.186 0.532,-0.323 0.832,-0.404c0.18,-0.049 0.365,-0.077 0.551,-0.084c0.062,-0.002 0.124,0 0.186,0c0.062,0.005 0.124,0.01 0.185,0.014Z" style="fill:#280f25;fill-rule:nonzero;"/><path d="M75.575,112.038c0,0 16.682,29.34 19.297,30.084c2.615,0.744 -1.458,-27.32 -2.234,-33.772" style="fill:#280f25;"/><path d="M92.972,105.9c0.059,0.01 0.119,0.019 0.177,0.031c0.177,0.037 0.35,0.094 0.514,0.169c0.274,0.125 0.525,0.3 0.736,0.515c0.212,0.214 0.383,0.467 0.504,0.743c0.072,0.165 0.127,0.339 0.161,0.516c0.012,0.059 0.019,0.119 0.029,0.178c0.026,0.219 0.053,0.438 0.08,0.657c0.051,0.403 0.103,0.805 0.155,1.208c0.185,1.433 0.373,2.866 0.559,4.3c0.548,4.239 1.079,8.481 1.523,12.733c0.138,1.319 0.268,2.638 0.383,3.959c0.103,1.168 0.195,2.337 0.268,3.507c0.05,0.8 0.092,1.6 0.119,2.401c0.022,0.662 0.034,1.324 0.028,1.985c-0.004,0.353 -0.013,0.705 -0.03,1.057c-0.013,0.253 -0.03,0.505 -0.053,0.756c-0.016,0.171 -0.035,0.341 -0.059,0.511c-0.013,0.099 -0.028,0.198 -0.045,0.297c-0.113,0.671 -0.306,1.342 -0.694,1.909c-0.078,0.114 -0.164,0.224 -0.257,0.327c-0.109,0.122 -0.229,0.235 -0.357,0.337c-0.18,0.144 -0.377,0.265 -0.586,0.361c-0.273,0.125 -0.566,0.206 -0.865,0.237c-0.389,0.041 -0.784,-0.003 -1.157,-0.121c-0.465,-0.149 -0.883,-0.413 -1.256,-0.725c-0.299,-0.251 -0.573,-0.53 -0.834,-0.82c-0.276,-0.304 -0.538,-0.621 -0.793,-0.943c-0.323,-0.406 -0.635,-0.821 -0.94,-1.241c-0.35,-0.479 -0.692,-0.964 -1.03,-1.452c-0.853,-1.236 -1.678,-2.492 -2.49,-3.755c-0.92,-1.43 -1.823,-2.871 -2.716,-4.318c-0.93,-1.506 -1.848,-3.018 -2.76,-4.534c-1.192,-1.982 -2.371,-3.971 -3.541,-5.966c-0.839,-1.43 -1.673,-2.862 -2.503,-4.298c-0.591,-1.023 -1.181,-2.048 -1.767,-3.075l-0.048,-0.085c-0.028,-0.053 -0.058,-0.105 -0.084,-0.16c-0.051,-0.108 -0.095,-0.221 -0.131,-0.336c-0.142,-0.461 -0.145,-0.961 -0.008,-1.424c0.068,-0.231 0.169,-0.452 0.301,-0.654c0.132,-0.202 0.293,-0.384 0.477,-0.539c0.184,-0.155 0.391,-0.283 0.612,-0.379c0.499,-0.216 1.065,-0.261 1.592,-0.127c0.291,0.075 0.569,0.203 0.815,0.377c0.197,0.139 0.373,0.306 0.521,0.496c0.099,0.127 0.117,0.163 0.201,0.3c0.239,0.419 0.479,0.837 0.718,1.255c1.299,2.261 2.608,4.515 3.93,6.762c1.384,2.354 2.781,4.701 4.197,7.035c1.166,1.923 2.346,3.839 3.55,5.739c1.007,1.589 2.03,3.169 3.095,4.72c-0.008,-0.191 -0.018,-0.382 -0.027,-0.572c-0.083,-1.587 -0.206,-3.172 -0.348,-4.755c-0.16,-1.787 -0.344,-3.571 -0.541,-5.354c-0.351,-3.181 -0.743,-6.357 -1.15,-9.531c-0.238,-1.855 -0.483,-3.709 -0.723,-5.564c-0.053,-0.408 -0.105,-0.817 -0.156,-1.226c-0.022,-0.174 -0.044,-0.347 -0.065,-0.52l-0.019,-0.157c-0.013,-0.16 -0.021,-0.2 -0.017,-0.361c0.005,-0.18 0.029,-0.36 0.073,-0.535c0.073,-0.293 0.2,-0.571 0.372,-0.818c0.173,-0.247 0.391,-0.461 0.64,-0.63c0.199,-0.135 0.418,-0.241 0.648,-0.313c0.173,-0.054 0.351,-0.089 0.531,-0.104c0.16,-0.013 0.201,-0.008 0.361,-0.004c0.06,0.006 0.12,0.012 0.18,0.018Z" style="fill:#280f25;fill-rule:nonzero;"/><path d="M39.098,93.966c0,0 -5.918,-10.208 0.51,-24.864c4.468,-10.187 35.389,-38.938 70.57,-14.033c38.633,27.35 -39.99,89.238 -71.08,38.897Z" style="fill:#280f25;"/><path d="M67.666,45.616c0.441,-0.134 0.883,-0.264 1.327,-0.386c0.927,-0.256 1.863,-0.484 2.804,-0.684c2.383,-0.507 4.805,-0.83 7.238,-0.956c2.399,-0.125 4.808,-0.058 7.196,0.199c2.333,0.252 4.644,0.684 6.912,1.284c2.725,0.721 5.384,1.683 7.951,2.845c2.524,1.143 4.959,2.479 7.297,3.966c0.711,0.452 1.413,0.918 2.106,1.397c0.331,0.229 0.66,0.459 0.986,0.696c0.345,0.25 0.686,0.507 1.022,0.77c0.995,0.781 1.947,1.617 2.841,2.513c0.865,0.868 1.675,1.793 2.412,2.772c0.697,0.927 1.33,1.904 1.883,2.924c0.675,1.244 1.232,2.552 1.654,3.904c0.432,1.385 0.722,2.813 0.868,4.256c0.086,0.846 0.123,1.696 0.114,2.546c-0.007,0.63 -0.039,1.26 -0.096,1.888c-0.043,0.482 -0.101,0.963 -0.172,1.442c-0.445,3.003 -1.416,5.913 -2.726,8.645c-0.189,0.394 -0.386,0.786 -0.589,1.173c-0.28,0.535 -0.573,1.062 -0.878,1.583c-0.391,0.67 -0.802,1.328 -1.231,1.974c-1.231,1.857 -2.604,3.619 -4.084,5.284c-1.772,1.993 -3.698,3.848 -5.74,5.562c-1.686,1.416 -3.451,2.736 -5.282,3.957c-1.478,0.986 -2.999,1.906 -4.557,2.758c-3.378,1.848 -6.935,3.377 -10.613,4.521c-0.612,0.191 -1.228,0.371 -1.847,0.539c-4.003,1.091 -8.141,1.717 -12.293,1.748c-0.636,0.005 -1.272,-0.004 -1.908,-0.028c-0.817,-0.03 -1.634,-0.084 -2.449,-0.163c-0.997,-0.096 -1.991,-0.229 -2.978,-0.4c-1.308,-0.227 -2.605,-0.52 -3.883,-0.882c-1.743,-0.493 -3.45,-1.113 -5.103,-1.856c-1.522,-0.685 -2.997,-1.473 -4.412,-2.357c-1.383,-0.864 -2.709,-1.818 -3.971,-2.851c-2.371,-1.942 -4.511,-4.159 -6.412,-6.561c-0.847,-1.071 -1.648,-2.179 -2.404,-3.317c-0.227,-0.342 -0.451,-0.688 -0.67,-1.035c-0.064,-0.101 -0.127,-0.201 -0.189,-0.302c-0.079,-0.126 -0.081,-0.125 -0.13,-0.213c-0.07,-0.122 -0.135,-0.248 -0.198,-0.374c-0.078,-0.154 -0.153,-0.31 -0.225,-0.468c-0.181,-0.393 -0.348,-0.793 -0.502,-1.197c-0.173,-0.45 -0.33,-0.905 -0.475,-1.364c-0.388,-1.23 -0.684,-2.49 -0.895,-3.763c-0.464,-2.798 -0.516,-5.659 -0.203,-8.476c0.226,-2.035 0.643,-4.047 1.222,-6.011c0.343,-1.164 0.743,-2.31 1.194,-3.436c0.118,-0.297 0.24,-0.592 0.366,-0.885c0.09,-0.212 0.182,-0.424 0.279,-0.633c0.146,-0.314 0.304,-0.622 0.47,-0.926c0.358,-0.654 0.754,-1.288 1.173,-1.904c0.498,-0.734 1.029,-1.444 1.584,-2.136c0.621,-0.774 1.271,-1.525 1.944,-2.255c0.827,-0.896 1.688,-1.762 2.577,-2.597c1.103,-1.036 2.249,-2.027 3.432,-2.971c1.23,-0.983 2.501,-1.916 3.807,-2.795c3.092,-2.084 6.386,-3.874 9.833,-5.302c0.934,-0.387 1.879,-0.747 2.834,-1.078c0.43,-0.15 0.863,-0.293 1.297,-0.431c0.164,-0.052 0.328,-0.103 0.492,-0.153ZM68.324,48.863c-0.407,0.129 -0.812,0.261 -1.215,0.399c-0.847,0.291 -1.686,0.606 -2.515,0.943c-3.26,1.326 -6.376,2.999 -9.304,4.949c-1.316,0.877 -2.594,1.81 -3.83,2.797c-1.081,0.863 -2.13,1.768 -3.14,2.713c-0.864,0.807 -1.7,1.645 -2.502,2.514c-0.599,0.65 -1.179,1.318 -1.734,2.006c-0.504,0.625 -0.989,1.268 -1.443,1.932c-0.377,0.551 -0.734,1.117 -1.055,1.703c-0.132,0.242 -0.258,0.487 -0.374,0.737c-0.07,0.15 -0.136,0.303 -0.202,0.455c-0.093,0.217 -0.184,0.434 -0.273,0.653c-0.3,0.734 -0.576,1.477 -0.827,2.229c-0.51,1.528 -0.915,3.093 -1.195,4.68c-0.323,1.834 -0.481,3.699 -0.45,5.562c0.023,1.348 0.143,2.695 0.369,4.025c0.164,0.971 0.384,1.932 0.666,2.876c0.119,0.402 0.25,0.801 0.394,1.195c0.085,0.237 0.175,0.472 0.271,0.704c0.102,0.248 0.471,1.044 0.553,1.193c0.053,0.085 0.106,0.171 0.16,0.256c0.293,0.466 0.592,0.928 0.899,1.384c0.652,0.967 1.339,1.91 2.062,2.824c1.811,2.289 3.856,4.398 6.13,6.23c1.053,0.85 2.155,1.639 3.301,2.361c1.142,0.719 2.326,1.371 3.547,1.948c1.609,0.761 3.28,1.393 4.99,1.89c1.245,0.363 2.512,0.654 3.79,0.876c0.864,0.149 1.734,0.267 2.607,0.354c0.666,0.067 1.334,0.116 2.002,0.147c0.586,0.027 1.173,0.041 1.76,0.042c4.123,0.008 8.236,-0.623 12.202,-1.736c0.829,-0.233 1.653,-0.487 2.469,-0.761c0.984,-0.33 1.957,-0.69 2.92,-1.077c1.205,-0.484 2.393,-1.012 3.561,-1.58c1.594,-0.775 3.151,-1.624 4.665,-2.544c1.936,-1.175 3.803,-2.463 5.586,-3.86c1.544,-1.209 3.024,-2.499 4.427,-3.868c1.072,-1.046 2.099,-2.139 3.071,-3.278c0.79,-0.924 1.544,-1.88 2.255,-2.867c0.534,-0.741 1.045,-1.5 1.527,-2.277c0.392,-0.63 0.766,-1.272 1.119,-1.925c0.259,-0.479 0.507,-0.965 0.742,-1.456c0.186,-0.386 0.363,-0.776 0.533,-1.169c0.976,-2.267 1.685,-4.659 1.983,-7.113c0.039,-0.32 0.071,-0.641 0.096,-0.963c0.034,-0.446 0.053,-0.893 0.058,-1.34c0.007,-0.601 -0.014,-1.202 -0.062,-1.8c-0.069,-0.847 -0.195,-1.689 -0.38,-2.518c-0.27,-1.216 -0.667,-2.403 -1.179,-3.539c-0.371,-0.822 -0.801,-1.616 -1.283,-2.377c-0.531,-0.838 -1.123,-1.637 -1.765,-2.393c-1.092,-1.286 -2.324,-2.449 -3.642,-3.5c-0.334,-0.266 -0.673,-0.525 -1.018,-0.777c-0.24,-0.176 -0.483,-0.349 -0.727,-0.519c-0.3,-0.21 -0.6,-0.416 -0.903,-0.62c-1.637,-1.104 -3.325,-2.132 -5.064,-3.066c-2.095,-1.126 -4.265,-2.116 -6.498,-2.94c-2.346,-0.865 -4.761,-1.545 -7.218,-2.01c-1.876,-0.356 -3.775,-0.586 -5.682,-0.685c-1.961,-0.102 -3.928,-0.065 -5.883,0.108c-1.963,0.173 -3.913,0.484 -5.834,0.922c-0.714,0.162 -1.424,0.342 -2.129,0.54c-0.362,0.101 -0.723,0.207 -1.083,0.316c-0.102,0.032 -0.204,0.064 -0.306,0.095Z" style="fill:#280f25;fill-rule:nonzero;"/><path d="M53.883,64.208c6.705,-2.072 14.002,2.245 16.286,9.634c2.284,7.389 -1.305,15.07 -8.01,17.143c-6.704,2.072 -14.002,-2.245 -16.285,-9.634c-2.284,-7.389 1.305,-15.071 8.009,-17.143Z" style="fill:#280f25;"/><path d="M57.852,61.227c0.19,0.008 0.38,0.018 0.57,0.032c0.316,0.025 0.631,0.06 0.944,0.105c1.123,0.162 2.225,0.456 3.282,0.867c1.327,0.517 2.58,1.218 3.721,2.068c1.138,0.847 2.165,1.842 3.055,2.947c0.75,0.931 1.402,1.941 1.946,3.006c1.135,2.223 1.802,4.686 1.934,7.179c0.104,1.952 -0.122,3.923 -0.683,5.796c-0.364,1.216 -0.867,2.389 -1.505,3.486c-0.761,1.307 -1.712,2.503 -2.826,3.526c-0.656,0.602 -1.367,1.144 -2.123,1.613c-0.743,0.462 -1.528,0.854 -2.343,1.17c-0.98,0.379 -2.002,0.65 -3.042,0.803c-0.794,0.117 -1.598,0.166 -2.401,0.147c-1.61,-0.039 -3.21,-0.354 -4.722,-0.911c-1.335,-0.491 -2.599,-1.169 -3.754,-1.998c-1.072,-0.769 -2.049,-1.667 -2.911,-2.665c-0.865,-1.003 -1.613,-2.105 -2.229,-3.278c-1.422,-2.71 -2.142,-5.788 -2.042,-8.849c0.045,-1.393 0.26,-2.781 0.644,-4.121c0.359,-1.251 0.865,-2.459 1.512,-3.588c0.752,-1.312 1.696,-2.514 2.804,-3.544c0.628,-0.584 1.307,-1.113 2.03,-1.575c0.762,-0.489 1.572,-0.903 2.414,-1.236c1.188,-0.47 2.44,-0.778 3.71,-0.912c0.383,-0.041 0.768,-0.066 1.154,-0.075c0.191,-0.004 0.383,-0.004 0.574,-0.001c0.096,0.002 0.191,0.004 0.287,0.008ZM57.542,66.164c-0.312,-0.007 -0.624,0 -0.936,0.025c-0.568,0.044 -1.132,0.142 -1.682,0.291c-0.698,0.189 -1.373,0.46 -2.008,0.808c-0.492,0.27 -0.96,0.585 -1.395,0.94c-0.356,0.29 -0.691,0.606 -1.002,0.944c-0.257,0.279 -0.498,0.574 -0.722,0.88c-0.202,0.277 -0.39,0.563 -0.564,0.858c-0.619,1.049 -1.056,2.201 -1.31,3.391c-0.189,0.886 -0.276,1.793 -0.264,2.698c0.016,1.253 0.223,2.501 0.599,3.695c0.29,0.917 0.68,1.804 1.166,2.634c0.543,0.929 1.206,1.788 1.972,2.543c0.401,0.396 0.83,0.763 1.283,1.097c0.478,0.351 0.982,0.665 1.509,0.935c0.609,0.313 1.247,0.568 1.905,0.756c0.743,0.212 1.511,0.337 2.283,0.366c0.859,0.032 1.722,-0.056 2.556,-0.264c0.703,-0.175 1.385,-0.432 2.028,-0.767c0.498,-0.26 0.973,-0.566 1.415,-0.913c0.362,-0.282 0.702,-0.591 1.019,-0.922c0.277,-0.29 0.536,-0.596 0.776,-0.917c0.205,-0.273 0.396,-0.557 0.573,-0.849c0.63,-1.039 1.08,-2.184 1.347,-3.369c0.204,-0.904 0.301,-1.833 0.294,-2.76c-0.009,-1.25 -0.208,-2.498 -0.577,-3.692c-0.285,-0.921 -0.67,-1.811 -1.152,-2.646c-0.539,-0.932 -1.197,-1.796 -1.96,-2.557c-0.383,-0.382 -0.792,-0.738 -1.225,-1.064c-0.474,-0.357 -0.976,-0.678 -1.501,-0.956c-0.605,-0.32 -1.241,-0.583 -1.897,-0.779c-0.462,-0.138 -0.935,-0.243 -1.412,-0.312c-0.288,-0.042 -0.578,-0.069 -0.869,-0.085c-0.083,-0.004 -0.166,-0.007 -0.249,-0.009Z" style="fill:#b4dfc3;fill-rule:nonzero;"/><path d="M56.411,72.072c2.531,-0.783 5.286,0.847 6.148,3.637c0.863,2.79 -0.492,5.69 -3.024,6.472c-2.531,0.782 -5.286,-0.847 -6.148,-3.637c-0.862,-2.79 0.493,-5.69 3.024,-6.472Z" style="fill:#280f25;"/><path d="M58.013,69.41c0.092,0.005 0.184,0.01 0.276,0.018c0.183,0.015 0.366,0.038 0.547,0.068c0.567,0.093 1.122,0.256 1.651,0.48c0.663,0.282 1.284,0.661 1.841,1.117c0.516,0.424 0.978,0.913 1.373,1.452c0.914,1.248 1.462,2.756 1.57,4.298c0.065,0.914 -0.026,1.838 -0.274,2.721c-0.17,0.606 -0.414,1.192 -0.727,1.739c-0.361,0.629 -0.814,1.205 -1.345,1.699c-0.64,0.595 -1.391,1.067 -2.205,1.383c-0.856,0.332 -1.777,0.489 -2.694,0.461c-0.792,-0.024 -1.577,-0.186 -2.316,-0.469c-0.673,-0.257 -1.307,-0.613 -1.879,-1.05c-0.554,-0.423 -1.051,-0.92 -1.475,-1.472c-0.999,-1.3 -1.591,-2.902 -1.687,-4.538c-0.047,-0.793 0.023,-1.593 0.211,-2.365c0.157,-0.642 0.394,-1.264 0.709,-1.845c0.359,-0.663 0.82,-1.272 1.366,-1.793c0.631,-0.603 1.374,-1.085 2.183,-1.411c0.591,-0.239 1.215,-0.395 1.849,-0.462c0.187,-0.019 0.374,-0.031 0.561,-0.036c0.093,-0.002 0.186,-0.001 0.28,0c0.092,0.002 0.092,0.002 0.185,0.005ZM57.742,74.348c-0.177,-0.002 -0.352,0.018 -0.523,0.063c-0.138,0.037 -0.272,0.088 -0.399,0.154c-0.085,0.045 -0.167,0.096 -0.245,0.153c-0.497,0.362 -0.803,0.939 -0.92,1.535c-0.019,0.102 -0.034,0.205 -0.043,0.308c-0.019,0.204 -0.016,0.409 0.005,0.613c0.089,0.849 0.509,1.673 1.186,2.201c0.093,0.073 0.19,0.139 0.291,0.199c0.139,0.082 0.285,0.152 0.436,0.205c0.208,0.074 0.427,0.118 0.648,0.125c0.167,0.005 0.334,-0.011 0.497,-0.049c0.139,-0.033 0.276,-0.081 0.405,-0.144c0.094,-0.046 0.184,-0.1 0.27,-0.16c0.058,-0.041 0.113,-0.086 0.167,-0.133c0.413,-0.364 0.669,-0.882 0.774,-1.418c0.02,-0.102 0.034,-0.205 0.044,-0.308c0.018,-0.204 0.016,-0.409 -0.006,-0.613c-0.091,-0.871 -0.531,-1.715 -1.238,-2.242c-0.093,-0.069 -0.191,-0.133 -0.292,-0.189c-0.148,-0.083 -0.304,-0.151 -0.465,-0.202c-0.175,-0.055 -0.356,-0.087 -0.539,-0.096c-0.027,-0.001 -0.026,-0.001 -0.053,-0.002Z" style="fill:#b4dfc3;fill-rule:nonzero;"/><path d="M92.741,55.911c6.704,-2.072 14.001,2.245 16.285,9.634c2.284,7.389 -1.305,15.071 -8.009,17.143c-6.705,2.072 -14.002,-2.245 -16.286,-9.634c-2.284,-7.389 1.305,-15.071 8.01,-17.143Z" style="fill:#280f25;"/><path d="M96.709,52.93c0.19,0.008 0.381,0.018 0.571,0.033c0.41,0.032 0.819,0.081 1.224,0.148c1.026,0.168 2.033,0.447 3.002,0.824c1.326,0.516 2.578,1.217 3.72,2.067c1.086,0.808 2.071,1.751 2.932,2.795c0.802,0.973 1.496,2.035 2.07,3.158c1.421,2.783 2.105,5.942 1.932,9.064c-0.074,1.324 -0.301,2.64 -0.681,3.911c-0.373,1.246 -0.893,2.447 -1.553,3.567c-0.768,1.303 -1.727,2.494 -2.848,3.509c-0.66,0.598 -1.375,1.135 -2.135,1.6c-0.747,0.457 -1.536,0.844 -2.354,1.154c-0.891,0.338 -1.816,0.587 -2.757,0.739c-0.888,0.143 -1.789,0.201 -2.688,0.174c-1.611,-0.05 -3.208,-0.375 -4.716,-0.941c-1.332,-0.5 -2.592,-1.186 -3.743,-2.021c-1.068,-0.776 -2.041,-1.68 -2.897,-2.684c-0.816,-0.957 -1.527,-2.004 -2.118,-3.114c-1.376,-2.585 -2.111,-5.513 -2.099,-8.443c0.007,-1.56 0.224,-3.118 0.654,-4.617c0.358,-1.25 0.864,-2.459 1.511,-3.587c0.753,-1.312 1.696,-2.514 2.804,-3.544c0.698,-0.65 1.461,-1.231 2.274,-1.729c0.691,-0.422 1.418,-0.785 2.171,-1.083c1.158,-0.458 2.376,-0.762 3.614,-0.902c0.415,-0.046 0.832,-0.074 1.249,-0.084c0.223,-0.005 0.447,-0.004 0.67,0c0.063,0.002 0.127,0.004 0.191,0.006ZM96.399,57.867c-0.312,-0.006 -0.624,0.001 -0.935,0.025c-0.569,0.044 -1.133,0.142 -1.683,0.291c-0.698,0.189 -1.373,0.46 -2.007,0.808c-0.492,0.27 -0.96,0.585 -1.395,0.94c-0.356,0.29 -0.691,0.606 -1.002,0.944c-0.272,0.295 -0.525,0.607 -0.76,0.932c-0.834,1.157 -1.424,2.482 -1.761,3.866c-0.241,0.99 -0.353,2.011 -0.34,3.03c0.016,1.227 0.215,2.449 0.577,3.621c0.306,0.99 0.728,1.943 1.262,2.832c0.529,0.881 1.167,1.697 1.899,2.419c0.385,0.38 0.795,0.733 1.229,1.056c0.494,0.367 1.017,0.695 1.564,0.976c0.607,0.312 1.245,0.567 1.903,0.755c0.743,0.212 1.511,0.338 2.283,0.367c0.86,0.032 1.722,-0.057 2.557,-0.264c0.703,-0.175 1.385,-0.433 2.028,-0.768c0.498,-0.26 0.972,-0.566 1.415,-0.912c0.378,-0.296 0.732,-0.62 1.062,-0.969c0.275,-0.291 0.532,-0.599 0.77,-0.921c0.86,-1.162 1.47,-2.502 1.82,-3.903c0.246,-0.988 0.364,-2.007 0.357,-3.025c-0.009,-1.174 -0.185,-2.345 -0.512,-3.473c-0.243,-0.836 -0.568,-1.649 -0.973,-2.42c-0.569,-1.083 -1.295,-2.084 -2.156,-2.953c-0.397,-0.401 -0.823,-0.773 -1.274,-1.113c-0.474,-0.357 -0.976,-0.678 -1.501,-0.955c-0.605,-0.321 -1.241,-0.584 -1.897,-0.78c-0.482,-0.144 -0.975,-0.252 -1.473,-0.321c-0.268,-0.036 -0.538,-0.061 -0.808,-0.076c-0.083,-0.004 -0.166,-0.007 -0.249,-0.009Z" style="fill:#b4dfc3;fill-rule:nonzero;"/><path d="M95.691,64.23c2.531,-0.783 5.286,0.847 6.149,3.637c0.862,2.79 -0.493,5.69 -3.025,6.472c-2.531,0.782 -5.286,-0.847 -6.148,-3.637c-0.862,-2.79 0.493,-5.69 3.024,-6.472Z" style="fill:#280f25;"/><path d="M97.293,61.568c0.092,0.005 0.184,0.01 0.276,0.018c0.184,0.015 0.366,0.038 0.547,0.068c0.567,0.093 1.122,0.256 1.651,0.48c0.663,0.282 1.284,0.661 1.841,1.117c0.517,0.424 0.978,0.913 1.373,1.452c0.932,1.273 1.484,2.816 1.576,4.391c0.052,0.883 -0.041,1.775 -0.28,2.627c-0.17,0.607 -0.414,1.193 -0.727,1.74c-0.361,0.629 -0.814,1.205 -1.345,1.699c-0.64,0.595 -1.39,1.067 -2.205,1.383c-0.856,0.332 -1.777,0.489 -2.694,0.461c-0.792,-0.024 -1.577,-0.186 -2.316,-0.469c-0.673,-0.257 -1.307,-0.613 -1.879,-1.05c-0.53,-0.404 -1.007,-0.876 -1.419,-1.4c-1.013,-1.288 -1.622,-2.883 -1.737,-4.517c-0.058,-0.824 0.01,-1.656 0.205,-2.458c0.157,-0.642 0.394,-1.264 0.709,-1.845c0.359,-0.663 0.82,-1.272 1.366,-1.793c0.631,-0.603 1.374,-1.085 2.183,-1.411c0.591,-0.239 1.215,-0.395 1.849,-0.462c0.187,-0.019 0.374,-0.031 0.561,-0.036c0.094,-0.002 0.187,-0.002 0.28,-0.001c0.092,0.003 0.092,0.003 0.185,0.006ZM97.022,66.506c-0.176,-0.002 -0.352,0.018 -0.522,0.063c-0.139,0.036 -0.273,0.088 -0.4,0.154c-0.085,0.045 -0.167,0.096 -0.245,0.153c-0.497,0.362 -0.803,0.939 -0.92,1.535c-0.019,0.102 -0.034,0.204 -0.043,0.307c-0.018,0.204 -0.016,0.41 0.005,0.614c0.089,0.849 0.509,1.672 1.186,2.201c0.093,0.073 0.19,0.139 0.291,0.199c0.139,0.082 0.285,0.151 0.436,0.205c0.208,0.074 0.427,0.118 0.648,0.125c0.167,0.005 0.334,-0.011 0.497,-0.049c0.139,-0.033 0.276,-0.081 0.405,-0.144c0.094,-0.046 0.185,-0.1 0.27,-0.161c0.058,-0.041 0.114,-0.085 0.167,-0.132c0.413,-0.364 0.669,-0.882 0.774,-1.418c0.02,-0.102 0.034,-0.205 0.044,-0.308c0.018,-0.204 0.016,-0.41 -0.005,-0.613c-0.092,-0.871 -0.532,-1.715 -1.239,-2.242c-0.093,-0.069 -0.191,-0.133 -0.292,-0.19c-0.14,-0.078 -0.286,-0.143 -0.438,-0.192c-0.183,-0.06 -0.373,-0.096 -0.566,-0.105c-0.026,-0.001 -0.026,-0.001 -0.053,-0.002Z" style="fill:#b4dfc3;fill-rule:nonzero;"/><path d="M98.943,60.573c1.574,-0.487 3.248,0.396 3.734,1.971c0.487,1.574 -0.396,3.248 -1.971,3.734c-1.574,0.487 -3.247,-0.396 -3.734,-1.971c-0.487,-1.574 0.397,-3.248 1.971,-3.734Z" style="fill:#dffaf1;"/><path d="M60.817,69.45c1.575,-0.487 3.248,0.396 3.734,1.971c0.487,1.574 -0.396,3.248 -1.971,3.734c-1.574,0.487 -3.247,-0.396 -3.734,-1.971c-0.487,-1.574 0.397,-3.248 1.971,-3.734Z" style="fill:#dffaf1;"/></g></svg>