<?xml version="1.0" standalone="no"?><!DOCTYPE svg PUBLIC "-//W3C//DTD SVG 1.1//EN" "http://www.w3.org/Graphics/SVG/1.1/DTD/svg11.dtd"><svg width="100%" height="100%" viewBox="0 0 142 145" version="1.1" xmlns="http://www.w3.org/2000/svg" xmlns:xlink="http://www.w3.org/1999/xlink" xml:space="preserve" style="fill-rule:evenodd;clip-rule:evenodd;stroke-linejoin:round;stroke-miterlimit:1.41421;"><g><path d="M99.053,57.686c0,0 29.441,-10.003 29.151,-8.555c-0.291,1.449 -14.766,17.48 -21.164,20.498c-6.397,3.018 -7.987,-11.943 -7.987,-11.943Z" style="fill:#280f25;"/><path d="M128.066,46.287c0.212,0.011 0.423,0.036 0.63,0.085c0.394,0.092 0.771,0.26 1.096,0.504c0.113,0.085 0.206,0.167 0.307,0.266c0.028,0.027 0.052,0.056 0.078,0.085c0.084,0.093 0.082,0.093 0.161,0.191l0.004,0.006c0.071,0.097 0.071,0.097 0.137,0.197l0.004,0.006c0.063,0.106 0.063,0.106 0.122,0.215l0.003,0.006c0.058,0.121 0.058,0.121 0.11,0.245l0.003,0.007c0.045,0.123 0.045,0.123 0.083,0.247l0.002,0.007c0.032,0.125 0.032,0.125 0.059,0.251l0.001,0.007c0.02,0.124 0.02,0.124 0.034,0.248l0,0.008c0.008,0.121 0.01,0.121 0.011,0.242c0,0.041 0.002,0.082 0,0.122c-0.009,0.157 -0.022,0.267 -0.051,0.419c-0.011,0.057 -0.025,0.112 -0.039,0.168c-0.118,0.466 -0.351,0.893 -0.61,1.294c-0.237,0.366 -0.498,0.718 -0.763,1.064c-0.254,0.331 -0.514,0.656 -0.778,0.979c-0.454,0.554 -0.918,1.101 -1.388,1.642c-0.55,0.635 -1.108,1.263 -1.672,1.885c-1.366,1.507 -2.763,2.984 -4.189,4.434c-1.084,1.102 -2.185,2.188 -3.306,3.252c-0.844,0.801 -1.699,1.589 -2.57,2.36c-0.648,0.574 -1.304,1.138 -1.973,1.687c-0.488,0.402 -0.983,0.796 -1.487,1.179c-0.405,0.308 -0.816,0.608 -1.234,0.899c-0.608,0.422 -1.231,0.824 -1.879,1.182c-0.509,0.281 -1.033,0.54 -1.585,0.725c-0.718,0.242 -1.478,0.363 -2.236,0.33c-0.36,-0.016 -0.719,-0.066 -1.07,-0.149c-0.45,-0.108 -0.887,-0.271 -1.3,-0.481c-0.529,-0.27 -1.017,-0.618 -1.456,-1.017c-0.691,-0.627 -1.262,-1.376 -1.744,-2.173c-0.382,-0.632 -0.71,-1.297 -1,-1.977c-0.308,-0.721 -0.572,-1.461 -0.806,-2.21c-0.38,-1.212 -0.681,-2.449 -0.927,-3.695c-0.11,-0.553 -0.208,-1.109 -0.295,-1.666c-0.069,-0.442 -0.132,-0.885 -0.184,-1.329l-0.005,-0.049c-0.005,-0.058 -0.011,-0.116 -0.014,-0.174c-0.008,-0.175 0.001,-0.35 0.027,-0.522c0.051,-0.346 0.17,-0.68 0.348,-0.981c0.178,-0.3 0.414,-0.565 0.692,-0.776c0.139,-0.106 0.288,-0.198 0.445,-0.275c0.139,-0.068 0.177,-0.078 0.322,-0.133c0.424,-0.143 0.847,-0.286 1.27,-0.428c3.342,-1.123 6.689,-2.231 10.044,-3.314c2.828,-0.913 5.66,-1.812 8.504,-2.672c1.036,-0.314 2.074,-0.622 3.114,-0.921c0.902,-0.258 1.806,-0.51 2.714,-0.746c0.726,-0.189 1.455,-0.37 2.19,-0.52c0.27,-0.056 0.541,-0.107 0.814,-0.148c0.259,-0.04 0.519,-0.072 0.78,-0.085c0.096,-0.005 0.193,-0.007 0.29,-0.008c0.081,0.002 0.081,0.002 0.162,0.005ZM121.134,53.42c-3.113,0.923 -6.211,1.899 -9.302,2.894c-3.261,1.05 -6.515,2.123 -9.763,3.211c0.02,0.109 0.041,0.219 0.062,0.328c0.224,1.146 0.496,2.285 0.852,3.398c0.204,0.636 0.435,1.265 0.713,1.874c0.161,0.354 0.339,0.702 0.544,1.034c0.121,0.197 0.252,0.389 0.397,0.569c0.08,0.1 0.164,0.196 0.255,0.286c0.055,0.053 0.112,0.105 0.173,0.152c0.035,0.028 0.072,0.055 0.111,0.079c0.056,0.035 0.119,0.07 0.186,0.078c0.05,0.007 0.103,0 0.153,-0.01c0.034,-0.007 0.067,-0.015 0.101,-0.025c0.056,-0.017 0.112,-0.037 0.167,-0.06c0.091,-0.038 0.18,-0.082 0.268,-0.126c0.147,-0.074 0.291,-0.153 0.433,-0.234c0.299,-0.17 0.59,-0.353 0.876,-0.543c0.56,-0.371 1.102,-0.768 1.634,-1.178c1.056,-0.813 2.073,-1.676 3.069,-2.561c1.454,-1.291 2.863,-2.633 4.244,-4.001c1.69,-1.676 3.337,-3.395 4.944,-5.15l0.061,-0.068c-0.059,0.018 -0.119,0.035 -0.178,0.053Z" style="fill:#280f25;fill-rule:nonzero;"/><path d="M31.048,80.321c0,0 -13.831,15.321 -16.301,19.534c-2.469,4.212 21.087,-3.967 25.318,-5.615" style="fill:#280f25;"/><path d="M31.234,77.622c0.144,0.014 0.181,0.015 0.324,0.042c0.267,0.051 0.527,0.143 0.767,0.272c0.24,0.129 0.461,0.294 0.652,0.488c0.229,0.233 0.415,0.508 0.547,0.807c0.132,0.299 0.208,0.622 0.225,0.949c0.014,0.272 -0.013,0.546 -0.08,0.81c-0.081,0.317 -0.22,0.618 -0.408,0.886c-0.083,0.119 -0.11,0.145 -0.203,0.255c-0.305,0.338 -0.608,0.676 -0.911,1.015c-2.35,2.629 -4.682,5.275 -6.982,7.948c-0.937,1.091 -1.869,2.186 -2.792,3.288c-0.948,1.133 -1.886,2.274 -2.804,3.431c0.17,-0.037 0.34,-0.076 0.51,-0.114c1.559,-0.359 3.105,-0.776 4.643,-1.217c1.723,-0.495 3.437,-1.023 5.145,-1.571c1.737,-0.558 3.468,-1.136 5.191,-1.735c0.691,-0.24 1.38,-0.483 2.068,-0.73c0.588,-0.212 1.175,-0.427 1.759,-0.65l0.103,-0.039l0.098,-0.039l0.154,-0.054c0.14,-0.04 0.174,-0.053 0.317,-0.081c0.321,-0.061 0.653,-0.064 0.975,-0.007c0.322,0.056 0.633,0.171 0.915,0.338c0.234,0.14 0.447,0.314 0.629,0.517c0.182,0.202 0.333,0.432 0.447,0.68c0.137,0.297 0.219,0.619 0.241,0.945c0.022,0.326 -0.015,0.656 -0.11,0.969c-0.079,0.261 -0.198,0.509 -0.351,0.735c-0.214,0.315 -0.496,0.584 -0.821,0.784c-0.093,0.057 -0.189,0.109 -0.288,0.154c-0.049,0.023 -0.1,0.043 -0.15,0.064c-0.158,0.061 -0.316,0.122 -0.475,0.182c-0.868,0.327 -1.741,0.641 -2.616,0.951c-1.034,0.365 -2.072,0.723 -3.111,1.074c-1.685,0.568 -3.376,1.119 -5.074,1.647c-1.278,0.398 -2.56,0.783 -3.847,1.15c-1.136,0.323 -2.276,0.631 -3.422,0.917c-1.03,0.256 -2.065,0.492 -3.108,0.687c-0.782,0.146 -1.57,0.271 -2.363,0.337c-0.308,0.026 -0.617,0.043 -0.927,0.045c-0.326,0.002 -0.654,-0.012 -0.978,-0.053c-0.373,-0.047 -0.742,-0.13 -1.094,-0.264c-0.472,-0.18 -0.908,-0.453 -1.262,-0.815c-0.123,-0.126 -0.236,-0.262 -0.336,-0.406c-0.129,-0.184 -0.238,-0.381 -0.324,-0.588c-0.101,-0.241 -0.171,-0.494 -0.21,-0.752c-0.05,-0.329 -0.047,-0.664 0.003,-0.993c0.06,-0.385 0.185,-0.757 0.358,-1.106c0.116,-0.235 0.255,-0.46 0.396,-0.681c0.178,-0.282 0.365,-0.559 0.556,-0.832c0.372,-0.533 0.761,-1.055 1.155,-1.572c0.461,-0.604 0.931,-1.201 1.407,-1.794c0.693,-0.865 1.398,-1.722 2.108,-2.574c0.815,-0.979 1.639,-1.951 2.467,-2.92c1.48,-1.731 2.976,-3.449 4.48,-5.159c1.344,-1.526 2.695,-3.047 4.054,-4.559l0.157,-0.174c0.038,-0.039 0.074,-0.08 0.113,-0.118c0.078,-0.076 0.16,-0.148 0.246,-0.215c0.303,-0.232 0.654,-0.4 1.025,-0.488c0.159,-0.038 0.322,-0.061 0.485,-0.07c0.054,-0.003 0.109,-0.002 0.163,-0.003c0.055,0.002 0.109,0.004 0.164,0.006Z" style="fill:#280f25;fill-rule:nonzero;"/><path d="M45.071,48.161c0,0 -24.446,-17.728 -29.305,-19.435c-4.86,-1.707 16.384,28.315 17.17,28.857c0.785,0.541 12.135,-9.422 12.135,-9.422Z" style="fill:#280f25;"/><path d="M15.651,25.958c0.096,0.008 0.107,0.008 0.201,0.02c0.147,0.018 0.293,0.046 0.436,0.082c0.188,0.048 0.372,0.11 0.553,0.178c0.21,0.08 0.416,0.168 0.621,0.26c0.599,0.27 1.18,0.578 1.754,0.897c0.924,0.512 1.831,1.056 2.73,1.61c1.129,0.696 2.246,1.411 3.357,2.136c1.667,1.086 3.321,2.194 4.967,3.312c1.595,1.083 3.183,2.176 4.766,3.277c1.934,1.344 3.86,2.698 5.782,4.06c1.859,1.319 3.714,2.645 5.562,3.979l0.277,0.2c0.126,0.098 0.16,0.12 0.277,0.23c0.174,0.165 0.325,0.354 0.45,0.559c0.187,0.308 0.311,0.653 0.363,1.009c0.044,0.297 0.038,0.601 -0.018,0.896c-0.044,0.235 -0.12,0.465 -0.225,0.681c-0.105,0.216 -0.239,0.417 -0.397,0.598c-0.105,0.121 -0.137,0.145 -0.254,0.254c-0.252,0.221 -0.504,0.44 -0.757,0.66c-0.965,0.837 -1.935,1.669 -2.911,2.494c-0.718,0.608 -1.44,1.212 -2.165,1.811c-0.6,0.495 -1.203,0.987 -1.81,1.473c-0.443,0.354 -0.888,0.705 -1.337,1.051c-0.329,0.254 -0.661,0.505 -0.996,0.751c-0.265,0.195 -0.532,0.387 -0.802,0.574c-0.176,0.121 -0.354,0.241 -0.534,0.357c-0.136,0.087 -0.273,0.172 -0.412,0.254c-0.507,0.299 -1.048,0.56 -1.635,0.651c-0.089,0.014 -0.185,0.025 -0.275,0.031c-0.144,0.01 -0.289,0.009 -0.434,-0.003c-0.194,-0.015 -0.387,-0.05 -0.575,-0.105c-0.233,-0.068 -0.458,-0.166 -0.667,-0.292c-0.157,-0.094 -0.304,-0.206 -0.441,-0.329c-0.137,-0.123 -0.261,-0.259 -0.381,-0.399c-0.126,-0.148 -0.248,-0.301 -0.368,-0.455c-0.345,-0.44 -0.679,-0.889 -1.011,-1.34c-0.53,-0.719 -1.053,-1.444 -1.573,-2.172c-0.652,-0.914 -1.3,-1.832 -1.942,-2.753c-1.201,-1.721 -2.387,-3.452 -3.558,-5.194c-1.006,-1.496 -2,-3 -2.978,-4.515c-0.935,-1.449 -1.855,-2.906 -2.749,-4.381c-0.722,-1.192 -1.429,-2.395 -2.095,-3.62c-0.239,-0.441 -0.473,-0.884 -0.698,-1.333c-0.163,-0.325 -0.322,-0.653 -0.473,-0.984c-0.104,-0.229 -0.205,-0.461 -0.301,-0.694c-0.076,-0.185 -0.148,-0.371 -0.215,-0.559c-0.04,-0.109 -0.077,-0.22 -0.113,-0.331c-0.207,-0.642 -0.35,-1.318 -0.298,-1.996c0.01,-0.125 0.026,-0.25 0.049,-0.374c0.026,-0.143 0.062,-0.284 0.107,-0.422c0.068,-0.206 0.156,-0.406 0.265,-0.593c0.126,-0.218 0.279,-0.42 0.455,-0.6c0.261,-0.267 0.571,-0.483 0.911,-0.637c0.3,-0.135 0.621,-0.22 0.948,-0.255c0.081,-0.008 0.161,-0.013 0.242,-0.016c0.092,-0.003 0.13,-0.001 0.22,0.001c0.035,0.002 0.07,0.004 0.105,0.006ZM20.622,34.65c0.968,1.627 1.973,3.231 2.997,4.823c1.102,1.715 2.228,3.416 3.367,5.107c1.146,1.701 2.306,3.391 3.482,5.071c1.019,1.457 2.048,2.907 3.098,4.341l0.078,0.106c0.436,-0.32 0.865,-0.649 1.292,-0.982c0.523,-0.409 1.042,-0.824 1.558,-1.242c1.325,-1.075 2.632,-2.172 3.931,-3.277l0.233,-0.199l0.05,-0.043c-0.518,-0.371 -1.037,-0.741 -1.555,-1.111c-3.325,-2.365 -6.662,-4.712 -10.026,-7.021c-1.253,-0.86 -2.51,-1.714 -3.772,-2.561c-1.553,-1.041 -3.114,-2.069 -4.69,-3.074l-0.127,-0.081c0.028,0.048 0.056,0.095 0.084,0.143Z" style="fill:#280f25;fill-rule:nonzero;"/><path d="M88.102,100.321c0,0 19.399,20.46 24.007,22.762c4.608,2.302 -12.231,-29.215 -11.718,-29.987c0.541,-0.815 -12.289,7.225 -12.289,7.225Z" style="fill:#280f25;"/><path d="M100.612,90.343l0.007,0l0.145,0.017c0.053,0.008 0.168,0.026 0.23,0.04c0.05,0.012 0.186,0.051 0.22,0.062c0.045,0.014 0.089,0.031 0.134,0.046l0.003,0.001c0.15,0.062 0.15,0.062 0.297,0.133l0.002,0.001c0.122,0.068 0.122,0.068 0.24,0.141l0.002,0.002c0.037,0.025 0.074,0.05 0.111,0.077c0.096,0.071 0.118,0.092 0.209,0.17l0.001,0.001c0.084,0.08 0.107,0.098 0.185,0.183c0.029,0.032 0.057,0.066 0.086,0.098l0.001,0.002c0.028,0.036 0.057,0.07 0.084,0.106c0.072,0.097 0.087,0.124 0.152,0.225l0.001,0.002c0.062,0.11 0.08,0.137 0.134,0.251c0.02,0.043 0.038,0.088 0.057,0.131l0.001,0.002c0.04,0.105 0.051,0.131 0.084,0.238c0.012,0.04 0.022,0.081 0.033,0.122l0.001,0.002c0.024,0.108 0.032,0.134 0.049,0.243c0.006,0.041 0.011,0.083 0.016,0.124l0,0.002l0.008,0.1c0.033,0.086 0.067,0.172 0.102,0.257c0.257,0.629 0.539,1.248 0.822,1.865c0.351,0.764 0.709,1.525 1.069,2.285c0.917,1.933 1.843,3.86 2.764,5.79c0.283,0.593 0.565,1.186 0.846,1.779c0.741,1.566 1.477,3.134 2.199,4.71c0.535,1.167 1.063,2.338 1.576,3.515c0.468,1.072 0.925,2.148 1.359,3.234c0.37,0.927 0.726,1.861 1.04,2.81c0.122,0.366 0.237,0.735 0.34,1.108c0.085,0.304 0.162,0.61 0.226,0.92c0.123,0.592 0.202,1.203 0.149,1.809c-0.028,0.315 -0.092,0.627 -0.2,0.925c-0.159,0.438 -0.411,0.841 -0.743,1.169c-0.147,0.144 -0.308,0.273 -0.48,0.385c-0.219,0.141 -0.455,0.253 -0.703,0.334c-0.268,0.087 -0.547,0.136 -0.829,0.147c-0.265,0.01 -0.532,-0.013 -0.792,-0.067c-0.33,-0.068 -0.649,-0.186 -0.949,-0.336c-0.326,-0.163 -0.638,-0.35 -0.943,-0.549c-0.296,-0.193 -0.585,-0.397 -0.869,-0.607c-0.7,-0.516 -1.374,-1.066 -2.038,-1.628c-0.833,-0.704 -1.649,-1.429 -2.457,-2.162c-0.997,-0.907 -1.981,-1.828 -2.957,-2.758c-1.218,-1.159 -2.423,-2.331 -3.62,-3.511c-1.358,-1.337 -2.706,-2.685 -4.047,-4.04c-1.329,-1.343 -2.65,-2.692 -3.966,-4.048c-1.22,-1.256 -2.434,-2.517 -3.642,-3.785l-0.221,-0.231c-0.105,-0.118 -0.134,-0.145 -0.227,-0.273c-0.139,-0.191 -0.253,-0.401 -0.338,-0.622c-0.106,-0.276 -0.166,-0.57 -0.177,-0.866c-0.014,-0.355 0.043,-0.712 0.167,-1.045c0.082,-0.222 0.194,-0.432 0.331,-0.625c0.137,-0.193 0.3,-0.368 0.482,-0.519c0.122,-0.1 0.157,-0.119 0.288,-0.207c0.524,-0.328 1.05,-0.655 1.575,-0.982c1.498,-0.931 2.999,-1.857 4.506,-2.775c1.133,-0.69 2.269,-1.376 3.413,-2.047c0.636,-0.373 1.274,-0.744 1.921,-1.095c0.256,-0.139 0.514,-0.276 0.778,-0.401c0.29,-0.138 0.59,-0.26 0.904,-0.329c0.155,-0.033 0.311,-0.055 0.47,-0.065c0.052,-0.003 0.198,0 0.246,0.001c0.044,0.002 0.088,0.005 0.132,0.008ZM98.9,96.89c-2.156,1.268 -4.288,2.578 -6.416,3.892l-0.122,0.075c2.698,2.8 5.42,5.576 8.177,8.317c1.1,1.093 2.205,2.18 3.318,3.258c1.367,1.322 2.746,2.63 4.149,3.914l0.001,0.001c-0.959,-2.247 -1.975,-4.468 -3.008,-6.682c-1.389,-2.974 -2.814,-5.931 -4.228,-8.894c-0.232,-0.488 -0.465,-0.976 -0.696,-1.465c-0.36,-0.762 -0.718,-1.525 -1.068,-2.292l-0.068,-0.147c-0.013,0.008 -0.026,0.015 -0.039,0.023ZM102.767,94.391l0.043,-0.075l0.011,-0.025c-0.018,0.033 -0.036,0.067 -0.054,0.1ZM97.868,92.12l-0.001,0.002c0.001,-0.002 0.001,-0.004 0.001,-0.002ZM98.058,91.724c-0.029,0.055 -0.059,0.11 -0.088,0.165c-0.003,0.005 -0.012,0.021 -0.008,0.016c0.004,-0.005 0.006,-0.012 0.009,-0.018l0.073,-0.136c0.012,-0.021 0.027,-0.047 0.014,-0.027Z" style="fill:#280f25;fill-rule:nonzero;"/><path d="M63.636,43.113c2.555,-10.713 6.357,-21.092 11.629,-31.076c0,0 4.591,23.941 3.929,32.158" style="fill:#280f25;"/><path d="M75.48,9.341c0.062,0.007 0.123,0.012 0.184,0.021c0.184,0.027 0.364,0.073 0.538,0.138c0.29,0.107 0.562,0.264 0.799,0.462c0.285,0.239 0.519,0.535 0.685,0.867c0.083,0.166 0.148,0.341 0.195,0.52c0.016,0.06 0.028,0.121 0.041,0.181c0.068,0.353 0.133,0.706 0.199,1.059c0.361,1.955 0.707,3.912 1.039,5.873c0.329,1.943 0.644,3.888 0.942,5.836c0.276,1.803 0.537,3.609 0.777,5.417c0.224,1.686 0.429,3.375 0.606,5.067c0.126,1.214 0.237,2.43 0.323,3.648c0.077,1.092 0.134,2.186 0.151,3.281c0.011,0.669 0.007,1.34 -0.025,2.009c-0.007,0.155 -0.016,0.31 -0.027,0.465c-0.009,0.134 -0.017,0.269 -0.037,0.402c-0.018,0.122 -0.044,0.243 -0.078,0.361c-0.069,0.237 -0.17,0.464 -0.3,0.673c-0.129,0.21 -0.288,0.401 -0.47,0.568c-0.272,0.25 -0.596,0.442 -0.945,0.563c-0.291,0.101 -0.599,0.151 -0.907,0.148c-0.308,-0.003 -0.616,-0.058 -0.905,-0.164c-0.289,-0.106 -0.56,-0.261 -0.797,-0.458c-0.237,-0.196 -0.44,-0.433 -0.598,-0.698c-0.189,-0.318 -0.312,-0.674 -0.359,-1.04c-0.016,-0.123 -0.023,-0.246 -0.022,-0.369c0.001,-0.116 0.007,-0.171 0.015,-0.274c0.005,-0.074 0.006,-0.092 0.011,-0.167c0.005,-0.089 0.01,-0.177 0.015,-0.266c0.03,-0.674 0.029,-1.348 0.012,-2.022c-0.018,-0.738 -0.055,-1.475 -0.103,-2.211c-0.111,-1.727 -0.28,-3.45 -0.475,-5.17c-0.238,-2.108 -0.517,-4.21 -0.819,-6.31c-0.338,-2.352 -0.706,-4.699 -1.095,-7.043c-0.103,0.232 -0.206,0.464 -0.308,0.696c-0.513,1.168 -1.01,2.342 -1.488,3.525c-0.983,2.431 -1.89,4.893 -2.723,7.38c-0.83,2.479 -1.585,4.984 -2.267,7.508c-0.352,1.304 -0.683,2.613 -0.997,3.926l-0.049,0.178c-0.055,0.155 -0.065,0.196 -0.135,0.344c-0.131,0.279 -0.31,0.535 -0.527,0.753c-0.26,0.263 -0.574,0.471 -0.918,0.608c-0.286,0.114 -0.591,0.179 -0.899,0.191c-0.246,0.009 -0.493,-0.015 -0.733,-0.073c-0.541,-0.129 -1.035,-0.427 -1.402,-0.845c-0.203,-0.231 -0.367,-0.497 -0.481,-0.783c-0.16,-0.401 -0.222,-0.839 -0.179,-1.268c0.016,-0.164 0.028,-0.204 0.061,-0.365c0.061,-0.255 0.123,-0.51 0.185,-0.764c0.292,-1.193 0.598,-2.382 0.92,-3.567c0.622,-2.286 1.302,-4.558 2.042,-6.809c1.654,-5.041 3.606,-9.985 5.85,-14.793c0.719,-1.541 1.469,-3.068 2.247,-4.579c0.165,-0.32 0.331,-0.639 0.498,-0.958c0.06,-0.114 0.145,-0.282 0.217,-0.397c0.032,-0.053 0.067,-0.104 0.103,-0.155c0.18,-0.251 0.403,-0.471 0.657,-0.647c0.254,-0.176 0.539,-0.308 0.837,-0.389c0.179,-0.048 0.363,-0.078 0.549,-0.088c0.061,-0.004 0.123,-0.003 0.185,-0.005c0.062,0.003 0.123,0.006 0.185,0.009Z" style="fill:#280f25;fill-rule:nonzero;"/><path d="M54.916,101.124c0,0 4.673,30.78 6.709,32.328c2.037,1.548 7.967,-23.729 9.47,-29.485" style="fill:#280f25;"/><path d="M55.244,98.439c0.06,0.01 0.122,0.017 0.182,0.029c0.182,0.035 0.359,0.088 0.53,0.159c0.341,0.142 0.652,0.355 0.909,0.621c0.213,0.222 0.389,0.48 0.516,0.761c0.076,0.168 0.135,0.344 0.175,0.525c0.014,0.06 0.023,0.121 0.034,0.181c0.068,0.439 0.136,0.879 0.204,1.318c0.704,4.494 1.444,8.982 2.244,13.46c0.326,1.825 0.662,3.647 1.015,5.466c0.362,1.862 0.742,3.72 1.16,5.57c0.052,-0.158 0.103,-0.317 0.154,-0.475c0.53,-1.665 1.024,-3.34 1.5,-5.021c0.302,-1.07 0.597,-2.142 0.887,-3.215c0.704,-2.609 1.377,-5.226 2.039,-7.846c0.452,-1.789 0.897,-3.581 1.348,-5.371c0.06,-0.236 0.12,-0.472 0.18,-0.709c0.027,-0.105 0.054,-0.211 0.081,-0.317c0.032,-0.124 0.083,-0.331 0.127,-0.464c0.02,-0.059 0.041,-0.116 0.065,-0.173c0.117,-0.285 0.283,-0.549 0.489,-0.779c0.247,-0.275 0.551,-0.498 0.887,-0.652c0.28,-0.128 0.582,-0.207 0.889,-0.234c0.245,-0.022 0.493,-0.01 0.736,0.036c0.302,0.057 0.595,0.165 0.861,0.32c0.32,0.186 0.6,0.438 0.819,0.736c0.146,0.199 0.264,0.417 0.351,0.648c0.153,0.403 0.206,0.842 0.156,1.271c-0.019,0.163 -0.032,0.203 -0.068,0.363c-0.051,0.195 -0.101,0.391 -0.152,0.586c-0.091,0.36 -0.182,0.719 -0.273,1.079c-0.369,1.47 -0.736,2.941 -1.106,4.411c-0.965,3.83 -1.949,7.656 -3.019,11.458c-0.326,1.159 -0.66,2.315 -1.007,3.468c-0.318,1.056 -0.648,2.11 -0.998,3.157c-0.198,0.595 -0.404,1.189 -0.62,1.778c-0.154,0.419 -0.313,0.835 -0.48,1.248c-0.125,0.308 -0.255,0.615 -0.392,0.918c-0.099,0.219 -0.202,0.436 -0.311,0.651c-0.074,0.147 -0.151,0.293 -0.231,0.437c-0.352,0.63 -0.774,1.24 -1.347,1.689c-0.08,0.063 -0.163,0.122 -0.249,0.178c-0.125,0.081 -0.255,0.155 -0.39,0.219c-0.193,0.091 -0.394,0.164 -0.6,0.214c-0.243,0.06 -0.493,0.09 -0.742,0.088c-0.316,-0.002 -0.63,-0.054 -0.929,-0.154c-0.437,-0.146 -0.835,-0.393 -1.167,-0.712c-0.427,-0.411 -0.731,-0.928 -0.976,-1.464c-0.11,-0.241 -0.209,-0.488 -0.301,-0.737c-0.112,-0.302 -0.215,-0.608 -0.312,-0.915c-0.2,-0.633 -0.377,-1.272 -0.544,-1.914c-0.197,-0.753 -0.379,-1.51 -0.554,-2.269c-0.222,-0.965 -0.432,-1.932 -0.635,-2.902c-0.475,-2.278 -0.912,-4.565 -1.331,-6.854c-0.504,-2.75 -0.98,-5.505 -1.44,-8.262c-0.431,-2.578 -0.846,-5.159 -1.248,-7.742l-0.064,-0.42c-0.019,-0.124 -0.063,-0.38 -0.075,-0.531c-0.026,-0.307 0.001,-0.618 0.08,-0.915c0.078,-0.298 0.208,-0.582 0.382,-0.837c0.208,-0.305 0.48,-0.566 0.793,-0.763c0.208,-0.131 0.434,-0.234 0.671,-0.304c0.177,-0.052 0.359,-0.087 0.543,-0.102c0.164,-0.014 0.206,-0.009 0.37,-0.006c0.061,0.005 0.122,0.011 0.184,0.016Z" style="fill:#280f25;fill-rule:nonzero;"/><path d="M29.11,72.987c0,0 -1.725,-10.749 8.857,-20.953c7.356,-7.093 44.14,-20.694 66.5,12.797c24.555,36.777 -65.181,61.831 -75.357,8.156Z" style="fill:#280f25;"/><path d="M70.465,41.903c0.431,0.041 0.861,0.086 1.292,0.137c0.898,0.108 1.793,0.241 2.685,0.401c2.256,0.405 4.485,0.979 6.657,1.724c2.142,0.734 4.227,1.635 6.23,2.69c1.955,1.031 3.832,2.208 5.614,3.513c2.14,1.567 4.141,3.316 5.994,5.203c1.823,1.856 3.502,3.844 5.045,5.927c0.469,0.633 0.925,1.275 1.37,1.925c0.212,0.31 0.422,0.621 0.627,0.936c0.217,0.334 0.429,0.672 0.633,1.013c0.608,1.012 1.158,2.057 1.637,3.131c0.463,1.041 0.859,2.11 1.172,3.201c0.297,1.032 0.52,2.084 0.66,3.144c0.169,1.294 0.214,2.601 0.126,3.898c-0.091,1.328 -0.32,2.643 -0.68,3.921c-0.211,0.749 -0.466,1.485 -0.762,2.204c-0.219,0.533 -0.46,1.057 -0.722,1.57c-0.201,0.395 -0.414,0.784 -0.638,1.166c-1.405,2.396 -3.239,4.529 -5.31,6.392c-0.3,0.269 -0.604,0.533 -0.913,0.791c-0.426,0.356 -0.86,0.702 -1.303,1.038c-0.569,0.431 -1.152,0.847 -1.746,1.246c-1.705,1.147 -3.502,2.163 -5.361,3.059c-2.224,1.073 -4.537,1.975 -6.904,2.717c-1.954,0.613 -3.946,1.116 -5.961,1.513c-1.627,0.319 -3.269,0.569 -4.92,0.747c-3.582,0.387 -7.211,0.441 -10.817,0.124c-0.6,-0.052 -1.2,-0.115 -1.799,-0.189c-3.871,-0.475 -7.705,-1.393 -11.348,-2.821c-0.558,-0.219 -1.112,-0.449 -1.66,-0.692c-0.705,-0.312 -1.402,-0.644 -2.088,-0.996c-0.84,-0.431 -1.665,-0.893 -2.471,-1.384c-1.068,-0.651 -2.103,-1.355 -3.099,-2.11c-1.359,-1.029 -2.643,-2.155 -3.838,-3.365c-1.1,-1.115 -2.124,-2.302 -3.063,-3.549c-0.919,-1.219 -1.756,-2.494 -2.511,-3.814c-1.418,-2.481 -2.54,-5.115 -3.39,-7.822c-0.38,-1.207 -0.706,-2.429 -0.982,-3.661c-0.084,-0.371 -0.162,-0.743 -0.237,-1.115c-0.021,-0.108 -0.042,-0.215 -0.063,-0.323c-0.026,-0.134 -0.028,-0.134 -0.042,-0.226c-0.019,-0.129 -0.034,-0.258 -0.047,-0.387c-0.016,-0.159 -0.028,-0.318 -0.038,-0.477c-0.026,-0.397 -0.036,-0.796 -0.035,-1.193c0.002,-0.443 0.018,-0.885 0.046,-1.325c0.077,-1.182 0.245,-2.357 0.49,-3.512c0.541,-2.54 1.463,-4.99 2.69,-7.275c0.886,-1.65 1.931,-3.215 3.102,-4.681c0.694,-0.868 1.432,-1.702 2.208,-2.502c0.204,-0.21 0.41,-0.418 0.619,-0.623c0.152,-0.149 0.303,-0.297 0.459,-0.441c0.234,-0.215 0.476,-0.422 0.724,-0.622c0.535,-0.43 1.095,-0.83 1.671,-1.207c0.684,-0.449 1.389,-0.866 2.108,-1.26c0.806,-0.44 1.629,-0.851 2.465,-1.235c1.027,-0.473 2.073,-0.906 3.133,-1.305c1.316,-0.494 2.654,-0.935 4.008,-1.323c1.409,-0.404 2.836,-0.752 4.277,-1.042c3.411,-0.687 6.899,-1.055 10.398,-1.06c0.948,-0.002 1.897,0.023 2.845,0.076c0.427,0.024 0.854,0.054 1.28,0.088c0.161,0.014 0.322,0.028 0.483,0.042ZM69.942,44.894c-0.399,-0.034 -0.798,-0.063 -1.198,-0.087c-0.84,-0.049 -1.68,-0.075 -2.52,-0.079c-3.301,-0.015 -6.593,0.314 -9.815,0.946c-1.449,0.284 -2.883,0.63 -4.298,1.035c-1.238,0.355 -2.462,0.756 -3.666,1.206c-1.029,0.383 -2.044,0.802 -3.039,1.26c-0.744,0.343 -1.478,0.707 -2.196,1.097c-0.653,0.355 -1.295,0.732 -1.917,1.137c-0.516,0.336 -1.02,0.692 -1.499,1.078c-0.197,0.159 -0.391,0.323 -0.577,0.495c-0.112,0.103 -0.221,0.209 -0.33,0.316c-0.155,0.151 -0.308,0.304 -0.46,0.459c-0.511,0.518 -1.004,1.053 -1.478,1.605c-0.963,1.12 -1.846,2.308 -2.628,3.558c-0.904,1.446 -1.673,2.975 -2.276,4.57c-0.436,1.153 -0.786,2.341 -1.039,3.55c-0.184,0.882 -0.317,1.777 -0.39,2.677c-0.031,0.384 -0.052,0.769 -0.06,1.154c-0.005,0.231 -0.005,0.462 0,0.693c0.005,0.247 0.059,1.052 0.08,1.208c0.018,0.091 0.035,0.182 0.053,0.274c0.099,0.498 0.204,0.995 0.319,1.491c0.243,1.05 0.525,2.092 0.849,3.122c0.811,2.58 1.886,5.088 3.256,7.442c0.635,1.091 1.332,2.149 2.09,3.163c0.756,1.011 1.573,1.98 2.445,2.898c1.151,1.211 2.399,2.333 3.727,3.355c0.968,0.744 1.977,1.436 3.021,2.072c0.706,0.43 1.427,0.835 2.161,1.214c0.56,0.29 1.128,0.565 1.703,0.826c0.503,0.229 1.012,0.446 1.525,0.653c3.606,1.451 7.418,2.356 11.265,2.799c0.805,0.093 1.611,0.166 2.418,0.218c0.973,0.064 1.946,0.1 2.919,0.108c1.219,0.01 2.437,-0.022 3.651,-0.095c1.657,-0.101 3.307,-0.277 4.943,-0.528c2.092,-0.32 4.161,-0.761 6.194,-1.323c1.759,-0.487 3.491,-1.065 5.183,-1.737c1.291,-0.513 2.559,-1.082 3.796,-1.71c1.003,-0.509 1.986,-1.057 2.942,-1.647c0.719,-0.443 1.422,-0.909 2.107,-1.4c0.557,-0.398 1.101,-0.813 1.63,-1.244c0.389,-0.317 0.77,-0.642 1.143,-0.977c0.292,-0.264 0.58,-0.533 0.861,-0.808c1.621,-1.584 3.051,-3.369 4.142,-5.349c0.142,-0.259 0.279,-0.521 0.409,-0.786c0.181,-0.367 0.349,-0.74 0.505,-1.118c0.209,-0.508 0.394,-1.026 0.554,-1.552c0.226,-0.743 0.4,-1.503 0.52,-2.272c0.174,-1.128 0.229,-2.277 0.165,-3.421c-0.046,-0.828 -0.155,-1.654 -0.319,-2.47c-0.181,-0.898 -0.429,-1.784 -0.735,-2.652c-0.52,-1.475 -1.204,-2.895 -2.002,-4.25c-0.203,-0.343 -0.412,-0.682 -0.628,-1.018c-0.151,-0.233 -0.305,-0.465 -0.461,-0.695c-0.191,-0.283 -0.385,-0.564 -0.581,-0.844c-1.058,-1.511 -2.188,-2.976 -3.393,-4.379c-1.453,-1.691 -3.017,-3.293 -4.692,-4.775c-1.76,-1.557 -3.643,-2.981 -5.636,-4.237c-1.522,-0.959 -3.106,-1.82 -4.741,-2.573c-1.681,-0.773 -3.415,-1.431 -5.184,-1.969c-1.777,-0.54 -3.588,-0.96 -5.418,-1.261c-0.679,-0.111 -1.361,-0.207 -2.045,-0.286c-0.351,-0.041 -0.703,-0.077 -1.055,-0.11c-0.1,-0.01 -0.2,-0.018 -0.3,-0.027Z" style="fill:#280f25;fill-rule:nonzero;"/><path d="M52.115,52.876c6.568,0.588 11.493,6.813 10.992,13.893c-0.502,7.08 -6.241,12.35 -12.809,11.763c-6.567,-0.588 -11.493,-6.813 -10.991,-13.893c0.501,-7.08 6.24,-12.351 12.808,-11.763Z" style="fill:#280f25;"/><path d="M51.69,50.138c0.19,0.008 0.381,0.02 0.571,0.035c0.411,0.034 0.82,0.086 1.226,0.156c1.132,0.196 2.238,0.532 3.288,0.997c1.361,0.604 2.624,1.422 3.74,2.408c0.975,0.862 1.838,1.851 2.567,2.93c1.141,1.69 1.95,3.598 2.385,5.589c0.586,2.68 0.493,5.505 -0.273,8.139c-0.425,1.463 -1.058,2.864 -1.882,4.145c-0.785,1.221 -1.742,2.331 -2.841,3.281c-1.227,1.06 -2.63,1.917 -4.14,2.509c-0.878,0.345 -1.792,0.6 -2.722,0.759c-0.889,0.152 -1.794,0.216 -2.697,0.19c-0.948,-0.026 -1.893,-0.149 -2.815,-0.367c-0.784,-0.185 -1.551,-0.438 -2.29,-0.754c-1.37,-0.586 -2.644,-1.389 -3.772,-2.362c-0.986,-0.85 -1.86,-1.829 -2.601,-2.899c-1.141,-1.649 -1.963,-3.513 -2.425,-5.463c-0.647,-2.73 -0.584,-5.625 0.184,-8.324c0.4,-1.407 0.992,-2.76 1.762,-4.004c0.78,-1.262 1.741,-2.411 2.851,-3.394c1.214,-1.075 2.606,-1.95 4.109,-2.562c1.129,-0.46 2.319,-0.771 3.529,-0.919c0.432,-0.053 0.867,-0.085 1.302,-0.097c0.22,-0.006 0.44,-0.006 0.66,-0.002c0.094,0.002 0.189,0.005 0.284,0.009ZM51.35,55.54c-0.398,-0.01 -0.797,0.006 -1.193,0.051c-0.718,0.083 -1.425,0.261 -2.098,0.525c-0.888,0.349 -1.716,0.846 -2.449,1.457c-0.655,0.546 -1.235,1.18 -1.725,1.878c-0.597,0.848 -1.06,1.787 -1.378,2.773c-0.266,0.823 -0.431,1.677 -0.497,2.539c-0.078,1.019 -0.018,2.048 0.183,3.05c0.309,1.547 0.956,3.027 1.899,4.292c0.456,0.613 0.981,1.174 1.565,1.666c0.686,0.577 1.453,1.057 2.277,1.409c0.971,0.415 2.016,0.65 3.071,0.686c0.567,0.02 1.135,-0.018 1.694,-0.113c0.547,-0.094 1.085,-0.242 1.603,-0.442c0.891,-0.342 1.721,-0.835 2.457,-1.44c0.658,-0.541 1.241,-1.172 1.735,-1.866c0.625,-0.877 1.107,-1.855 1.432,-2.882c0.261,-0.825 0.421,-1.682 0.482,-2.545c0.069,-0.976 0.012,-1.961 -0.175,-2.921c-0.302,-1.55 -0.94,-3.034 -1.876,-4.307c-0.453,-0.616 -0.975,-1.181 -1.557,-1.676c-0.682,-0.581 -1.447,-1.066 -2.269,-1.424c-0.628,-0.274 -1.289,-0.473 -1.964,-0.589c-0.364,-0.063 -0.732,-0.101 -1.101,-0.117c-0.039,-0.002 -0.077,-0.003 -0.116,-0.004Z" style="fill:#f9d6ce;fill-rule:nonzero;"/><path d="M51.666,60.444c2.48,0.222 4.34,2.573 4.15,5.246c-0.189,2.673 -2.356,4.663 -4.835,4.441c-2.48,-0.222 -4.34,-2.572 -4.15,-5.245c0.189,-2.673 2.356,-4.663 4.835,-4.442Z" style="fill:#280f25;"/><path d="M51.623,57.73c0.095,0.006 0.19,0.011 0.285,0.02c0.188,0.017 0.376,0.041 0.563,0.074c0.608,0.105 1.202,0.291 1.762,0.553c0.677,0.316 1.303,0.74 1.851,1.249c0.476,0.44 0.892,0.944 1.239,1.491c0.495,0.78 0.847,1.649 1.039,2.553c0.258,1.212 0.226,2.483 -0.091,3.68c-0.194,0.729 -0.493,1.429 -0.89,2.071c-0.388,0.628 -0.869,1.198 -1.425,1.685c-0.627,0.548 -1.348,0.988 -2.125,1.287c-0.862,0.332 -1.789,0.488 -2.712,0.456c-0.873,-0.03 -1.738,-0.227 -2.538,-0.575c-0.687,-0.3 -1.325,-0.709 -1.886,-1.205c-0.487,-0.43 -0.915,-0.924 -1.275,-1.463c-0.495,-0.742 -0.859,-1.57 -1.074,-2.436c-0.314,-1.26 -0.311,-2.597 0.007,-3.857c0.178,-0.702 0.454,-1.38 0.821,-2.005c0.373,-0.638 0.841,-1.221 1.385,-1.721c0.613,-0.562 1.322,-1.019 2.09,-1.338c0.59,-0.245 1.215,-0.408 1.85,-0.481c0.217,-0.025 0.434,-0.04 0.652,-0.044c0.095,-0.002 0.189,-0.002 0.283,0c0.095,0.002 0.095,0.002 0.189,0.006ZM51.32,63.133c-0.112,-0.002 -0.224,0.008 -0.334,0.032c-0.077,0.016 -0.153,0.039 -0.226,0.067c-0.064,0.024 -0.126,0.053 -0.186,0.085c-0.424,0.23 -0.736,0.635 -0.902,1.084c-0.268,0.727 -0.175,1.583 0.264,2.225c0.052,0.076 0.109,0.149 0.171,0.218c0.084,0.095 0.177,0.182 0.277,0.259c0.133,0.1 0.278,0.183 0.434,0.241c0.15,0.056 0.307,0.089 0.467,0.097c0.107,0.005 0.214,-0.001 0.319,-0.019c0.084,-0.015 0.166,-0.036 0.246,-0.065c0.064,-0.022 0.126,-0.049 0.186,-0.08c0.459,-0.234 0.792,-0.672 0.957,-1.154c0.242,-0.708 0.149,-1.528 -0.267,-2.152c-0.057,-0.085 -0.118,-0.165 -0.186,-0.24c-0.079,-0.089 -0.166,-0.171 -0.26,-0.245c-0.131,-0.102 -0.276,-0.187 -0.432,-0.248c-0.142,-0.055 -0.292,-0.088 -0.444,-0.101c-0.028,-0.002 -0.056,-0.003 -0.084,-0.004Z" style="fill:#f9d6ce;fill-rule:nonzero;"/><path d="M88.924,59.438c6.568,0.587 11.493,6.812 10.992,13.892c-0.501,7.08 -6.24,12.351 -12.808,11.764c-6.568,-0.588 -11.493,-6.813 -10.992,-13.893c0.501,-7.08 6.24,-12.351 12.808,-11.763Z" style="fill:#280f25;"/><path d="M88.499,56.7c0.223,0.01 0.445,0.023 0.666,0.043c0.41,0.037 0.819,0.092 1.224,0.164c1.1,0.198 2.175,0.528 3.196,0.981c1.361,0.603 2.624,1.422 3.739,2.408c0.976,0.862 1.838,1.851 2.567,2.93c1.123,1.664 1.926,3.539 2.365,5.497c0.608,2.706 0.522,5.567 -0.252,8.231c-0.425,1.462 -1.059,2.864 -1.883,4.146c-0.785,1.22 -1.742,2.33 -2.841,3.279c-1.227,1.061 -2.63,1.918 -4.14,2.511c-0.85,0.333 -1.732,0.583 -2.631,0.742c-0.95,0.169 -1.917,0.237 -2.881,0.203c-0.886,-0.03 -1.768,-0.146 -2.631,-0.343c-0.845,-0.193 -1.671,-0.466 -2.465,-0.812c-1.366,-0.594 -2.634,-1.405 -3.756,-2.385c-0.981,-0.856 -1.849,-1.84 -2.584,-2.915c-1.114,-1.63 -1.919,-3.467 -2.374,-5.388c-0.668,-2.822 -0.578,-5.821 0.264,-8.597c0.407,-1.338 0.988,-2.623 1.731,-3.808c0.771,-1.231 1.715,-2.354 2.803,-3.317c1.214,-1.075 2.606,-1.949 4.108,-2.561c1.158,-0.472 2.379,-0.787 3.621,-0.93c0.433,-0.05 0.869,-0.08 1.304,-0.089c0.189,-0.003 0.378,-0.003 0.567,0.001c0.094,0.002 0.189,0.005 0.283,0.009ZM88.16,62.101c-0.399,-0.009 -0.797,0.006 -1.193,0.052c-0.718,0.083 -1.425,0.261 -2.099,0.525c-0.888,0.349 -1.716,0.847 -2.449,1.457c-0.655,0.545 -1.235,1.18 -1.725,1.878c-0.596,0.847 -1.06,1.787 -1.378,2.773c-0.266,0.823 -0.43,1.677 -0.497,2.539c-0.079,1.04 -0.015,2.091 0.196,3.112c0.314,1.525 0.956,2.981 1.887,4.231c0.456,0.612 0.98,1.173 1.565,1.665c0.685,0.577 1.453,1.057 2.277,1.409c0.953,0.408 1.978,0.641 3.013,0.684c0.549,0.023 1.099,-0.008 1.641,-0.093c0.567,-0.089 1.125,-0.237 1.662,-0.44c0.892,-0.337 1.725,-0.823 2.465,-1.424c0.66,-0.537 1.247,-1.164 1.744,-1.854c0.691,-0.958 1.21,-2.038 1.539,-3.171c0.212,-0.729 0.347,-1.481 0.405,-2.237c0.074,-0.977 0.023,-1.963 -0.159,-2.926c-0.289,-1.533 -0.907,-3.005 -1.818,-4.272c-0.446,-0.622 -0.962,-1.194 -1.539,-1.698c-0.675,-0.59 -1.435,-1.085 -2.253,-1.454c-0.624,-0.281 -1.281,-0.488 -1.954,-0.614c-0.363,-0.068 -0.73,-0.11 -1.099,-0.132c-0.077,-0.004 -0.154,-0.007 -0.231,-0.01Z" style="fill:#f9d6ce;fill-rule:nonzero;"/><path d="M88.692,67.541c2.479,0.221 4.339,2.572 4.15,5.245c-0.189,2.673 -2.356,4.663 -4.836,4.441c-2.48,-0.222 -4.339,-2.572 -4.15,-5.245c0.189,-2.673 2.356,-4.663 4.836,-4.441Z" style="fill:#280f25;"/><path d="M88.648,64.827c0.095,0.005 0.19,0.011 0.284,0.019c0.189,0.017 0.378,0.042 0.565,0.074c0.608,0.105 1.202,0.292 1.761,0.553c0.678,0.316 1.303,0.74 1.852,1.249c0.497,0.461 0.929,0.99 1.286,1.566c0.486,0.787 0.828,1.66 1.01,2.567c0.232,1.155 0.202,2.361 -0.087,3.503c-0.192,0.76 -0.5,1.491 -0.912,2.159c-0.389,0.628 -0.87,1.199 -1.426,1.686c-0.627,0.547 -1.348,0.987 -2.125,1.286c-0.862,0.332 -1.789,0.488 -2.712,0.456c-0.873,-0.03 -1.737,-0.227 -2.538,-0.575c-0.687,-0.299 -1.325,-0.709 -1.886,-1.205c-0.486,-0.43 -0.915,-0.923 -1.275,-1.463c-0.511,-0.767 -0.882,-1.626 -1.095,-2.523c-0.292,-1.235 -0.282,-2.539 0.029,-3.77c0.177,-0.702 0.453,-1.38 0.82,-2.005c0.374,-0.638 0.842,-1.221 1.386,-1.721c0.612,-0.562 1.321,-1.019 2.089,-1.337c0.591,-0.246 1.216,-0.409 1.851,-0.482c0.217,-0.025 0.434,-0.04 0.652,-0.044c0.094,-0.002 0.188,-0.001 0.282,0c0.095,0.003 0.095,0.003 0.189,0.007ZM88.346,70.229c-0.112,-0.001 -0.224,0.008 -0.334,0.032c-0.077,0.016 -0.153,0.039 -0.227,0.067c-0.063,0.024 -0.125,0.053 -0.185,0.085c-0.433,0.234 -0.748,0.651 -0.911,1.11c-0.254,0.713 -0.164,1.546 0.258,2.177c0.051,0.078 0.108,0.152 0.169,0.222c0.078,0.09 0.165,0.174 0.258,0.249c0.141,0.113 0.299,0.206 0.469,0.269c0.15,0.056 0.308,0.089 0.467,0.097c0.107,0.005 0.214,-0.001 0.319,-0.019c0.083,-0.014 0.166,-0.036 0.246,-0.064c0.064,-0.023 0.126,-0.05 0.186,-0.081c0.46,-0.233 0.792,-0.672 0.957,-1.154c0.243,-0.708 0.15,-1.527 -0.267,-2.152c-0.056,-0.084 -0.118,-0.164 -0.185,-0.24c-0.079,-0.089 -0.166,-0.171 -0.26,-0.245c-0.131,-0.102 -0.277,-0.187 -0.432,-0.248c-0.143,-0.055 -0.293,-0.088 -0.445,-0.101c-0.028,-0.002 -0.055,-0.003 -0.083,-0.004Z" style="fill:#f9d6ce;fill-rule:nonzero;"/><path d="M93.727,64.02c1.865,0.167 3.275,1.783 3.146,3.608c-0.129,1.824 -1.749,3.169 -3.614,3.003c-1.865,-0.167 -3.274,-1.784 -3.145,-3.608c0.129,-1.825 1.748,-3.17 3.613,-3.003Z" style="fill:#dffaf1;"/><path d="M58.408,59.094c1.774,0.159 3.115,1.697 2.992,3.432c-0.123,1.736 -1.663,3.016 -3.437,2.857c-1.775,-0.158 -3.116,-1.696 -2.993,-3.432c0.123,-1.735 1.663,-3.015 3.438,-2.857Z" style="fill:#dffaf1;"/></g></svg>