<?xml version="1.0" standalone="no"?><!DOCTYPE svg PUBLIC "-//W3C//DTD SVG 1.1//EN" "http://www.w3.org/Graphics/SVG/1.1/DTD/svg11.dtd"><svg width="100%" height="100%" viewBox="0 0 103 89" version="1.1" xmlns="http://www.w3.org/2000/svg" xmlns:xlink="http://www.w3.org/1999/xlink" xml:space="preserve" style="fill-rule:evenodd;clip-rule:evenodd;stroke-linejoin:round;stroke-miterlimit:1.41421;"><g><path d="M67.708,16.956c0.652,-0.938 19.896,31.603 18.555,31.982c-15.171,4.288 -35.859,11.304 -38.711,11.532c-0.902,0.073 -9.639,-6.522 -7.569,-15.061c0,0 25.398,-25.1 27.725,-28.453Z" style="fill:#fceee6;"/><path d="M42.541,57.85l40.81,-15.837l-10.667,-18.906l-33.02,28.714l2.877,6.029Z" style="fill:#f4d8cf;"/><path d="M38.332,80.22l-9.322,-9.469l-12.659,-0.448l5.264,-11.939l-4.014,-12.873l12.576,2.09l10.178,-7.508l2.508,13.231l10.305,8.232l-11.026,6.087l-3.81,12.597Z" style="fill:#bcdbc3;"/></g></svg>