<?xml version="1.0" standalone="no"?><!DOCTYPE svg PUBLIC "-//W3C//DTD SVG 1.1//EN" "http://www.w3.org/Graphics/SVG/1.1/DTD/svg11.dtd"><svg width="100%" height="100%" viewBox="0 0 197 246" version="1.1" xmlns="http://www.w3.org/2000/svg" xmlns:xlink="http://www.w3.org/1999/xlink" xml:space="preserve" style="fill-rule:evenodd;clip-rule:evenodd;stroke-linejoin:round;stroke-miterlimit:1.41421;"><g><path d="M164.373,-1.975c0,0 -18.554,8.471 -11.488,37.032c3.771,15.243 27.772,35.325 37.055,64.864c18.07,57.496 -21.863,112.798 -43.637,125.76c-16.608,9.886 -58.38,13.794 -73.351,12.362c-49.644,-4.75 -90.949,-58.214 -62.568,-117.121c7.656,-15.89 26.176,-25.524 41.661,-31.1c1.178,-0.424 17.841,-7.111 19.47,0.369c1.678,7.704 -3.79,8.832 -10.851,12.682c-14.838,8.09 -18.08,21.789 -18.225,29.697c-0.145,7.908 9.192,43.771 9.192,43.771l25.04,7.087l27.146,-8.766l23.96,-35.13l-7.203,-54.999l-37.819,-84.785l42.313,-1.07l17.981,-0.44l21.324,-0.213Z" style="fill:#280f25;"/><path d="M73.558,-0.545c0.103,-2.075 -22.08,38.326 5.903,58.637c29.352,21.304 42.209,53.18 41.088,72.101c-0.393,6.633 0.409,44.337 -36.671,45.876c-43.8,1.817 -40.12,-42.265 -40.12,-42.265c0.541,-13.691 4.834,-20.184 4.019,-19.283c-0.786,0.87 -7.403,12.488 -10.659,19.95c-10.483,24.028 1.265,54.553 33.916,59.357c25.66,3.775 71.526,-2.021 79.903,-55.369c5.078,-32.331 -18.795,-58.647 -20.441,-60.68c-22.967,-28.366 -32.282,-65.895 -10.368,-79.013c1.253,-0.75 -46.57,0.689 -46.57,0.689Z" style="fill:#b4dfc3;"/><path d="M92.592,206.913c-1.191,0.145 -2.384,0.268 -3.579,0.361c-1.524,0.118 -3.051,0.189 -4.578,0.214l-0.726,0.164c-0.552,0.389 -0.773,0.428 -1.103,1.124c-0.12,0.254 -0.204,0.538 -0.244,0.825c-0.081,0.584 0.015,1.183 0.27,1.691c0.125,0.251 0.291,0.478 0.481,0.662c0.191,0.184 0.412,0.331 0.645,0.427c0.232,0.096 0.484,0.104 0.729,0.14c0.068,0.01 0.138,-0.002 0.207,-0.004c0.09,-0.001 0.181,-0.003 0.271,-0.005c0.542,-0.012 1.083,-0.029 1.624,-0.053c1.437,-0.062 2.872,-0.164 4.305,-0.304c0.712,-0.069 1.423,-0.15 2.134,-0.236l0.144,-0.018c0.618,-0.211 0.84,-0.183 1.308,-0.757c0.171,-0.209 0.313,-0.458 0.414,-0.725c0.1,-0.266 0.162,-0.557 0.179,-0.848c0.017,-0.29 -0.009,-0.589 -0.077,-0.869c-0.137,-0.568 -0.44,-1.061 -0.854,-1.392c-0.558,-0.445 -0.77,-0.362 -1.412,-0.414c-0.046,0.005 -0.092,0.011 -0.138,0.017ZM62.567,204.587c-0.533,0.427 -0.751,0.482 -1.046,1.199c-0.108,0.263 -0.177,0.551 -0.203,0.841c-0.051,0.589 0.074,1.18 0.354,1.669c0.138,0.241 0.314,0.457 0.513,0.627c0.2,0.171 0.442,0.257 0.665,0.382c0.015,0.008 0.032,0.01 0.048,0.016c0.045,0.015 0.09,0.03 0.135,0.045c0.09,0.03 0.18,0.059 0.27,0.089c0.54,0.176 1.081,0.344 1.624,0.504c1.439,0.425 2.89,0.794 4.35,1.11c0.681,0.147 1.363,0.281 2.047,0.406l0.095,0.017c0.643,-0.018 0.851,0.076 1.427,-0.339c0.21,-0.151 0.401,-0.349 0.555,-0.577c0.154,-0.227 0.276,-0.491 0.356,-0.767c0.16,-0.56 0.149,-1.17 -0.032,-1.721c-0.09,-0.271 -0.221,-0.528 -0.384,-0.746c-0.162,-0.219 -0.36,-0.406 -0.576,-0.546c-0.216,-0.14 -0.465,-0.192 -0.699,-0.28c-0.029,-0.011 -0.061,-0.011 -0.091,-0.016c-0.043,-0.008 -0.086,-0.016 -0.129,-0.024c-0.129,-0.023 -0.257,-0.047 -0.386,-0.072c-0.171,-0.033 -0.342,-0.066 -0.514,-0.1c-1.157,-0.233 -2.31,-0.498 -3.456,-0.801c-1.151,-0.304 -2.293,-0.648 -3.428,-1.025l-0.044,-0.015l-0.735,-0.089c-0.239,0.071 -0.477,0.142 -0.716,0.213ZM113.134,201.878c-0.185,0.067 -0.371,0.133 -0.557,0.199c-0.229,0.081 -0.459,0.162 -0.689,0.242c-1.085,0.375 -2.173,0.735 -3.266,1.075c-1.184,0.368 -2.373,0.713 -3.565,1.038l-0.681,0.341c-0.471,0.519 -0.68,0.612 -0.878,1.375c-0.072,0.278 -0.104,0.576 -0.091,0.867c0.025,0.591 0.225,1.152 0.565,1.585c0.168,0.213 0.37,0.394 0.589,0.526c0.22,0.133 0.462,0.22 0.706,0.256c0.245,0.036 0.493,-0.018 0.738,-0.045c0.077,-0.009 0.151,-0.041 0.226,-0.062c0.083,-0.023 0.167,-0.046 0.25,-0.069c0.499,-0.138 0.996,-0.279 1.493,-0.425c1.389,-0.406 2.772,-0.842 4.148,-1.305c0.637,-0.215 1.273,-0.436 1.907,-0.662l0.236,-0.085l0.105,-0.037l0.658,-0.397c0.169,-0.213 0.371,-0.394 0.505,-0.639c0.135,-0.244 0.235,-0.52 0.29,-0.804c0.114,-0.576 0.052,-1.181 -0.174,-1.709c-0.111,-0.259 -0.263,-0.499 -0.443,-0.698c-0.492,-0.544 -0.712,-0.502 -1.338,-0.673c-0.245,0.035 -0.489,0.07 -0.734,0.106ZM43.51,193.731c-0.204,0.164 -0.435,0.288 -0.611,0.492c-0.177,0.203 -0.325,0.447 -0.433,0.709c-0.107,0.263 -0.176,0.551 -0.201,0.841c-0.051,0.589 0.075,1.18 0.356,1.669c0.139,0.24 0.339,0.423 0.515,0.625c0.034,0.039 0.076,0.065 0.114,0.097c0.082,0.07 0.164,0.14 0.247,0.209c0.451,0.38 0.907,0.752 1.366,1.118c1.195,0.949 2.417,1.849 3.664,2.698c0.678,0.461 1.364,0.906 2.056,1.338l0.03,0.019c0.613,0.23 0.784,0.399 1.442,0.228c0.489,-0.126 0.924,-0.452 1.23,-0.921c0.151,-0.231 0.269,-0.497 0.344,-0.774c0.075,-0.278 0.109,-0.575 0.099,-0.866c-0.009,-0.291 -0.063,-0.585 -0.157,-0.854c-0.093,-0.27 -0.228,-0.523 -0.394,-0.738c-0.166,-0.216 -0.388,-0.358 -0.584,-0.534c-0.008,-0.007 -0.018,-0.011 -0.026,-0.016c-0.04,-0.025 -0.08,-0.05 -0.12,-0.075c-0.081,-0.05 -0.161,-0.101 -0.241,-0.151c-0.16,-0.102 -0.32,-0.204 -0.479,-0.307c-1.006,-0.653 -1.996,-1.338 -2.967,-2.059c-1.029,-0.763 -2.037,-1.567 -3.024,-2.404l-0.11,-0.093c-0.661,-0.378 -0.669,-0.38 -1.4,-0.467c-0.239,0.072 -0.477,0.144 -0.716,0.216ZM132.553,192.732c-0.203,0.12 -0.406,0.239 -0.609,0.358c-0.227,0.132 -0.455,0.264 -0.683,0.395c-1.006,0.576 -2.019,1.136 -3.038,1.68c-1.075,0.573 -2.158,1.127 -3.246,1.665l-0.031,0.016c-0.542,0.41 -0.762,0.457 -1.072,1.165c-0.114,0.259 -0.19,0.545 -0.222,0.834c-0.065,0.587 0.046,1.182 0.315,1.68c0.132,0.246 0.304,0.466 0.499,0.643c0.196,0.177 0.421,0.315 0.656,0.402c0.235,0.087 0.486,0.126 0.732,0.113c0.246,-0.014 0.481,-0.125 0.721,-0.191c0.012,-0.003 0.023,-0.011 0.035,-0.017c0.067,-0.034 0.135,-0.067 0.203,-0.1c0.067,-0.034 0.134,-0.067 0.202,-0.101c0.533,-0.265 1.064,-0.535 1.593,-0.809c1.934,-0.999 3.846,-2.055 5.735,-3.168l0.108,-0.064c0.517,-0.454 0.733,-0.519 1.001,-1.251c0.098,-0.267 0.158,-0.559 0.173,-0.85c0.03,-0.591 -0.116,-1.175 -0.414,-1.65c-0.146,-0.234 -0.33,-0.44 -0.535,-0.6c-0.562,-0.439 -0.773,-0.354 -1.415,-0.4c-0.236,0.084 -0.472,0.167 -0.708,0.25ZM28.535,175.996c-0.2,0.171 -0.428,0.303 -0.599,0.513c-0.172,0.209 -0.314,0.458 -0.415,0.724c-0.204,0.54 -0.242,1.148 -0.105,1.717c0.067,0.28 0.214,0.524 0.322,0.786c0.002,0.004 0.004,0.007 0.007,0.01c0.032,0.054 0.065,0.107 0.098,0.16c0.066,0.107 0.132,0.214 0.198,0.32c0.336,0.539 0.678,1.073 1.026,1.602c0.868,1.322 1.771,2.612 2.703,3.871c0.487,0.658 0.982,1.307 1.483,1.949l0.058,0.075c0.512,0.459 0.625,0.685 1.294,0.784c0.244,0.036 0.498,0.021 0.738,-0.044c0.487,-0.132 0.92,-0.462 1.223,-0.934c0.149,-0.232 0.265,-0.5 0.338,-0.778c0.072,-0.278 0.104,-0.576 0.092,-0.867c-0.012,-0.291 -0.068,-0.584 -0.163,-0.852c-0.096,-0.269 -0.263,-0.492 -0.4,-0.734c-0.015,-0.027 -0.037,-0.047 -0.055,-0.07c-0.04,-0.051 -0.08,-0.103 -0.12,-0.154c-0.08,-0.103 -0.16,-0.206 -0.239,-0.309c-0.119,-0.154 -0.237,-0.308 -0.354,-0.462c-0.795,-1.048 -1.572,-2.116 -2.324,-3.208c-0.742,-1.08 -1.46,-2.183 -2.152,-3.308l-0.003,-0.005c-0.461,-0.529 -0.551,-0.771 -1.204,-0.964c-0.239,-0.071 -0.491,-0.042 -0.737,-0.062c-0.237,0.08 -0.473,0.16 -0.71,0.24ZM150.277,177.883c-0.232,0.097 -0.482,0.148 -0.697,0.292c-0.214,0.144 -0.381,0.369 -0.57,0.557c-0.011,0.011 -0.019,0.026 -0.029,0.039c-0.027,0.038 -0.055,0.077 -0.083,0.115c-0.082,0.113 -0.165,0.225 -0.247,0.338c-0.109,0.147 -0.218,0.293 -0.327,0.439c-0.623,0.829 -1.263,1.639 -1.929,2.421c-0.481,0.565 -0.975,1.115 -1.488,1.64c-0.533,0.545 -1.091,1.054 -1.658,1.546l-0.011,0.01c-0.446,0.548 -0.65,0.655 -0.813,1.429c-0.059,0.283 -0.077,0.582 -0.051,0.872c0.026,0.29 0.096,0.578 0.204,0.84c0.108,0.261 0.257,0.504 0.435,0.706c0.36,0.41 0.83,0.656 1.329,0.696c0.246,0.02 0.498,-0.012 0.735,-0.093c0.236,-0.081 0.443,-0.256 0.664,-0.385c0.005,-0.003 0.01,-0.009 0.015,-0.014c0.032,-0.027 0.064,-0.055 0.096,-0.082c0.062,-0.055 0.124,-0.109 0.187,-0.164c0.432,-0.381 0.858,-0.773 1.273,-1.181c0.752,-0.738 1.467,-1.53 2.158,-2.346c0.955,-1.127 1.863,-2.307 2.741,-3.517l0.032,-0.044c0.125,-0.251 0.289,-0.48 0.375,-0.753c0.086,-0.273 0.133,-0.569 0.135,-0.86c0.005,-0.591 -0.167,-1.166 -0.484,-1.622c-0.157,-0.225 -0.35,-0.419 -0.562,-0.567c-0.212,-0.148 -0.461,-0.204 -0.692,-0.305c-0.246,-0.003 -0.492,-0.005 -0.738,-0.007ZM160.948,156.823c-0.199,0.171 -0.427,0.304 -0.598,0.513c-0.171,0.21 -0.282,0.479 -0.414,0.725c-0.025,0.046 -0.037,0.099 -0.056,0.149c-0.051,0.134 -0.103,0.268 -0.154,0.403c-0.077,0.2 -0.155,0.4 -0.233,0.6c-0.489,1.243 -1.001,2.474 -1.537,3.689c-0.57,1.294 -1.169,2.57 -1.791,3.83l-0.016,0.033c-0.224,0.713 -0.375,0.907 -0.264,1.693c0.041,0.287 0.126,0.57 0.248,0.823c0.247,0.514 0.639,0.909 1.107,1.114c0.231,0.102 0.48,0.156 0.727,0.157c0.246,0.002 0.496,-0.048 0.728,-0.146c0.232,-0.098 0.453,-0.247 0.643,-0.433c0.19,-0.186 0.321,-0.442 0.479,-0.666c0.008,-0.011 0.012,-0.024 0.018,-0.037c0.031,-0.062 0.061,-0.124 0.092,-0.186c0.031,-0.062 0.061,-0.124 0.092,-0.186c0.277,-0.567 0.55,-1.137 0.817,-1.711c0.707,-1.513 1.378,-3.049 2.013,-4.606c0.313,-0.768 0.616,-1.541 0.912,-2.318l0.058,-0.154c0.06,-0.283 0.163,-0.558 0.18,-0.848c0.036,-0.591 -0.105,-1.177 -0.398,-1.655c-0.145,-0.236 -0.327,-0.444 -0.531,-0.607c-0.204,-0.163 -0.435,-0.285 -0.674,-0.356c-0.239,-0.071 -0.491,-0.041 -0.737,-0.061c-0.237,0.08 -0.474,0.16 -0.711,0.241ZM20.433,153.018c-0.217,0.138 -0.457,0.233 -0.651,0.414c-0.393,0.366 -0.665,0.884 -0.768,1.463c-0.05,0.286 -0.02,0.583 -0.024,0.874c0,0.034 0.009,0.068 0.013,0.102c0.006,0.049 0.012,0.098 0.018,0.147c0.012,0.095 0.026,0.201 0.038,0.296c0.085,0.645 0.182,1.288 0.291,1.927c0.286,1.679 0.655,3.337 1.097,4.967c0.251,0.926 0.527,1.842 0.823,2.749l0.023,0.071c0.334,0.649 0.369,0.91 0.96,1.292c0.215,0.139 0.456,0.235 0.699,0.279c0.243,0.044 0.497,0.037 0.739,-0.02c0.49,-0.117 0.93,-0.434 1.243,-0.896c0.154,-0.227 0.276,-0.491 0.356,-0.767c0.079,-0.276 0.117,-0.573 0.112,-0.864c-0.006,-0.291 -0.093,-0.572 -0.144,-0.857c-0.004,-0.022 -0.014,-0.042 -0.021,-0.062c-0.015,-0.046 -0.03,-0.092 -0.045,-0.139c-0.03,-0.092 -0.059,-0.184 -0.089,-0.276c-0.043,-0.138 -0.086,-0.275 -0.129,-0.413c-0.126,-0.409 -0.248,-0.82 -0.363,-1.233c-0.239,-0.849 -0.455,-1.707 -0.647,-2.571c-0.214,-0.965 -0.399,-1.94 -0.551,-2.921c-0.068,-0.435 -0.129,-0.871 -0.184,-1.308l-0.016,-0.131l-0.012,-0.094l-0.23,-0.83c-0.152,-0.229 -0.273,-0.492 -0.456,-0.686c-0.502,-0.531 -0.721,-0.483 -1.35,-0.638c-0.244,0.042 -0.488,0.083 -0.732,0.125ZM166.544,132.606c-0.203,0.166 -0.433,0.292 -0.609,0.497c-0.175,0.204 -0.322,0.449 -0.428,0.712c-0.106,0.264 -0.137,0.56 -0.198,0.843c-0.008,0.041 -0.006,0.084 -0.01,0.126c-0.007,0.081 -0.014,0.163 -0.02,0.244c-0.015,0.163 -0.029,0.325 -0.044,0.487c-0.038,0.405 -0.078,0.809 -0.121,1.213c-0.087,0.803 -0.186,1.604 -0.297,2.402c-0.237,1.713 -0.531,3.414 -0.873,5.102l-0.044,0.872c0.182,0.729 0.16,0.992 0.649,1.539c0.179,0.201 0.39,0.366 0.616,0.481c0.226,0.116 0.473,0.186 0.719,0.203c0.245,0.017 0.497,-0.017 0.734,-0.101c0.479,-0.169 0.893,-0.532 1.169,-1.026c0.136,-0.243 0.203,-0.532 0.294,-0.802c0.019,-0.055 0.024,-0.116 0.035,-0.173c0.017,-0.083 0.033,-0.165 0.05,-0.248c0.131,-0.663 0.255,-1.328 0.372,-1.995c0.296,-1.691 0.543,-3.394 0.738,-5.105c0.099,-0.869 0.183,-1.739 0.257,-2.611l0.011,-0.135c-0.019,-0.291 0.004,-0.59 -0.058,-0.872c-0.126,-0.572 -0.418,-1.074 -0.825,-1.416c-0.2,-0.169 -0.429,-0.298 -0.667,-0.375c-0.237,-0.077 -0.49,-0.055 -0.735,-0.082c-0.238,0.073 -0.477,0.147 -0.715,0.22ZM23.788,128.678c-0.205,0.162 -0.437,0.284 -0.615,0.486c-0.178,0.201 -0.292,0.469 -0.437,0.705c-0.002,0.002 -0.003,0.006 -0.004,0.008c-0.017,0.04 -0.033,0.081 -0.05,0.121c-0.05,0.12 -0.099,0.241 -0.148,0.362c-0.229,0.564 -0.45,1.133 -0.661,1.707c-0.925,2.506 -1.677,5.102 -2.222,7.76l-0.047,0.873c0.181,0.729 0.158,0.992 0.646,1.541c0.178,0.201 0.389,0.367 0.614,0.483c0.459,0.237 0.973,0.274 1.452,0.107c0.237,-0.083 0.464,-0.216 0.662,-0.389c0.199,-0.173 0.374,-0.391 0.51,-0.634c0.137,-0.242 0.201,-0.532 0.297,-0.801c0.009,-0.026 0.011,-0.056 0.017,-0.083c0.008,-0.039 0.016,-0.079 0.024,-0.118c0.017,-0.078 0.033,-0.156 0.05,-0.234c0.034,-0.156 0.068,-0.312 0.103,-0.467c0.088,-0.389 0.181,-0.776 0.278,-1.162c0.205,-0.809 0.431,-1.61 0.677,-2.403c0.47,-1.515 1.012,-2.996 1.613,-4.444l0.002,-0.003c0.069,-0.28 0.18,-0.55 0.207,-0.84c0.027,-0.289 0.011,-0.589 -0.047,-0.872c-0.119,-0.574 -0.404,-1.081 -0.807,-1.431c-0.199,-0.172 -0.426,-0.304 -0.662,-0.386c-0.237,-0.081 -0.49,-0.063 -0.735,-0.094c-0.239,0.069 -0.478,0.138 -0.717,0.208ZM36.807,108.878c-0.208,0.157 -0.416,0.313 -0.622,0.472c-0.007,0.006 -0.013,0.014 -0.019,0.021c-0.053,0.057 -0.106,0.115 -0.158,0.173c-0.159,0.174 -0.317,0.349 -0.474,0.525c-0.474,0.53 -0.944,1.067 -1.407,1.612c-0.937,1.101 -1.85,2.231 -2.735,3.392c-0.437,0.574 -0.867,1.156 -1.291,1.745l-0.375,0.754c-0.117,0.748 -0.237,0.97 -0.012,1.721c0.083,0.275 0.208,0.536 0.364,0.76c0.157,0.224 0.35,0.419 0.562,0.566c0.213,0.147 0.45,0.252 0.692,0.304c0.492,0.107 1,0.005 1.435,-0.287c0.214,-0.144 0.385,-0.364 0.57,-0.558c0.044,-0.046 0.076,-0.105 0.114,-0.158c0.045,-0.063 0.091,-0.125 0.136,-0.187c0.091,-0.124 0.181,-0.248 0.272,-0.372c0.274,-0.37 0.55,-0.738 0.83,-1.103c0.511,-0.666 1.032,-1.321 1.562,-1.967c0.622,-0.758 1.258,-1.501 1.904,-2.231c0.296,-0.335 0.595,-0.666 0.895,-0.995l0.015,-0.016c0.39,-0.605 0.582,-0.739 0.669,-1.53c0.032,-0.289 0.02,-0.589 -0.034,-0.873c-0.053,-0.284 -0.151,-0.561 -0.284,-0.806c-0.269,-0.498 -0.678,-0.867 -1.156,-1.043c-0.235,-0.087 -0.488,-0.074 -0.732,-0.111c-0.241,0.064 -0.481,0.128 -0.721,0.192ZM164.343,107.789c-0.196,0.177 -0.421,0.316 -0.588,0.531c-0.339,0.435 -0.538,0.997 -0.562,1.588c-0.012,0.291 0.059,0.579 0.093,0.867c0.003,0.026 0.013,0.05 0.02,0.075c0.011,0.044 0.023,0.088 0.034,0.132c0.034,0.131 0.068,0.262 0.101,0.393c0.044,0.175 0.087,0.349 0.13,0.524c0.336,1.379 0.633,2.771 0.885,4.176c0.239,1.327 0.437,2.665 0.6,4.009l0.012,0.103c0.199,0.723 0.182,0.987 0.683,1.519c0.183,0.195 0.398,0.353 0.627,0.462c0.228,0.109 0.476,0.171 0.722,0.18c0.5,0.02 0.99,-0.169 1.384,-0.534c0.194,-0.18 0.364,-0.403 0.494,-0.651c0.131,-0.247 0.226,-0.525 0.277,-0.81c0.051,-0.285 0.022,-0.583 0.026,-0.874c0,-0.037 -0.009,-0.073 -0.013,-0.109c-0.017,-0.14 -0.034,-0.28 -0.052,-0.419c-0.082,-0.655 -0.173,-1.309 -0.272,-1.961c-0.26,-1.707 -0.578,-3.402 -0.954,-5.079c-0.192,-0.857 -0.399,-1.709 -0.62,-2.556l-0.021,-0.081c-0.113,-0.259 -0.19,-0.545 -0.339,-0.776c-0.303,-0.47 -0.736,-0.799 -1.224,-0.929c-0.24,-0.064 -0.492,-0.027 -0.737,-0.04c-0.236,0.087 -0.471,0.174 -0.706,0.26ZM53.824,94.307c-0.793,0.521 -1.577,1.057 -2.356,1.606c-1.675,1.183 -3.318,2.43 -4.93,3.73l-0.117,0.095c-0.46,0.532 -0.666,0.632 -0.848,1.4c-0.067,0.281 -0.092,0.579 -0.074,0.87c0.038,0.59 0.25,1.145 0.6,1.567c0.172,0.208 0.378,0.383 0.6,0.509c0.222,0.126 0.466,0.206 0.711,0.235c0.245,0.028 0.498,0.005 0.737,-0.068c0.238,-0.072 0.451,-0.233 0.673,-0.361c0.041,-0.024 0.076,-0.061 0.114,-0.092c0.049,-0.04 0.099,-0.08 0.148,-0.12c0.099,-0.079 0.197,-0.158 0.296,-0.237c0.147,-0.117 0.295,-0.234 0.442,-0.351c0.853,-0.671 1.714,-1.327 2.585,-1.964c1.137,-0.833 2.289,-1.635 3.457,-2.405l0.022,-0.014c0.5,-0.479 0.713,-0.556 0.955,-1.3c0.179,-0.553 0.189,-1.162 0.026,-1.721c-0.08,-0.276 -0.203,-0.538 -0.357,-0.764c-0.155,-0.227 -0.347,-0.423 -0.558,-0.573c-0.577,-0.41 -0.785,-0.314 -1.428,-0.327c-0.233,0.095 -0.465,0.19 -0.698,0.285ZM154.373,85.734c-0.195,0.179 -0.418,0.321 -0.583,0.537c-0.166,0.217 -0.301,0.471 -0.394,0.741c-0.188,0.549 -0.207,1.158 -0.054,1.721c0.076,0.277 0.225,0.518 0.345,0.772c0.022,0.045 0.054,0.082 0.081,0.123c0.088,0.133 0.174,0.266 0.261,0.399c0.114,0.177 0.228,0.355 0.342,0.533c0.664,1.046 1.308,2.111 1.927,3.196c0.695,1.219 1.357,2.462 1.987,3.729l0.027,0.055c0.416,0.579 0.486,0.83 1.12,1.097c0.232,0.097 0.482,0.147 0.729,0.145c0.246,-0.002 0.495,-0.057 0.726,-0.158c0.469,-0.207 0.862,-0.602 1.109,-1.117c0.122,-0.253 0.208,-0.536 0.249,-0.823c0.041,-0.288 0.04,-0.588 -0.005,-0.874c-0.044,-0.287 -0.168,-0.548 -0.256,-0.819c-0.007,-0.022 -0.02,-0.04 -0.03,-0.06c-0.024,-0.048 -0.047,-0.096 -0.071,-0.143c-0.048,-0.096 -0.095,-0.191 -0.143,-0.286c-0.291,-0.575 -0.587,-1.146 -0.89,-1.712c-0.753,-1.405 -1.544,-2.781 -2.37,-4.127c-0.44,-0.717 -0.891,-1.425 -1.35,-2.126l-0.084,-0.128c-0.477,-0.509 -0.573,-0.747 -1.232,-0.913c-0.241,-0.061 -0.492,-0.021 -0.738,-0.031c-0.235,0.089 -0.469,0.179 -0.703,0.269ZM139.746,67.795c-0.219,0.133 -0.461,0.224 -0.657,0.4c-0.197,0.176 -0.369,0.396 -0.503,0.641c-0.272,0.497 -0.387,1.091 -0.325,1.678c0.03,0.289 0.105,0.576 0.217,0.835c0.112,0.259 0.293,0.468 0.446,0.697c0.018,0.028 0.044,0.048 0.066,0.072c0.08,0.088 0.161,0.176 0.241,0.264c0.244,0.266 0.488,0.53 0.733,0.794c0.67,0.72 1.344,1.433 2.024,2.14c0.476,0.494 0.955,0.983 1.433,1.475c0.168,0.174 0.336,0.349 0.504,0.525c0.451,0.474 0.899,0.953 1.342,1.437l0.622,0.471c0.627,0.166 0.81,0.317 1.453,0.079c0.478,-0.177 0.888,-0.547 1.158,-1.045c0.133,-0.245 0.231,-0.522 0.285,-0.807c0.054,-0.284 0.066,-0.584 0.035,-0.873c-0.031,-0.289 -0.106,-0.575 -0.219,-0.834c-0.113,-0.259 -0.292,-0.468 -0.448,-0.694c-0.033,-0.049 -0.076,-0.084 -0.115,-0.126c-0.042,-0.046 -0.085,-0.092 -0.127,-0.138c-0.127,-0.139 -0.255,-0.276 -0.383,-0.414c-0.389,-0.416 -0.78,-0.829 -1.174,-1.237c-0.348,-0.361 -0.698,-0.718 -1.047,-1.077c-0.17,-0.175 -0.339,-0.35 -0.509,-0.526c-0.497,-0.518 -0.993,-1.039 -1.486,-1.565c-0.479,-0.511 -0.955,-1.027 -1.43,-1.545l-0.062,-0.069c-0.617,-0.471 -0.625,-0.474 -1.341,-0.667c-0.244,0.036 -0.488,0.073 -0.733,0.109ZM125.327,49.216c-0.201,0.167 -0.431,0.296 -0.605,0.502c-0.174,0.206 -0.32,0.452 -0.424,0.717c-0.212,0.536 -0.257,1.143 -0.128,1.715c0.064,0.281 0.203,0.53 0.312,0.791c0.018,0.042 0.046,0.077 0.069,0.116c0.089,0.151 0.179,0.302 0.27,0.452c0.323,0.537 0.651,1.069 0.984,1.597c0.853,1.352 1.737,2.677 2.647,3.976c0.452,0.647 0.911,1.285 1.375,1.92l0.04,0.054c0.499,0.478 0.607,0.709 1.272,0.833c0.243,0.045 0.497,0.04 0.739,-0.016c0.491,-0.113 0.932,-0.428 1.247,-0.888c0.155,-0.227 0.278,-0.489 0.359,-0.765c0.08,-0.276 0.12,-0.572 0.116,-0.863c-0.004,-0.292 -0.053,-0.586 -0.141,-0.858c-0.088,-0.272 -0.251,-0.501 -0.38,-0.749c-0.01,-0.018 -0.024,-0.032 -0.036,-0.049c-0.056,-0.077 -0.113,-0.154 -0.169,-0.231c-0.056,-0.077 -0.112,-0.154 -0.167,-0.23c-0.111,-0.153 -0.221,-0.306 -0.331,-0.46c-0.27,-0.378 -0.539,-0.757 -0.805,-1.138c-0.512,-0.737 -1.016,-1.482 -1.51,-2.236c-0.47,-0.718 -0.932,-1.444 -1.383,-2.178c-0.217,-0.354 -0.432,-0.711 -0.645,-1.069l-0.065,-0.109c-0.174,-0.206 -0.32,-0.45 -0.522,-0.617c-0.551,-0.457 -0.765,-0.379 -1.405,-0.444c-0.238,0.076 -0.476,0.151 -0.714,0.227ZM117.513,26.124c-0.221,0.128 -0.465,0.212 -0.664,0.383c-0.405,0.349 -0.693,0.854 -0.814,1.429c-0.06,0.282 -0.035,0.581 -0.052,0.871c0.008,0.093 0.016,0.186 0.025,0.278c0.043,0.452 0.092,0.903 0.15,1.352c0.134,1.061 0.309,2.114 0.518,3.157c0.263,1.312 0.582,2.607 0.948,3.883c0.164,0.572 0.338,1.14 0.52,1.704l0.378,0.75c0.498,0.479 0.605,0.711 1.27,0.837c0.244,0.046 0.497,0.041 0.739,-0.014c0.242,-0.055 0.479,-0.162 0.691,-0.312c0.429,-0.304 0.754,-0.777 0.919,-1.336c0.081,-0.275 0.121,-0.572 0.118,-0.863c-0.004,-0.291 -0.086,-0.574 -0.139,-0.858c-0.01,-0.055 -0.034,-0.106 -0.051,-0.159c-0.018,-0.057 -0.037,-0.115 -0.055,-0.173c-0.036,-0.115 -0.072,-0.23 -0.107,-0.346c-0.138,-0.45 -0.271,-0.903 -0.396,-1.358c-0.264,-0.964 -0.498,-1.939 -0.696,-2.925c-0.182,-0.907 -0.334,-1.822 -0.451,-2.743c-0.055,-0.434 -0.101,-0.869 -0.142,-1.305l-0.008,-0.099c-0.068,-0.28 -0.096,-0.578 -0.204,-0.84c-0.218,-0.532 -0.589,-0.955 -1.045,-1.195c-0.225,-0.118 -0.478,-0.14 -0.717,-0.211c-0.245,0.031 -0.49,0.062 -0.735,0.093ZM124.575,3.459l-0.654,0.406c-0.036,0.032 -0.071,0.065 -0.107,0.099c-0.384,0.369 -0.749,0.766 -1.101,1.177c-0.438,0.513 -0.855,1.05 -1.254,1.607c-0.961,1.344 -1.811,2.8 -2.539,4.336c-0.252,0.53 -0.488,1.071 -0.711,1.618l-0.016,0.041c-0.172,0.734 -0.308,0.943 -0.139,1.714c0.062,0.282 0.167,0.555 0.306,0.795c0.14,0.239 0.318,0.453 0.518,0.622c0.407,0.343 0.904,0.504 1.402,0.457c0.246,-0.023 0.491,-0.099 0.715,-0.22c0.224,-0.122 0.434,-0.292 0.609,-0.497c0.176,-0.204 0.287,-0.473 0.429,-0.712c0.006,-0.01 0.009,-0.021 0.013,-0.032c0.011,-0.027 0.022,-0.055 0.033,-0.082c0.022,-0.054 0.045,-0.108 0.067,-0.162c0.045,-0.107 0.09,-0.213 0.136,-0.32c0.166,-0.382 0.34,-0.759 0.524,-1.13c0.588,-1.189 1.266,-2.318 2.029,-3.36c0.321,-0.439 0.658,-0.863 1.012,-1.266c0.128,-0.146 0.258,-0.288 0.392,-0.427c0.087,-0.091 0.175,-0.181 0.266,-0.266l0.011,-0.009c0.433,-0.563 0.635,-0.676 0.78,-1.455c0.107,-0.578 0.039,-1.182 -0.193,-1.706c-0.114,-0.258 -0.269,-0.496 -0.45,-0.692c-0.182,-0.196 -0.396,-0.356 -0.624,-0.467c-0.228,-0.111 -0.481,-0.124 -0.722,-0.186c-0.244,0.039 -0.488,0.078 -0.732,0.117Z" style="fill:#b4dfc3;fill-rule:nonzero;"/><path d="M94.016,223.657c-1.448,0.138 -2.898,0.254 -4.349,0.342c-1.248,0.076 -2.496,0.131 -3.745,0.168l-0.162,0.005c-0.631,0.149 -0.85,0.1 -1.356,0.626c-0.186,0.192 -0.344,0.427 -0.463,0.682c-0.241,0.52 -0.319,1.122 -0.222,1.702c0.048,0.286 0.14,0.565 0.268,0.814c0.128,0.249 0.295,0.475 0.487,0.657c0.192,0.182 0.414,0.326 0.648,0.419c0.233,0.093 0.485,0.097 0.73,0.132c0.055,0.007 0.111,-0.003 0.167,-0.005c0.107,-0.003 0.215,-0.006 0.322,-0.01c0.537,-0.017 1.073,-0.037 1.61,-0.061c1.498,-0.068 2.994,-0.163 4.489,-0.285c0.639,-0.051 1.276,-0.109 1.914,-0.169l0.118,-0.012c0.622,-0.193 0.843,-0.159 1.323,-0.719c0.175,-0.205 0.322,-0.45 0.428,-0.714c0.214,-0.534 0.263,-1.141 0.137,-1.714c-0.063,-0.281 -0.168,-0.554 -0.308,-0.794c-0.14,-0.239 -0.318,-0.452 -0.519,-0.621c-0.549,-0.46 -0.763,-0.384 -1.403,-0.454c-0.038,0.004 -0.076,0.007 -0.114,0.011ZM64.223,222.599c-0.602,0.268 -0.825,0.261 -1.253,0.877c-0.157,0.225 -0.281,0.487 -0.363,0.762c-0.082,0.275 -0.124,0.571 -0.122,0.862c0.005,0.592 0.186,1.162 0.511,1.611c0.16,0.221 0.356,0.412 0.571,0.554c0.214,0.143 0.463,0.198 0.696,0.29c0.023,0.009 0.048,0.01 0.072,0.014c0.106,0.021 0.211,0.041 0.317,0.061c0.58,0.11 1.161,0.214 1.743,0.312c2.071,0.349 4.15,0.621 6.235,0.826l0.16,0.016l0.09,0.008l0.736,-0.082c0.581,-0.326 0.804,-0.341 1.187,-0.997c0.14,-0.24 0.246,-0.513 0.309,-0.795c0.127,-0.572 0.079,-1.179 -0.135,-1.714c-0.105,-0.263 -0.252,-0.507 -0.427,-0.712c-0.175,-0.205 -0.383,-0.375 -0.607,-0.496c-0.224,-0.122 -0.475,-0.152 -0.714,-0.221c-0.029,-0.008 -0.058,-0.005 -0.087,-0.008c-0.052,-0.005 -0.103,-0.01 -0.155,-0.015c-0.154,-0.015 -0.309,-0.031 -0.463,-0.047c-0.258,-0.026 -0.515,-0.054 -0.772,-0.082c-1.077,-0.122 -2.152,-0.26 -3.225,-0.421c-1.169,-0.175 -2.334,-0.375 -3.497,-0.6l-0.068,-0.013c-0.247,0.003 -0.493,0.007 -0.739,0.01ZM114.897,220.019c-0.285,0.071 -0.57,0.141 -0.855,0.211c-0.285,0.069 -0.57,0.138 -0.855,0.205c-0.767,0.182 -1.534,0.358 -2.303,0.528c-1.414,0.313 -2.831,0.605 -4.251,0.875l-0.698,0.287c-0.499,0.48 -0.712,0.557 -0.953,1.302c-0.088,0.273 -0.136,0.567 -0.14,0.859c-0.004,0.291 0.036,0.587 0.116,0.863c0.163,0.558 0.488,1.031 0.917,1.334c0.211,0.15 0.448,0.257 0.69,0.311c0.242,0.055 0.492,0.018 0.738,0.013c0.05,-0.001 0.099,-0.018 0.148,-0.028c0.102,-0.019 0.203,-0.039 0.304,-0.058c0.605,-0.118 1.209,-0.239 1.812,-0.363c1.389,-0.287 2.775,-0.593 4.158,-0.919c0.68,-0.16 1.359,-0.325 2.037,-0.494l0.01,-0.002c0.597,-0.285 0.82,-0.283 1.236,-0.911c0.308,-0.466 0.469,-1.046 0.452,-1.637c-0.008,-0.291 -0.06,-0.585 -0.152,-0.855c-0.091,-0.27 -0.225,-0.525 -0.39,-0.742c-0.449,-0.592 -0.672,-0.573 -1.283,-0.809c-0.246,0.01 -0.492,0.02 -0.738,0.03ZM43.778,215.411c-0.584,0.319 -0.806,0.332 -1.196,0.983c-0.142,0.238 -0.25,0.51 -0.315,0.791c-0.132,0.571 -0.089,1.178 0.12,1.715c0.103,0.265 0.247,0.511 0.42,0.718c0.174,0.206 0.4,0.34 0.603,0.503c0.025,0.02 0.053,0.03 0.08,0.045c0.047,0.026 0.094,0.052 0.142,0.078c0.189,0.105 0.379,0.208 0.569,0.31c0.523,0.282 1.05,0.555 1.579,0.821c1.302,0.654 2.621,1.26 3.953,1.82c0.594,0.25 1.191,0.49 1.79,0.723l0.036,0.014c0.637,0.107 0.829,0.24 1.455,-0.058c0.228,-0.109 0.444,-0.268 0.627,-0.463c0.373,-0.395 0.616,-0.933 0.687,-1.519c0.034,-0.288 0.026,-0.588 -0.024,-0.873c-0.051,-0.285 -0.145,-0.564 -0.275,-0.811c-0.13,-0.247 -0.3,-0.471 -0.493,-0.65c-0.194,-0.18 -0.434,-0.276 -0.652,-0.411c-0.01,-0.006 -0.021,-0.008 -0.032,-0.013c-0.047,-0.018 -0.094,-0.036 -0.141,-0.055c-0.094,-0.036 -0.189,-0.074 -0.283,-0.111c-0.188,-0.074 -0.376,-0.15 -0.563,-0.226c-1.259,-0.513 -2.507,-1.066 -3.739,-1.665c-0.951,-0.463 -1.893,-0.953 -2.825,-1.469l-0.074,-0.041l-0.712,-0.229c-0.246,0.024 -0.491,0.049 -0.737,0.073ZM135.137,213.419c-0.23,0.095 -0.461,0.189 -0.692,0.283c-0.221,0.089 -0.443,0.178 -0.665,0.266c-1.069,0.425 -2.142,0.838 -3.218,1.235c-1.131,0.417 -2.265,0.818 -3.402,1.207l-0.023,0.008c-0.578,0.334 -0.801,0.351 -1.178,1.012c-0.138,0.242 -0.241,0.516 -0.301,0.799c-0.06,0.283 -0.078,0.582 -0.052,0.872c0.051,0.588 0.277,1.136 0.636,1.547c0.177,0.202 0.387,0.37 0.612,0.488c0.225,0.118 0.471,0.191 0.717,0.211c0.418,0.034 0.663,-0.067 1.015,-0.188c0.085,-0.029 0.17,-0.058 0.255,-0.087c0.503,-0.174 1.005,-0.35 1.507,-0.529c1.369,-0.489 2.733,-0.999 4.091,-1.531c0.686,-0.269 1.37,-0.544 2.053,-0.825l0.04,-0.016c0.562,-0.372 0.783,-0.404 1.129,-1.089c0.126,-0.25 0.216,-0.531 0.263,-0.817c0.094,-0.581 0.012,-1.183 -0.232,-1.699c-0.12,-0.255 -0.28,-0.487 -0.466,-0.677c-0.51,-0.521 -0.728,-0.468 -1.36,-0.611c-0.243,0.047 -0.486,0.094 -0.729,0.141ZM26.688,200.803c-0.227,0.114 -0.474,0.184 -0.68,0.343c-0.207,0.159 -0.393,0.364 -0.541,0.597c-0.301,0.472 -0.452,1.056 -0.426,1.646c0.013,0.291 0.07,0.584 0.166,0.852c0.097,0.268 0.267,0.49 0.403,0.732c0.008,0.015 0.02,0.026 0.03,0.039c0.037,0.046 0.074,0.093 0.111,0.139c0.074,0.093 0.148,0.185 0.222,0.277c0.37,0.46 0.746,0.913 1.127,1.359c1.02,1.195 2.08,2.341 3.177,3.438c0.604,0.604 1.219,1.191 1.843,1.766l0.022,0.02c0.569,0.353 0.713,0.555 1.386,0.522c0.246,-0.012 0.494,-0.076 0.722,-0.186c0.463,-0.225 0.844,-0.636 1.077,-1.16c0.115,-0.258 0.192,-0.544 0.225,-0.832c0.034,-0.289 0.024,-0.589 -0.028,-0.874c-0.053,-0.284 -0.149,-0.562 -0.28,-0.808c-0.131,-0.246 -0.33,-0.432 -0.497,-0.646c-0.005,-0.007 -0.011,-0.011 -0.017,-0.016c-0.038,-0.035 -0.077,-0.071 -0.115,-0.106c-0.077,-0.071 -0.153,-0.142 -0.23,-0.213c-0.114,-0.107 -0.229,-0.215 -0.343,-0.323c-0.342,-0.326 -0.681,-0.655 -1.016,-0.99c-0.598,-0.598 -1.185,-1.213 -1.759,-1.843c-0.578,-0.635 -1.143,-1.285 -1.696,-1.951c-0.278,-0.335 -0.552,-0.674 -0.823,-1.016l-0.026,-0.034c-0.587,-0.522 -0.594,-0.526 -1.297,-0.779c-0.246,0.016 -0.491,0.031 -0.737,0.047ZM153.672,201.985c-0.203,0.165 -0.407,0.328 -0.608,0.497c-0.016,0.014 -0.028,0.033 -0.042,0.049c-0.027,0.031 -0.053,0.063 -0.08,0.094c-0.079,0.091 -0.157,0.181 -0.236,0.272c-0.101,0.115 -0.203,0.23 -0.305,0.344c-0.253,0.283 -0.509,0.563 -0.77,0.836c-0.14,0.146 -0.281,0.292 -0.425,0.432c-0.123,0.12 -0.249,0.236 -0.377,0.349c-0.253,0.226 -0.514,0.44 -0.779,0.647c-0.314,0.245 -0.634,0.481 -0.957,0.709c-0.784,0.553 -1.588,1.064 -2.401,1.554l-0.023,0.014c-0.515,0.456 -0.731,0.523 -0.997,1.256c-0.097,0.268 -0.155,0.56 -0.169,0.851c-0.014,0.291 0.016,0.589 0.087,0.868c0.145,0.566 0.453,1.054 0.871,1.377c0.206,0.159 0.439,0.277 0.679,0.344c0.24,0.066 0.493,0.082 0.738,0.048c0.244,-0.035 0.472,-0.167 0.707,-0.254c0.01,-0.004 0.019,-0.011 0.029,-0.017c0.048,-0.029 0.097,-0.059 0.145,-0.088c0.096,-0.058 0.192,-0.116 0.287,-0.175c0.456,-0.28 0.908,-0.567 1.355,-0.864c0.602,-0.4 1.197,-0.817 1.777,-1.26c0.472,-0.362 0.936,-0.741 1.381,-1.147c0.387,-0.354 0.756,-0.733 1.118,-1.12c0.453,-0.484 0.895,-0.983 1.33,-1.489l0.045,-0.053c0.372,-0.621 0.561,-0.763 0.624,-1.557c0.023,-0.29 0.002,-0.589 -0.06,-0.871c-0.126,-0.572 -0.419,-1.073 -0.827,-1.415c-0.2,-0.168 -0.43,-0.296 -0.667,-0.373c-0.237,-0.077 -0.49,-0.054 -0.735,-0.08c-0.239,0.074 -0.477,0.148 -0.715,0.222ZM14.553,180.17c-0.219,0.133 -0.461,0.223 -0.657,0.398c-0.197,0.176 -0.37,0.396 -0.504,0.641c-0.272,0.497 -0.387,1.091 -0.326,1.678c0.03,0.289 0.138,0.56 0.216,0.835c0.015,0.051 0.041,0.096 0.062,0.143c0.043,0.098 0.085,0.197 0.128,0.295c0.261,0.597 0.528,1.191 0.8,1.782c0.657,1.427 1.347,2.834 2.064,4.221c0.426,0.825 0.863,1.641 1.307,2.452l0.017,0.031c0.439,0.555 0.519,0.801 1.163,1.033c0.236,0.084 0.488,0.12 0.733,0.104c0.246,-0.016 0.493,-0.084 0.72,-0.199c0.46,-0.232 0.837,-0.649 1.063,-1.177c0.112,-0.26 0.186,-0.547 0.216,-0.836c0.029,-0.289 0.016,-0.589 -0.04,-0.873c-0.09,-0.459 -0.209,-0.658 -0.385,-0.978c-0.08,-0.147 -0.16,-0.293 -0.239,-0.44c-0.105,-0.195 -0.21,-0.39 -0.315,-0.585c-0.705,-1.326 -1.387,-2.669 -2.037,-4.034c-0.508,-1.066 -0.997,-2.144 -1.468,-3.234l-0.445,-0.697c-0.616,-0.472 -0.623,-0.475 -1.339,-0.669c-0.245,0.036 -0.489,0.073 -0.734,0.109ZM167.142,182.156c-0.22,0.132 -0.463,0.22 -0.66,0.395c-0.197,0.175 -0.341,0.421 -0.506,0.638c-0.021,0.027 -0.034,0.062 -0.051,0.093c-0.04,0.072 -0.08,0.144 -0.12,0.217c-0.08,0.143 -0.16,0.287 -0.241,0.43c-0.12,0.214 -0.24,0.428 -0.36,0.641c-0.666,1.173 -1.344,2.336 -2.037,3.487c-0.655,1.089 -1.324,2.167 -2.004,3.235l-0.336,0.779c-0.078,0.755 -0.187,0.986 0.076,1.719c0.096,0.268 0.234,0.52 0.402,0.733c0.341,0.432 0.799,0.708 1.296,0.779c0.244,0.036 0.497,0.02 0.737,-0.046c0.24,-0.066 0.474,-0.184 0.681,-0.343c0.206,-0.159 0.366,-0.39 0.54,-0.596c0.002,-0.003 0.239,-0.377 0.24,-0.377c0.368,-0.582 0.734,-1.168 1.095,-1.756c0.8,-1.301 1.581,-2.617 2.346,-3.946c0.419,-0.73 0.833,-1.465 1.242,-2.202l0.054,-0.097c0.097,-0.268 0.234,-0.52 0.291,-0.804c0.056,-0.284 0.07,-0.583 0.041,-0.873c-0.059,-0.587 -0.291,-1.131 -0.656,-1.535c-0.179,-0.199 -0.391,-0.363 -0.618,-0.477c-0.226,-0.115 -0.479,-0.133 -0.719,-0.199c-0.244,0.035 -0.489,0.07 -0.733,0.105ZM176.837,160.167c-0.196,0.177 -0.422,0.315 -0.589,0.529c-0.276,0.353 -0.333,0.545 -0.454,0.883c-0.064,0.181 -0.129,0.361 -0.195,0.542c-0.065,0.18 -0.131,0.36 -0.196,0.539c-0.428,1.162 -0.869,2.316 -1.326,3.463c-0.52,1.306 -1.06,2.601 -1.615,3.886l-0.11,0.255l-0.047,0.107l-0.22,0.835c0.03,0.76 -0.044,1.009 0.319,1.679c0.133,0.245 0.305,0.465 0.501,0.642c0.398,0.357 0.89,0.538 1.389,0.509c0.246,-0.014 0.494,-0.08 0.721,-0.193c0.227,-0.113 0.441,-0.275 0.622,-0.473c0.181,-0.198 0.302,-0.46 0.447,-0.696c0.021,-0.034 0.033,-0.074 0.049,-0.112c0.039,-0.088 0.077,-0.176 0.115,-0.264c0.268,-0.62 0.533,-1.242 0.793,-1.867c0.641,-1.537 1.257,-3.088 1.847,-4.653c0.281,-0.745 0.555,-1.494 0.824,-2.245l0.055,-0.154c0.055,-0.284 0.152,-0.561 0.164,-0.852c0.013,-0.291 -0.019,-0.589 -0.091,-0.867c-0.148,-0.565 -0.459,-1.051 -0.879,-1.371c-0.207,-0.158 -0.44,-0.274 -0.68,-0.338c-0.241,-0.065 -0.492,-0.029 -0.738,-0.043c-0.236,0.087 -0.471,0.173 -0.706,0.259ZM8.467,156.229c-0.223,0.124 -0.467,0.205 -0.669,0.373c-0.408,0.342 -0.703,0.842 -0.831,1.415c-0.063,0.281 -0.046,0.58 -0.062,0.871c-0.002,0.04 0.006,0.08 0.009,0.121c0.01,0.125 0.02,0.25 0.031,0.375c0.056,0.676 0.123,1.35 0.199,2.023c0.194,1.704 0.453,3.396 0.77,5.073c0.17,0.897 0.357,1.79 0.558,2.677l0.012,0.051c0.273,0.688 0.284,0.951 0.837,1.406c0.202,0.166 0.432,0.292 0.67,0.366c0.238,0.074 0.491,0.099 0.736,0.073c0.246,-0.027 0.49,-0.106 0.713,-0.23c0.453,-0.252 0.816,-0.685 1.027,-1.222c0.103,-0.265 0.168,-0.555 0.189,-0.845c0.021,-0.291 -0.042,-0.581 -0.066,-0.871c-0.001,-0.015 -0.007,-0.03 -0.01,-0.045c-0.01,-0.041 -0.019,-0.083 -0.029,-0.124c-0.028,-0.125 -0.055,-0.249 -0.083,-0.374c-0.045,-0.206 -0.089,-0.412 -0.133,-0.619c-0.293,-1.4 -0.545,-2.812 -0.749,-4.234c-0.187,-1.309 -0.331,-2.626 -0.435,-3.949l-0.009,-0.114c-0.065,-0.281 -0.089,-0.58 -0.193,-0.843c-0.213,-0.535 -0.578,-0.964 -1.032,-1.212c-0.224,-0.122 -0.476,-0.148 -0.714,-0.222c-0.246,0.027 -0.491,0.053 -0.736,0.08ZM182.898,135.94c-0.209,0.153 -0.444,0.266 -0.629,0.46c-0.184,0.193 -0.341,0.429 -0.458,0.686c-0.117,0.256 -0.161,0.551 -0.233,0.83c-0.011,0.044 -0.011,0.091 -0.017,0.136c-0.006,0.05 -0.012,0.099 -0.018,0.148c-0.019,0.147 -0.038,0.294 -0.057,0.442c-0.033,0.245 -0.066,0.49 -0.1,0.735c-0.206,1.472 -0.445,2.936 -0.716,4.393c-0.233,1.248 -0.489,2.489 -0.765,3.725l-0.061,0.871c0.168,0.733 0.141,0.995 0.619,1.556c0.175,0.205 0.383,0.376 0.607,0.498c0.223,0.121 0.469,0.198 0.714,0.221c0.498,0.049 0.995,-0.112 1.404,-0.454c0.201,-0.168 0.38,-0.381 0.52,-0.621c0.141,-0.239 0.216,-0.525 0.31,-0.794c0.028,-0.079 0.037,-0.166 0.056,-0.249c0.022,-0.102 0.045,-0.203 0.067,-0.305c0.133,-0.61 0.262,-1.222 0.385,-1.835c0.34,-1.69 0.641,-3.391 0.899,-5.102c0.125,-0.831 0.24,-1.665 0.345,-2.5l0.017,-0.141c-0.007,-0.292 0.029,-0.589 -0.021,-0.874c-0.101,-0.579 -0.371,-1.098 -0.763,-1.464c-0.193,-0.181 -0.417,-0.323 -0.65,-0.414c-0.234,-0.091 -0.487,-0.084 -0.731,-0.126c-0.241,0.059 -0.482,0.119 -0.724,0.178ZM11.515,131.831c-0.2,0.171 -0.427,0.304 -0.599,0.513c-0.171,0.21 -0.282,0.479 -0.415,0.724c-0.023,0.044 -0.036,0.095 -0.054,0.143c-0.046,0.123 -0.087,0.234 -0.133,0.357c-0.2,0.542 -0.392,1.088 -0.576,1.638c-0.55,1.643 -1.028,3.32 -1.431,5.022c-0.144,0.61 -0.278,1.222 -0.403,1.838c-0.07,0.346 -0.137,0.694 -0.201,1.042l-0.002,0.007c-0.024,0.76 -0.116,1.001 0.199,1.705c0.115,0.258 0.271,0.494 0.453,0.689c0.183,0.196 0.398,0.355 0.626,0.464c0.228,0.11 0.476,0.172 0.722,0.183c0.5,0.021 0.99,-0.167 1.385,-0.53c0.532,-0.49 0.532,-0.754 0.774,-1.459l0,0.003c0.023,-0.126 0.047,-0.252 0.07,-0.378c0.024,-0.124 0.049,-0.249 0.073,-0.374c0.075,-0.371 0.152,-0.742 0.234,-1.111c0.2,-0.905 0.424,-1.802 0.671,-2.69c0.271,-0.977 0.571,-1.943 0.897,-2.896c0.169,-0.493 0.345,-0.981 0.527,-1.467l0.051,-0.134c0.06,-0.283 0.163,-0.557 0.181,-0.848c0.018,-0.29 -0.008,-0.589 -0.076,-0.869c-0.067,-0.28 -0.178,-0.55 -0.322,-0.786c-0.293,-0.479 -0.719,-0.82 -1.204,-0.964c-0.239,-0.071 -0.491,-0.041 -0.737,-0.062c-0.236,0.08 -0.473,0.16 -0.71,0.24ZM27.348,116.102c0.273,-0.69 0.436,-0.869 0.378,-1.663c-0.021,-0.29 -0.086,-0.58 -0.19,-0.844c-0.104,-0.264 -0.249,-0.51 -0.423,-0.716c-0.354,-0.418 -0.82,-0.675 -1.318,-0.726c-0.246,-0.026 -0.498,0.001 -0.736,0.076c-0.238,0.076 -0.447,0.247 -0.67,0.37c-0.002,0.001 -0.003,0.003 -0.004,0.004c-0.025,0.021 -0.05,0.041 -0.075,0.062c-0.025,0.021 -0.05,0.042 -0.075,0.063c-0.076,0.064 -0.152,0.129 -0.228,0.194c-0.453,0.391 -0.898,0.797 -1.334,1.215c-1.777,1.705 -3.415,3.609 -4.928,5.638l-0.007,0.009c-0.333,0.65 -0.513,0.808 -0.528,1.605c-0.005,0.291 0.033,0.588 0.112,0.863c0.16,0.561 0.483,1.036 0.91,1.342c0.21,0.151 0.447,0.259 0.688,0.316c0.242,0.057 0.495,0.063 0.739,0.018c0.243,-0.044 0.483,-0.141 0.699,-0.281c0.216,-0.141 0.385,-0.365 0.577,-0.548c0.032,-0.03 0.054,-0.073 0.081,-0.109c0.052,-0.07 0.105,-0.139 0.157,-0.209c0.078,-0.103 0.157,-0.206 0.236,-0.309c0.283,-0.366 0.57,-0.728 0.862,-1.084c0.662,-0.806 1.35,-1.584 2.063,-2.327c0.797,-0.831 1.626,-1.618 2.494,-2.343l-0.002,0.002c0.174,-0.206 0.348,-0.412 0.522,-0.618ZM182.188,110.958c-0.206,0.159 -0.439,0.278 -0.619,0.477c-0.366,0.404 -0.6,0.948 -0.66,1.535c-0.03,0.29 0.021,0.583 0.039,0.873c0.002,0.033 0.012,0.064 0.018,0.096c0.01,0.049 0.019,0.098 0.029,0.147c0.019,0.098 0.037,0.196 0.055,0.294c0.037,0.196 0.073,0.391 0.108,0.588c0.241,1.366 0.443,2.742 0.603,4.126c0.158,1.376 0.274,2.758 0.354,4.144l0.009,0.151c0.152,0.738 0.12,0.999 0.586,1.574c0.17,0.21 0.375,0.387 0.595,0.516c0.449,0.26 0.961,0.326 1.447,0.184c0.239,-0.07 0.471,-0.191 0.676,-0.353c0.205,-0.162 0.388,-0.37 0.533,-0.606c0.146,-0.235 0.258,-0.504 0.327,-0.784c0.069,-0.28 0.06,-0.579 0.08,-0.869c0.004,-0.052 -0.005,-0.105 -0.008,-0.157c-0.006,-0.107 -0.013,-0.214 -0.019,-0.32c-0.042,-0.696 -0.093,-1.39 -0.154,-2.084c-0.151,-1.718 -0.358,-3.429 -0.625,-5.127c-0.135,-0.856 -0.286,-1.709 -0.45,-2.558l-0.02,-0.104c-0.096,-0.268 -0.154,-0.559 -0.289,-0.803c-0.272,-0.496 -0.684,-0.862 -1.162,-1.034c-0.235,-0.084 -0.489,-0.07 -0.733,-0.105c-0.24,0.067 -0.48,0.133 -0.72,0.199ZM173.033,88.467c-0.196,0.176 -0.421,0.314 -0.589,0.528c-0.341,0.434 -0.541,0.995 -0.567,1.586c-0.013,0.291 0.019,0.589 0.091,0.867c0.072,0.279 0.218,0.522 0.336,0.778c0.022,0.047 0.055,0.085 0.082,0.128c0.058,0.092 0.117,0.184 0.175,0.276c0.087,0.138 0.173,0.276 0.259,0.415c0.255,0.413 0.507,0.829 0.753,1.249c0.458,0.779 0.901,1.571 1.327,2.376c0.441,0.833 0.865,1.679 1.27,2.538c0.177,0.376 0.35,0.754 0.521,1.134l0.002,0.006c0.394,0.6 0.454,0.854 1.077,1.155c0.228,0.11 0.476,0.173 0.722,0.184c0.246,0.011 0.498,-0.031 0.732,-0.12c0.235,-0.089 0.459,-0.229 0.654,-0.408c0.395,-0.363 0.67,-0.879 0.776,-1.458c0.052,-0.285 0.062,-0.585 0.029,-0.873c-0.034,-0.289 -0.15,-0.555 -0.226,-0.832c-0.001,-0.004 -0.003,-0.008 -0.005,-0.012c-0.023,-0.051 -0.046,-0.103 -0.069,-0.154c-0.047,-0.103 -0.093,-0.206 -0.14,-0.309c-0.26,-0.57 -0.527,-1.134 -0.802,-1.694c-0.739,-1.508 -1.532,-2.979 -2.373,-4.41c-0.417,-0.709 -0.846,-1.408 -1.284,-2.098l-0.086,-0.133c-0.47,-0.517 -0.564,-0.757 -1.221,-0.934c-0.24,-0.064 -0.492,-0.029 -0.738,-0.043c-0.235,0.086 -0.47,0.172 -0.706,0.258ZM158.402,70.558c-0.222,0.127 -0.465,0.211 -0.665,0.382c-0.405,0.348 -0.694,0.853 -0.816,1.427c-0.06,0.282 -0.078,0.582 -0.053,0.872c0.025,0.289 0.094,0.578 0.202,0.84c0.107,0.262 0.287,0.473 0.433,0.707c0.009,0.015 0.022,0.026 0.033,0.038c0.076,0.087 0.153,0.174 0.229,0.261c0.077,0.088 0.154,0.175 0.231,0.262c0.389,0.441 0.781,0.88 1.175,1.315c0.977,1.082 1.968,2.148 2.97,3.199c0.561,0.588 1.126,1.171 1.693,1.751l0.036,0.037c0.551,0.391 0.684,0.603 1.358,0.616c0.246,0.005 0.496,-0.042 0.729,-0.136c0.473,-0.193 0.874,-0.577 1.132,-1.084c0.127,-0.25 0.219,-0.53 0.266,-0.816c0.047,-0.286 0.052,-0.586 0.014,-0.874c-0.038,-0.288 -0.121,-0.571 -0.24,-0.826c-0.119,-0.255 -0.307,-0.455 -0.464,-0.679c-0.011,-0.016 -0.026,-0.027 -0.039,-0.041c-0.045,-0.045 -0.089,-0.091 -0.133,-0.136c-0.173,-0.177 -0.345,-0.353 -0.517,-0.53c-0.169,-0.176 -0.339,-0.351 -0.508,-0.527c-0.905,-0.942 -1.802,-1.895 -2.688,-2.862c-0.77,-0.84 -1.531,-1.692 -2.286,-2.552l-0.029,-0.034c-0.609,-0.487 -0.616,-0.491 -1.328,-0.701c-0.245,0.03 -0.49,0.06 -0.735,0.091ZM144.435,51.52c-0.206,0.16 -0.439,0.28 -0.618,0.479c-0.365,0.405 -0.598,0.949 -0.658,1.537c-0.03,0.289 -0.016,0.589 0.04,0.872c0.056,0.284 0.19,0.538 0.29,0.804c0.01,0.026 0.026,0.047 0.04,0.071c0.084,0.152 0.169,0.304 0.254,0.456c0.303,0.539 0.611,1.075 0.925,1.606c0.847,1.439 1.73,2.848 2.643,4.229c0.427,0.647 0.862,1.288 1.301,1.924l0.018,0.025c0.488,0.495 0.59,0.729 1.252,0.875c0.242,0.053 0.496,0.056 0.739,0.008c0.243,-0.047 0.482,-0.147 0.697,-0.291c0.435,-0.291 0.771,-0.754 0.947,-1.308c0.087,-0.273 0.134,-0.568 0.136,-0.859c0.003,-0.291 -0.038,-0.588 -0.12,-0.862c-0.139,-0.467 -0.307,-0.681 -0.535,-1.012c-0.053,-0.077 -0.106,-0.154 -0.159,-0.231c-0.104,-0.152 -0.208,-0.306 -0.312,-0.459c-0.255,-0.378 -0.509,-0.758 -0.76,-1.14c-0.485,-0.739 -0.961,-1.486 -1.428,-2.242c-0.489,-0.793 -0.968,-1.596 -1.434,-2.408c-0.204,-0.357 -0.405,-0.715 -0.605,-1.075l-0.036,-0.064c-0.44,-0.555 -0.519,-0.801 -1.164,-1.031c-0.236,-0.084 -0.489,-0.069 -0.733,-0.103c-0.24,0.066 -0.48,0.133 -0.72,0.199ZM136.939,28.233c-0.221,0.13 -0.464,0.218 -0.661,0.392c-0.402,0.353 -0.686,0.861 -0.803,1.437c-0.057,0.283 -0.036,0.581 -0.045,0.873c-0.001,0.049 0.01,0.098 0.015,0.148c0.011,0.113 0.023,0.23 0.035,0.344c0.068,0.644 0.149,1.286 0.243,1.926c0.264,1.811 0.626,3.601 1.071,5.362c0.216,0.851 0.452,1.695 0.703,2.532l0.005,0.019c0.319,0.66 0.348,0.922 0.93,1.322c0.213,0.147 0.451,0.25 0.693,0.302c0.492,0.104 1,0 1.434,-0.294c0.214,-0.145 0.409,-0.337 0.568,-0.559c0.16,-0.223 0.287,-0.482 0.373,-0.756c0.085,-0.273 0.13,-0.569 0.131,-0.86c0.002,-0.481 -0.074,-0.69 -0.181,-1.05c-0.018,-0.059 -0.035,-0.119 -0.053,-0.178c-0.034,-0.119 -0.069,-0.237 -0.103,-0.355c-0.116,-0.408 -0.228,-0.816 -0.335,-1.227c-0.247,-0.948 -0.467,-1.906 -0.658,-2.872c-0.177,-0.899 -0.329,-1.806 -0.452,-2.719c-0.062,-0.458 -0.116,-0.917 -0.164,-1.378l-0.015,-0.15l-0.013,-0.138l-0.21,-0.837c-0.147,-0.234 -0.261,-0.502 -0.44,-0.702c-0.489,-0.547 -0.709,-0.507 -1.335,-0.683c-0.244,0.034 -0.489,0.067 -0.733,0.101ZM142.266,4.846l-0.604,0.504c-0.031,0.038 -0.063,0.077 -0.094,0.115c-0.344,0.43 -0.665,0.886 -0.971,1.354c-0.385,0.588 -0.747,1.197 -1.088,1.822c-0.769,1.409 -1.434,2.898 -1.995,4.438c-0.209,0.573 -0.403,1.153 -0.584,1.739l-0.028,0.091c-0.11,0.75 -0.229,0.973 0.003,1.722c0.084,0.273 0.212,0.532 0.37,0.755c0.159,0.222 0.353,0.415 0.567,0.559c0.433,0.295 0.941,0.398 1.433,0.294c0.243,-0.052 0.481,-0.155 0.694,-0.302c0.213,-0.146 0.407,-0.34 0.565,-0.564c0.158,-0.224 0.249,-0.503 0.368,-0.758c0.012,-0.026 0.017,-0.055 0.025,-0.083c0.028,-0.09 0.056,-0.18 0.085,-0.269c0.037,-0.118 0.075,-0.235 0.114,-0.353c0.121,-0.365 0.249,-0.728 0.383,-1.087c0.477,-1.271 1.037,-2.501 1.686,-3.662c0.267,-0.478 0.549,-0.944 0.849,-1.393c0.117,-0.175 0.237,-0.348 0.36,-0.517c0.086,-0.118 0.174,-0.235 0.266,-0.347l0.009,-0.011c0.141,-0.239 0.319,-0.453 0.422,-0.718c0.103,-0.265 0.168,-0.555 0.189,-0.845c0.042,-0.59 -0.092,-1.178 -0.38,-1.661c-0.142,-0.238 -0.322,-0.449 -0.524,-0.615c-0.553,-0.454 -0.766,-0.375 -1.407,-0.438c-0.237,0.076 -0.475,0.153 -0.713,0.23Z" style="fill:#b4dfc3;fill-rule:nonzero;"/><path d="M129.459,100.701c-3.635,-0.066 -6.635,3.362 -6.696,7.65c-0.061,4.287 2.84,7.821 6.474,7.887c3.635,0.066 6.635,-3.362 6.696,-7.65c0.061,-4.287 -2.84,-7.822 -6.474,-7.887Z" style="fill:#dffaf1;"/><path d="M46.096,156.728c-3.635,-0.066 -6.635,3.362 -6.696,7.649c-0.061,4.288 2.84,7.822 6.474,7.888c3.635,0.065 6.635,-3.362 6.696,-7.65c0.061,-4.288 -2.84,-7.822 -6.474,-7.887Z" style="fill:#dffaf1;"/><path d="M129.235,137.509c-3.634,-0.066 -6.634,3.362 -6.695,7.649c-0.062,4.288 2.839,7.822 6.474,7.888c3.634,0.065 6.634,-3.362 6.696,-7.65c0.061,-4.287 -2.84,-7.822 -6.475,-7.887Z" style="fill:#dffaf1;"/><path d="M109.541,167.71c-3.634,-0.065 -6.635,3.362 -6.696,7.65c-0.061,4.288 2.84,7.822 6.475,7.887c3.634,0.066 6.634,-3.362 6.695,-7.649c0.061,-4.288 -2.84,-7.822 -6.474,-7.888Z" style="fill:#dffaf1;"/><path d="M75.96,175.37c-3.635,-0.066 -6.635,3.362 -6.696,7.65c-0.061,4.287 2.84,7.822 6.474,7.887c3.635,0.066 6.635,-3.362 6.696,-7.649c0.061,-4.288 -2.84,-7.822 -6.474,-7.888Z" style="fill:#dffaf1;"/><path d="M114.295,67.483c-3.635,-0.066 -6.635,3.362 -6.696,7.65c-0.061,4.287 2.84,7.821 6.474,7.887c3.634,0.066 6.635,-3.362 6.696,-7.65c0.061,-4.287 -2.84,-7.822 -6.474,-7.887Z" style="fill:#dffaf1;"/><path d="M81.406,0.268c-3.634,-0.066 -6.634,3.362 -6.695,7.65c-0.061,4.287 2.84,7.821 6.474,7.887c3.634,0.066 6.635,-3.362 6.696,-7.65c0.061,-4.287 -2.84,-7.822 -6.475,-7.887Z" style="fill:#dffaf1;"/><path d="M95.919,18.674c-3.634,-0.066 -6.635,3.362 -6.696,7.65c-0.061,4.287 2.84,7.822 6.474,7.887c3.635,0.066 6.635,-3.362 6.696,-7.65c0.061,-4.287 -2.84,-7.821 -6.474,-7.887Z" style="fill:#dffaf1;"/><path d="M91.279,43.799c-3.634,-0.066 -6.634,3.362 -6.696,7.649c-0.061,4.288 2.84,7.822 6.475,7.888c3.634,0.066 6.634,-3.362 6.695,-7.65c0.062,-4.287 -2.839,-7.822 -6.474,-7.887Z" style="fill:#dffaf1;"/></g></svg>